<svg id="f87afaed-ed43-4f25-8818-1ffd7b27af73" data-name="Layer 1" xmlns="http://www.w3.org/2000/svg" width="64.85mm" height="61.35mm" viewBox="0 0 183.81 173.9"><path d="M40.67,12.1H64.42c1.16,0,2.35.09,3.24-.92C73.33,4.83,81,3.58,88.88,2.58s15.19.75,22.64,2.7c8,2.12,16.19,3.91,24.32,5.74,3.35.76,6.32,2.07,8.55,4.77a3.72,3.72,0,0,0,2.28,1.4c20.35,4,31,17.47,35,36.75,3.37,16.39-.37,31.38-11.34,44.35a36.86,36.86,0,0,1-39.9,11c-3-1-3-1-3,2.14,0,7,0,14,0,21-.08,10.07-.29,20.15-.3,30.23a7.53,7.53,0,0,1-5,7.57A41,41,0,0,1,107,173.17c-12.64.27-25.07-1.59-37.38-4.3-3.67-.81-5.29-4.55-3.39-8a10.38,10.38,0,0,0,1.16-5.26c0-4.58,0-9.16,0-13.75,0-3,.32-6.12-1.37-9-.81-1.36-.55-3.09-.55-4.67q0-22-.06-44c0-1.75-.22-3.5-.14-5.24.18-4,2-6.23,5.94-7.35a59.59,59.59,0,0,1,11.81-2c.38,0,1-.15,1.07-.32.1-.56-.52-.45-.86-.61-3.84-1.94-7.63-1.89-11.77-.6-8,2.48-16,4.47-24.08,6.69a29.46,29.46,0,0,0-4.24,1.46C35.2,79.78,30,78.92,23.8,72.76c-5.29-5.3-9.15-11.65-12.66-18.2-2.17-4-4.29-8.1-6.2-12.27C2,35.8,1,29,3.37,22.14a14.3,14.3,0,0,1,14.05-10c7.75-.07,15.5,0,23.25,0Zm91.76,86.09a3.19,3.19,0,0,0,2.35-2.66c.76-3.42-2.26-9.4-5.45-10.79-.53-.23-1.15-.58-1.57,0a1.09,1.09,0,0,0,.55,1.66c5.1,2.63,5.4,6.92,4.14,11.77Zm-7.11,22.51h0v-6.24c0-11.66,0-23.32,0-35,0-4-1.1-5.41-4.48-6.11C109,70.94,97,70.82,85,71.39a59.74,59.74,0,0,0-12.58,1.86c-4.11,1.12-5.67,3-5.34,7.19.62,7.74.29,15.48.35,23.22.07,8.74,0,17.49.06,26.23,0,3.92,1.4,5.43,5.29,5.83a234.46,234.46,0,0,0,41.64.29c3.44-.26,4.53.64,4.55,4.16,0,5.33,0,10.66,0,16,0,3.78-1,5.18-4.57,6.06a56.09,56.09,0,0,1-19.1,1.27c-8.19-.85-16.35-2-24.52-3-2.15-.28-3.13.78-3.3,2.75-.2,2.28.86,3.5,3.17,4A197.23,197.23,0,0,0,98.37,171c7.17.45,14.33.27,21.26-2,4.5-1.47,5.68-3.12,5.69-7.87Q125.34,140.95,125.32,120.7Zm37.6-53c-.18-2-.32-3.88-.54-5.78-1.14-9.72-4.74-18.32-11.68-25.36-.49-.51-1.19-1.69-2-.93s-.12,1.67.65,2.34C153,41,153.05,45,151.88,49.14,151.36,51,150.12,53,148.32,53c-3.27,0-5.21,2.14-7.63,3.61a12.23,12.23,0,0,1-3.24,1.25c-5,1.34-9.95,2.8-15,3.87a65.15,65.15,0,0,0-16.88,6.5c-.28.15-.73.36-.74.56,0,.6.56.47.92.53.9.15,1.81.25,2.72.33a93.83,93.83,0,0,1,13.56,2c3.14.73,4.64,2.51,5,5.73a23.17,23.17,0,0,1,.26,2.48,2.78,2.78,0,0,0,2,2.75c5.05,2.13,6.93,6.48,7.54,11.5.33,2.74-1.25,4.94-3.87,6.1a9.55,9.55,0,0,1-3.89.77c-1.38,0-1.67.65-1.72,1.84-.08,1.91.76,2.74,2.65,2.76a27.16,27.16,0,0,0,15.23-4C157.74,93.68,162.15,81.58,162.92,67.65ZM140.59,109.3c13.32,0,22.65-5.09,29.78-14.14,13.31-16.91,14-41.93,1.71-59.6C166.41,27.41,158.89,21.8,149,19.65c-2.05-.44-2.2.14-1.85,1.94a44.47,44.47,0,0,1,.81,7.18,5.43,5.43,0,0,0,2.25,4.68,21.91,21.91,0,0,1,4.22,4.22c11.28,14.74,13.53,31,6.6,48-5,12.34-14,20.56-28.09,21.61a7.36,7.36,0,0,0-.91.19,3.22,3.22,0,0,0,.77.51A25.83,25.83,0,0,0,140.59,109.3ZM117,148.75h0c0-2.91,0-5.83,0-8.74,0-1.56-.59-2.24-2.29-2.08a215.94,215.94,0,0,1-42.84-.28c-2.14-.22-2.8.16-2.75,2.34.12,5.15.11,10.32,0,15.48,0,2.1.73,2.95,2.81,3.18,7.69.88,15.34,2.09,23,2.79A59.08,59.08,0,0,0,114,160.32c2.13-.5,3.1-1.59,3-3.83C116.86,153.91,117,151.33,117,148.75Zm5-107.43a123.43,123.43,0,0,0-2.06-19.08c-2-10.16-8.58-16.12-18.82-17.51A57.07,57.07,0,0,0,80,6.12,20.34,20.34,0,0,0,64,24.67,66,66,0,0,0,67.6,51.93,22.39,22.39,0,0,0,83.89,66.77a40.08,40.08,0,0,0,13.6,1C110.62,66.62,122.7,57.75,121.92,41.32Zm-74,22.37a11.44,11.44,0,0,0-1.21-5.2c-4.75-11-9.63-22-15.25-32.55a13.41,13.41,0,0,0-3.36-4.3,5.46,5.46,0,0,0-8.14.87,13.59,13.59,0,0,0-2.48,5.4c-.89,3.7-.66,7.46-.44,11.19.55,9.29,2.82,18.1,8.29,25.8,2.58,3.65,5.75,6.69,10.27,7.92A9.59,9.59,0,0,0,47.92,63.69ZM146.4,38.11a93.74,93.74,0,0,0-1.05-15.28c-.69-4.44-2.95-7.93-7.44-9.13-7.16-1.9-14.4-3.46-21.61-5.16-.38-.09-.9-.36-1.13.08s.28.73.56,1a24.25,24.25,0,0,1,6.44,14.06c.71,5.19,1.41,10.39,1.71,15.62.41,7.38-.69,14.47-5.68,20.41-.25.29-.77.59-.47,1,.13.17.76,0,1.15-.06,6.12-1.6,12.25-3.15,18.34-4.83,4.78-1.31,7.62-4.53,8.6-9.38A37.65,37.65,0,0,0,146.4,38.11Zm-91.1-24H48.81c-3.87,0-3.87,0-2.94,3.66,3.27,12.9,6.64,25.78,9.75,38.72a15.31,15.31,0,0,1-3.28,13.59c-.25.32-.73.81-.64,1,.31.58.87.13,1.28,0Q62,68.69,71,66.2c1.19-.33,3.27-.64,3.35-1.18.18-1.34-1.64-1.75-2.47-2.72-.38-.44-.78-.86-1.17-1.3C66,55.68,64.17,49.17,63.17,42.32c-1.31-9-2.94-18,1.48-26.66.73-1.45-.4-1.49-1.36-1.49C60.63,14.15,58,14.16,55.3,14.15ZM14.85,35.07c-.18-4.77.42-9.34,3.21-13.36,1.94-2.79,4.53-4.09,8-3.28.45.11,1.08.54,1.33,0s-.46-.77-.8-1.11c-3.95-3.86-8.72-3.89-13.53-2.51C8,16.29,5.63,20.3,4.57,25.1a25.26,25.26,0,0,0,2.2,16.53c2.42,5.12,5.05,10.14,7.82,15.08A63.43,63.43,0,0,0,26.91,73,12.38,12.38,0,0,0,38,76c.31,0,.83-.26.83-.41,0-.45-.45-.28-.72-.31-5.89-.52-10.27-3.64-13.68-8.22C17.37,57.55,15.11,46.6,14.85,35.07Zm19.7-20.91h0c-2.08,0-4.16,0-6.24,0-.54,0-1.31-.28-1.55.41-.18.53.5.78.86,1.09a35,35,0,0,1,6.18,7.48C40.64,33.63,44.93,45.25,49,57a17.84,17.84,0,0,1,.19,11.74c-.15.45-.63,1.07-.2,1.37.62.46,1-.3,1.37-.68,3.57-3.81,4.37-8.47,3.21-13.27-3.23-13.34-6.77-26.61-10.15-39.92a2.35,2.35,0,0,0-2.62-2.08C38.71,14.2,36.63,14.16,34.55,14.16Zm92.87,79.27h0c0,1,0,2,0,3,0,.63-.19,1.48.57,1.77s1.59-.29,2.16-.9c1.47-1.57,1.34-5.25-.27-7.22-.5-.63-1.06-1.54-2-1.17s-.44,1.32-.49,2S127.42,92.6,127.42,93.43Zm23-48.3a8.41,8.41,0,0,0-.7-3.67c-.19-.41-.3-1.09-1-.91-.2.06-.28.7-.33,1.09-.4,2.87-.44,5.81-1.7,8.52-.16.36-.48.81-.08,1.13s1,0,1.36-.24C150.06,49.68,150.48,47.61,150.44,45.13Z" transform="translate(-0.54 -0.79)" style="stroke:#1d1d1b;stroke-miterlimit:10;stroke-width:3px"/><path d="M87.46,104.45c0,4.41,0,8.82,0,13.22,0,3.58-1.76,6.11-4.77,7.15-3.49,1.21-7.94.26-10-2.09a6.32,6.32,0,0,1-1.4-4.4c0-4.91,0-9.82,0-14.72a32.12,32.12,0,0,0-1-8.86,9.31,9.31,0,0,1,3.52-10c3-2.37,6.62-2.12,10-.59,2.56,1.17,3.67,3.52,3.67,6.33Q87.46,97.47,87.46,104.45Zm-2.07,4.38c0-3.25,0-6.49,0-9.73,0-.55.28-1.32-.35-1.58s-1,.47-1.38.85c-2.59,2.57-5.51,3.69-9,2.08-1.14-.52-1.54-.1-1.53,1,0,5.66-.13,11.32.11,17,.15,3.67,2.4,4.93,7.3,4.71,3.25-.16,4.85-1.86,4.89-5.33C85.42,114.82,85.38,111.82,85.39,108.83Zm-7.65-9.7c3.16,0,5.63-2.77,5.65-6.32s-2.53-6.41-5.57-6.47S72,89.33,72,92.85,74.6,99.15,77.74,99.13Z" transform="translate(-0.54 -0.79)" style="stroke:#1d1d1b;stroke-miterlimit:10"/><path d="M120.49,42.06c.62,5.3-1.21,9.62-4.94,13.33-3.27,3.26-7.33,4-11.65,4.3-4.9.29-9.8.57-14.7.88a13.33,13.33,0,0,1-13.74-11,169.74,169.74,0,0,1-2-19.36c-.35-6.43,2.21-11.6,7.89-14.82,6.89-3.9,14.23-6.47,22.31-6.28,7.16.17,12.38,4.32,14.47,11.2C120.34,27.43,119.85,34.81,120.49,42.06ZM118.71,44c-.75-9.56-.52-16.49-2.48-23.23-2.15-7.37-8.27-10.14-15-9.73A45.43,45.43,0,0,0,85,15.58c-6.39,3-10.06,7.78-9.47,15.19a172.71,172.71,0,0,0,2,18.6,11,11,0,0,0,11.66,9.19c5.49-.23,11-.62,16.44-1A13,13,0,0,0,113,55C117.51,51.4,119.2,46.85,118.71,44Z" transform="translate(-0.54 -0.79)" style="stroke:#1d1d1b;stroke-miterlimit:10"/><path d="M81.11,110.38c-.3,1.45.7,3.85-1.82,3.89S77.4,112,77.4,110.44s-.56-3.91,1.79-4S80.87,108.82,81.11,110.38Z" transform="translate(-0.54 -0.79)"/><path d="M73.84,94.05c.07-1.76.64-3.15,2.61-3.36a3,3,0,0,1,3,3.29c-.11,1.71-.81,3.19-2.77,3.21S74,95.8,73.84,94.05Zm2.83.85c.6-.16.69-.62.63-1.14s-.25-.85-.77-.75a.87.87,0,0,0-.66,1.12C75.94,94.55,76.15,94.9,76.67,94.9Z" transform="translate(-0.54 -0.79)"/></svg>