<svg xmlns="http://www.w3.org/2000/svg" xmlns:xlink="http://www.w3.org/1999/xlink" version="1.1" x="0px" y="0px" viewBox="0 0 100 100" enable-background="new 0 0 100 100" xml:space="preserve"><path d="M49.537,20.187c-5.75,0-10.412,4.662-10.412,10.412c0,5.75,4.662,10.412,10.412,10.412c5.75,0,10.412-4.662,10.412-10.412  C59.948,24.849,55.287,20.187,49.537,20.187z M49.537,34.767c-2.302,0-4.168-1.866-4.168-4.167c0-2.302,1.866-4.168,4.168-4.168  s4.168,1.867,4.168,4.168C53.705,32.9,51.839,34.767,49.537,34.767z"/><path d="M64.456,77.122c3.878,0,7.021-3.145,7.021-7.021v-58.08C71.478,8.144,68.334,5,64.456,5h-29.84  c-3.877,0-7.021,3.144-7.021,7.021v58.08c0,3.877,3.144,7.021,7.021,7.021h10.491v10.132c-9.542,0.765-16.7,3.941-16.7,7.746h42.258  c0-3.805-7.158-6.981-16.699-7.746V77.122H64.456z M46.794,67.396c-0.897,0-1.626-0.729-1.626-1.627  c0-0.897,0.729-1.626,1.626-1.626c0.899,0,1.626,0.729,1.626,1.626C48.42,66.667,47.693,67.396,46.794,67.396z M46.794,62.497  c-0.897,0-1.626-0.728-1.626-1.627c0-0.898,0.729-1.626,1.626-1.626c0.899,0,1.626,0.728,1.626,1.626  C48.42,61.77,47.693,62.497,46.794,62.497z M46.794,57.599c-0.897,0-1.626-0.729-1.626-1.627s0.729-1.625,1.626-1.625  c0.899,0,1.626,0.727,1.626,1.625S47.693,57.599,46.794,57.599z M52.279,67.396c-0.897,0-1.626-0.729-1.626-1.627  c0-0.897,0.729-1.626,1.626-1.626c0.898,0,1.626,0.729,1.626,1.626C53.905,66.667,53.178,67.396,52.279,67.396z M52.279,62.497  c-0.897,0-1.626-0.728-1.626-1.627c0-0.898,0.729-1.626,1.626-1.626c0.898,0,1.626,0.728,1.626,1.626  C53.905,61.77,53.178,62.497,52.279,62.497z M52.279,57.599c-0.897,0-1.626-0.729-1.626-1.627s0.729-1.625,1.626-1.625  c0.898,0,1.626,0.727,1.626,1.625S53.178,57.599,52.279,57.599z M49.537,46.648c-8.864,0-16.049-7.187-16.049-16.049  c0-8.864,7.186-16.05,16.049-16.05c8.863,0,16.048,7.186,16.048,16.05C65.585,39.462,58.399,46.648,49.537,46.648z"/></svg>