<?xml version="1.0" encoding="utf-8"?>
<svg viewBox="-102.546 -661.201 467.628 604.545" width="467.628" height="604.545" xmlns="http://www.w3.org/2000/svg">
  <path d="M -93.302 -136.657 C -92.962 -157.057 -92.712 -177.467 -92.242 -197.867 C -91.842 -215.107 -91.492 -232.337 -91.242 -249.577 C -90.972 -272.317 -90.712 -295.057 -90.152 -317.787 C -89.922 -327.027 -89.922 -336.277 -89.772 -345.517 C -89.392 -368.257 -89.058 -390.994 -88.772 -413.727 C -88.452 -434.14 -88.118 -454.547 -87.772 -474.947 C -87.425 -497.187 -87.092 -519.424 -86.772 -541.657 C -86.442 -562.567 -86.212 -583.467 -85.772 -604.367 C -85.605 -611.7 -85.482 -619.034 -85.402 -626.367 C -85.302 -634.647 -81.042 -640.007 -72.952 -641.927 C -64.999 -643.749 -56.935 -645.046 -48.812 -645.807 C -28.012 -647.897 -7.162 -649.027 13.718 -649.927 C 27.368 -650.517 41.008 -650.927 54.658 -651.447 C 85.798 -652.597 116.938 -653.237 148.098 -652.697 C 165.748 -652.397 183.398 -651.837 201.038 -651.217 C 216.098 -650.697 231.158 -650.077 246.208 -649.217 C 260.828 -648.407 275.398 -646.797 289.938 -645.037 C 302.938 -643.467 315.868 -641.677 328.808 -639.837 C 334.468 -639.037 338.808 -636.307 341.378 -631.107 C 341.934 -630.077 342.255 -628.936 342.318 -627.767 C 342.418 -624.687 342.618 -621.607 342.658 -618.527 C 342.898 -600.957 343.078 -583.377 343.328 -565.797 C 343.648 -544.227 343.858 -522.657 344.428 -501.087 C 344.658 -492.007 344.618 -482.937 344.828 -473.857 C 345.348 -452.287 345.568 -430.717 345.908 -409.147 C 346.208 -389.827 346.658 -370.507 346.908 -351.147 C 347.115 -331.147 347.448 -311.147 347.908 -291.147 C 348.268 -276.247 348.568 -261.337 348.908 -246.437 C 349.248 -231.197 349.582 -215.96 349.908 -200.727 C 350.248 -185.9 350.582 -171.077 350.908 -156.257 C 351.078 -149.017 351.068 -141.767 351.388 -134.527 C 351.696 -131.212 350.007 -128.03 347.088 -126.427 C 346.007 -125.893 345.183 -124.95 344.798 -123.807 C 342.798 -116.137 338.728 -109.567 333.638 -103.637 C 328.48 -97.618 322.588 -92.269 316.098 -87.717 C 314.758 -86.732 313.086 -86.309 311.438 -86.537 C 306.388 -87.067 301.318 -87.417 296.248 -87.667 C 294.739 -87.668 293.371 -88.557 292.758 -89.937 C 289.758 -95.247 286.698 -100.487 283.758 -105.797 C 283.278 -106.982 282 -107.635 280.758 -107.327 C 269.538 -105.857 258.298 -104.457 247.078 -103.027 C 239.968 -102.117 232.878 -101.137 225.768 -100.307 C 224.358 -100.196 223.054 -99.513 222.158 -98.417 C 213.158 -87.917 202.268 -79.497 191.158 -71.417 C 189.896 -70.595 188.4 -70.209 186.898 -70.317 C 174.898 -70.317 162.898 -70.377 150.898 -70.127 C 142.978 -69.967 135.065 -69.84 127.158 -69.747 C 125.58 -69.703 124.041 -70.244 122.838 -71.267 C 115.233 -77.22 108.024 -83.664 101.258 -90.557 C 100.328 -91.557 99.258 -92.327 98.328 -93.287 C 93.838 -97.967 88.018 -98.417 82.028 -98.747 C 66.028 -99.617 49.958 -100.677 33.918 -101.637 C 24.528 -102.197 15.138 -102.697 5.748 -103.257 C -1.322 -103.687 -8.382 -104.067 -15.432 -104.677 C -18.302 -104.927 -20.202 -104.367 -21.692 -101.587 C -24.602 -96.157 -27.962 -90.977 -31.062 -85.647 C -31.835 -84.144 -33.253 -83.076 -34.912 -82.747 C -46.772 -80.457 -57.712 -81.597 -66.912 -90.517 C -74.638 -98.04 -80.639 -107.149 -84.502 -117.217 C -85.08 -118.954 -86.474 -120.296 -88.232 -120.807 C -92.722 -122.367 -93.442 -123.607 -93.422 -128.367 C -93.422 -131.117 -93.422 -133.867 -93.422 -136.617 Z M 338.188 -122.807 C 332.588 -121.937 326.988 -121.147 321.368 -120.497 C 303.838 -118.497 286.368 -116.297 268.808 -114.197 C 254.258 -112.447 239.698 -110.877 225.178 -108.947 C 208.442 -106.624 191.589 -105.242 174.698 -104.807 C 153.618 -104.387 132.558 -105.007 111.498 -105.807 C 105.258 -106.037 99.028 -106.447 92.798 -106.807 C 80.998 -107.567 69.208 -108.387 57.418 -109.167 C 48.868 -109.727 40.308 -110.247 31.748 -110.807 C 17.468 -111.747 3.185 -112.697 -11.102 -113.657 C -19.822 -114.237 -28.552 -114.727 -37.262 -115.327 C -50.302 -116.227 -63.335 -117.17 -76.362 -118.157 C -78.412 -118.307 -78.662 -117.647 -77.832 -115.897 C -74.317 -108.335 -69.588 -101.4 -63.832 -95.367 C -56.832 -88.167 -48.412 -86.807 -39.092 -87.657 C -37.323 -87.762 -35.746 -88.808 -34.962 -90.397 C -32.008 -95.517 -28.972 -100.59 -25.852 -105.617 C -25.042 -106.897 -24.852 -109.287 -22.222 -108.397 C -22.092 -108.397 -21.632 -108.787 -21.602 -109.027 C -21.382 -110.767 -20.202 -110.507 -18.992 -110.437 C -9.852 -109.884 -0.712 -109.35 8.428 -108.837 C 17.895 -108.297 27.368 -107.754 36.848 -107.207 C 52.718 -106.207 68.578 -105.117 84.458 -104.377 C 90.698 -104.077 96.268 -102.667 100.948 -98.377 C 102.108 -97.317 103.408 -96.377 104.518 -95.267 C 110.735 -88.883 117.352 -82.901 124.328 -77.357 C 125.592 -76.271 127.202 -75.672 128.868 -75.667 C 147.938 -75.867 167.018 -75.667 186.088 -76.227 C 187.257 -76.185 188.408 -76.514 189.378 -77.167 C 199.958 -84.907 210.228 -92.997 218.648 -103.167 C 219.951 -104.785 221.884 -105.768 223.958 -105.867 C 228.678 -106.367 233.378 -107.037 238.078 -107.637 C 253.078 -109.557 268.148 -111.417 283.158 -113.447 C 285.338 -113.747 286.318 -112.917 287.258 -111.217 C 290.158 -105.977 293.198 -100.797 296.118 -95.557 C 296.707 -94.156 298.06 -93.23 299.578 -93.187 C 303.148 -93.007 306.718 -92.677 310.278 -92.347 C 311.887 -92.23 313.476 -92.755 314.698 -93.807 C 319.872 -97.601 324.605 -101.961 328.808 -106.807 C 332.918 -111.527 336.658 -116.537 338.258 -122.807 L 338.318 -122.897 Z M 160.558 -110.397 L 160.558 -110.877 C 166.468 -110.877 172.378 -110.877 178.288 -110.877 C 181.368 -110.877 184.458 -110.877 187.538 -111.037 C 198.838 -111.697 210.088 -112.947 221.318 -114.347 C 238.668 -116.527 256.038 -118.487 273.398 -120.557 C 291.078 -122.664 308.762 -124.79 326.448 -126.937 C 331.918 -127.587 337.348 -128.387 342.448 -130.577 C 344.548 -131.467 345.838 -132.697 345.638 -135.287 C 345.328 -139.287 345.298 -143.287 345.198 -147.287 C 344.858 -162.354 344.525 -177.424 344.198 -192.497 C 343.872 -207.57 343.538 -222.727 343.198 -237.967 C 342.868 -252.967 342.508 -267.967 342.198 -282.967 C 341.825 -301.954 341.492 -320.954 341.198 -339.967 C 340.865 -359.127 340.532 -378.284 340.198 -397.437 C 339.825 -419.757 339.468 -442.09 339.128 -464.437 C 338.828 -482.93 338.515 -501.42 338.188 -519.907 C 337.842 -541.24 337.508 -562.574 337.188 -583.907 C 336.968 -597.734 336.772 -611.56 336.598 -625.387 C 336.598 -626.847 336.678 -628.227 334.548 -628.387 C 324.498 -629.007 314.448 -629.727 304.398 -630.387 C 293.398 -631.107 282.398 -631.557 271.508 -632.587 C 252.688 -634.357 233.838 -635.637 214.958 -636.317 C 199.808 -636.857 184.648 -637.247 169.488 -637.317 C 134.088 -637.497 98.688 -637.637 63.298 -636.057 C 48.908 -635.417 34.498 -635.117 20.108 -634.517 C 1.388 -633.757 -17.342 -633.147 -36.062 -632.467 C -49.128 -631.987 -62.192 -631.497 -75.252 -630.997 C -79.302 -630.837 -79.312 -630.777 -79.622 -626.707 C -79.622 -626.297 -79.622 -625.877 -79.622 -625.457 C -79.768 -603.297 -80.102 -581.144 -80.622 -558.997 C -80.852 -549.167 -80.842 -539.337 -81.022 -529.507 C -81.432 -507.267 -81.592 -485.027 -82.122 -462.787 C -82.352 -453.047 -82.292 -443.307 -82.532 -433.557 C -83.102 -411.157 -83.282 -388.747 -83.642 -366.337 C -83.782 -356.927 -83.852 -347.517 -84.022 -338.107 C -84.422 -315.617 -84.662 -293.107 -85.112 -270.637 C -85.452 -253.227 -85.322 -235.807 -85.872 -218.407 C -86.192 -208.407 -86.172 -198.407 -86.512 -188.407 C -87.162 -168.847 -87.272 -149.267 -87.702 -129.697 C -87.702 -127.447 -86.932 -126.377 -84.822 -125.797 C -80.071 -124.535 -75.207 -123.744 -70.302 -123.437 C -59.002 -122.657 -47.702 -122.037 -36.402 -121.277 C -20.122 -120.197 -3.852 -119.017 12.428 -117.947 C 26.628 -117.017 40.848 -116.187 55.048 -115.297 C 75.158 -114.027 95.248 -112.507 115.368 -111.527 C 130.398 -110.807 145.478 -110.747 160.558 -110.397 Z M 331.558 -630.347 C 332.038 -630.323 332.519 -630.323 332.998 -630.347 C 333.538 -630.347 334.318 -630.037 334.468 -630.817 C 334.528 -631.127 333.988 -631.657 333.608 -631.927 C 331.988 -633.109 330.103 -633.878 328.118 -634.167 C 320.358 -635.167 312.598 -636.167 304.858 -637.337 C 277.007 -641.254 248.968 -643.697 220.858 -644.657 C 207.628 -645.187 194.408 -645.757 181.168 -646.117 C 164.608 -646.577 148.038 -646.867 131.468 -647.117 C 112.548 -647.457 93.658 -646.707 74.758 -646.217 C 60.278 -645.837 45.758 -645.327 31.318 -644.817 C 11.428 -644.117 -8.432 -643.127 -28.282 -641.727 C -39.822 -640.967 -51.302 -640.087 -62.602 -638.087 C -66.912 -637.327 -71.392 -636.997 -75.302 -634.807 C -75.962 -634.447 -77.152 -634.117 -76.832 -633.187 C -76.622 -632.567 -75.472 -632.917 -74.752 -632.937 C -64.022 -633.377 -53.292 -633.877 -42.562 -634.287 C -23.895 -634.987 -5.258 -635.654 13.348 -636.287 C 26.918 -636.777 40.478 -637.287 54.038 -637.757 C 71.188 -638.307 88.328 -639.037 105.478 -639.217 C 127.298 -639.447 149.128 -639.337 170.958 -639.027 C 198.768 -638.627 226.568 -638.147 254.308 -635.897 C 266.258 -634.897 278.198 -633.947 290.168 -633.207 C 303.818 -632.377 317.508 -631.327 331.518 -630.347 Z" style="stroke: rgb(0, 0, 0); stroke-width: 3px;"/>
  <path d="M 15.498 -187.067 C 12.44 -187.133 9.616 -188.719 7.968 -191.297 C 4.011 -196.839 4.199 -204.33 8.428 -209.667 C 11.285 -213.421 16.573 -214.298 20.488 -211.667 C 28.008 -206.667 27.838 -193.297 20.228 -188.417 C 18.822 -187.505 17.174 -187.035 15.498 -187.067 Z M 22.188 -200.287 C 22.277 -201.892 21.964 -203.493 21.278 -204.947 C 20.108 -207.377 18.278 -209.077 15.528 -208.947 C 12.94 -208.856 10.702 -207.114 9.978 -204.627 C 8.658 -201.017 8.688 -197.447 10.908 -194.147 C 13.13 -190.587 18.324 -190.614 20.508 -194.197 C 21.741 -195.979 22.333 -198.126 22.188 -200.287 Z"/>
  <path d="M -11.772 -290.717 C -11.772 -287.177 -11.112 -284.637 -9.212 -282.547 C -6.552 -279.627 -2.932 -279.637 -0.302 -282.547 C 1.291 -284.393 2.183 -286.74 2.218 -289.177 C 2.278 -290.247 2.388 -291.647 3.868 -291.487 C 5.348 -291.327 5.288 -289.967 5.178 -288.897 C 4.768 -284.987 3.588 -281.387 0.508 -278.697 C -2.506 -275.886 -7.196 -275.934 -10.152 -278.807 C -15.862 -283.957 -16.212 -295.107 -10.832 -300.607 C -6.602 -304.937 -0.302 -304.107 2.698 -298.807 C 3.317 -297.98 3.317 -296.844 2.698 -296.017 C 1.125 -293.87 -0.458 -291.73 -2.052 -289.597 C -2.572 -288.907 -3.232 -288.217 -4.132 -288.917 C -4.923 -289.494 -5.069 -290.617 -4.452 -291.377 C -3.452 -292.907 -2.452 -294.427 -1.292 -295.867 C -0.132 -297.307 -0.722 -298.117 -2.002 -298.867 C -4.413 -300.266 -7.487 -299.678 -9.212 -297.487 C -10.868 -295.622 -11.779 -293.212 -11.772 -290.717 Z"/>
  <path d="M 52.888 -300.887 C 52.688 -300.067 52.458 -299.007 52.158 -297.967 C 49.985 -290.207 47.802 -282.444 45.608 -274.677 C 45.14 -272.901 44.387 -271.212 43.378 -269.677 C 42.817 -268.732 41.891 -268.059 40.818 -267.817 C 39.698 -267.627 38.308 -267.227 37.818 -268.687 C 37.328 -270.147 38.488 -270.607 39.688 -271.017 C 42.558 -272.017 44.248 -275.887 43.268 -279.347 C 41.478 -285.667 39.578 -291.957 37.728 -298.267 C 37.515 -298.895 37.345 -299.536 37.218 -300.187 C 37.058 -301.187 36.968 -302.357 38.218 -302.647 C 39.468 -302.937 39.688 -301.787 39.928 -300.927 C 41.428 -295.647 42.878 -290.357 44.378 -285.077 C 44.518 -284.547 44.518 -283.667 45.098 -283.647 C 45.678 -283.627 45.668 -284.537 45.808 -285.047 C 47.298 -290.417 48.738 -295.797 50.228 -301.167 C 50.458 -302.007 50.638 -303.167 51.918 -302.907 C 52.858 -302.757 52.888 -301.897 52.888 -300.887 Z"/>
  <path d="M 7.618 -292.807 C 7.618 -295.807 7.618 -298.177 7.618 -300.507 C 7.618 -301.507 7.698 -302.727 9.068 -302.667 C 10.248 -302.617 10.288 -301.477 10.298 -300.557 C 10.298 -296.397 10.298 -292.24 10.298 -288.087 C 10.258 -286.5 10.576 -284.924 11.228 -283.477 C 11.833 -281.954 13.331 -280.977 14.968 -281.037 C 16.607 -281.024 18.072 -282.058 18.608 -283.607 C 19.229 -285.155 19.538 -286.81 19.518 -288.477 C 19.518 -292.387 19.518 -296.297 19.518 -300.207 C 19.518 -301.257 19.388 -302.677 20.908 -302.667 C 22.198 -302.667 22.238 -301.377 22.238 -300.377 C 22.238 -295.637 22.378 -290.897 22.238 -286.157 C 22.028 -280.777 19.038 -277.517 14.758 -277.597 C 11.758 -277.597 9.858 -279.257 8.668 -281.937 C 7.008 -285.697 7.818 -289.647 7.618 -292.807 Z"/>
  <path d="M 33.468 -312.637 C 33.748 -312.637 34.168 -312.557 34.568 -312.477 C 35.638 -312.267 36.518 -311.797 36.408 -310.537 C 36.298 -309.277 35.408 -309.267 34.408 -309.167 C 31.028 -308.817 30.208 -307.967 29.538 -304.607 C 29.238 -303.117 29.538 -302.337 31.198 -302.387 C 31.615 -302.412 32.032 -302.412 32.448 -302.387 C 33.568 -302.297 34.388 -301.837 34.368 -300.567 C 34.443 -299.572 33.576 -298.764 32.588 -298.907 C 29.378 -299.247 29.208 -297.387 29.278 -294.907 C 29.398 -290.247 29.278 -285.597 29.278 -280.907 C 29.265 -280.085 29.161 -279.267 28.968 -278.467 C 28.829 -277.961 28.34 -277.634 27.818 -277.697 C 27.293 -277.692 26.84 -278.062 26.738 -278.577 C 26.603 -279.235 26.539 -279.905 26.548 -280.577 C 26.548 -287.977 26.548 -295.367 26.548 -302.767 C 26.564 -304.938 27.078 -307.076 28.048 -309.017 C 29.009 -311.165 31.116 -312.573 33.468 -312.637 Z"/>
  <path d="M 21.698 -256.117 C 21.698 -256.857 21.698 -257.607 21.698 -258.357 C 21.698 -261.047 22.238 -261.527 24.698 -261.297 C 26.878 -261.107 28.328 -259.597 27.698 -257.647 C 27.075 -255.932 27.147 -254.04 27.898 -252.377 C 28.108 -251.887 28.388 -251.177 27.558 -250.927 C 26.728 -250.677 26.558 -251.347 26.298 -251.867 C 26.178 -252.087 26.148 -252.347 26.018 -252.557 C 25.508 -253.407 25.738 -255.097 24.268 -254.887 C 22.968 -254.697 23.568 -253.247 23.378 -252.337 C 23.268 -251.787 23.378 -251.007 22.578 -251.027 C 21.778 -251.047 21.778 -251.797 21.758 -252.367 C 21.758 -253.617 21.758 -254.867 21.758 -256.117 Z M 25.978 -258.117 C 25.877 -258.79 25.237 -259.244 24.568 -259.117 C 23.844 -259.203 23.275 -258.511 23.498 -257.817 C 23.578 -257.097 24.068 -256.877 24.708 -256.907 C 25.417 -256.856 26.005 -257.448 25.948 -258.157 Z"/>
  <path d="M 20.698 -257.647 C 20.888 -255.899 20.587 -254.133 19.828 -252.547 C 18.558 -250.247 16.248 -250.167 14.948 -252.427 C 13.518 -254.887 14.168 -257.607 14.218 -260.237 C 14.211 -260.686 14.633 -261.019 15.068 -260.907 C 15.568 -260.817 15.708 -260.397 15.728 -259.977 C 15.788 -258.407 15.728 -256.817 15.868 -255.247 C 15.928 -254.337 16.138 -253.247 17.278 -253.247 C 18.418 -253.247 18.618 -254.347 18.678 -255.247 C 18.768 -256.567 18.678 -257.907 18.788 -259.247 C 18.788 -259.947 18.718 -260.987 19.788 -260.937 C 20.858 -260.887 20.638 -259.867 20.698 -259.157 C 20.758 -258.447 20.698 -257.967 20.698 -257.647 Z"/>
  <path d="M -4.782 -250.697 C -5.535 -250.611 -6.295 -250.799 -6.922 -251.227 C -7.462 -251.667 -7.922 -252.287 -7.552 -252.967 C -7.092 -253.887 -6.552 -253.347 -5.942 -252.967 C -5.102 -252.347 -4.122 -252.147 -3.662 -253.267 C -3.202 -254.387 -4.222 -254.687 -5.032 -254.917 C -6.502 -255.337 -7.642 -256.047 -7.792 -257.727 C -8.041 -258.884 -7.606 -260.081 -6.672 -260.807 C -5.653 -261.432 -4.392 -261.514 -3.302 -261.027 C -2.372 -260.677 -1.632 -259.907 -2.052 -258.927 C -2.542 -257.787 -3.252 -258.837 -3.872 -259.037 C -4.722 -259.317 -5.632 -259.397 -5.962 -258.367 C -6.292 -257.337 -5.522 -257.077 -4.742 -256.837 C -4.181 -256.686 -3.638 -256.474 -3.122 -256.207 C -1.642 -255.347 -1.552 -253.957 -1.902 -252.497 C -2.252 -251.037 -3.422 -250.657 -4.782 -250.697 Z"/>
  <path d="M -0.382 -255.987 L -0.382 -257.727 C -0.382 -261.057 1.028 -262.077 4.348 -261.267 C 4.948 -261.117 5.538 -260.967 5.468 -260.207 C 5.468 -259.617 4.908 -259.447 4.398 -259.367 C 4.068 -259.317 3.728 -259.367 3.398 -259.287 C 2.608 -259.207 1.578 -259.397 1.398 -258.287 C 1.238 -256.877 2.398 -257.037 3.258 -256.907 C 3.828 -256.827 4.538 -256.797 4.478 -255.997 C 4.418 -255.197 3.678 -255.267 3.118 -255.237 C 2.118 -255.167 1.248 -255.027 1.328 -253.727 C 1.408 -252.427 2.428 -252.537 3.328 -252.437 C 4.078 -252.357 5.328 -252.707 5.278 -251.537 C 5.228 -250.367 3.998 -250.767 3.278 -250.737 C -0.372 -250.547 -0.382 -250.587 -0.382 -255.987 Z"/>
  <path d="M 6.578 -256.047 C 6.56 -257.017 6.62 -257.987 6.758 -258.947 C 7.308 -261.146 9.865 -262.143 11.758 -260.897 C 12.248 -260.567 12.758 -260.177 12.478 -259.497 C 12.292 -258.991 11.691 -258.779 11.228 -259.057 C 10.228 -259.507 9.088 -259.717 8.678 -258.537 C 8.043 -256.81 8.043 -254.914 8.678 -253.187 C 9.128 -252.007 10.298 -252.377 11.268 -252.817 C 11.718 -253.106 12.32 -252.907 12.508 -252.407 C 12.818 -251.717 12.338 -251.317 11.858 -250.977 C 9.927 -249.699 7.313 -250.726 6.768 -252.977 C 6.636 -253.995 6.573 -255.021 6.578 -256.047 Z"/>
  <path d="M 45.748 -260.137 C 45.628 -259.897 45.458 -259.517 45.248 -259.137 C 44.048 -257.037 42.988 -254.907 43.248 -252.347 C 43.308 -251.817 43.248 -251.047 42.498 -251.007 C 41.748 -250.967 41.598 -251.707 41.648 -252.267 C 41.737 -254.68 41.081 -257.061 39.768 -259.087 C 39.458 -259.637 38.678 -260.477 39.768 -260.967 C 40.548 -261.317 40.958 -260.507 41.208 -259.917 C 42.088 -257.857 42.868 -257.917 43.738 -259.917 C 44.028 -260.587 44.428 -261.327 45.398 -261.057 C 45.768 -260.987 45.868 -260.647 45.748 -260.137 Z"/>
  <path d="M 35.308 -261.397 C 35.979 -261.348 36.646 -261.264 37.308 -261.147 C 37.978 -260.987 38.428 -260.147 37.888 -259.887 C 35.258 -258.387 36.528 -255.937 36.208 -253.887 C 36.058 -252.887 36.648 -251.167 35.378 -251.147 C 34.108 -251.127 34.698 -252.807 34.568 -253.807 C 34.458 -254.957 34.568 -256.117 34.568 -257.277 C 34.643 -257.858 34.501 -258.445 34.168 -258.927 C 33.658 -259.537 32.038 -259.417 32.668 -260.727 C 33.148 -261.807 34.438 -261.117 35.308 -261.397 Z"/>
  <path d="M 29.618 -255.957 C 29.618 -257.187 29.618 -258.427 29.618 -259.657 C 29.618 -260.237 29.678 -260.917 30.468 -260.907 C 31.088 -260.907 31.228 -260.327 31.238 -259.827 C 31.238 -257.267 31.238 -254.714 31.238 -252.167 C 31.238 -251.677 31.128 -251.077 30.518 -251.037 C 29.698 -250.977 29.668 -251.697 29.648 -252.247 C 29.648 -253.477 29.648 -254.717 29.648 -255.957 Z"/>
</svg>