<?xml version="1.0" standalone="no"?>
<!DOCTYPE svg PUBLIC "-//W3C//DTD SVG 20010904//EN"
 "http://www.w3.org/TR/2001/REC-SVG-20010904/DTD/svg10.dtd">
<svg version="1.0" xmlns="http://www.w3.org/2000/svg"
 width="752.000000pt" height="752.000000pt" viewBox="0 0 752.000000 752.000000"
 preserveAspectRatio="xMidYMid meet">
<metadata>
Created by potrace 1.16, written by Peter Selinger 2001-2019
</metadata>
<g transform="translate(0.000000,752.000000) scale(0.100000,-0.100000)"
fill="#000000" stroke="none">
<path d="M3275 7248 c-219 -7 -340 -19 -455 -43 -41 -8 -93 -18 -115 -21 -22
-3 -51 -9 -65 -14 -14 -5 -52 -16 -85 -25 -33 -9 -69 -21 -80 -25 -11 -5 -33
-11 -50 -15 -107 -21 -445 -173 -621 -277 -138 -83 -327 -215 -410 -287 -22
-20 -71 -63 -109 -96 -72 -63 -179 -172 -236 -240 -19 -22 -50 -58 -71 -80
-47 -52 -142 -180 -219 -298 -34 -50 -70 -103 -80 -117 -31 -41 -183 -300
-223 -378 -20 -40 -41 -81 -45 -90 -20 -38 -59 -131 -85 -202 -15 -41 -31 -84
-35 -95 -5 -11 -16 -47 -26 -80 -9 -33 -21 -69 -25 -80 -5 -11 -12 -47 -15
-80 -4 -33 -11 -68 -16 -78 -13 -23 -13 -459 0 -516 6 -25 18 -82 26 -126 18
-89 43 -181 56 -207 5 -10 9 -27 9 -38 0 -11 4 -28 9 -38 5 -9 17 -39 26 -67
19 -56 41 -111 55 -137 6 -10 10 -23 10 -30 0 -13 4 -22 113 -248 36 -74 86
-182 112 -240 71 -161 134 -284 259 -510 20 -36 41 -72 46 -80 6 -8 13 -23 16
-32 4 -10 10 -18 14 -18 4 0 11 -11 14 -25 4 -14 11 -25 16 -25 6 0 10 -4 10
-10 0 -8 70 -119 133 -210 9 -14 29 -43 43 -64 15 -22 30 -44 35 -50 5 -6 49
-61 98 -122 49 -61 101 -126 117 -145 48 -55 217 -222 264 -259 24 -19 58 -47
76 -62 17 -16 34 -28 38 -28 3 0 27 -15 53 -34 65 -47 184 -107 268 -138 122
-44 169 -58 192 -58 12 0 25 -5 28 -10 3 -6 23 -10 44 -10 21 0 51 -5 67 -10
38 -13 146 -30 259 -39 50 -4 144 -13 210 -19 294 -28 440 -33 621 -22 98 6
204 16 234 22 30 6 84 14 120 19 97 12 172 26 203 38 16 6 41 11 57 11 16 0
32 5 35 10 3 6 17 10 30 10 13 0 39 6 57 14 18 7 51 19 73 25 41 12 58 19 180
66 149 58 322 142 455 223 19 12 50 29 68 38 17 9 32 20 32 25 0 5 5 9 10 9 6
0 35 18 65 40 30 22 59 40 65 40 5 0 10 5 10 11 0 6 12 9 26 7 19 -2 32 -16
54 -58 30 -60 78 -163 90 -195 4 -11 15 -38 23 -60 24 -62 62 -174 83 -240 10
-33 22 -64 26 -70 4 -5 8 -18 8 -28 0 -11 11 -54 24 -96 23 -71 44 -143 67
-236 6 -22 14 -53 19 -70 5 -16 12 -49 16 -73 4 -23 11 -45 15 -48 5 -3 9 -21
9 -40 0 -20 5 -44 11 -55 6 -11 15 -44 20 -72 6 -29 14 -72 18 -97 5 -25 14
-61 20 -80 6 -19 11 -47 11 -62 0 -24 4 -28 30 -28 32 0 38 15 21 48 -8 16
-20 67 -41 172 -4 25 -16 74 -25 110 -9 36 -18 81 -21 100 -3 19 -9 44 -13 55
-10 23 -28 92 -41 150 -19 84 -35 144 -43 151 -4 4 -7 22 -7 40 0 18 -4 36
-10 39 -5 3 -10 16 -10 28 0 12 -7 35 -15 51 -8 15 -15 36 -15 45 -1 19 -34
119 -44 128 -3 3 -6 17 -6 30 0 13 -4 31 -9 41 -21 41 -41 94 -41 107 0 8 -11
35 -25 61 -14 26 -25 53 -25 60 0 7 -25 61 -55 120 -35 69 -54 116 -51 129 3
11 20 30 38 42 18 13 50 37 70 54 20 17 43 29 51 26 8 -3 25 -27 37 -54 12
-26 40 -84 61 -129 22 -44 39 -83 39 -87 0 -4 11 -30 23 -59 13 -29 30 -69 37
-88 7 -19 19 -49 26 -67 8 -17 14 -36 14 -42 0 -6 5 -21 12 -34 19 -38 23 -49
67 -187 24 -74 47 -142 51 -151 5 -9 12 -34 16 -55 3 -22 10 -43 14 -49 4 -5
10 -23 13 -40 3 -16 13 -57 22 -90 9 -33 21 -78 25 -100 5 -22 16 -71 25 -110
8 -38 20 -92 25 -120 5 -27 16 -84 25 -125 9 -41 20 -98 25 -127 10 -65 15
-73 46 -73 22 0 24 3 18 28 -4 15 -11 37 -15 50 -5 13 -9 40 -9 61 0 21 -3 41
-7 45 -8 8 -26 93 -42 196 -5 30 -16 84 -25 120 -17 68 -28 111 -46 195 -5 27
-15 54 -20 59 -6 6 -10 19 -10 30 0 22 -15 74 -36 124 -8 18 -14 44 -14 57 0
13 -4 27 -10 30 -5 3 -10 16 -10 28 0 12 -6 33 -13 47 -7 14 -19 45 -26 70 -7
25 -19 57 -27 72 -8 14 -14 33 -14 42 0 9 -4 24 -10 34 -8 15 -25 55 -52 122
-6 14 -16 39 -23 55 -7 17 -18 44 -25 60 -29 71 -39 93 -65 150 -15 33 -38 83
-51 110 -13 28 -24 54 -24 58 0 14 72 77 88 77 10 -1 37 -6 62 -11 51 -12 175
-30 205 -30 55 -1 202 13 220 21 11 5 31 11 45 13 78 15 266 107 359 175 103
76 260 224 321 303 14 18 30 37 35 43 47 49 198 280 256 392 20 39 41 79 47
90 12 22 90 190 102 219 4 11 20 61 35 110 14 50 31 104 36 121 14 46 29 122
39 192 5 35 12 68 16 74 11 18 28 237 28 378 1 160 -11 304 -30 381 -8 31 -14
75 -14 97 0 23 -4 43 -9 46 -5 3 -11 20 -13 38 -7 45 -29 129 -39 150 -5 10
-9 26 -9 35 0 10 -7 31 -15 47 -8 15 -15 35 -15 42 0 8 -4 22 -10 32 -5 9 -17
35 -26 57 -43 104 -124 258 -169 321 -44 61 -144 153 -217 201 -24 15 -45 31
-48 34 -6 8 -166 84 -205 98 -58 21 -121 33 -215 41 -182 17 -260 29 -281 44
-21 15 -32 30 -65 96 -10 19 -22 38 -26 41 -5 3 -16 20 -26 37 -9 17 -39 61
-67 98 -27 37 -56 78 -63 91 -7 12 -17 23 -23 23 -5 0 -9 5 -9 10 0 6 -8 18
-17 28 -10 10 -43 47 -73 82 -106 125 -306 317 -410 393 -30 22 -69 52 -86 66
-56 47 -68 56 -124 91 -30 19 -56 38 -58 42 -2 5 -8 8 -13 8 -5 0 -26 11 -47
23 -108 68 -270 150 -427 217 -125 52 -130 54 -222 84 -45 14 -91 26 -101 26
-10 0 -22 3 -26 7 -13 13 -135 42 -278 65 -42 7 -80 16 -84 21 -4 4 -33 7 -64
7 -31 0 -81 4 -111 9 -81 14 -202 17 -424 9z m425 -119 c19 -5 69 -14 110 -19
114 -14 188 -27 260 -45 36 -9 81 -20 100 -25 92 -22 260 -78 275 -91 5 -5 17
-9 26 -9 10 0 30 -6 46 -14 15 -8 39 -19 53 -24 46 -19 254 -122 305 -152 28
-16 64 -36 82 -45 18 -9 37 -23 44 -31 6 -8 18 -14 25 -14 8 0 14 -4 14 -10 0
-5 4 -10 10 -10 11 0 151 -99 195 -138 17 -15 50 -43 75 -62 25 -18 94 -81
154 -139 167 -163 195 -194 325 -366 54 -71 121 -167 149 -212 74 -118 202
-374 242 -483 7 -19 18 -48 25 -65 7 -16 18 -48 25 -70 7 -22 18 -56 25 -75 7
-19 18 -55 25 -80 6 -25 16 -59 21 -76 19 -62 31 -125 59 -309 6 -38 15 -99
21 -135 16 -95 5 -588 -15 -715 -34 -209 -56 -318 -67 -330 -5 -5 -9 -22 -9
-37 0 -16 -4 -36 -9 -46 -5 -9 -16 -44 -26 -77 -59 -203 -174 -457 -305 -670
-54 -88 -206 -304 -231 -328 -28 -26 -42 -12 -24 23 8 16 15 40 15 54 0 14 5
28 10 31 6 3 10 17 10 31 0 14 5 34 11 45 10 20 23 76 39 179 5 30 14 80 21
110 17 79 17 695 0 775 -7 33 -17 94 -21 135 -13 113 -30 212 -41 231 -5 10
-9 34 -9 53 0 20 -4 44 -9 54 -8 17 -27 82 -37 132 -3 14 -9 34 -13 45 -5 11
-16 47 -26 80 -10 33 -26 85 -37 115 -11 30 -22 64 -25 75 -5 20 -9 31 -33 90
-6 17 -19 50 -27 75 -16 48 -30 83 -70 170 -23 51 -32 71 -47 110 -3 8 -10 22
-15 30 -6 8 -29 53 -52 100 -58 119 -115 227 -136 258 -9 15 -26 43 -36 62
-28 51 -170 264 -179 268 -5 2 -8 8 -8 14 0 8 -45 74 -60 88 -4 3 -19 23 -36
45 -94 128 -204 254 -346 397 -60 59 -108 112 -108 118 0 5 -6 10 -12 10 -7 0
-29 15 -49 33 -69 62 -152 132 -168 141 -9 5 -18 12 -21 15 -3 4 -48 37 -100
75 -52 38 -96 73 -98 77 -2 5 -10 9 -18 9 -8 0 -36 16 -63 35 -26 19 -53 35
-59 35 -6 0 -17 6 -24 13 -31 29 -210 118 -368 184 -19 8 -44 18 -55 23 -11 5
-42 16 -70 25 -27 10 -59 21 -70 25 -11 4 -38 13 -60 19 -22 6 -58 16 -80 22
-85 24 -259 56 -370 69 -44 5 -81 9 -82 9 -2 1 -3 6 -3 11 0 6 11 10 25 10 14
0 42 7 62 15 19 8 53 15 74 15 21 0 41 5 44 10 3 6 27 10 53 11 26 0 81 6 122
13 95 17 599 21 650 5z m-940 -150 c25 -6 74 -14 110 -19 104 -15 162 -25 203
-38 82 -26 104 -32 123 -32 10 0 28 -7 38 -15 11 -8 30 -15 42 -15 13 0 26 -4
29 -10 3 -5 15 -10 26 -10 10 0 27 -4 37 -9 34 -19 85 -41 94 -41 11 0 215
-100 288 -141 30 -17 69 -39 85 -48 17 -9 44 -26 62 -38 17 -13 34 -23 37 -23
4 0 12 -5 19 -10 7 -6 62 -46 123 -89 60 -44 121 -91 135 -105 13 -14 28 -26
33 -26 5 0 16 -8 25 -17 9 -10 52 -49 96 -88 128 -112 328 -324 420 -445 27
-36 52 -67 55 -70 15 -14 146 -198 219 -308 41 -61 174 -290 205 -352 9 -19
26 -51 36 -70 16 -30 64 -133 90 -195 5 -11 19 -45 33 -75 13 -30 36 -86 52
-125 15 -38 33 -83 40 -100 7 -16 18 -48 25 -70 7 -22 16 -47 20 -55 4 -8 15
-42 24 -75 10 -33 22 -69 27 -80 9 -21 25 -78 39 -135 5 -19 16 -64 25 -100 9
-36 20 -87 24 -115 5 -27 11 -57 15 -65 8 -18 24 -127 36 -235 5 -44 13 -118
19 -165 13 -111 13 -484 0 -580 -6 -41 -14 -104 -19 -140 -12 -96 -31 -184
-41 -194 -5 -6 -9 -25 -9 -42 0 -18 -4 -35 -9 -38 -5 -3 -12 -22 -16 -42 -3
-20 -10 -44 -14 -53 -22 -43 -41 -93 -41 -106 0 -8 -4 -15 -10 -15 -5 0 -10
-7 -10 -15 0 -9 -11 -33 -25 -55 -14 -22 -25 -42 -25 -46 0 -18 -109 -129
-210 -214 -104 -87 -322 -250 -335 -250 -2 0 -30 -16 -60 -36 -94 -59 -369
-194 -470 -230 -27 -9 -54 -21 -59 -26 -6 -4 -18 -8 -28 -8 -10 0 -26 -4 -36
-9 -9 -6 -44 -17 -77 -26 -33 -10 -71 -21 -85 -26 -84 -29 -330 -76 -475 -90
-150 -14 -470 -21 -550 -12 -108 12 -87 39 55 69 14 3 34 9 45 14 56 23 113
40 132 40 12 0 25 5 28 10 3 6 16 10 28 10 12 0 35 7 51 15 15 8 36 15 45 15
10 0 41 11 69 25 29 14 56 25 62 25 5 0 10 3 10 8 0 4 15 15 33 25 47 26 107
84 157 152 24 33 47 61 52 63 4 2 8 10 8 17 0 16 32 79 43 83 4 2 7 12 7 22 0
10 6 31 14 47 19 39 36 95 36 122 0 12 5 31 11 43 42 78 42 558 0 637 -6 11
-11 36 -11 55 0 20 -4 44 -9 54 -15 31 -41 119 -41 140 0 12 -4 23 -9 26 -5 3
-11 18 -14 33 -2 16 -10 44 -17 63 -25 69 -28 75 -40 105 -6 17 -19 50 -27 75
-8 25 -22 61 -30 80 -9 19 -21 49 -28 65 -7 17 -23 53 -35 80 -13 28 -32 70
-42 95 -11 25 -40 86 -64 136 -24 49 -44 93 -44 97 0 4 -11 25 -25 47 -14 22
-25 44 -25 50 0 6 -11 28 -25 50 -14 22 -25 46 -25 54 0 8 -3 16 -7 18 -5 2
-18 23 -31 48 -12 25 -40 77 -62 115 -21 39 -45 81 -52 95 -63 113 -83 148
-98 170 -10 14 -21 35 -24 48 -4 12 -12 22 -17 22 -5 0 -9 5 -9 10 0 6 -15 34
-33 63 -18 29 -36 59 -41 67 -7 16 -8 18 -70 120 -42 68 -104 160 -167 245
-54 75 -218 253 -284 310 -32 28 -66 57 -74 65 -9 9 -35 29 -56 45 -22 17 -42
32 -45 35 -22 23 -173 114 -254 155 -93 46 -141 64 -251 94 -113 31 -424 31
-519 0 -16 -5 -46 -9 -67 -9 -21 0 -41 -4 -44 -10 -3 -5 -14 -10 -24 -10 -22
0 -118 -28 -143 -41 -10 -5 -23 -9 -29 -9 -6 0 -27 -7 -47 -16 -21 -9 -46 -20
-57 -24 -25 -9 -167 -76 -255 -119 -83 -40 -135 -69 -185 -104 -22 -15 -43
-27 -47 -27 -15 0 -8 31 17 70 14 22 25 46 25 54 0 7 7 19 15 26 8 7 15 19 15
26 0 8 5 14 10 14 6 0 10 5 10 12 0 13 81 141 92 146 5 2 8 9 8 14 0 6 18 35
40 64 22 29 40 56 40 59 0 10 102 160 111 163 5 2 9 9 9 15 0 7 10 23 23 37
12 14 36 43 52 66 74 101 273 311 405 427 77 68 276 212 395 285 55 35 107 67
115 72 8 6 22 13 30 16 21 9 72 33 90 43 16 9 90 44 183 85 32 14 63 26 71 26
7 0 16 3 19 7 4 3 29 14 55 23 56 20 309 26 382 9z m3540 -1450 c25 -6 81 -15
125 -19 44 -5 94 -11 110 -15 30 -7 36 -9 110 -41 40 -18 153 -85 190 -114 25
-20 145 -140 167 -167 26 -34 94 -160 130 -243 8 -19 20 -46 26 -60 14 -30 65
-187 81 -250 7 -25 16 -58 21 -75 13 -50 39 -204 51 -310 16 -145 2 -505 -26
-640 -51 -248 -114 -441 -201 -609 -67 -133 -115 -219 -134 -241 -9 -11 -34
-47 -54 -80 -46 -74 -79 -121 -114 -160 -15 -17 -43 -50 -63 -75 -42 -53 -100
-111 -159 -160 -23 -19 -47 -40 -54 -45 -71 -64 -219 -147 -317 -180 -30 -9
-64 -21 -76 -26 -55 -21 -193 -29 -285 -18 -51 6 -94 12 -96 14 -10 9 15 57
52 97 24 26 52 60 62 74 10 14 24 31 30 38 12 13 94 129 109 154 6 10 20 32
33 49 12 17 22 35 22 39 0 4 6 15 14 23 8 9 23 32 33 51 11 19 35 62 53 95 19
33 42 78 53 100 85 178 141 320 183 460 9 28 22 70 30 95 8 25 14 55 14 67 0
12 5 25 10 28 6 3 10 25 10 49 0 23 5 47 10 52 11 11 24 89 40 249 6 50 14
115 19 145 11 70 11 477 -1 510 -4 14 -13 70 -18 125 -13 138 -27 231 -40 254
-5 11 -10 38 -10 60 0 22 -4 43 -10 46 -5 3 -10 18 -10 33 0 15 -7 40 -15 56
-8 15 -15 40 -15 55 0 15 -4 31 -8 37 -4 5 -16 36 -26 69 -21 69 -32 98 -52
138 -8 16 -14 34 -14 40 0 11 -28 74 -76 170 -14 26 -22 52 -19 57 8 13 49 12
105 -1z m-4440 -39 c116 -13 207 -44 345 -117 54 -29 221 -143 240 -163 10
-11 22 -20 27 -20 9 0 12 -2 139 -126 134 -131 230 -243 305 -359 22 -33 45
-66 52 -73 6 -7 12 -18 12 -23 0 -5 19 -39 43 -76 24 -38 46 -75 50 -83 4 -8
15 -27 25 -42 34 -54 140 -234 178 -303 92 -168 121 -223 233 -450 131 -264
174 -355 216 -460 15 -38 33 -83 40 -100 7 -16 18 -46 25 -65 6 -19 16 -44 20
-55 25 -58 90 -264 90 -283 0 -11 4 -23 9 -27 6 -3 13 -27 16 -53 4 -26 10
-56 15 -67 19 -43 39 -314 29 -399 -24 -207 -41 -281 -85 -383 -8 -17 -14 -34
-14 -38 0 -4 -24 -44 -53 -89 -80 -122 -184 -202 -314 -241 -32 -10 -85 -27
-118 -37 -33 -11 -73 -24 -90 -28 -16 -5 -55 -16 -85 -25 -97 -29 -187 -54
-380 -107 -106 -28 -274 -28 -395 2 -49 12 -108 25 -130 30 -62 12 -118 32
-205 74 -30 14 -59 26 -64 26 -15 0 -207 131 -256 175 -114 101 -378 379 -389
409 -2 6 -7 13 -11 16 -3 3 -26 32 -51 65 -24 33 -46 62 -49 65 -9 8 -184 273
-197 297 -28 54 -48 88 -54 93 -3 3 -20 30 -36 60 -17 30 -45 80 -62 110 -74
134 -241 482 -241 505 0 8 -4 15 -10 15 -5 0 -10 4 -10 9 0 5 -29 69 -64 143
-88 184 -116 247 -116 258 0 6 -4 18 -9 28 -23 46 -41 95 -41 112 0 10 -4 22
-10 25 -5 3 -10 16 -10 28 0 13 -6 31 -14 42 -7 11 -16 36 -19 55 -3 19 -13
60 -22 90 -9 30 -21 80 -26 110 -4 30 -10 69 -13 85 -21 130 -26 286 -12 400
20 162 26 187 70 285 44 99 161 248 248 315 38 30 115 83 128 88 8 4 22 11 30
16 33 19 126 61 137 61 6 0 13 3 15 8 3 7 42 26 103 52 17 6 43 18 58 26 16 8
37 14 46 14 10 0 21 3 24 6 12 12 111 43 138 44 14 0 29 3 33 7 12 12 115 34
196 42 105 11 232 11 320 1z"/>
<path d="M1375 4958 c-33 -10 -57 -20 -95 -36 -14 -6 -61 -25 -105 -42 -44
-18 -89 -35 -100 -40 -11 -4 -36 -14 -55 -20 -90 -32 -139 -63 -167 -103 -26
-39 -28 -48 -28 -142 1 -90 4 -106 29 -154 28 -55 96 -131 116 -131 6 0 18 -7
26 -15 20 -20 110 -20 148 0 15 8 33 15 38 15 5 0 35 12 66 26 31 14 68 30 82
36 26 11 64 26 115 48 17 7 42 19 57 26 14 8 32 14 40 14 29 0 89 71 105 125
30 102 25 153 -28 272 -44 99 -152 152 -244 121z m144 -76 c50 -52 81 -101 81
-129 0 -15 4 -44 9 -64 5 -22 4 -55 -3 -85 -15 -67 -62 -111 -157 -148 -41
-15 -97 -39 -126 -52 -28 -13 -56 -24 -61 -24 -4 0 -32 -11 -60 -25 -29 -14
-58 -25 -66 -25 -8 0 -18 -4 -21 -10 -9 -14 -71 -12 -98 2 -33 19 -97 80 -97
94 0 6 -7 17 -15 24 -8 7 -15 23 -15 36 0 12 -4 26 -10 29 -13 8 -13 142 0
150 6 3 10 14 10 24 0 19 51 61 74 61 8 0 18 5 21 10 3 6 17 10 29 10 13 0 29
7 36 15 7 8 20 15 29 15 10 0 41 11 69 25 29 14 56 25 62 25 6 0 18 4 28 9 9
5 37 17 62 26 25 10 54 21 65 26 61 25 118 18 154 -19z"/>
<path d="M1480 3943 c-87 -34 -179 -89 -180 -107 0 -5 -6 -17 -14 -25 -24 -27
-52 -84 -70 -141 -14 -45 -16 -84 -13 -220 3 -148 11 -202 37 -275 4 -11 13
-38 20 -60 27 -88 73 -179 144 -289 52 -79 63 -92 181 -210 123 -124 140 -138
196 -168 21 -11 42 -24 45 -29 3 -5 14 -9 25 -9 10 0 19 -3 19 -8 0 -7 45 -25
115 -44 45 -13 193 -15 242 -3 18 4 38 13 44 21 6 8 18 14 26 14 44 0 173 174
173 234 0 12 5 27 10 32 13 13 8 307 -7 374 -27 126 -99 293 -190 438 -106
169 -310 356 -461 422 -26 12 -56 25 -67 30 -46 20 -241 37 -275 23z m238 -63
c9 -5 42 -21 72 -35 71 -32 118 -59 147 -85 13 -11 26 -20 31 -20 7 0 170
-165 209 -213 35 -42 116 -175 147 -242 16 -33 32 -68 37 -78 15 -29 53 -151
71 -232 15 -66 15 -248 0 -305 -24 -87 -49 -135 -98 -186 -63 -65 -121 -87
-224 -87 -116 1 -185 24 -325 112 -79 50 -195 158 -258 240 -23 31 -50 65 -59
75 -10 11 -18 23 -18 27 0 4 -6 14 -13 21 -25 26 -132 254 -149 318 -5 19 -16
62 -25 95 -19 69 -29 301 -14 318 5 7 12 29 16 50 4 20 11 40 16 43 5 3 9 12
9 21 0 45 140 165 206 176 42 7 203 -2 222 -13z"/>
<path d="M1635 3663 c-69 -35 -135 -124 -135 -182 0 -15 -4 -40 -8 -56 -13
-44 11 -198 41 -279 26 -66 66 -146 78 -156 3 -3 17 -23 31 -45 51 -81 148
-167 251 -224 58 -31 69 -34 157 -35 78 0 100 3 125 19 41 26 95 86 95 105 0
9 6 22 13 29 16 17 16 286 -1 303 -7 7 -12 20 -12 31 0 26 -87 201 -111 223
-10 9 -19 22 -19 27 0 19 -165 174 -210 198 -113 58 -230 75 -295 42z m218
-64 c101 -49 180 -117 253 -219 54 -74 124 -221 124 -258 0 -12 5 -24 10 -27
12 -8 13 -198 1 -223 -4 -9 -16 -33 -25 -53 -26 -54 -87 -89 -157 -89 -68 0
-153 30 -209 75 -32 26 -129 123 -155 155 -95 120 -155 279 -155 414 0 171 81
263 218 251 30 -3 73 -15 95 -26z"/>
<path d="M1881 3341 c-11 -11 -24 -33 -27 -47 -10 -38 23 -121 65 -166 31 -35
39 -38 86 -38 60 0 65 7 65 93 0 82 -61 165 -129 174 -30 4 -43 1 -60 -16z"/>
<path d="M2497 1962 c-19 -21 -24 -136 -7 -147 6 -3 10 -12 10 -20 0 -23 82
-103 133 -130 107 -56 183 -21 181 84 0 33 -5 56 -12 59 -7 2 -12 10 -12 18 0
25 -61 93 -112 124 -60 37 -153 43 -181 12z m137 -48 c86 -48 158 -161 126
-199 -23 -28 -83 -19 -138 23 -49 36 -102 111 -102 146 0 22 31 56 51 56 9 0
37 -12 63 -26z"/>
</g>
</svg>
