<?xml version="1.0" encoding="UTF-8"?>
<svg id="Laag_1" data-name="Laag 1" xmlns="http://www.w3.org/2000/svg" viewBox="10 180 550 500">
  <defs>
    <style>
      .cls-1 {
        fill: none;
        stroke: #000;
        stroke-linejoin: round;
        stroke-width: 8px;
      }
    </style>
  </defs>
  
    <path class="cls-1" d="M276,553.15l-118.16-12c-42.22,0-76.45-33.51-76.45-74.85v-115.7c0-41.34,34.23-74.85,76.45-74.85l118.16,12c42.22,0,76.45,33.51,76.45,74.85v115.7c0,41.34-34.23,74.85-76.45,74.85Z"/>
    <path class="cls-1" d="M275.58,578.64l-137.32-13.95c-49.06,0-88.84-38.95-88.84-86.99v-134.46c0-48.04,39.77-86.99,88.84-86.99l137.32,13.95c49.06,0,88.84,38.95,88.84,86.99v134.46c0,48.04-39.77,86.99-88.84,86.99Z"/>
    <path class="cls-1" d="M279.12,586.93l-144.39-14.66c-51.59,0-93.41-40.95-93.41-91.46v-141.38c0-50.51,41.82-91.46,93.41-91.46l144.39,14.66c51.59,0,93.41,40.95,93.41,91.46v141.38c0,50.51-41.82,91.46-93.41,91.46Z"/>
    <circle class="cls-1" cx="213.9" cy="366.41" r="76.24"/>
    <circle class="cls-1" cx="213.9" cy="366.41" r="53.91"/>
    <circle class="cls-1" cx="213.9" cy="366.41" r="31.9"/>
    <circle class="cls-1" cx="213.9" cy="366.41" r="12.92"/>
    <circle class="cls-1" cx="320.42" cy="354.13" r="9.14"/>
    <circle class="cls-1" cx="320.42" cy="374.34" r="9.14"/>
    <circle class="cls-1" cx="320.42" cy="393.31" r="9.14"/>
    <circle class="cls-1" cx="110.48" cy="328.9" r="9.14"/>
    <circle class="cls-1" cx="110.48" cy="349.1" r="9.14"/>
    <circle class="cls-1" cx="110.48" cy="368.08" r="9.14"/>
    <polyline class="cls-1" points="301.16 265.19 533.16 209.71 320.42 191.92 101.34 241.05 73.52 270.33"/>
    <path class="cls-1" d="M533.16,209.71l11.01,17.08c11.01,17.08,11.01,74.41,9.32,102.73s-5.93,86.03-20.33,101.28c-14.4,15.25-198.12,137.94-198.12,137.94l-53.25,71.01"/>
    <path class="cls-1" d="M134.73,572.27s15.02,48.92,25.26,57.2,82.53,16.94,96.08,18.82,24.47-4.14,28.99-13.55c4.52-9.41,16.64-50.51,16.64-50.51"/>
  
</svg>
