<?xml version="1.0" encoding="utf-8"?>
<svg id="master-artboard" viewBox="0 0 1400 980" version="1.1" xmlns="http://www.w3.org/2000/svg" x="0px" y="0px" style="enable-background:new 0 0 1400 980;" width="1400px" height="980px"><defs><linearGradient id="gradient-0" gradientUnits="userSpaceOnUse" x1="1389.64990234375" y1="241.00546264648438" x2="1389.64990234375" y2="1953.7846374511719">
                <stop offset="0" style="stop-color: #000000"/>
                <stop offset="1" style="stop-color: #000000"/>
              </linearGradient><linearGradient id="gradient-1" gradientUnits="userSpaceOnUse" x1="1383.3370971679688" y1="1870.9842529296875" x2="1383.3370971679688" y2="1928.963623046875">
                <stop offset="0" style="stop-color: #000000"/>
                <stop offset="1" style="stop-color: #000000"/>
              </linearGradient><linearGradient id="gradient-2" gradientUnits="userSpaceOnUse" x1="1560.1802978515625" y1="1921.5" x2="1560.1802978515625" y2="1927">
                <stop offset="0" style="stop-color: #000000"/>
                <stop offset="1" style="stop-color: #000000"/>
              </linearGradient><linearGradient id="gradient-3" gradientUnits="userSpaceOnUse" x1="1710.1802978515625" y1="1911.5" x2="1710.1802978515625" y2="1917">
                <stop offset="0" style="stop-color: #000000"/>
                <stop offset="1" style="stop-color: #000000"/>
              </linearGradient><linearGradient id="gradient-4" gradientUnits="userSpaceOnUse" x1="1860.6312866210938" y1="1897.45361328125" x2="1860.6312866210938" y2="1908">
                <stop offset="0" style="stop-color: #000000"/>
                <stop offset="1" style="stop-color: #000000"/>
              </linearGradient><linearGradient id="gradient-5" gradientUnits="userSpaceOnUse" x1="2114.750244140625" y1="1863.5318603515625" x2="2114.750244140625" y2="1899">
                <stop offset="0" style="stop-color: #000000"/>
                <stop offset="1" style="stop-color: #000000"/>
              </linearGradient><linearGradient id="gradient-6" gradientUnits="userSpaceOnUse" x1="885.0047912597656" y1="382.0574951171875" x2="885.0047912597656" y2="1218.4393310546875">
                <stop offset="0" style="stop-color: #000000"/>
                <stop offset="1" style="stop-color: #000000"/>
              </linearGradient><linearGradient id="gradient-7" gradientUnits="userSpaceOnUse" x1="816.989501953125" y1="1110" x2="816.989501953125" y2="1139.9427490234375">
                <stop offset="0" style="stop-color: #000000"/>
                <stop offset="1" style="stop-color: #000000"/>
              </linearGradient><linearGradient id="gradient-8" gradientUnits="userSpaceOnUse" x1="853.2771301269531" y1="760.0823974609375" x2="853.2771301269531" y2="1061.0018310546875">
                <stop offset="0" style="stop-color: #000000"/>
                <stop offset="1" style="stop-color: #000000"/>
              </linearGradient><linearGradient id="gradient-9" gradientUnits="userSpaceOnUse" x1="856.2096557617188" y1="800" x2="856.2096557617188" y2="1028.9322509765625">
                <stop offset="0" style="stop-color: #000000"/>
                <stop offset="1" style="stop-color: #000000"/>
              </linearGradient><linearGradient id="gradient-10" gradientUnits="userSpaceOnUse" x1="625.5585632324219" y1="943.0494384765625" x2="625.5585632324219" y2="998.3853759765625">
                <stop offset="0" style="stop-color: #000000"/>
                <stop offset="1" style="stop-color: #000000"/>
              </linearGradient><linearGradient id="gradient-11" gradientUnits="userSpaceOnUse" x1="1079.563720703125" y1="862.0188598632812" x2="1079.563720703125" y2="929.7588500976562">
                <stop offset="0" style="stop-color: #000000"/>
                <stop offset="1" style="stop-color: #000000"/>
              </linearGradient></defs><g transform="matrix(4.495412844036697, 0, 0, 4.495412844036697, 25.688082669802498, 0)"><metadata>
Created by potrace 1.10, written by Peter Selinger 2001-2011
</metadata><g transform="translate(0.000000,218.000000) scale(0.100000,-0.100000)" fill="#000000" stroke="none">
<path d="M1443 1949 c-36 -6 -182 -72 -485 -220 -431 -211 -433 -212 -499&#10;-280 -36 -37 -89 -79 -116 -93 -61 -31 -83 -70 -83 -151 0 -106 88 -477 138&#10;-585 31 -66 102 -144 155 -172 61 -31 743 -188 883 -204 102 -11 116 -2 339&#10;210 516 492 686 672 728 765 18 41 19 59 13 191 -14 319 -48 420 -156 475 -34&#10;17 -139 26 -800 68 -36 2 -88 0 -117 -4z m497 -34 c211 -14 389 -30 394 -35 6&#10;-6 6 -13 1 -19 -26 -23 -792 -474 -827 -487 -90 -31 -64 -9 100 87 95 56 171&#10;103 169 106 -3 2 -40 -17 -83 -43 l-79 -46 -70 7 c-38 3 -137 14 -220 24&#10;l-149 17 34 20 c19 12 59 34 87 49 l53 28 197 -17 c109 -10 208 -22 221 -27&#10;20 -8 57 11 263 133 131 78 237 143 235 146 -3 2 -32 -13 -66 -33 l-62 -37&#10;-210 17 -211 18 58 29 c31 16 55 32 52 35 -3 3 -32 -10 -65 -29 l-60 -33 -158&#10;12 c-88 7 -177 17 -198 22 -38 9 -52 3 -435 -189 -218 -110 -393 -199 -388&#10;-199 4 -1 51 21 105 48 l97 48 195 -23 c107 -13 200 -23 205 -24 6 0 -29 -22&#10;-76 -48 l-86 -48 -189 23 c-182 22 -281 26 -266 11 13 -13 824 -110 867 -103&#10;29 4 36 2 25 -5 -28 -19 83 1 135 25 54 24 739 432 792 472 31 22 34 23 62 9&#10;70 -37 111 -218 113 -502 0 -84 -3 -118 -16 -142 -44 -85 -320 -372 -732 -758&#10;l-129 -121 -2 96 c-3 165 -56 480 -102 600 -36 95 -112 168 -219 210 -35 14&#10;-176 36 -463 71 -228 29 -420 54 -428 56 -9 3 10 28 55 73 67 66 78 72 464&#10;261 217 107 418 203 445 214 72 30 133 30 565 1z m-391 -89 l134 -11 -74 -40&#10;-75 -41 -189 17 c-105 10 -194 18 -200 19 -5 1 26 19 70 40 73 35 85 38 140&#10;33 33 -3 120 -10 194 -17z m366 -31 c88 -8 171 -15 185 -15 19 0 8 -10 -48&#10;-43 l-73 -43 -192 18 c-106 9 -201 19 -212 21 -29 4 111 76 150 76 17 1 102&#10;-6 190 -14z m-540 -58 l140 -12 -83 -45 -82 -45 -205 20 -205 20 82 42 c79 40&#10;86 42 148 37 36 -3 128 -11 205 -17z m405 -35 l185 -17 -80 -47 -80 -47 -218&#10;21 -217 21 77 43 c90 50 77 49 333 26z m-477 -74 c25 -3 18 -9 -60 -51 l-88&#10;-48 -207 23 -208 23 91 45 90 46 177 -17 c97 -10 190 -19 205 -21z m94 -139&#10;l202 -22 -82 -48 c-73 -42 -91 -48 -157 -52 -41 -3 -57 -2 -35 1 32 6 10 11&#10;-115 25 -85 10 -172 21 -193 24 l-38 6 88 48 c48 27 97 47 108 44 11 -2 111&#10;-13 222 -26z m-789 -36 c-10 -2 -26 -2 -35 0 -10 3 -2 5 17 5 19 0 27 -2 18&#10;-5z m80 -10 c-10 -2 -26 -2 -35 0 -10 3 -2 5 17 5 19 0 27 -2 18 -5z m80 -10&#10;c-10 -2 -26 -2 -35 0 -10 3 -2 5 17 5 19 0 27 -2 18 -5z m90 -10 c-10 -2 -26&#10;-2 -35 0 -10 3 -2 5 17 5 19 0 27 -2 18 -5z m80 -10 c-10 -2 -26 -2 -35 0 -10&#10;3 -2 5 17 5 19 0 27 -2 18 -5z m80 -10 c-10 -2 -26 -2 -35 0 -10 3 -2 5 17 5&#10;19 0 27 -2 18 -5z m80 -10 c-10 -2 -26 -2 -35 0 -10 3 -2 5 17 5 19 0 27 -2&#10;18 -5z m90 -10 c-10 -2 -28 -2 -40 0 -13 2 -5 4 17 4 22 1 32 -1 23 -4z m80&#10;-10 c-10 -2 -28 -2 -40 0 -13 2 -5 4 17 4 22 1 32 -1 23 -4z m-435 -73 c478&#10;-60 500 -66 594 -153 77 -71 113 -168 152 -418 34 -212 45 -352 31 -394 -12&#10;-36 -58 -75 -90 -75 -8 0 -1 9 16 19 44 27 59 71 58 171 -2 89 -41 329 -75&#10;464 -44 173 -127 272 -254 305 -22 5 -229 35 -460 66 -296 40 -429 54 -450 48&#10;-35 -10 -75 -65 -74 -102 1 -24 2 -23 9 6 11 49 36 81 68 87 15 4 227 -20 470&#10;-53 492 -67 502 -70 579 -154 74 -80 98 -153 149 -442 55 -321 34 -396 -116&#10;-408 -41 -4 -56 -3 -40 3 21 7 22 8 5 9 -11 1 -161 33 -334 71 -182 40 -325&#10;67 -340 64 -18 -4 -22 -3 -13 4 18 12 -39 24 -76 16 -22 -5 -24 -3 -12 6 12 9&#10;9 10 -13 5 -20 -4 -27 -2 -22 6 5 7 1 9 -12 5 -11 -3 -27 1 -39 10 -10 8 -12&#10;13 -4 9 8 -4 6 0 -4 9 -10 8 -24 13 -30 9 -6 -3 -8 -3 -4 2 4 4 -6 18 -22 31&#10;-59 50 -98 146 -155 386 -28 118 -55 267 -55 311 0 51 29 96 79 121 29 15 51&#10;21 61 15 8 -4 199 -31 423 -59z m-146 -876 c-3 -3 -12 -4 -19 -1 -8 3 -5 6 6&#10;6 11 1 17 -2 13 -5z m90 -20 c-3 -3 -12 -4 -19 -1 -8 3 -5 6 6 6 11 1 17 -2&#10;13 -5z m40 -10 c-3 -3 -12 -4 -19 -1 -8 3 -5 6 6 6 11 1 17 -2 13 -5z m73 -14&#10;c20 -6 21 -8 5 -8 -11 0 -31 4 -45 8 -20 6 -21 8 -5 8 11 0 31 -4 45 -8z m213&#10;-47 c93 -21 165 -39 159 -41 -9 -3 -334 67 -341 74 -9 8 17 3 182 -33z m210&#10;-50 c-7 -2 -19 -2 -25 0 -7 3 -2 5 12 5 14 0 19 -2 13 -5z m50 -10 c-7 -2 -19&#10;-2 -25 0 -7 3 -2 5 12 5 14 0 19 -2 13 -5z m130 -20 c-7 -2 -19 -2 -25 0 -7 3&#10;-2 5 12 5 14 0 19 -2 13 -5z" style="fill: rgb(0, 0, 0); fill-opacity: 1; stroke: rgb(0, 0, 0); stroke-width: 8;"/>
<path d="M1375 1900 c-33 -15 -54 -29 -47 -29 14 -1 112 46 112 54 0 7 3 8&#10;-65 -25z" style="fill: rgb(0, 0, 0); fill-opacity: 1;"/>
<path d="M1523 1923 c20 -2 54 -2 75 0 20 2 3 4 -38 4 -41 0 -58 -2 -37 -4z" style="fill: rgb(0, 0, 0); fill-opacity: 1;"/>
<path d="M1673 1913 c20 -2 54 -2 75 0 20 2 3 4 -38 4 -41 0 -58 -2 -37 -4z" style="fill: rgb(0, 0, 0); fill-opacity: 1;"/>
<path d="M1810 1901 c14 -4 48 -5 75 -1 47 7 45 7 -25 8 -48 0 -66 -2 -50 -7z" style="fill: rgb(0, 0, 0); fill-opacity: 1;"/>
<path d="M2095 1886 c88 -7 167 -16 176 -20 10 -4 20 -3 23 2 7 12 -59 20&#10;-224 26 l-135 5 160 -13z" style="fill: rgb(0, 0, 0); fill-opacity: 1;"/>
<path d="M596 1205 c-65 -34 -81 -96 -60 -239 35 -235 88 -381 164 -449 58&#10;-53 84 -63 273 -102 197 -41 206 -41 240 -15 42 33 41 66 -13 350 -57 304 -69&#10;333 -158 386 -44 27 -76 35 -219 58 -196 31 -189 30 -227 11z m212 -20 c86&#10;-14 172 -30 190 -36 45 -15 99 -63 123 -111 15 -30 89 -367 89 -407 0 -6 -610&#10;106 -618 114 -10 9 -44 204 -49 280 -7 106 8 148 60 170 41 18 23 19 205 -10z&#10;m102 -515 c146 -28 275 -52 286 -55 18 -4 23 -16 32 -72 12 -85 -1 -133 -39&#10;-147 -31 -10 -359 54 -419 82 -71 34 -142 130 -166 225 -6 26 -4 28 17 22 13&#10;-3 143 -28 289 -55z" style="fill: rgb(0, 0, 0); fill-opacity: 1; stroke: rgb(0, 0, 0); stroke-width: 8;"/>
<path d="M807 1134 c-8 -8 1 -24 14 -24 5 0 9 7 9 15 0 15 -12 20 -23 9z" style="fill: rgb(0, 0, 0); fill-opacity: 1;"/>
<path d="M746 1029 c-55 -65 -14 -188 82 -246 65 -40 123 -27 149 34 20 49 3&#10;118 -44 172 -67 79 -141 94 -187 40z m149 -14 c45 -34 77 -96 78 -153 1 -88&#10;-79 -118 -158 -58 -52 40 -79 92 -80 154 0 45 4 57 25 74 32 26 88 19 135 -17z" style="fill: rgb(0, 0, 0); fill-opacity: 1;"/>
<path d="M779 1011 c-66 -53 18 -211 113 -211 39 0 71 45 64 89 -8 49 -52 110&#10;-91 127 -45 18 -58 18 -86 -5z m119 -34 c76 -73 55 -187 -30 -162 -79 24 -130&#10;151 -76 189 29 20 65 11 106 -27z" style="fill: rgb(0, 0, 0); fill-opacity: 1;"/>
<path d="M604 985 c-9 -22 22 -53 37 -38 15 15 7 47 -14 51 -9 2 -20 -4 -23&#10;-13z m33 -10 c8 -22 -6 -33 -17 -15 -13 20 -12 30 0 30 6 0 13 -7 17 -15z" style="fill: rgb(0, 0, 0); fill-opacity: 1;"/>
<path d="M1050 906 c0 -28 24 -51 45 -42 19 7 19 30 -1 50 -23 24 -44 20 -44&#10;-8z m39 -5 c6 -10 7 -21 4 -25 -9 -8 -33 14 -33 30 0 20 18 17 29 -5z" style="fill: rgb(0, 0, 0); fill-opacity: 1;"/>
<path d="M 904.3988037109375 904.74951171875" style="fill: rgb(0, 0, 0); fill-opacity: 1; stroke: rgb(0, 0, 0); stroke-opacity: 1; stroke-width: 8; paint-order: stroke;"/><path d="M 3722.368896484375 1591.6634521484375" style="fill: rgb(0, 0, 0); fill-opacity: 1; stroke: rgb(0, 0, 0); stroke-opacity: 1; stroke-width: 8; paint-order: stroke;"/></g></g><path d="M 493.0393371582031 417.6639099121094" style="fill: rgb(0, 0, 0); fill-opacity: 1; stroke: rgb(11, 11, 11); stroke-opacity: 1; stroke-width: 0; paint-order: stroke;"/><path d="M 307.0321960449219 328.9153747558594" style="fill: rgb(0, 0, 0); fill-opacity: 1; stroke: rgb(11, 11, 11); stroke-opacity: 1; stroke-width: 0; paint-order: fill;"/></svg>