<svg id="Laag_1" data-name="Laag 1" xmlns="http://www.w3.org/2000/svg" viewBox="0 0 371.54 661.46"><title>aparaat</title><path d="M133.46,216.58h0c-10.94,0-19.81,9.17-19.81,20.49V563.92c0,11.32,8.87,20.49,19.81,20.49" transform="translate(-112.15 -91.36)" style="fill:none;stroke:#1e1e1c;stroke-miterlimit:10;stroke-width:3px"/><path d="M397.9,103.2V218.36a25.19,25.19,0,0,1,28.36-15.67l16.13,3.13.73-75.55A12.53,12.53,0,0,0,436,118.84L405.7,104.55a106.2,106.2,0,0,0-61-9.06L145.46,124.83A12.38,12.38,0,0,0,135,137V679.58a20.51,20.51,0,0,0,14.38,19.63l184,47.42a69.84,69.84,0,0,0,61.59-9.91V103.2Z" transform="translate(-112.15 -91.36)" style="fill:none"/><path d="M427.51,642.49H412.44a16.08,16.08,0,0,1-14.54-9.26V734.54L431.26,710a15.76,15.76,0,0,0,6.37-12.46l.54-55.37-8.91.09A6.34,6.34,0,0,1,427.51,642.49Z" transform="translate(-112.15 -91.36)" style="fill:none"/><path d="M425.69,205.62a22.25,22.25,0,0,0-23.49,10.64A18.91,18.91,0,0,1,434,230.1a18.54,18.54,0,0,1-.21,2.65V636.18a6.33,6.33,0,0,1-.8,3l5.17-.05,4.16-430.29Z" transform="translate(-112.15 -91.36)" style="fill:none"/><path d="M458.38,639a22.33,22.33,0,0,0,22.32-22.3l-.32-382a22.34,22.34,0,0,0-18.05-21.9l-17-3.29-4.16,429.68Z" transform="translate(-112.15 -91.36)" style="fill:none"/><path d="M422.14,638.79s.43.48,2.83.48l3.86,0a3.35,3.35,0,0,0,2-3.06V621.64c-1,4.41-3.71,8.47-5.81,11.66C423.77,635.2,421.87,638.08,422.14,638.79Z" transform="translate(-112.15 -91.36)" style="fill:none"/><path d="M430.84,611.93V232.54l0-.11a15.71,15.71,0,0,0,.19-2.33,15.94,15.94,0,0,0-31.87-.76c0,1.08.08,2.15.17,3.21Z" transform="translate(-112.15 -91.36)" style="fill:none"/><path d="M412.44,639.51h6.82c-.53-2.06,1.09-4.54,3.27-7.86,2.75-4.17,6.18-9.36,5.75-14.55L399.35,268.61V626.42A13.11,13.11,0,0,0,412.44,639.51Z" transform="translate(-112.15 -91.36)" style="fill:none"/><path d="M437.63,697.5A15.76,15.76,0,0,1,431.26,710L397.9,734.54v3h-3v-.78a69.84,69.84,0,0,1-61.59,9.91l-184-47.42A20.51,20.51,0,0,1,135,679.58V137a12.38,12.38,0,0,1,10.51-12.17L344.69,95.49a106.2,106.2,0,0,1,61,9.06L436,118.84a12.53,12.53,0,0,1,7.16,11.43l-.73,75.55,3,.58.74-76.11a15.53,15.53,0,0,0-8.88-14.15L407,101.85a109.25,109.25,0,0,0-62.72-9.32L145,121.88A15.37,15.37,0,0,0,132,137V679.58a23.48,23.48,0,0,0,16.51,22.49l184,47.43a72.74,72.74,0,0,0,64.79-10.8L433,712.37a18.76,18.76,0,0,0,7.59-14.85l.53-55.41-3,0Z" transform="translate(-112.15 -91.36)" style="fill:#1e1e1c"/><path d="M405.35,208a25.18,25.18,0,0,0-7.45,10.36v3.85a19,19,0,0,1,4.3-6,22.25,22.25,0,0,1,23.49-10.64l16.67,3.24,0-3-16.13-3.13A25.2,25.2,0,0,0,405.35,208Z" transform="translate(-112.15 -91.36)" style="fill:#1e1e1c"/><path d="M483.37,234.62A25.33,25.33,0,0,0,462.9,209.8l-17.53-3.4,0,3,17,3.29a22.34,22.34,0,0,1,18.05,21.9l.32,382A22.33,22.33,0,0,1,458.38,639l-17.2.16,0,3,17.25-.17a25.32,25.32,0,0,0,25.29-25.28Z" transform="translate(-112.15 -91.36)" style="fill:#1e1e1c"/><path d="M429.26,642.22l8.91-.09,0-3-5.17.05A6.33,6.33,0,0,1,429.26,642.22Z" transform="translate(-112.15 -91.36)" style="fill:#1e1e1c"/><polygon points="326.05 547.79 326.02 550.78 329 550.75 329.03 547.76 326.05 547.79" style="fill:#1e1e1c"/><polygon points="330.21 117.5 333.19 118.08 333.22 115.04 330.24 114.47 330.21 117.5" style="fill:#1e1e1c"/><path d="M396.36,626.42V232.75a18.65,18.65,0,0,1-.21-2.65c0-.26,0-.51,0-.76,0-.61,0-1.22,0-1.83a25.23,25.23,0,0,1,1.75-9.15V99.2h-3V736.72c.2-.15.41-.28.61-.42l2.38-1.76V633.23A15.89,15.89,0,0,1,396.36,626.42Z" transform="translate(-112.15 -91.36)" style="fill:#1e1e1c"/><path d="M394.91,736.72v.78h3v-3l-2.38,1.76C395.32,736.44,395.11,736.57,394.91,736.72Z" transform="translate(-112.15 -91.36)" style="fill:#1e1e1c"/><path d="M397.9,218.36a25.23,25.23,0,0,0-1.75,9.15c0,.61,0,1.22,0,1.83a18.67,18.67,0,0,1,1.71-7.13Z" transform="translate(-112.15 -91.36)" style="fill:#1e1e1c"/><path d="M419.51,640.21a3.09,3.09,0,0,1-.25-.7h-6.82a13.11,13.11,0,0,1-13.09-13.09V268.61l-1.45-17.46V633.23a16.08,16.08,0,0,0,14.54,9.26h15.07a6.34,6.34,0,0,0,1.75-.27l-4.27,0C423,642.26,420.49,642,419.51,640.21Z" transform="translate(-112.15 -91.36)" style="fill:#1e1e1c"/><path d="M399.18,229.34a15.94,15.94,0,0,1,31.87.76,15.71,15.71,0,0,1-.19,2.33l0,.11V611.93l.41,4.92a15.08,15.08,0,0,1-.41,4.79v14.54a3.35,3.35,0,0,1-2,3.06l4.2,0a6.33,6.33,0,0,0,.8-3V232.75a18.54,18.54,0,0,0,.21-2.65,18.91,18.91,0,0,0-31.84-13.84,22.26,22.26,0,0,0-3.06,11.25C399.14,228.12,399.16,228.73,399.18,229.34Z" transform="translate(-112.15 -91.36)" style="fill:#1e1e1c"/><path d="M397.9,222.21v28.94l1.45,17.46v-36l0-.22a15.92,15.92,0,0,1-.19-2.33c0-.26,0-.5,0-.76,0-.61,0-1.22,0-1.83a22.26,22.26,0,0,1,3.06-11.25A19,19,0,0,0,397.9,222.21Z" transform="translate(-112.15 -91.36)" style="fill:#1e1e1c"/><path d="M427.51,639.51h-8.25a3.09,3.09,0,0,0,.25.7c1,1.81,3.44,2,5.48,2l4.27,0a6.33,6.33,0,0,0,3.77-3l-4.2,0A3.42,3.42,0,0,1,427.51,639.51Z" transform="translate(-112.15 -91.36)" style="fill:#1e1e1c"/><path d="M431.25,616.85l-.41-4.92v9.71A15.08,15.08,0,0,0,431.25,616.85Z" transform="translate(-112.15 -91.36)" style="fill:#1e1e1c"/><path d="M396.37,232.79c-.09-1.14-.15-2.3-.18-3.45,0,.25,0,.5,0,.76a18.65,18.65,0,0,0,.21,2.65V626.42a15.89,15.89,0,0,0,1.54,6.81V251.15Z" transform="translate(-112.15 -91.36)" style="fill:#1e1e1c"/><path d="M397.9,251.15V222.21a18.67,18.67,0,0,0-1.71,7.13c0,1.15.09,2.31.18,3.45Z" transform="translate(-112.15 -91.36)" style="fill:#1e1e1c"/><rect x="40.72" y="134.88" width="5.19" height="114.12" rx="1.74" style="fill:none;stroke:#1e1e1c;stroke-miterlimit:10;stroke-width:2px"/><rect x="180.31" y="134.88" width="5.19" height="114.12" rx="1.74" style="fill:none;stroke:#1e1e1c;stroke-miterlimit:10;stroke-width:2px"/><rect x="168.52" y="116.45" width="5.49" height="150.97" rx="1.74" style="fill:none;stroke:#1e1e1c;stroke-miterlimit:10;stroke-width:2px"/><rect x="52.2" y="116.45" width="5.49" height="150.97" rx="1.74" style="fill:none;stroke:#1e1e1c;stroke-miterlimit:10;stroke-width:2px"/><rect x="63.67" y="103.26" width="5.82" height="177.36" rx="1.74" style="fill:none;stroke:#1e1e1c;stroke-miterlimit:10;stroke-width:2px"/><rect x="156.73" y="103.26" width="5.82" height="177.36" rx="1.74" style="fill:none;stroke:#1e1e1c;stroke-miterlimit:10;stroke-width:2px"/><rect x="145.2" y="92.56" width="5.6" height="198.75" rx="1.74" style="fill:none;stroke:#1e1e1c;stroke-miterlimit:10;stroke-width:2px"/><rect x="133.58" y="89.16" width="5.58" height="205.55" rx="1.74" style="fill:none;stroke:#1e1e1c;stroke-miterlimit:10;stroke-width:2px"/><rect x="122.15" y="85.34" width="5.19" height="213.19" rx="1.74" style="fill:none;stroke:#1e1e1c;stroke-miterlimit:10;stroke-width:2px"/><rect x="98.88" y="85.34" width="5.19" height="213.19" rx="1.74" style="fill:none;stroke:#1e1e1c;stroke-miterlimit:10;stroke-width:2px"/><rect x="110.45" y="80.74" width="5.32" height="222.4" rx="1.74" style="fill:none;stroke:#1e1e1c;stroke-miterlimit:10;stroke-width:2px"/><rect x="87.05" y="89.16" width="5.58" height="205.55" rx="1.74" style="fill:none;stroke:#1e1e1c;stroke-miterlimit:10;stroke-width:2px"/><rect x="75.41" y="92.56" width="5.6" height="198.75" rx="1.74" style="fill:none;stroke:#1e1e1c;stroke-miterlimit:10;stroke-width:2px"/><ellipse cx="110.99" cy="345.69" rx="15.09" ry="20.04" style="fill:none;stroke:#1e1e1c;stroke-miterlimit:10;stroke-width:2px"/><ellipse cx="110.99" cy="345.69" rx="10.11" ry="13.43" style="fill:none;stroke:#1e1e1c;stroke-miterlimit:10;stroke-width:2px"/></svg>