<?xml version="1.0" standalone="no"?>
<!DOCTYPE svg PUBLIC "-//W3C//DTD SVG 20010904//EN"
 "http://www.w3.org/TR/2001/REC-SVG-20010904/DTD/svg10.dtd">
<svg version="1.0" xmlns="http://www.w3.org/2000/svg"
 width="300.000000pt" height="268.000000pt" viewBox="0 0 300.000000 268.000000"
 preserveAspectRatio="xMidYMid meet">
<metadata>
Created by potrace 1.10, written by Peter Selinger 2001-2011
</metadata>
<g transform="translate(0.000000,268.000000) scale(0.100000,-0.100000)"
fill="#000000" stroke="none">
<path d="M0 2625 c0 -21 5 -25 28 -25 15 0 44 6 65 14 42 14 99 10 75 -6 -7
-4 -27 -7 -43 -6 -17 1 -36 -1 -43 -6 -9 -5 -12 -90 -12 -356 0 -222 -4 -351
-10 -355 -6 -4 -10 -156 -10 -424 0 -480 -4 -458 90 -482 27 -7 50 -18 50 -25
0 -6 7 -43 16 -81 l15 -69 150 -83 c83 -46 152 -89 153 -95 2 -6 8 -37 14 -68
16 -87 66 -181 133 -253 325 -347 917 -233 1066 204 12 36 23 82 23 102 0 34
3 37 143 127 l142 92 18 70 c18 68 19 70 58 80 72 20 79 34 79 164 l0 114 37
7 c21 5 76 9 123 10 130 3 278 49 294 92 16 40 286 1066 286 1084 0 54 -152
135 -271 145 -74 7 -76 6 -97 -21 -12 -15 -25 -46 -29 -68 l-6 -39 -51 5 c-28
3 -104 11 -168 19 l-118 12 0 33 c0 43 -18 72 -41 66 -9 -3 -26 0 -36 6 -14
10 -9 11 27 5 90 -13 414 -15 436 -3 13 7 39 9 65 5 24 -4 113 -9 197 -12
l152 -6 0 26 0 26 -1500 0 -1500 0 0 -25z m2125 -35 c4 -7 -327 -10 -987 -9
-563 0 -984 4 -973 9 29 13 1952 13 1960 0z m-1991 -8 c2 -4 -6 -12 -20 -19
-21 -10 -23 -9 -13 8 10 20 24 25 33 11z m2036 -12 c0 -5 -7 -7 -15 -4 -8 4
-12 10 -9 15 6 11 24 2 24 -11z m590 -34 c-7 -7 -16 -7 -28 2 -9 6 -32 18 -49
26 -52 23 -39 24 27 3 43 -14 58 -23 50 -31z m-840 13 c0 -5 3 -8 8 -8 4 1 58
1 120 0 97 -1 112 -3 112 -17 0 -14 -8 -16 -57 -11 -197 21 -189 21 -176 6 21
-25 -37 -23 -64 3 -19 18 -34 21 -88 21 -36 -1 -65 3 -65 8 0 5 47 8 105 8 58
-1 105 -6 105 -10z m771 -20 c32 -18 59 -35 59 -39 0 -8 -76 -20 -131 -20 -29
0 -39 4 -39 15 0 23 29 75 41 75 6 0 38 -14 70 -31z m-1026 -23 c-33 -44 -53
-105 -129 -393 l-63 -238 -654 0 c-610 0 -657 1 -682 18 l-27 17 0 315 0 315
791 0 790 0 -26 -34z m1174 -11 c34 -20 61 -40 61 -45 0 -5 -36 -10 -80 -12
-79 -3 -103 4 -55 16 27 7 35 42 13 64 -21 21 -1 13 61 -23z m-1016 19 l38 -7
-31 -19 c-17 -10 -38 -34 -46 -53 -23 -56 -90 -290 -181 -640 -65 -247 -87
-347 -87 -396 l-1 -66 -40 14 c-21 7 -43 19 -47 26 -20 31 -3 129 82 460 154
606 168 649 220 674 29 14 40 15 93 7z m477 -50 c41 -3 84 -7 95 -9 11 -1 31
-3 45 -4 19 -1 22 -3 10 -10 -8 -6 -17 -8 -20 -6 -3 1 -42 6 -88 9 -45 4 -90
10 -98 13 -15 6 -37 9 -78 12 -15 1 -16 4 -7 15 10 12 16 12 39 1 15 -8 61
-17 102 -21z m-145 -23 c102 -17 318 -41 377 -41 10 0 20 -10 23 -22 6 -26 8
-20 -149 -603 -91 -335 -121 -434 -137 -447 -19 -16 -49 -18 -313 -18 -160 1
-311 5 -335 9 -58 12 -74 33 -66 91 10 73 201 799 261 994 4 11 18 30 33 44
24 23 31 24 106 19 44 -3 134 -15 200 -26z m415 6 c0 -19 -10 -27 -26 -20 -11
4 -12 9 -3 19 15 18 29 18 29 1z m154 -12 c4 -12 -3 -15 -37 -14 -51 2 -67 10
-41 20 32 13 72 10 78 -6z m-211 -2 c-7 -2 -19 -2 -25 0 -7 3 -2 5 12 5 14 0
19 -2 13 -5z m97 -18 c-12 -15 -30 -12 -30 6 0 5 10 9 21 9 18 0 19 -2 9 -15z
m300 5 c0 -5 -5 -10 -11 -10 -5 0 -7 5 -4 10 3 6 8 10 11 10 2 0 4 -4 4 -10z
m-158 -525 c-103 -385 -138 -504 -154 -518 -11 -9 -44 -24 -72 -32 -63 -19
-185 -34 -191 -25 -4 6 207 800 261 985 25 88 34 92 178 91 l111 -1 -133 -500z
m-2647 -15 c3 -5 1 -10 -4 -10 -6 0 -11 5 -11 10 0 6 2 10 4 10 3 0 8 -4 11
-10z m719 -49 c346 -1 631 -3 633 -5 2 -2 -14 -75 -36 -162 -22 -88 -43 -180
-46 -206 -9 -57 8 -111 39 -132 64 -41 277 -65 596 -66 l145 0 0 -110 c0 -108
0 -110 -25 -120 -94 -39 -457 -54 -1165 -47 -566 5 -745 14 -823 41 l-37 13
-3 405 -2 405 47 -8 c27 -4 331 -8 677 -8z m-107 -891 c324 -10 501 -10 820 0
225 6 429 14 454 17 l47 5 -18 -54 -17 -53 -84 -17 c-319 -65 -1165 -78 -1553
-23 -54 7 -100 16 -103 18 -2 3 -9 25 -14 49 -5 24 -12 51 -15 62 -5 16 -2 18
32 13 22 -3 225 -11 451 -17z m1233 -140 c-8 -5 -22 -10 -30 -10 -25 0 -178
-104 -173 -117 5 -14 -13 -18 -19 -4 -2 5 -31 4 -68 -2 -87 -14 -963 -14
-1050 0 -37 6 -66 7 -68 2 -2 -5 -8 -9 -14 -9 -6 0 -8 6 -5 14 3 8 -20 26 -69
51 -41 21 -73 39 -71 41 1 1 34 -1 72 -6 168 -21 643 -32 895 -21 326 15 550
40 550 62 0 5 15 9 33 9 24 0 28 -3 17 -10z m-1580 -25 c0 -18 -8 -18 -40 0
l-25 14 33 1 c22 0 32 -5 32 -15z m1346 -176 c-44 -273 -313 -475 -607 -455
-162 11 -295 72 -400 184 -64 68 -98 126 -123 211 -18 61 -20 91 -7 91 5 0 11
-22 15 -48 11 -83 69 -188 145 -262 75 -74 157 -120 261 -146 92 -23 263 -15
345 16 185 71 315 216 348 388 13 68 34 87 23 21z m-62 -6 c-4 -24 -20 -53
-44 -78 -40 -43 -108 -141 -131 -189 -13 -27 -126 -102 -137 -91 -10 10 156
264 223 342 31 36 44 44 88 52 4 0 5 -16 1 -36z m-945 -20 c25 -97 101 -189
201 -240 49 -25 65 -28 155 -28 87 0 107 3 157 27 100 47 198 170 198 251 0
25 3 27 38 27 20 0 48 3 61 7 22 6 20 1 -20 -53 -102 -133 -208 -306 -209
-340 0 -15 -57 -24 -150 -24 -227 0 -428 140 -491 341 -25 79 -25 79 15 79 32
0 34 -3 45 -47z m367 37 c345 0 323 7 280 -85 -27 -58 -100 -129 -160 -156
-183 -80 -392 26 -451 230 -6 20 -4 23 10 18 9 -4 154 -7 321 -7z m558 -132
c-14 -45 -98 -152 -114 -146 -16 5 98 167 118 168 2 0 0 -10 -4 -22z m-299
-258 c3 -5 -1 -10 -10 -10 -9 0 -13 5 -10 10 3 6 8 10 10 10 2 0 7 -4 10 -10z"/>
</g>
</svg>
