<?xml version="1.0" encoding="UTF-8"?>
<svg id="Laag_1" data-name="Laag 1" xmlns="http://www.w3.org/2000/svg" viewBox="0 0 341.18 625.3">
  <defs>
    <style>
      .cls-1 {
        fill: none;
        stroke: #000;
        stroke-linejoin: round;
        stroke-width: 3px;
      }
      .cls-2 {
        fill: none;
        stroke: #000;
        stroke-linejoin: round;
        stroke-width: 10px;
      }
    </style>
  </defs>
  <path class="cls-2" d="M284.76,157.92H55.08c-25.93,0-43.95-20.36-43.95-45.47l7.32-65.48C18.45,21.86,39.47,1.5,65.4,1.5h209.03c25.93,0,46.95,20.36,46.95,45.47l7.32,65.48c0,25.11-18.02,45.47-43.95,45.47Z"/>
  <rect class="cls-1" x="98.7" y="34.08" width="5.42" height="115.26"/>
  <rect class="cls-1" x="104.12" y="27.59" width="5.42" height="124.49"/>
  <rect class="cls-1" x="109.54" y="34.08" width="5.42" height="115.26"/>
  <rect class="cls-1" x="114.96" y="27.59" width="5.42" height="124.49"/>
  <rect class="cls-1" x="120.38" y="34.08" width="5.42" height="115.26"/>
  <rect class="cls-1" x="125.8" y="27.59" width="5.42" height="124.49"/>
  <rect class="cls-1" x="131.22" y="34.08" width="5.42" height="115.26"/>
  <rect class="cls-1" x="136.64" y="27.59" width="5.42" height="124.49"/>
  <rect class="cls-1" x="60.76" y="27.59" width="5.42" height="124.49"/>
  <rect class="cls-1" x="66.18" y="34.08" width="5.42" height="115.26"/>
  <rect class="cls-1" x="49.92" y="27.59" width="5.42" height="124.49"/>
  <rect class="cls-1" x="55.34" y="34.08" width="5.42" height="115.26"/>
  <rect class="cls-1" x="71.6" y="27.59" width="5.42" height="124.49"/>
  <rect class="cls-1" x="77.02" y="34.08" width="5.42" height="115.26"/>
  <rect class="cls-1" x="82.44" y="27.59" width="5.42" height="124.49"/>
  <rect class="cls-1" x="87.86" y="34.08" width="5.42" height="115.26"/>
  <rect class="cls-1" x="93.28" y="27.59" width="5.42" height="124.49"/>
  <rect class="cls-1" x="142.06" y="34.08" width="5.42" height="115.26"/>
  <rect class="cls-1" x="147.48" y="27.59" width="5.42" height="124.49"/>
  <rect class="cls-1" x="163.74" y="34.08" width="5.42" height="115.26"/>
  <rect class="cls-1" x="169.16" y="27.59" width="5.42" height="124.49"/>
  <rect class="cls-1" x="174.59" y="34.08" width="5.42" height="115.26"/>
  <rect class="cls-1" x="180.01" y="27.59" width="5.42" height="124.49"/>
  <rect class="cls-1" x="185.43" y="34.08" width="5.42" height="115.26"/>
  <rect class="cls-1" x="190.85" y="27.59" width="5.42" height="124.49"/>
  <rect class="cls-1" x="196.27" y="34.08" width="5.42" height="115.26"/>
  <rect class="cls-1" x="201.69" y="27.59" width="5.42" height="124.49"/>
  <rect class="cls-1" x="152.9" y="34.08" width="5.42" height="115.26"/>
  <rect class="cls-1" x="158.32" y="27.59" width="5.42" height="124.49"/>
  <rect class="cls-1" x="207.11" y="34.08" width="5.42" height="115.26"/>
  <rect class="cls-1" x="212.53" y="27.59" width="5.42" height="124.49"/>
  <rect class="cls-1" x="228.79" y="34.08" width="5.42" height="115.26"/>
  <rect class="cls-1" x="234.21" y="27.59" width="5.42" height="124.49"/>
  <rect class="cls-1" x="239.63" y="34.08" width="5.42" height="115.26"/>
  <rect class="cls-1" x="245.05" y="27.59" width="5.42" height="124.49"/>
  <rect class="cls-1" x="250.47" y="34.08" width="5.42" height="115.26"/>
  <rect class="cls-1" x="255.89" y="27.59" width="5.42" height="124.49"/>
  <rect class="cls-1" x="261.31" y="34.08" width="5.42" height="115.26"/>
  <rect class="cls-1" x="266.73" y="27.59" width="5.42" height="124.49"/>
  <rect class="cls-1" x="217.95" y="34.08" width="5.42" height="115.26"/>
  <rect class="cls-1" x="223.37" y="27.59" width="5.42" height="124.49"/>
  <rect class="cls-1" x="272.15" y="34.08" width="5.42" height="115.26"/>
  <rect class="cls-1" x="277.57" y="27.59" width="5.42" height="124.49"/>
  <rect class="cls-1" x="282.99" y="34.08" width="5.42" height="115.26"/>
  <rect class="cls-1" x="288.41" y="27.59" width="5.42" height="124.49"/>
  <path class="cls-1" d="M293.83,149.34c16.45-4.7,19.3-9.99,23.95-20.74,4.65-10.74-20.14-94.52-20.14-94.52h-3.82"/>
  <path class="cls-1" d="M49.92,149.34c-16.45-4.7-21.55-6.96-26.2-17.7s22.39-97.56,22.39-97.56h3.82"/>
  <path class="cls-2" d="M11.13,112.45s-6.95,355.21-6.95,377.24c0,35.58,5.19,61.61,64.82,64.38,61.03,2.83,201.16,5.93,221.91,0s46.16-16.94,47.85-34.73-10.06-406.88-10.06-406.88"/>
  <path class="cls-2" d="M4.18,497.69s-6.02,81.69,0,94.12c6.02,12.42,10.88,16.56,13.55,18.82s11.33,13.18,11.33,13.18h65.09l25.26-16.52h98.69l29.35,16.52h61s29.92-21.44,29.92-29.92.39-74.55.39-74.55"/>
  <path class="cls-1" d="M4.18,497.69s-6.02,81.69,0,94.12c6.02,12.42,10.88,16.56,13.55,18.82.63.53,1.58,1.53,2.67,2.76v-53.47c0-1.43,1.16-2.6,2.6-2.6h3.47c1.43,0,2.6,1.16,2.6,2.6v63.89h3.68v-61.89c0-1.43,1.16-2.6,2.6-2.6h3.47c1.43,0,2.6,1.16,2.6,2.6v61.89h4.68v-59.89c0-1.43,1.16-2.6,2.6-2.6h3.47c1.43,0,2.6,1.16,2.6,2.6v59.89h4.68v-59.89c0-1.43,1.16-2.6,2.6-2.6h3.47c1.43,0,2.6,1.16,2.6,2.6v59.89h3.68v-57.89c0-1.43,1.16-2.6,2.6-2.6h3.47c1.43,0,2.6,1.16,2.6,2.6v57.89h3.68v-57.89c0-1.43,1.16-2.6,2.6-2.6h3.47c1.43,0,2.6,1.16,2.6,2.6v57.89h1.41l4.27-2.79v-54.1c0-1.43,1.16-2.6,2.6-2.6h3.47c1.43,0,2.6,1.16,2.6,2.6v48.43l3.68-2.4v-46.03c0-1.43,1.16-2.6,2.6-2.6h3.47c1.43,0,2.6,1.16,2.6,2.6v40.37h3.68v-40.37c0-1.43,1.16-2.6,2.6-2.6h3.47c1.43,0,2.6,1.16,2.6,2.6v40.37h3.68v-40.37c0-1.43,1.16-2.6,2.6-2.6h3.47c1.43,0,2.6,1.16,2.6,2.6v40.37h3.68v-40.37c0-1.43,1.16-2.6,2.6-2.6h3.47c1.43,0,2.6,1.16,2.6,2.6v40.37h3.68v-40.37c0-1.43,1.16-2.6,2.6-2.6h3.47c1.43,0,2.6,1.16,2.6,2.6v40.37h3.68v-40.37c0-1.43,1.16-2.6,2.6-2.6h3.47c1.43,0,2.6,1.16,2.6,2.6v40.37h3.68v-40.37c0-1.43,1.16-2.6,2.6-2.6h3.47c1.43,0,2.6,1.16,2.6,2.6v40.37h3.68v-40.37c0-1.43,1.16-2.6,2.6-2.6h3.47c1.43,0,2.6,1.16,2.6,2.6v40.37h3.68v-40.37c0-1.43,1.16-2.6,2.6-2.6h3.47c1.43,0,2.6,1.16,2.6,2.6v40.37l4.68,2.63v-43c0-1.43,1.16-2.6,2.6-2.6h3.47c1.43,0,2.6,1.16,2.6,2.6v47.87l3.68,2.07v-50.94c0-1.43,1.16-2.6,2.6-2.6h3.47c1.43,0,2.6,1.16,2.6,2.6v55.82l3.68,2.07v-57.89c0-1.43,1.16-2.6,2.6-2.6h3.47c1.43,0,2.6,1.16,2.6,2.6v57.89h5.68v-58.89c0-1.43,1.16-2.6,2.6-2.6h3.47c1.43,0,2.6,1.16,2.6,2.6v58.89h3.68v-58.89c0-1.43,1.16-2.6,2.6-2.6h3.47c1.43,0,2.6,1.16,2.6,2.6v58.89h4.68v-59.89c0-1.43,1.16-2.6,2.6-2.6h3.47c1.43,0,2.6,1.16,2.6,2.6v59.89h3.68v-61.89c0-1.43,1.16-2.6,2.6-2.6h3.47c1.43,0,2.6,1.16,2.6,2.6v61.89s1.93-1.38,4.8-3.58v-60.31c0-1.43,1.16-2.6,2.6-2.6h3.47c1.43,0,2.6,1.16,2.6,2.6v53.38c7.94-6.68,16.46-14.89,16.46-19.41,0-8.48,2.66-93.9.39-74.55-1.69,14.4-22.31,31.91-59.81,36.46-33.08,1.41-73.37,2.2-119.01,1.06-101.28-2.51-116.68-2.91-132.15-11.66-25.68-10.63-23.62-47.52-23.62-47.52Z"/>
  <circle class="cls-1" cx="171.35" cy="451.21" r="11.4"/>
</svg>