<?xml version="1.0" encoding="utf-8"?>
<svg viewBox="-89.128 68.61 313.248 634" xmlns="http://www.w3.org/2000/svg">
  <g transform="matrix(0.1, 0, 0, -0.1, -118.753275, 733.610065)" fill="#000000" stroke="none">
    <path d="M416 6503 c-22 -509 -71 -2613 -96 -4143 -6 -355 -15 -871 -20 -1148 -5 -286 -5 -516 0 -533 8 -28 57 -92 132 -174 16 -16 28 -33 28 -37 0 -5 7 -8 15 -8 10 0 15 11 15 35 0 31 3 35 26 35 l27 0 -5 -75 c-5 -73 9 -122 28 -103 4 5 12 -2 18 -15 12 -22 12 -22 299 -25 l287 -2 11 27 c6 16 10 65 9 111 -1 82 -1 82 24 82 24 0 26 -3 26 -50 0 -55 10 -62 48 -31 14 12 22 30 22 50 0 26 4 31 24 31 13 0 26 -5 28 -12 4 -10 13 -10 45 0 56 17 865 17 913 0 26 -9 35 -9 38 0 2 7 15 12 28 12 20 0 24 -5 24 -28 0 -29 35 -72 58 -72 8 0 12 18 12 50 0 46 2 50 24 50 23 0 24 -2 28 -93 2 -61 8 -100 17 -111 12 -15 43 -16 300 -14 l286 3 3 23 c2 15 9 22 17 18 27 -10 37 22 33 99 l-3 75 28 0 c26 0 28 -3 25 -32 -2 -21 1 -33 9 -33 23 0 172 185 179 222 6 32 2 386 -11 1098 -3 149 -10 536 -15 860 -22 1318 -53 2656 -88 3780 l-7 220 -1441 3 -1442 2 -6 -147z m2868 -23 c31 -719 114 -4675 104 -4960 -3 -100 -7 -123 -32 -177 -65 -143 -225 -225 -523 -270 -178 -27 -1757 -27 -1935 0 -311 47 -459 122 -527 266 l-26 56 1 610 c1 563 8 987 34 2210 20 882 60 2384 65 2400 1 7 483 10 1418 10 l1415 0 6 -145z m112 -5797 c-6 -18 -38 -64 -71 -102 l-60 -70 -3 315 -2 314 -26 0 c-14 0 -36 -11 -49 -25 l-25 -24 0 -356 c0 -230 -4 -355 -10 -355 -6 0 -10 123 -10 349 0 302 -2 350 -15 355 -21 8 -62 -9 -73 -31 -6 -11 -9 -149 -8 -346 1 -257 -1 -327 -11 -327 -10 0 -13 70 -12 325 0 179 -3 329 -6 335 -9 14 -48 13 -69 -3 -16 -11 -17 -39 -16 -335 0 -213 -3 -322 -10 -322 -7 0 -10 106 -10 313 0 330 -1 337 -46 337 -53 0 -54 -7 -54 -341 0 -196 -4 -309 -10 -309 -6 0 -11 116 -12 313 l-3 312 -33 3 c-63 6 -62 11 -62 -324 0 -193 -4 -304 -10 -304 -6 0 -11 114 -12 306 -3 280 -5 308 -21 318 -13 8 -24 7 -45 -4 l-27 -16 -3 -302 c-1 -166 -6 -302 -11 -302 -5 0 -9 134 -8 299 0 164 -3 303 -7 310 -11 17 -73 14 -80 -5 -3 -9 -6 -128 -6 -265 0 -164 -3 -248 -10 -244 -6 4 -10 99 -10 254 0 264 -1 271 -50 271 -48 0 -50 -9 -50 -242 0 -139 -4 -218 -10 -218 -6 0 -10 79 -10 218 0 234 -2 242 -52 242 -44 0 -48 -21 -48 -246 0 -114 -3 -204 -7 -200 -5 4 -9 98 -10 209 -1 111 -4 210 -8 220 -10 24 -72 24 -79 0 -3 -10 -8 -110 -10 -222 -3 -112 -7 -206 -10 -209 -3 -3 -6 88 -6 202 0 225 -4 246 -48 246 -50 0 -52 -8 -52 -237 0 -135 -4 -213 -10 -213 -6 0 -10 78 -10 213 0 229 -2 237 -52 237 -44 0 -48 -21 -48 -245 0 -129 -4 -204 -10 -200 -5 3 -9 91 -10 212 0 222 -2 233 -51 233 -45 0 -49 -21 -49 -246 0 -114 -2 -205 -5 -202 -3 3 -7 97 -10 209 -6 235 -6 239 -44 239 -49 0 -51 -11 -51 -239 -1 -128 -5 -211 -10 -211 -6 0 -10 81 -10 206 0 222 -4 244 -48 244 -50 0 -52 -8 -52 -238 0 -139 -3 -211 -10 -207 -6 4 -10 86 -10 214 0 223 -2 231 -52 231 -44 0 -48 -21 -48 -251 0 -117 -3 -210 -6 -206 -4 3 -8 103 -10 222 -2 119 -6 220 -9 225 -10 17 -72 12 -79 -6 -3 -9 -6 -125 -6 -259 0 -152 -4 -246 -10 -250 -7 -4 -10 78 -10 240 0 151 -4 254 -10 266 -13 24 -75 27 -84 3 -3 -9 -6 -148 -6 -310 0 -189 -4 -294 -10 -294 -6 0 -10 106 -10 299 0 320 -2 331 -50 331 -48 0 -50 -11 -50 -331 0 -191 -4 -299 -10 -299 -6 0 -10 110 -9 306 0 169 -3 310 -8 314 -4 5 -20 10 -34 12 -54 6 -54 5 -53 -326 0 -191 -3 -305 -9 -303 -6 2 -11 125 -13 307 -1 168 -3 308 -3 312 -2 15 -44 30 -67 24 l-24 -6 0 -320 c0 -207 -4 -320 -10 -320 -6 0 -10 111 -10 313 0 351 -2 361 -63 355 l-32 -3 -3 -332 c-1 -211 -6 -333 -12 -333 -6 0 -10 121 -10 333 0 361 1 351 -54 371 -45 16 -46 4 -46 -361 0 -227 -3 -342 -10 -338 -6 4 -10 135 -10 360 l0 354 -27 21 c-15 11 -36 20 -47 18 -21 -3 -21 -9 -24 -316 l-2 -313 -53 63 c-92 109 -87 93 -87 274 0 88 3 243 7 344 l6 182 19 -50 c56 -150 266 -247 618 -284 172 -18 1611 -18 1785 0 352 36 567 138 623 294 17 49 17 48 23 -284 3 -223 2 -344 -5 -365z m-2872 411 c14 -13 16 -53 16 -280 l0 -264 -25 0 -25 0 0 280 c0 166 4 280 9 280 5 0 17 -7 25 -16z m2714 -261 l-3 -278 -23 0 -24 0 1 265 c1 234 3 266 18 278 9 6 21 12 25 12 5 0 7 -125 6 -277z m-2584 194 c3 -12 6 -163 6 -334 l0 -313 -27 0 -28 0 3 327 c1 181 2 333 2 340 0 20 38 2 44 -20z m2466 -307 l0 -340 -25 0 -25 0 0 330 c0 303 1 330 18 339 9 6 20 11 25 11 4 0 7 -153 7 -340z m-2352 -22 l2 -318 -24 0 -25 0 0 321 -1 320 23 -3 22 -3 3 -317z m2232 2 l0 -320 -25 0 -25 0 0 313 c0 173 3 317 7 320 3 4 15 7 25 7 17 0 18 -16 18 -320z m-2112 -12 l2 -308 -25 0 -25 0 0 311 0 310 23 -3 22 -3 3 -307z m1992 2 l0 -310 -25 0 -24 0 -1 304 c0 235 3 305 12 309 38 16 38 16 38 -303z m-1870 -11 l0 -299 -25 0 -25 0 0 298 c0 164 3 301 6 304 3 3 14 4 25 1 18 -5 19 -17 19 -304z m1755 283 c3 -16 5 -153 3 -305 l-3 -277 -25 0 -25 0 2 297 c2 229 5 298 15 305 21 13 26 10 33 -20z m-1638 -284 l2 -298 -25 0 c-13 0 -24 5 -24 10 0 6 -1 75 -1 155 0 473 -2 437 24 433 l22 -3 2 -297z m1521 -1 l2 -297 -25 0 -25 0 0 293 c0 162 3 297 7 301 4 4 14 5 23 4 13 -3 15 -41 18 -301z m-1406 98 c0 -107 1 -201 2 -207 1 -7 -10 -13 -24 -13 l-25 0 -3 195 c-3 213 -2 220 28 220 19 0 20 -6 22 -195z m118 -15 l0 -210 -25 0 -25 0 0 210 0 210 25 0 25 0 0 -210z m118 3 c-3 -207 -3 -208 -25 -211 l-23 -3 0 210 0 211 25 0 26 0 -3 -207z m112 -3 c0 -202 -1 -210 -20 -210 -18 0 -19 9 -22 194 -3 222 -3 226 23 226 18 0 19 -9 19 -210z m120 0 l0 -210 -25 0 -25 0 0 210 0 210 25 0 25 0 0 -210z m118 3 c-3 -207 -3 -208 -25 -211 l-23 -3 0 210 0 211 25 0 25 0 -2 -207z m117 184 c3 -12 5 -105 3 -207 -3 -183 -4 -185 -26 -188 l-22 -3 0 210 c0 204 1 211 20 211 12 0 22 -9 25 -23z m117 1 c2 -13 2 -108 0 -211 -3 -188 -3 -188 -25 -185 -22 3 -22 6 -25 188 -2 101 -1 195 3 207 7 31 42 31 47 1z m118 -188 l0 -210 -25 0 -25 0 0 210 0 210 25 0 25 0 0 -210z m115 188 c3 -13 5 -106 3 -208 -3 -183 -3 -185 -25 -188 l-23 -3 0 210 c0 204 1 211 20 211 12 0 22 -9 25 -22z m117 0 c2 -13 2 -108 0 -211 -3 -187 -3 -188 -25 -185 -21 3 -22 6 -25 188 -3 207 0 230 27 230 13 0 21 -8 23 -22z m118 -188 l0 -210 -25 0 -25 0 0 210 0 210 25 0 25 0 0 -210z m-1370 -411 c0 -5 -118 -9 -275 -9 -151 0 -275 4 -275 9 0 4 124 8 275 9 158 0 275 -4 275 -9z m1950 0 c0 -5 -119 -9 -270 -9 -148 0 -270 4 -270 8 0 5 122 9 270 9 152 1 270 -3 270 -8z M1823 2259 c-127 -37 -119 -250 11 -279 66 -15 154 43 157 103 6 90 -19 144 -75 171 -38 18 -47 18 -93 5z m79 -58 c78 -39 47 -171 -39 -171 -73 0 -110 92 -63 153 28 35 57 40 102 18z M1951 1761 c-19 -19 -21 -33 -21 -126 0 -63 4 -105 10 -105 6 0 10 31 10 74 0 70 1 75 23 78 12 2 20 8 17 13 -3 6 -13 9 -22 8 -19 -3 -23 13 -10 34 4 7 17 14 27 15 29 5 34 22 8 26 -12 2 -31 -6 -42 -17z M1598 1690 c-74 -58 -10 -192 77 -163 30 10 72 74 60 93 -9 14 -25 2 -25 -19 0 -44 -72 -68 -103 -33 -50 56 11 152 73 112 12 -7 11 -13 -9 -34 -36 -39 -15 -45 22 -7 l32 32 -24 20 c-30 24 -72 24 -103 -1z M1760 1640 c0 -77 19 -110 63 -110 47 0 61 22 65 104 3 46 0 76 -6 76 -5 0 -12 -32 -14 -71 -4 -67 -14 -89 -43 -89 -29 0 -39 22 -43 89 -5 92 -22 92 -22 1z M2020 1706 c0 -3 14 -44 31 -91 33 -91 31 -135 -6 -135 -8 0 -15 -4 -15 -10 0 -14 36 -12 47 3 11 13 83 212 83 228 0 5 -4 9 -9 9 -5 0 -20 -35 -33 -77 l-24 -78 -25 74 c-14 41 -31 77 -37 79 -7 2 -12 1 -12 -2z M1597 1384 c-15 -15 -6 -35 21 -46 l27 -11 -30 -7 c-25 -6 -27 -8 -12 -14 9 -5 24 -6 32 -2 22 8 18 37 -5 43 -11 3 -20 10 -20 15 0 6 9 8 21 5 13 -3 19 -1 16 6 -4 14 -39 21 -50 11z M1670 1345 c0 -41 2 -45 25 -45 14 0 25 5 25 10 0 6 -9 10 -20 10 -27 0 -25 18 3 23 l22 4 -23 2 c-14 0 -22 6 -19 14 2 6 11 11 20 9 8 -1 18 2 22 8 4 6 -6 10 -24 10 -30 0 -31 -1 -31 -45z M1747 1383 c-4 -3 -7 -21 -7 -39 0 -35 32 -56 53 -35 8 8 3 11 -17 11 -24 0 -27 3 -24 28 2 22 7 26 27 24 15 -2 21 0 17 7 -8 12 -39 15 -49 4z M1810 1361 c0 -16 7 -36 15 -45 18 -18 45 -11 45 13 0 9 3 26 6 39 4 12 2 22 -4 22 -6 0 -12 -15 -14 -32 -2 -18 -7 -33 -13 -33 -5 0 -11 15 -13 33 -4 40 -22 43 -22 3z M1891 1343 c1 -27 4 -38 6 -25 5 24 33 31 33 8 0 -8 4 -17 8 -20 8 -4 8 8 3 77 -1 4 -12 7 -26 7 -23 0 -25 -3 -24 -47z m39 22 c0 -8 -7 -15 -15 -15 -16 0 -20 12 -8 23 11 12 23 8 23 -8z M1973 1345 c0 -27 2 -38 4 -22 2 15 2 37 0 50 -2 12 -4 0 -4 -28z M2008 1377 c6 -6 12 -28 15 -47 l4 -35 1 38 c1 20 7 37 12 37 6 0 10 5 10 10 0 6 -12 10 -26 10 -20 0 -24 -3 -16 -13z M2074 1365 c9 -13 16 -35 17 -47 1 -20 2 -20 9 5 5 16 14 35 21 43 6 8 9 17 5 21 -3 4 -12 -2 -19 -12 -13 -16 -14 -16 -20 -1 -4 9 -12 16 -18 16 -7 0 -6 -9 5 -25z" style="stroke: rgb(0, 0, 0); stroke-width: 20px;"/>
  </g>
</svg>