<?xml version="1.0" standalone="no"?>
<!DOCTYPE svg PUBLIC "-//W3C//DTD SVG 20010904//EN"
 "http://www.w3.org/TR/2001/REC-SVG-20010904/DTD/svg10.dtd">
<svg version="1.0" xmlns="http://www.w3.org/2000/svg"
 width="300.000000pt" height="309.000000pt" viewBox="0 0 300.000000 309.000000"
 preserveAspectRatio="xMidYMid meet">
<metadata>
Created by potrace 1.10, written by Peter Selinger 2001-2011
</metadata>
<g transform="translate(0.000000,309.000000) scale(0.100000,-0.100000)"
fill="#000000" stroke="none">
<path d="M681 2714 c-109 -29 -230 -125 -279 -220 -50 -99 -54 -126 -65 -559
-8 -303 -7 -440 1 -525 39 -386 206 -621 567 -791 184 -87 407 -154 590 -179
210 -28 333 49 757 470 194 193 242 246 266 295 32 65 56 158 73 275 21 151 7
628 -22 747 -54 221 -235 339 -709 457 l-182 46 -471 -1 c-380 0 -483 -3 -526
-15z m1144 -38 c277 -70 435 -128 547 -202 76 -51 117 -98 153 -176 32 -70 42
-142 55 -389 17 -325 -12 -569 -82 -702 -35 -66 -184 -227 -359 -388 l-99 -91
15 42 c27 75 35 201 42 601 7 431 1 522 -43 657 -51 156 -126 274 -242 384
-120 112 -258 175 -591 269 -57 16 -105 30 -107 31 -1 2 124 3 279 2 l282 -1
150 -37z m-570 -17 c350 -105 446 -151 565 -268 145 -144 230 -320 260 -541
13 -95 6 -748 -10 -925 -16 -177 -32 -207 -169 -321 l-33 -28 31 45 c75 107
87 202 97 749 7 423 2 491 -52 641 -76 214 -243 406 -436 501 -104 51 -556
189 -612 187 -12 0 35 -15 104 -34 389 -103 535 -162 656 -263 199 -167 311
-390 329 -657 8 -120 -11 -853 -25 -935 -14 -83 -67 -196 -115 -245 -43 -43
-135 -89 -211 -106 -128 -29 -501 65 -749 189 -286 142 -446 337 -510 622 -34
154 -28 1018 9 1136 39 126 148 238 274 280 57 20 87 22 246 23 l181 1 170
-51z"/>
<path d="M1427 2693 c-17 -36 20 -59 111 -69 67 -7 112 5 112 30 0 24 -27 37
-87 41 l-58 4 51 -8 c28 -5 60 -13 70 -19 27 -16 -97 -16 -151 0 -38 11 -39
12 -15 19 l25 7 -27 1 c-15 1 -29 -2 -31 -6z m148 -44 c61 0 66 -2 41 -11 -32
-12 -151 3 -169 21 -7 7 0 8 24 1 18 -6 65 -10 104 -11z"/>
<path d="M687 2659 c-108 -25 -209 -109 -259 -214 -40 -87 -48 -181 -51 -658
-2 -328 0 -395 15 -473 50 -265 159 -430 376 -572 298 -194 741 -296 923 -211
113 53 207 183 229 319 14 83 33 776 25 895 -25 353 -238 650 -553 769 -72 27
-335 103 -472 135 -89 22 -169 25 -233 10z m413 -69 c261 -71 345 -103 441
-165 204 -132 336 -331 379 -571 15 -87 8 -880 -9 -989 -23 -145 -103 -260
-220 -318 -63 -31 -70 -32 -181 -31 -194 2 -390 54 -595 156 -346 174 -490
383 -525 764 -15 172 3 867 26 944 21 75 54 128 107 177 53 49 88 68 159 88
86 24 170 13 418 -55z"/>
<path d="M755 2251 c-76 -19 -128 -67 -155 -141 -19 -51 -27 -616 -10 -719 34
-210 115 -307 355 -422 168 -80 310 -119 437 -119 125 0 174 64 197 258 17
132 14 616 -3 678 -38 142 -151 279 -278 339 -74 35 -376 118 -465 128 -27 3
-61 2 -78 -2z m263 -51 c270 -68 328 -95 424 -199 113 -122 138 -204 138 -447
l0 -172 -107 28 c-60 16 -133 37 -163 48 l-55 19 -7 69 c-7 81 -17 110 -58
170 -61 88 -168 120 -241 71 -44 -29 -78 -81 -85 -129 -4 -21 -12 -38 -19 -38
-21 0 -145 40 -204 66 l-54 24 7 178 c8 204 15 239 59 289 67 76 138 81 365
23z m102 -430 c122 -87 159 -292 73 -408 -70 -94 -197 -77 -274 37 -36 56 -52
108 -53 187 -1 79 41 167 94 196 45 25 115 20 160 -12z m-339 -147 l67 -17 6
-51 c9 -78 34 -140 76 -188 66 -74 142 -96 216 -61 43 21 70 54 91 115 l17 47
51 -20 c27 -11 100 -32 160 -47 l110 -28 3 -54 c5 -78 -14 -265 -33 -327 -9
-30 -31 -70 -50 -90 l-34 -37 -98 1 c-118 2 -209 25 -364 90 -187 79 -299 165
-349 268 -38 80 -52 157 -57 319 l-6 157 63 -29 c35 -17 94 -38 131 -48z"/>
<path d="M1034 2045 c-11 -27 5 -65 26 -65 28 0 48 44 30 65 -16 19 -49 19
-56 0z m49 -9 c7 -19 -17 -51 -31 -42 -13 8 -16 39 -5 49 11 12 31 8 36 -7z"/>
<path d="M705 1990 c-8 -13 14 -42 26 -34 5 3 9 14 9 25 0 20 -24 26 -35 9z
m25 -16 c0 -8 -5 -12 -10 -9 -6 4 -8 11 -5 16 9 14 15 11 15 -7z"/>
<path d="M1403 1764 c-8 -21 13 -42 28 -27 13 13 5 43 -11 43 -6 0 -13 -7 -17
-16z m27 -9 c0 -8 -4 -15 -10 -15 -5 0 -10 7 -10 15 0 8 5 15 10 15 6 0 10 -7
10 -15z"/>
<path d="M987 1671 c-67 -80 -24 -235 74 -266 33 -11 78 14 100 56 33 66 20
146 -35 204 -28 29 -40 35 -74 35 -32 0 -45 -6 -65 -29z m128 -14 c38 -38 59
-102 49 -152 -20 -111 -128 -115 -183 -8 -26 50 -5 172 31 186 36 15 71 6 103
-26z"/>
</g>
</svg>
