<?xml version="1.0" encoding="UTF-8"?>
<svg id="Laag_1" data-name="Laag 1" xmlns="http://www.w3.org/2000/svg" viewBox="0 0 549.02 384.15">
  <defs>
    <style>
      .cls-1 {
        stroke: #1d1d1b;
        stroke-miterlimit: 10;
        stroke-width: 3px;
      }

      .cls-2 {
        fill: #1d1d1b;
      }
    </style>
  </defs>
  <g>
    <path class="cls-1" d="M498.68,56.34c3.02-2.01,5.57-4.05,8.42-5.52,2.53-1.31,5.32-2.22,8.09-2.91,4.64-1.16,9.37-1.94,14.03-2.99,3.77-.85,7.48-1.97,11.26-2.75,1.67-.34,3.47-.2,5.2-.12,.36,.02,1.02,.77,.96,1.08-.08,.47-.62,1.15-1.05,1.22-2.78,.45-5.6,.7-8.39,1.15-1.76,.28-3.56,.57-5.2,1.23-4.35,1.74-8.96,2.12-13.49,2.98-6.49,1.23-12.64,3.43-17.23,8.6-.34,.38-.55,.88-.82,1.33,.1,.13,.19,.26,.29,.39,1.14-.3,2.29-.55,3.41-.9,4.92-1.53,9.85-3.02,14.74-4.65,4.46-1.48,9.48,.56,11.03,4.95,1.3,3.67,2.15,7.49,3.22,11.24,.71,2.5,1.45,4.98,2.32,7.98,1.88-8.68,5.04-16.32,10.93-23.06,.65,2.64,.75,4.7-1.45,6.32,.47,.33,.83,.45,.97,.7,.32,.55,.77,1.19,.7,1.73-.05,.38-.84,.78-1.37,.94-.75,.23-1.57,.24-2.36,.34,.02,.21,.03,.42,.05,.63,.77,.04,1.54,.11,2.31,.11,1,0,1.68,.5,1.42,1.46-.14,.51-.89,1.08-1.46,1.22-.88,.21-1.84,.06-2.77,.08-1.09,.02-1.7,.55-1.84,1.97,.95,.05,1.84,.14,2.73,.15,3.33,.02,3.46,.08,3.45,1.97-.01,1.81-.11,1.86-3.37,1.85-.99,0-1.98-.08-2.95,.04-.46,.06-.87,.53-1.3,.81,.42,.29,.81,.76,1.28,.85,1.64,.3,3.32,.4,4.95,.74,.51,.11,.9,.77,1.35,1.17-.51,.42-.99,1.16-1.52,1.19-1.73,.1-3.47-.14-5.2-.09-.62,.02-1.23,.49-1.84,.75,.53,.37,1.03,1.01,1.58,1.06,1.79,.15,3.59,.08,5.39,.09,.93,0,1.77,.3,1.51,1.35-.12,.47-.99,1.03-1.55,1.07-1.91,.14-3.83,.04-5.74,.08-.97,.02-1.96,.23-1.99,1.46-.03,1.33,.98,1.52,2.04,1.58,2.02,.1,4.06,.15,6.06,.42,.48,.06,.84,.93,1.26,1.43-.51,.42-.99,1.16-1.52,1.19-1.49,.08-3-.16-4.51-.23-.62-.03-1.24,.08-1.85,.12,.1,2.35,.38,2.64,2.52,2.66,.93,0,1.86-.05,2.78,.02,1.06,.07,2.58-.47,2.56,1.42-.01,1.8-1.49,1.23-2.48,1.3-1.24,.08-2.49,.02-3.73,.02-.04,.21-.07,.43-.11,.64,.52,.15,1.03,.4,1.55,.43,1.16,.07,2.34-.08,3.47,.11,.49,.08,1.29,.88,1.22,1.19-.12,.55-.73,1.25-1.27,1.4-.87,.24-1.86-.02-2.76,.13-.5,.09-.93,.59-1.4,.91,.46,.49,.83,1.16,1.39,1.42,.53,.25,1.25,.07,1.89,.09,1.03,.03,2.23-.17,2.23,1.44,0,1.58-1.2,1.24-2.13,1.31-.66,.05-1.32,.07-1.98,.1-.05,.22-.1,.45-.14,.67,.71,.21,1.41,.52,2.14,.61,.97,.13,2.08-.12,2.13,1.38,.04,1.56-1.1,1.33-2.07,1.4-.33,.03-.66,.12-1.56,.28,.87,.98,1.38,1.93,2.17,2.35,1.8,.95,1.99,1.71,.46,3.11-.12,.11-.18,.28,.2,.38,.26,1.32,.7,2.63,.75,3.95,.12,3.07,0,6.15,.1,9.22,.06,2.03-.33,3.79-2.01,5.11-.25,.2-.39,.53-.59,.82,.2,.18,.32,.38,.44,.38,1.58,0,2.2,.65,2.18,2.33-.03,1.75-.88,2.12-2.38,2.51-4.23,1.11-8.38,2.51-12.59,3.73-1.82,.53-3.67,.91-5.51,1.35-.39,.09-.9,.05-1.16,.29-.5,.46-.86,1.06-1.28,1.61,.65-.01,1.37,.16,1.94-.07,1.38-.56,1.92-.33,2.09,1.17,.53,4.57,.59,4.71-3.6,6.52-4.07,1.76-8.28,3.2-12.43,4.77-3.73,1.42-7.46,2.84-11.19,4.24-4.37,1.64-8.75,3.24-13.11,4.92-4.63,1.77-9.22,3.64-13.85,5.41-5.07,1.94-10.17,3.82-15.25,5.75-4.58,1.74-9.16,3.48-13.71,5.31-.84,.34-1.51,1.11-2.26,1.69,.1,.21,.21,.41,.31,.62,1.46-.5,2.95-.95,4.39-1.5,5.94-2.25,11.89-4.51,17.81-6.8,5.8-2.25,11.58-4.58,17.39-6.81,5.66-2.17,11.36-4.23,17.02-6.4,4.95-1.9,9.87-3.89,14.81-5.8,3.77-1.45,7.55-2.87,11.35-4.22,2-.71,2.94,.03,2.97,2.18,0,.46,0,.93,0,1.39-.09,3.27,.77,3.71-3.49,5.06-.5,.16-.8,.94-1.27,1.54,.51,.2,.63,.3,.72,.28,3.24-.83,3.41-.71,3.4,2.56,0,.23-.03,.47,0,.7,.38,2.7-.35,4.61-3.33,5.25-.65,.14-1.14,1.04-1.7,1.59,.13,.18,.26,.36,.39,.54,.53-.2,1.06-.43,1.6-.61,1.18-.4,1.96-.13,1.98,1.28,.01,1.1-.02,2.2-.03,3.31-.02,1.62-.81,2.59-2.43,2.89-.44,.08-.96,.19-1.27,.48-.42,.39-.67,.96-.99,1.46,.51,.03,1.02,.14,1.52,.09,1.09-.12,2.03,.83,1.78,1.9-.19,.84-.47,1.67-.62,2.52-.36,1.99-1.48,3.24-3.46,3.65-1.16,.24-1.85,.83-1.94,2.25,.47-.14,.82-.35,1.17-.34,.59,.02,1.45,0,1.71,.34,.32,.43,.31,1.28,.15,1.86-.28,1.05-.91,2-1.18,3.05-.51,2-2.06,2.65-3.76,3.15-.93,.27-1.78,.55-1.68,1.78,2.65,.21,3.03,1.29,1.95,3.19-1.05,1.86-2.01,3.79-3.22,5.55-.42,.61-1.44,.87-2.24,1.13-2.31,.75-3.5,2.51-4.44,4.52,1.73,1.93,1.77,1.97,0,3.95-1.81,2.03-3.72,3.98-5.56,5.98-2.04,2.23-4.83,3.11-7.51,4.19-4.66,1.88-9.32,3.74-13.98,5.61-4.73,1.89-9.46,3.75-14.18,5.66-4.01,1.62-7.98,3.34-12,4.95-4.71,1.88-9.47,3.64-14.18,5.52-4.56,1.82-9.07,3.77-13.63,5.6-4.76,1.91-9.57,3.7-14.34,5.6-4.4,1.75-8.77,3.59-13.16,5.37-3.85,1.56-7.72,3.09-11.57,4.64-2.94,1.18-5.88,2.37-8.83,3.53-4.78,1.89-9.57,3.75-14.35,5.65-3.7,1.47-7.39,2.98-11.08,4.48-4.75,1.93-9.49,3.88-14.24,5.8-4.6,1.86-9.14,3.93-13.84,5.49-5.99,1.99-10.55,6.18-15.66,9.51-6.8,4.43-13.72,8.57-21.3,11.58-5.26,2.09-10.41,4.47-15.64,6.64-5.32,2.2-10.68,4.29-16.01,6.45-4.55,1.85-9.08,3.77-13.64,5.6-5.57,2.24-11.17,4.4-16.74,6.62-3.65,1.46-7.28,2.98-10.93,4.43-5.73,2.28-11.48,4.52-17.2,6.81-5.31,2.12-10.59,4.31-15.89,6.43-5.68,2.27-11.39,4.5-17.07,6.76-3.91,1.56-7.8,3.17-11.71,4.73-3.49,1.39-6.9,3.07-10.51,4.05-5.83,1.58-11.71,1.96-17.8,.71-9.11-1.88-17.07-6.01-24.69-11.07-9.52-6.33-17.88-14.01-25.65-22.32-10.83-11.59-20.39-24.18-28.43-37.86-5.06-8.63-9.98-17.35-14.66-26.19-2.84-5.35-5.19-10.96-7.63-16.52-2.28-5.17-4.53-10.37-6.52-15.65-2.04-5.4-3.77-10.92-5.59-16.41-.96-2.89-1.92-5.79-2.72-8.73-.92-3.39-1.7-6.81-2.47-10.24-.92-4.11-1.84-8.21-2.62-12.35-.6-3.18-1.18-6.38-1.42-9.6-.61-8.25-1.36-16.52-1.43-24.78-.06-7.56,.58-15.15,2.55-22.53,1.99-7.43,4.67-14.57,9.74-20.48,2.71-3.16,5.84-6.05,9.74-7.71,3.2-1.36,6.59-2.31,9.91-3.37,3.69-1.16,7.4-2.24,11.11-3.35,4.1-1.22,8.2-2.4,12.29-3.65,2.92-.89,5.79-1.91,8.71-2.78,2.91-.86,5.87-1.58,8.79-2.41,2.71-.78,5.4-1.64,8.1-2.44,5.2-1.54,10.42-3.04,15.62-4.59,3.98-1.19,7.93-2.45,11.9-3.66,2.71-.83,5.41-1.64,8.13-2.44,2.81-.83,5.64-1.62,8.45-2.46,3.92-1.17,7.84-2.36,11.76-3.55,3.2-.97,6.39-1.97,9.59-2.9,2.87-.83,5.78-1.53,8.65-2.38,4.02-1.2,8.01-2.5,12.03-3.72,3.75-1.14,7.53-2.22,11.29-3.35,4.2-1.25,8.38-2.54,12.59-3.78,3.86-1.14,7.75-2.21,11.61-3.36,3.03-.9,6.04-1.89,9.07-2.81,2.59-.79,5.2-1.53,7.8-2.29,3.99-1.16,7.99-2.3,11.98-3.46,2.99-.87,5.98-1.73,8.97-2.64,2.86-.87,5.69-1.81,8.56-2.67,2.86-.86,5.74-1.64,8.61-2.47,2.66-.77,5.32-1.53,7.98-2.32,4.1-1.22,8.19-2.46,12.28-3.7,4.08-1.24,8.15-2.51,12.24-3.72,2.92-.86,5.86-1.63,8.78-2.48,2.55-.74,5.08-1.54,7.62-2.3,4.08-1.22,8.17-2.43,12.26-3.66,4.19-1.26,8.37-2.57,12.57-3.82,4.03-1.19,8.1-2.28,12.13-3.49,4.08-1.22,8.13-2.58,12.22-3.79,4.88-1.45,9.79-2.77,14.67-4.2,2.93-.86,5.82-1.84,8.74-2.73,2.75-.83,5.52-1.6,8.28-2.42,2.93-.87,5.84-1.78,8.77-2.65,3.82-1.13,7.62-2.31,11.47-3.34,3.68-.99,7.36-2.04,11.11-2.65,2.4-.39,4.92-.02,7.38,.03,.34,0,.68,.2,1.02,.21,3.9,.13,7.63,1.06,11.39,2.06,5.69,1.51,10.98,3.86,16.16,6.55,7.96,4.13,14.78,9.82,20.99,16.15,7.08,7.21,13.22,15.22,18.27,24.02,1.11,1.94,2.27,3.85,3.33,5.65ZM154.34,373.91c1.3-.52,2.12-.85,2.94-1.17,5.38-2.12,10.76-4.21,16.13-6.35,3.85-1.54,7.67-3.18,11.52-4.72,5.53-2.21,11.08-4.36,16.61-6.58,6.21-2.5,12.4-5.07,18.61-7.58,6.69-2.71,13.4-5.38,20.09-8.08,6.9-2.78,13.8-5.56,20.7-8.35,7.7-3.12,15.43-6.2,23.09-9.43,6.82-2.87,13.73-5.65,19.83-9.93,3.87-2.71,8.68-4.26,11.2-8.74,.17-.3,.65-.49,1.02-.61,4.38-1.43,7.57-4.63,10.98-7.47,4.94-4.12,9.78-8.36,14.66-12.54,3.65-3.12,7.45-6.1,10.95-9.38,8.57-8.05,17.14-16.12,25.48-24.42,11.62-11.57,23.08-23.32,34.51-35.09,7.14-7.36,14.09-14.9,21.13-22.36,3.05-3.24,6.13-6.47,9.12-9.77,3.47-3.82,6.81-7.75,10.29-11.56,5.03-5.52,10.21-10.91,15.19-16.48,6.78-7.61,13.41-15.36,20.15-23.01,7.35-8.35,14.65-16.74,22.17-24.93,2.99-3.25,4.76-6.77,3.28-10.97-1.87-5.32-4.15-10.51-6.57-15.6-2.63-5.53-5.5-10.96-8.52-16.29-3.7-6.53-7.42-13.08-11.6-19.31-6.83-10.19-15.14-19.09-25.44-25.87-4.43-2.91-9.18-5.4-13.97-7.68-2.98-1.41-6.32-2.06-9.5-3.07-3.48-1.1-6.97-2.06-10.68-1.86-.63,.03-1.32,.02-1.89-.2-3.32-1.3-6.6-.23-9.74,.46-4.77,1.05-9.39,2.73-14.08,4.14-5.36,1.61-10.73,3.23-16.1,4.83-2.71,.81-5.44,1.55-8.14,2.37-2.86,.86-5.69,1.8-8.55,2.67-2.97,.9-5.96,1.75-8.93,2.63-2.87,.85-5.74,1.73-8.62,2.57-3.88,1.14-7.77,2.24-11.65,3.38-2.93,.86-5.85,1.76-8.77,2.63-2.86,.86-5.73,1.7-8.59,2.57-2.7,.83-5.38,1.72-8.08,2.52-2.93,.86-5.9,1.6-8.83,2.46-5.21,1.53-10.4,3.13-15.6,4.67-3.81,1.13-7.64,2.17-11.45,3.31-4.13,1.24-8.24,2.57-12.37,3.82-4.14,1.25-8.29,2.44-12.44,3.67-2.54,.76-5.07,1.57-7.61,2.32-2.93,.86-5.88,1.64-8.81,2.5-3.04,.89-6.05,1.85-9.08,2.75-2.7,.8-5.43,1.51-8.13,2.32-2.98,.89-5.94,1.86-8.92,2.74-3.71,1.1-7.44,2.11-11.14,3.22-4.08,1.23-8.12,2.57-12.2,3.8-4.02,1.21-8.08,2.31-12.11,3.51-5.43,1.61-10.84,3.27-16.27,4.88-2.54,.76-5.12,1.4-7.66,2.17-2.86,.87-5.68,1.86-8.55,2.71-2.92,.87-5.88,1.6-8.81,2.46-4.2,1.24-8.39,2.54-12.58,3.81-3.98,1.21-7.96,2.41-11.94,3.61-2.6,.78-5.19,1.58-7.8,2.33-2.82,.81-5.66,1.54-8.47,2.37-3.14,.92-6.25,1.94-9.39,2.88-4.99,1.49-9.99,2.92-14.97,4.41-4.97,1.49-9.91,3.06-14.88,4.55-3.95,1.18-7.92,2.29-12.33,3.57,1.01,.43,1.6,.88,2.22,.93,3.63,.31,6.91,1.63,10.22,3.05,6.68,2.87,13.06,6.34,18.7,10.86,6.08,4.88,11.92,10.12,17.46,15.61,9.12,9.03,17.32,18.88,24.41,29.6,4.72,7.14,9.31,14.39,13.67,21.76,3.18,5.37,5.98,10.97,8.8,16.55,1.95,3.86,3.74,7.8,5.46,11.77,2.21,5.09,4.35,10.21,6.37,15.38,2.02,5.15,3.93,10.35,5.77,15.57,1.38,3.91,2.61,7.88,3.8,11.86,.84,2.82,1.56,5.68,2.25,8.53,.86,3.53,1.67,7.08,2.42,10.63,.63,2.98,1.21,5.98,1.66,9,.49,3.26,.45,6.63,1.28,9.8,1.39,5.34,1,10.77,.9,16.09-.14,6.84,.79,13.77-1.05,20.58-1.06,3.93-1.25,8.11-2.51,11.96-1.32,4.03-3.33,7.86-5.28,11.65-1.12,2.17-2.71,4.1-4.41,6.61Zm3.42-66.02c.13-.01,.25-.02,.38-.03-.49-6.86-.93-13.73-1.51-20.58-.22-2.58-.64-5.16-1.17-7.69-.87-4.18-1.87-8.32-2.86-12.47-.72-3.03-1.34-6.1-2.27-9.07-1.45-4.68-3.04-9.32-4.71-13.93-2.14-5.91-4.08-11.92-6.7-17.61-4.07-8.86-8.34-17.65-13.07-26.17-4.04-7.27-8.59-14.29-13.4-21.08-5.22-7.37-10.96-14.36-17.32-20.83-8.8-8.95-18.4-16.52-30.92-19.62-4.38-1.08-8.67-.99-12.81,.64-10.16,3.99-14.76,12.43-17.27,22.35-.71,2.79-1.19,5.66-1.43,8.53-.45,5.29-.95,10.61-.86,15.91,.12,6.7,.73,13.39,1.27,20.08,.24,2.93,.74,5.84,1.28,8.74,.46,2.49,1.15,4.94,1.72,7.41,.79,3.43,1.39,6.91,2.36,10.29,1.41,4.87,2.99,9.69,4.65,14.48,2.09,6.05,4,12.19,6.58,18.03,4.09,9.24,8.46,18.37,13.11,27.34,5.17,9.99,11.46,19.31,18.42,28.16,5.02,6.38,10.48,12.36,16.44,17.91,5.21,4.84,10.76,9.18,17.14,12.31,3.56,1.74,7.33,3.21,11.16,4.17,3.7,.93,7.55,.72,11.32-.48,4.41-1.39,8.06-3.86,10.8-7.48,3.95-5.23,6.49-11.11,7.78-17.59,1.04-5.23,2.03-10.43,1.87-15.79-.06-1.97,0-3.94,0-5.92Zm1.72-20.95c-.06,0-.12,.02-.19,.03,.35,3.84,.91,7.67,1.01,11.52,.17,6.66,.25,13.34-.04,19.99-.16,3.72-1.03,7.43-1.8,11.09-.66,3.15-1.27,6.39-2.56,9.29-1.58,3.56-3.61,6.99-5.87,10.17-4.21,5.92-10.46,8.34-17.44,9.04-4.04,.41-7.85-.69-11.7-1.89-6.53-2.03-12.31-5.42-17.65-9.49-7.11-5.43-13.35-11.8-19.22-18.57-8.01-9.23-14.97-19.2-20.92-29.82-4.51-8.06-8.5-16.43-12.47-24.79-2.57-5.41-4.82-10.98-6.93-16.59-1.95-5.18-3.57-10.49-5.25-15.77-1.34-4.22-2.68-8.44-3.78-12.73-.97-3.79-1.67-7.65-2.35-11.51-.96-5.4-2.05-10.79-2.59-16.23-.55-5.47-.76-11-.65-16.49,.15-7.21,.41-14.42,2.17-21.53,1.64-6.66,3.93-12.89,8.38-18.23,4.05-4.87,9.37-7.61,15.43-8.66,4.22-.73,8.55-.27,12.65,1.37,1.93,.77,3.91,1.39,5.88,2.08-2.27-1.95-4.66-3.67-7.23-5.08-5.38-2.94-10.92-5.39-17.05-6.57-5.83-1.13-11.57-1.15-17.09,.69-6.83,2.27-11.66,7.35-15.19,13.42-3.3,5.66-5.3,11.95-6.13,18.46-.77,6.13-1.09,12.33-1.41,18.51-.15,2.94,.06,5.91,.28,8.86,.3,4.16,.58,8.32,1.18,12.44,.69,4.8,1.63,9.56,2.61,14.31,1.05,5.08,2.04,10.18,3.47,15.16,1.66,5.82,3.71,11.53,5.68,17.26,3.43,9.96,7.39,19.7,12.27,29.04,4.53,8.66,8.86,17.45,13.79,25.88,4.09,6.98,8.67,13.72,13.48,20.23,7.66,10.36,16.28,19.9,25.9,28.53,8.03,7.2,16.55,13.64,26.5,17.89,3.63,1.55,7.55,2.77,11.45,3.25,3.54,.43,7.25-.18,10.85-.63,5.11-.64,9.23-3.43,12.74-6.95,6.11-6.13,9.11-13.97,11.05-22.19,.98-4.14,1.44-8.42,1.81-12.67,.7-8.04,.61-16.09-.47-24.11-.51-3.78-.75-7.59-1.26-11.36-.3-2.23-.88-4.43-1.33-6.65Zm307.05-126.94c.65-.14,.99-.17,1.3-.29,3.11-1.22,6.2-2.51,9.32-3.69,7.51-2.84,15.05-5.6,22.55-8.45,6.04-2.29,12.04-4.69,18.08-6.99,4.26-1.63,8.53-3.21,12.82-4.76,2.26-.82,4.58-1.5,6.85-2.29,1.63-.56,3.29-1.06,4.83-1.82,1.96-.96,2.9-2.8,2.77-4.87-.23-3.76-.97-7.47-3.03-10.73-4.13-6.52-6.1-13.73-7.22-21.28-.64-4.33,.35-8.78-1.26-13.06-1.11-2.95-1.65-6.1-2.46-9.16-.85-3.24-1.71-6.47-2.57-9.7-1.1-4.14-3.15-6.93-7.68-6.2-1.52,.24-2.99,.83-4.47,1.28-4.17,1.29-8.33,2.61-12.5,3.9-1.31,.41-1.66,1.24-1.05,2.39,1.79,3.43,3.75,6.78,5.44,10.26,2.3,4.73,4.38,9.56,6.61,14.33,.72,1.54,.91,3.47,3.25,3.79,4.51,.62,6.71,4.15,8.6,7.64,2,3.71,2.55,7.83,2.33,12.11-.16,3.14-1.17,5.7-3.26,7.98-.53,.57-1.07,1.61-.9,2.25,.69,2.73-.07,4.43-2.86,5.19-.35,.1-.57,.7-.85,1.07,.52,.11,1.03,.29,1.56,.31,.24,.01,.49-.27,.75-.4,1.44-.74,2.18-.41,2.54,1.11,.25,1.07,.56,2.12,.75,3.2,.21,1.19,.24,2.33-1.23,2.86-3.2,1.15-6.4,2.29-9.58,3.51-5.81,2.23-11.58,4.55-17.39,6.77-9.11,3.48-18.24,6.88-27.34,10.41-1.69,.65-3.77,.93-4.68,3.36ZM164.61,335.02c-.58,2.66-1.39,6.33-2.17,10.02-1,4.68-2.83,9.03-5.19,13.18-5.17,9.07-12.8,14.59-23.23,15.97-3.5,.46-7.01,.56-10.47-.69-3.94-1.42-8.13-2.23-11.94-3.92-8.65-3.83-16.16-9.51-23.31-15.62-7.94-6.8-15.22-14.26-21.82-22.38-6.91-8.51-13.2-17.46-18.88-26.83-5.68-9.36-10.99-18.92-15.52-28.89-2.53-5.57-5.24-11.08-7.53-16.75-2.43-6.04-4.6-12.19-6.63-18.38-2.04-6.25-3.79-12.6-5.62-18.92-.46-1.6-.81-3.25-1.11-4.89-.46-2.54-.81-5.11-1.25-7.65-.6-3.46-1.44-6.9-1.82-10.38-.79-7.2-1.49-14.41-1.16-21.67,.17-3.65,.04-7.31,.39-10.94,.31-3.26,.99-6.5,1.7-9.7,.7-3.13,1.38-6.3,2.54-9.27,1.77-4.52,4.19-8.7,7.34-12.5,4.45-5.37,10.14-8.66,16.75-10.21,6.01-1.41,12.14-.78,17.98,1.15,8.35,2.76,15.93,7.1,22.98,12.34,1.53,1.13,3.07,2.24,4.61,3.36-.15-.72-.5-1.17-.93-1.54-6.55-5.64-13.36-10.9-21.1-14.89-5.45-2.81-11.13-4.92-17.14-5.91-5.6-.93-11.09,.1-16.3,2.23-6.71,2.74-11.25,7.89-14.4,14.21-1.69,3.38-2.94,7.03-4.01,10.66-1.17,3.97-2.32,8.03-2.7,12.12-.53,5.76-.4,11.58-.45,17.37-.02,3.01,.16,6.02,.33,9.03,.09,1.67,.3,3.34,.52,5,.49,3.66,1,7.32,1.53,10.97,.4,2.79,.72,5.6,1.29,8.36,.85,4.12,1.86,8.21,2.86,12.3,.73,2.97,1.47,5.95,2.35,8.88,1.1,3.64,2.32,7.24,3.54,10.84,1.48,4.35,2.92,8.72,4.59,13,1.7,4.36,3.58,8.65,5.49,12.92,2.91,6.47,5.68,13.02,8.94,19.31,3.86,7.44,7.97,14.76,12.35,21.91,4.29,7,8.82,13.89,13.66,20.52,6.33,8.66,13.23,16.89,21.11,24.21,4.75,4.41,9.58,8.77,14.71,12.73,5.4,4.16,11.06,8.05,17.57,10.4,3.71,1.34,7.38,3.19,11.22,3.73,4.73,.67,9.62,1.04,14.41-.63,4.22-1.47,8.08-3.46,11.15-6.7,6.07-6.43,9.12-14.37,11.04-22.82,.68-2.98,1.29-6,1.65-9.03,.26-2.17,.05-4.4,.05-5.55Zm164.03-37.85c.35,.08,.47,.16,.55,.12,4.74-1.95,9.47-3.95,14.23-5.87,5.69-2.29,11.41-4.5,17.1-6.78,6.27-2.51,12.5-5.09,18.77-7.58,6.17-2.46,12.37-4.81,18.53-7.28,4.6-1.85,9.14-3.87,13.75-5.71,7.23-2.89,14.52-5.65,21.75-8.55,6.26-2.51,12.46-5.17,18.73-7.68,7.33-2.94,14.72-5.75,22.06-8.68,7.46-2.97,14.9-5.97,22.32-9.02,2.59-1.06,4.69-2.77,6.57-5.33-4.7,1.81-9.04,3.48-13.38,5.14-5.45,2.08-10.91,4.11-16.36,6.2-5.01,1.92-9.99,3.9-15,5.82-6.58,2.52-13.18,4.97-19.76,7.5-5.91,2.27-11.78,4.63-17.69,6.9-5.55,2.13-11.13,4.15-16.68,6.28-5.86,2.25-11.68,4.62-17.54,6.87-8.29,3.18-16.6,6.3-24.91,9.46-5.18,1.97-10.37,3.89-15.51,5.96-2.39,.96-4.75,2.06-6.95,3.4-1.66,1.01-3.02,2.51-4.53,3.78-1.97,1.66-3.96,3.3-6.06,5.05Zm19.42-16.23l.25,.49c1.65-.57,3.32-1.09,4.95-1.72,4.1-1.58,8.17-3.22,12.27-4.8,3.71-1.43,7.46-2.78,11.17-4.22,4.88-1.9,9.74-3.88,14.63-5.76,5.66-2.17,11.37-4.24,17.03-6.42,5-1.92,9.96-3.94,14.95-5.88,4.9-1.91,9.81-3.79,14.71-5.67,4.84-1.86,9.68-3.72,14.52-5.58,3.02-1.16,6.05-2.29,9.06-3.46,3.88-1.5,7.74-3.05,11.63-4.55,3.93-1.51,7.89-2.97,11.82-4.48,4.95-1.9,9.83-3.98,14.84-5.7,2.76-.95,4.26-2.85,5.73-5.63-3.36,1.28-6.31,2.4-9.25,3.54-7.59,2.94-15.17,5.91-22.76,8.84-4.64,1.79-9.31,3.49-13.94,5.29-4.9,1.89-9.76,3.88-14.66,5.77-4.75,1.83-9.53,3.56-14.27,5.39-4.03,1.55-8.02,3.19-12.05,4.75-5.06,1.96-10.14,3.86-15.2,5.81-5.44,2.1-10.86,4.26-16.31,6.35-5.11,1.96-10.23,3.87-15.35,5.82-5.72,2.18-11.44,4.36-17.15,6.56-2.78,1.07-4.68,3.2-6.62,5.28Zm165.71-71.55c-5.11,1.97-9.89,3.8-14.67,5.66-5.55,2.15-11.08,4.35-16.64,6.48-5.82,2.22-11.67,4.35-17.48,6.59-5.6,2.15-11.17,4.42-16.77,6.58-6.68,2.58-13.38,5.07-20.06,7.64-7.54,2.9-15.05,5.86-22.59,8.77-5.06,1.95-10.14,3.84-15.2,5.78-8.4,3.22-16.81,6.44-25.2,9.7-2.33,.91-4.7,1.81-6.22,4.58,1.73-.64,3.11-1.14,4.49-1.67,3.92-1.53,7.81-3.11,11.74-4.61,3.88-1.48,7.81-2.83,11.69-4.32,4.04-1.54,8.04-3.2,12.08-4.76,5.01-1.93,10.04-3.8,15.05-5.73,4.64-1.78,9.24-3.65,13.89-5.41,4.96-1.88,9.96-3.66,14.92-5.53,4.15-1.57,8.27-3.23,12.41-4.84,4.95-1.93,9.9-3.84,14.85-5.76,3.71-1.44,7.41-2.93,11.14-4.33,4.87-1.83,9.77-3.55,14.63-5.4,5.02-1.91,9.99-3.92,15-5.88,1.49-.58,2.56-1.49,2.97-3.53Zm-94.96,2.47c.72-.3,1.42-.63,2.15-.91,5.68-2.14,11.37-4.24,17.03-6.41,4.04-1.55,8.03-3.21,12.06-4.76,4.8-1.84,9.63-3.57,14.43-5.41,5.76-2.22,11.48-4.53,17.23-6.77,5.11-1.98,10.24-3.9,15.35-5.87,4.58-1.76,9.15-3.56,13.73-5.33,4.56-1.76,9.15-3.46,13.67-5.31,.48-.2,.61-1.25,.9-1.91-.58-.14-1.23-.54-1.72-.39-1.64,.52-3.21,1.24-4.82,1.86-7.87,3.02-15.75,6.03-23.63,9.05-7.21,2.76-14.42,5.51-21.62,8.27-9.7,3.72-19.39,7.48-29.1,11.19-6.58,2.52-13.17,5.04-19.79,7.46-2.63,.96-4.49,2.71-5.89,5.24Zm14.54-16.09c.81-.15,1.32-.17,1.78-.34,7.18-2.7,14.36-5.41,21.53-8.15,5.22-2,10.42-4.05,15.63-6.08,4.9-1.9,9.8-3.8,14.7-5.7,2.79-1.08,5.57-2.17,8.37-3.22,3.24-1.22,6.49-2.39,9.73-3.61,4.06-1.52,8.11-3.03,12.15-4.59,2.58-1,5.16-2.02,7.67-3.18,.44-.2,.69-1.09,.73-1.69,.01-.2-.91-.54-1.44-.65-.37-.08-.82,.05-1.19,.19-5.29,2.02-10.58,4.04-15.86,6.08-6.77,2.63-13.52,5.31-20.3,7.92-9.11,3.5-18.24,6.92-27.36,10.41-6.96,2.66-13.91,5.37-20.86,8.07-2.16,.84-3.78,2.36-5.28,4.53Zm78.64,9.72c-.46,.14-.83,.22-1.18,.36-4.72,1.84-9.43,3.7-14.16,5.53-5,1.94-10.01,3.85-15.02,5.77-4.79,1.84-9.58,3.68-14.37,5.52-4.85,1.86-9.71,3.68-14.55,5.56-5.54,2.15-11.05,4.38-16.6,6.52-4.08,1.57-8.22,2.98-12.3,4.55-4.8,1.84-9.55,3.79-14.34,5.65-5.75,2.23-11.52,4.39-17.28,6.59-5.93,2.26-11.87,4.5-17.77,6.83-1.92,.76-4.08,1.21-5.27,3.3,.63,.03,1.22-.07,1.76-.28,2.96-1.14,5.9-2.34,8.87-3.47,5-1.9,10.03-3.75,15.03-5.65,4.05-1.54,8.08-3.11,12.12-4.67,4.9-1.89,9.79-3.79,14.68-5.69,3.86-1.5,7.72-3.02,11.59-4.49,5.67-2.15,11.36-4.25,17.03-6.42,4.04-1.55,8.03-3.2,12.06-4.75,4.8-1.84,9.64-3.57,14.43-5.42,6.68-2.57,13.32-5.22,19.99-7.8,4.58-1.77,9.19-3.45,13.77-5.21,.91-.35,1.74-.91,1.5-2.31Zm-128.39,42.18c6.01-2.27,11.67-4.38,17.31-6.55,5-1.92,9.98-3.9,14.98-5.84,4.95-1.92,9.9-3.82,14.85-5.72,2.9-1.12,5.79-2.24,8.69-3.34,3.23-1.22,6.47-2.4,9.69-3.64,3.72-1.43,7.41-2.95,11.14-4.37,4.09-1.56,8.22-3.01,12.31-4.56,4.97-1.89,9.91-3.86,14.87-5.77,4.73-1.82,9.49-3.58,14.23-5.4,4.19-1.61,8.38-3.24,12.56-4.88,.52-.21,1.06-.49,1.45-.88,.21-.21,.28-.82,.13-1.07-.13-.21-.74-.32-1.04-.21-3.77,1.43-7.52,2.91-11.27,4.36-5.82,2.25-11.65,4.48-17.47,6.71-4.63,1.77-9.27,3.52-13.89,5.32-4.03,1.56-8.02,3.22-12.06,4.76-4.74,1.81-9.53,3.48-14.26,5.3-5.81,2.24-11.56,4.63-17.37,6.86-6.57,2.53-13.19,4.92-19.76,7.42-6.03,2.3-12.05,4.64-18.06,7-2.5,.98-5.26,1.58-7.02,4.49Zm14.17-14.99c.13,.17,.26,.33,.4,.5,3.78-1.4,7.57-2.76,11.34-4.2,4.2-1.6,8.36-3.3,12.56-4.91,5.5-2.11,11.04-4.14,16.54-6.25,5.97-2.29,11.91-4.67,17.88-6.97,4.58-1.77,9.21-3.43,13.79-5.2,4.89-1.89,9.74-3.9,14.63-5.78,6.09-2.34,12.2-4.61,18.31-6.91,4.05-1.52,8.15-2.92,12.12-4.62,1.34-.57,3.49-.61,3.5-2.94-.14-.06-.26-.16-.34-.13-4.7,1.78-9.4,3.56-14.08,5.38-3.76,1.46-7.49,3.01-11.25,4.45-3.17,1.22-6.38,2.33-9.56,3.53-3.3,1.24-6.58,2.54-9.86,3.81-4.63,1.79-9.26,3.57-13.89,5.36-4.03,1.56-8.04,3.13-12.08,4.67-4.75,1.81-9.52,3.55-14.25,5.38-4.84,1.87-9.63,3.84-14.47,5.7-5.71,2.2-11.48,4.27-17.16,6.53-1.48,.59-2.74,1.72-4.11,2.6Zm116.52-31.51c-.1-.19-.2-.37-.3-.56-.32,0-.68-.09-.96,.01-3.67,1.4-7.34,2.82-11,4.25-5.59,2.18-11.16,4.39-16.76,6.55-5.06,1.95-10.14,3.85-15.2,5.79-5.55,2.13-11.08,4.3-16.63,6.43-4.04,1.55-8.09,3.06-12.13,4.62-6.52,2.52-13.02,5.08-19.54,7.59-6.63,2.55-13.28,5.05-19.92,7.6-7.64,2.93-15.29,5.87-22.9,8.88-.96,.38-1.73,1.24-2.58,1.88,.09,.13,.18,.26,.27,.38,3-1.13,6-2.25,8.99-3.41,4.69-1.82,9.36-3.68,14.05-5.49,4.09-1.58,8.21-3.09,12.3-4.65,4.95-1.9,9.89-3.83,14.84-5.73,5.6-2.15,11.21-4.26,16.81-6.43,4.83-1.87,9.63-3.84,14.47-5.69,5.66-2.17,11.36-4.23,17.02-6.39,6.95-2.66,13.86-5.39,20.8-8.06,5.39-2.07,10.81-4.08,16.19-6.17,.78-.3,1.45-.92,2.17-1.39Zm8.09-12.19c-.15-.18-.3-.36-.46-.54-2.69,1.01-5.39,2-8.07,3.03-6.77,2.6-13.54,5.23-20.31,7.84-6.47,2.5-12.94,4.98-19.4,7.48-6.78,2.61-13.55,5.25-20.34,7.84-6.36,2.43-12.74,4.8-19.09,7.24-4.25,1.63-8.47,3.33-12.7,4.99-4.9,1.91-9.81,3.82-14.72,5.71-3.98,1.53-7.99,2.99-11.95,4.58-1.69,.68-3.56,1.2-4.67,3.29,4.15-1.57,8.04-3.01,11.9-4.5,5.71-2.2,11.41-4.43,17.11-6.64,3.97-1.54,7.96-3.04,11.93-4.58,3.93-1.52,7.85-3.09,11.79-4.61,4.85-1.86,9.73-3.66,14.57-5.55,4.83-1.88,9.62-3.87,14.45-5.73,4.69-1.8,9.44-3.45,14.12-5.25,4.89-1.88,9.72-3.91,14.62-5.78,6.53-2.5,13.1-4.88,19.63-7.38,.62-.24,1.05-.95,1.57-1.44Zm-2.32-12.93c-.28,0-.52-.06-.72,0-5.51,2.05-11.02,4.08-16.51,6.19-4.85,1.86-9.64,3.85-14.49,5.71-7.49,2.87-15.02,5.65-22.51,8.52-5.93,2.27-11.83,4.61-17.76,6.89-5.54,2.12-11.1,4.19-16.64,6.3-5.34,2.03-10.68,4.06-15.98,6.18-1.42,.57-2.9,1.27-3.63,3.16,2.27-.81,4.28-1.48,6.26-2.25,5.97-2.3,11.93-4.66,17.9-6.97,5.72-2.21,11.45-4.38,17.16-6.6,3.7-1.44,7.36-2.99,11.07-4.39,4.97-1.88,9.99-3.6,14.95-5.5,7.54-2.89,15.03-5.9,22.56-8.81,5.61-2.17,11.26-4.24,16.87-6.39,.82-.31,1.77-.7,1.45-2.04Zm-92.89,26.12c.09,.18,.18,.36,.26,.54,.27,0,.58,.08,.82-.01,2.92-1.08,5.84-2.17,8.74-3.3,4.13-1.61,8.24-3.28,12.38-4.87,5.55-2.12,11.14-4.17,16.69-6.29,5.22-1.99,10.4-4.07,15.61-6.06,5.34-2.04,10.71-3.99,16.05-6.03,4.3-1.64,8.56-3.36,12.85-5.03,3.12-1.22,6.26-2.37,9.36-3.65,.49-.2,.77-.93,1.15-1.41-.63-.06-1.34-.34-1.88-.16-2.77,.95-5.52,1.99-8.25,3.06-4.99,1.95-9.95,3.96-14.95,5.89-5.55,2.14-11.12,4.2-16.67,6.34-6.03,2.32-12.03,4.7-18.06,7.03-5.38,2.09-10.77,4.14-16.15,6.22-5,1.93-10,3.85-14.97,5.86-1.07,.43-1.99,1.23-2.97,1.86Zm-22.41,23.22c.11,.17,.21,.34,.32,.51,2.52-.96,5.04-1.93,7.57-2.89,3.68-1.39,7.37-2.75,11.03-4.17,4.04-1.57,8.04-3.22,12.09-4.78,4.96-1.91,9.95-3.73,14.91-5.64,6.52-2.51,13.01-5.08,19.52-7.58,4.95-1.9,9.93-3.71,14.88-5.61,6.57-2.52,13.11-5.11,19.68-7.64,4.73-1.82,9.49-3.58,14.23-5.38,1.56-.59,3.12-1.2,4.64-1.89,.28-.13,.36-.71,.53-1.09-.32-.04-.68-.21-.94-.11-2.91,1.1-5.8,2.24-8.7,3.37-3.92,1.53-7.84,3.07-11.77,4.57-4.75,1.81-9.52,3.57-14.26,5.39-3.98,1.53-7.92,3.16-11.89,4.69-5.12,1.98-10.26,3.9-15.38,5.87-4.57,1.76-9.12,3.58-13.71,5.32-4.96,1.88-9.96,3.63-14.91,5.54-8.35,3.22-16.67,6.51-24.98,9.81-1.02,.41-1.91,1.13-2.86,1.71Zm49.84-52.78l.25,.47c.38,0,.79,.11,1.12-.02,3.89-1.46,7.76-2.95,11.64-4.45,5.54-2.15,11.07-4.33,16.63-6.45,4.09-1.56,8.23-3,12.32-4.56,4.11-1.56,8.18-3.21,12.29-4.78,3.67-1.4,7.38-2.7,11.02-4.16,.52-.21,.78-1.08,1.16-1.64-.61,0-1.27-.16-1.81,.04-3.69,1.36-7.35,2.79-11.02,4.19-7.55,2.87-15.12,5.71-22.66,8.61-9.48,3.63-18.96,7.28-28.42,10.99-.93,.36-1.68,1.16-2.52,1.76Zm-6.63,7.76c2.83-1.11,5.17-2.06,7.54-2.96,5-1.91,10.01-3.8,15.01-5.71,3.89-1.49,7.75-3.03,11.65-4.51,5.66-2.14,11.35-4.22,17-6.38,4.25-1.62,8.47-3.33,12.71-4.99,4.15-1.62,8.31-3.22,12.43-4.89,.39-.16,.61-.76,.9-1.16-.47,.02-.98-.09-1.4,.07-3.25,1.17-6.5,2.38-9.73,3.6-4.81,1.81-9.62,3.61-14.41,5.46-5.71,2.2-11.4,4.47-17.12,6.67-4.84,1.86-9.71,3.65-14.55,5.49-5.13,1.94-10.27,3.87-15.37,5.88-1.65,.65-3.6,.99-4.65,3.43Zm24.25-27.94c.14,.26,.28,.52,.42,.78,3.34-1.21,6.7-2.38,10.03-3.65,4.13-1.58,8.21-3.26,12.33-4.86,3.12-1.21,6.27-2.34,9.4-3.54,3.94-1.51,7.85-3.08,11.79-4.59,1.99-.77,4.04-1.4,5.99-2.25,.58-.25,.92-1.05,1.37-1.6-.56-.13-1.2-.52-1.65-.36-4.45,1.6-8.88,3.26-13.3,4.96-5,1.93-9.96,3.95-14.97,5.86-5.66,2.16-11.39,4.18-17.02,6.43-1.58,.63-2.93,1.86-4.38,2.82Zm-11.39,13.08l.19,.51c.31,.05,.68,.23,.94,.13,20.85-7.97,41.69-15.96,62.52-23.97,.15-.06,.22-.36,.48-.82-.92,0-1.69-.19-2.31,.03-3.78,1.39-7.52,2.87-11.27,4.33-6.68,2.59-13.37,5.17-20.05,7.75-5.05,1.95-10.08,3.93-15.13,5.86-3.83,1.46-7.69,2.84-11.51,4.32-1.32,.51-2.57,1.22-3.85,1.84Zm24.69-26.73c.87-.27,1.41-.4,1.91-.6,3.8-1.51,7.57-3.08,11.39-4.54,6.45-2.47,12.92-4.88,19.39-7.32,1.08-.41,2.2-.74,3.19-1.31,.42-.24,.52-1.02,.76-1.56-.44-.1-.95-.39-1.31-.26-5.35,1.97-10.69,3.97-16.02,6-5.22,1.99-10.44,4-15.63,6.07-1.47,.59-3.01,1.26-3.67,3.51Zm-6.22,6.36c.12,.16,.25,.32,.37,.48,3-1.12,6-2.22,8.99-3.37,5.66-2.18,11.3-4.4,16.95-6.58,3.87-1.49,7.76-2.9,11.61-4.44,.54-.22,.84-1.02,1.25-1.54-.14-.13-.29-.26-.43-.39-1.94,.7-3.9,1.36-5.83,2.1-5.65,2.18-11.29,4.41-16.93,6.6-4.61,1.79-9.24,3.51-13.82,5.37-.82,.33-1.44,1.17-2.15,1.77Zm40.75-31.03c-3.74,1.38-7.36,2.68-10.95,4.05-2.91,1.11-5.82,2.21-8.65,3.5-1.03,.47-1.81,1.49-2.7,2.26,.13,.18,.26,.36,.38,.54,1.28-.44,2.57-.84,3.83-1.33,5.27-2.01,10.55-4,15.78-6.1,1.12-.45,2.93-.65,2.31-2.92Zm6.4-3.6c.12-.03,.24-.05,.37-.08-.48-2.11-.84-4.27-1.47-6.33-1.03-3.38-2.82-6.31-5.85-8.32-.38-.25-.95-.22-1.43-.31-.07,.54-.29,1.11-.16,1.59,.12,.44,.55,.87,.96,1.13,5.45,3.54,7.31,10.15,6.04,16.17-.44,2.11-1.52,4.16-4.16,4.58-.37,.06-.68,.55-1.01,.85,.5,.1,1.11,.42,1.49,.25,3.12-1.41,5.12-3.68,5.23-7.27,.02-.75,0-1.5,0-2.26Zm-34.61,20.88c3.11-1.12,6.13-2.16,9.11-3.3,4.96-1.89,9.89-3.84,14.82-5.81,.44-.18,.75-.7,1.12-1.06-.51-.14-1.01-.34-1.53-.41-.26-.04-.56,.11-.83,.21-6.3,2.39-12.61,4.75-18.88,7.21-1.52,.6-3.13,1.25-3.81,3.17Zm49.95,6.04c0-.24-.01-.47-.02-.71-1.65-.07-3.38-.48-4.94-.12-2.72,.62-5.34,1.68-7.98,2.63-.39,.14-.65,.67-.96,1.02,.43,.17,.9,.56,1.29,.49,1.75-.33,3.49-.76,5.22-1.22,2.47-.66,4.93-1.38,7.39-2.08Zm-26.87-24.33c0-.25,0-.49-.01-.74-.58-.1-1.24-.44-1.72-.27-2.33,.83-4.65,1.73-6.89,2.76-.75,.35-1.29,1.18-1.92,1.79l.38,.44c3.39-1.33,6.78-2.65,10.17-3.98Zm5.37-9.99c-.16,.05-.32,.1-.48,.14,.23,.71,.44,1.44,.71,2.14,.9,2.35,.52,3.38-1.64,4.44-.36,.18-.73,.39-1.01,.67-.24,.25-.33,.62-.49,.94,.35,.1,.73,.32,1.06,.27,1.31-.22,2.61-.52,4.05-.82,.05-2.7-.39-5.44-2.18-7.78Zm-3.58-.9c-1.47,1.45-.99,2.95-.89,4.3,.03,.41,.74,.78,1.14,1.16,.35-.51,1.06-1.08,.98-1.52-.2-1.22-.72-2.39-1.23-3.94Zm-3.81,4.56c-1.04,1.14-1.91,2.09-2.79,3.05,.12,.18,.25,.36,.37,.53,1.08-.49,2.15-.98,3.3-1.51-.32-.76-.54-1.27-.88-2.08Z"/>
    <path class="cls-1" d="M116,274.41c-.45,3.53-.6,7.62-1.55,11.51-1.12,4.63-3.26,8.86-8.24,10.64-4.1,1.46-8.13,.96-11.89-1.11-4.46-2.45-8.13-5.87-11.5-9.68-6.87-7.77-11.95-16.6-15.79-26.17-1.69-4.2-3.44-8.4-4.79-12.72-1.09-3.49-1.75-7.14-2.33-10.76-.71-4.45-1.49-8.93-1.57-13.41-.07-3.82,.68-7.68,1.31-11.49,.52-3.12,1.93-5.96,4.04-8.32,3.41-3.82,9.07-4.95,14.13-2.65,8.21,3.73,13.6,10.4,18.76,17.36,4.68,6.31,8.3,13.21,11.27,20.45,1.44,3.5,2.57,7.14,3.7,10.75,1.08,3.44,2.3,6.89,2.88,10.43,.79,4.83,1.03,9.74,1.57,15.18Zm-33.66-61.84c-1.94,0-3.25,.63-4.13,2.02-1.37,2.16-2.44,4.45-2.3,7.12,.23,4.42-.51,8.87,.91,13.26,1.07,3.32,1.46,6.86,2.49,10.2,1.93,6.24,4.42,12.28,7.82,17.88,3.27,5.4,6.68,10.77,12.04,14.41,3.95,2.69,8.24,3.08,10.25-2.6,.42-1.18,.46-2.49,.62-3.75,.4-3.07,.12-6.15-.03-9.23-.07-1.44-.08-2.93-.44-4.31-1.12-4.28-2.19-8.58-3.66-12.74-1.53-4.32-3.33-8.57-5.35-12.67-2.96-6-6.7-11.49-11.77-15.97-2.03-1.79-4.3-3.05-6.44-3.61Zm28.52,66.42c-5.48,5.04-8.23,4.23-12.81,1.19-5.73-3.81-9.94-9.39-13.3-15.4-3.65-6.53-6.87-13.29-8.66-20.63-.91-3.72-2.52-7.4-2.71-11.15-.27-5.53-1.12-11.14,.71-16.67,1.3-3.92,4.19-6.47,8.27-6.54,.44,0,.87-.07,1.43-.12-.18-.27-.23-.46-.36-.53-.72-.37-1.43-.77-2.18-1.06-6.4-2.52-10.32-.06-12.44,5.25-1.54,3.87-2.01,8.07-1.92,12.25,.05,2.48,.31,4.97,.71,7.41,.66,4.04,1.18,8.14,2.35,12.04,1.4,4.66,3.2,9.23,5.2,13.68,4.24,9.44,9.69,18.08,17.71,24.83,2.43,2.04,5.09,3.68,8.49,3.96,4.76,.4,9.27-3.39,9.52-8.53Zm-31.01-74.21c.06-.15,.12-.3,.19-.45-1.18-.55-2.31-1.22-3.53-1.64-2.77-.96-7.67-1.2-10.53,1.95-2.42,2.66-3.73,5.92-4.23,9.35-.48,3.29-.37,6.67-.44,10.02-.12,5.69,.58,11.32,2.17,16.77,1.62,5.59,3.27,11.19,5.39,16.6,1.85,4.71,4.19,9.26,6.63,13.71,3.84,7.01,8.77,13.21,14.89,18.39,3.13,2.65,6.64,4.7,10.8,5.14,5.35,.57,9.57-3.43,10.47-9.45-.62,.67-.97,1.24-1.47,1.57-1.73,1.1-3.4,2.54-5.32,3.07-4.8,1.34-8.99-.49-12.73-3.43-10.07-7.91-16.27-18.57-20.94-30.17-2.19-5.44-3.8-11.15-5.2-16.85-1.02-4.17-1.5-8.52-1.81-12.82-.32-4.51,.8-8.91,1.93-13.28,1.33-5.13,5.64-9.04,11.19-8.72,.86,.05,1.71,.15,2.57,.23Z"/>
    <path class="cls-1" d="M56.49,148.17c2.78,0,5.57,.06,8.35-.01,4.82-.13,8.18,2.43,11.07,5.86,2.96,3.51,4.19,7.72,5.31,12.1,1.35,5.29,1.96,10.58,1.65,15.99-.27,4.74-2.71,9.07-8.46,8.95-6.25-.13-12.51,.03-18.76-.15-1.33-.04-2.87-.69-3.93-1.54-4.44-3.58-7.21-8.32-9.11-13.67-1.99-5.6-2.5-11.39-2.49-17.23,0-2.21,.61-4.45,1.18-6.62,.71-2.72,2.83-3.64,5.44-3.66,3.25-.03,6.5,0,9.74,0h0Zm-.15,2.77h0c-3.25,0-6.49-.03-9.74,.02-1.95,.03-3.04,.9-3.3,2.67-.23,1.54-.42,3.11-.43,4.66-.06,6.61,.53,13.1,3.34,19.24,1.66,3.63,3.67,6.98,6.81,9.44,1.06,.83,2.6,1.42,3.95,1.46,5.85,.16,11.71,.1,17.56,.06,.83,0,1.71-.25,2.48-.58,2.66-1.13,3.08-3.76,3.29-6.07,.25-2.84-.12-5.76-.47-8.62-.28-2.33-1-4.61-1.39-6.94-.53-3.18-1.5-6.18-3.23-8.89-2.57-4.01-5.84-6.83-11.05-6.48-2.6,.17-5.22,.03-7.82,.03Z"/>
    <path class="cls-1" d="M128.56,341.56c-.26,.32-.54,.99-.85,1-.53,.02-1.34-.23-1.55-.62-1.03-1.94-1.92-3.95-2.83-5.95-1.99-4.42-3.95-8.85-5.93-13.27-.37-.84-.89-1.65-1.05-2.53-.11-.59,.29-1.28,.47-1.92,.61,.25,1.53,.33,1.77,.78,1.01,1.82,1.84,3.74,2.67,5.64,2.27,5.18,4.51,10.37,6.75,15.56,.16,.37,.3,.74,.53,1.31Z"/>
    <path class="cls-1" d="M122.94,252.75c-.23,1.63-.83,2.71-2.17,3.21-1.34,.5-2.45-.17-3.13-1.25-1.38-2.19-1.78-3.72-.72-5.11,.95-1.25,2.93-1.64,3.93-.47,.89,1.05,1.41,2.4,2.1,3.62Z"/>
    <path class="cls-1" d="M57.93,250.11c-.46,1.51-.28,2.9-2.09,3.16-1.84,.27-3.38-.83-3.84-2.95-.19-.88-.21-1.86-.05-2.75,.32-1.84,2.68-2.62,3.88-1.2,.91,1.07,1.42,2.48,2.11,3.74Z"/>
  </g>
  <path class="cls-2" d="M337.45,294.19c3.22,0,3.22-5,0-5s-3.22,5,0,5h0Z"/>
  <path class="cls-2" d="M501.97,224.17c3.22,0,3.22-5,0-5s-3.22,5,0,5h0Z"/>
  <path class="cls-2" d="M342.16,292.27c7.77-6.31,17.78-8.87,27.18-11.69,11.07-3.32,21.89-7.46,32.76-11.38,21.93-7.9,44.16-15.35,64.7-26.52,11.73-6.38,23.12-13.4,34.61-20.2,2.77-1.64,.25-5.96-2.52-4.32-10.25,6.07-20.44,12.27-30.83,18.11s-20.63,10.62-31.44,14.91-22.02,8.22-33.07,12.2-22.22,8.31-33.55,11.78-22.3,6.2-31.37,13.58c-1.05,.85-.89,2.65,0,3.54,1.04,1.04,2.48,.85,3.54,0h0Z"/>
  <path class="cls-2" d="M500.47,218.07c-10.24,.06-20.49,1.8-30.14,5.24s-18.32,8.69-27.11,13.81c-18.05,10.52-37.71,17.48-57.15,24.96-11.46,4.4-22.92,8.81-34.38,13.21-1.16,.45-1.99,1.44-1.79,2.74,.18,1.19,1.19,2.21,2.46,2.17,20.65-.65,38.61-11.63,56.53-20.67,4.53-2.28,9.11-4.48,13.84-6.32,4.32-1.68,8.74-3.03,13.21-4.24,8.58-2.33,17.31-4.34,25.39-8.16,2.18-1.03,4.3-2.21,6.31-3.56,2.14-1.44,3.99-3.17,6.01-4.76,2.18-1.72,4.64-1.48,7.29-1.54,3.12-.07,6.25-.14,9.37-.21s3.22-5.07,0-5c-2.8,.06-5.59,.12-8.39,.19-2.51,.06-5.31-.19-7.73,.61s-4.21,2.56-6.12,4.17c-1.54,1.3-3.22,2.45-4.95,3.48-7.49,4.47-16.05,6.65-24.41,8.86-4.36,1.15-8.73,2.3-13,3.76-4.85,1.65-9.56,3.67-14.19,5.87-9.15,4.34-17.93,9.41-27.11,13.69-10.08,4.7-20.85,8.48-32.06,8.84l.66,4.91c20.08-7.72,40.23-15.25,60.22-23.19,9.51-3.78,18.94-7.84,27.89-12.84s17.16-10.51,26.44-14.37c10.42-4.34,21.63-6.58,32.91-6.64,3.22-.02,3.22-5.02,0-5h0Z"/>
</svg>