<?xml version="1.0" encoding="UTF-8" standalone="no"?>
<svg
   xmlns:dc="http://purl.org/dc/elements/1.1/"
   xmlns:cc="http://creativecommons.org/ns#"
   xmlns:rdf="http://www.w3.org/1999/02/22-rdf-syntax-ns#"
   xmlns:svg="http://www.w3.org/2000/svg"
   xmlns="http://www.w3.org/2000/svg"
   xmlns:sodipodi="http://sodipodi.sourceforge.net/DTD/sodipodi-0.dtd"
   xmlns:inkscape="http://www.inkscape.org/namespaces/inkscape"
   viewBox="0 0 600.00001 293.35345"
   version="1.1"
   id="svg17"
   sodipodi:docname="eufy logo.svg"
   width="600"
   height="293.35345"
   inkscape:version="0.92.3 (unknown)">
  <metadata
     id="metadata21">
    <rdf:RDF>
      <cc:Work
         rdf:about="">
        <dc:format>image/svg+xml</dc:format>
        <dc:type
           rdf:resource="http://purl.org/dc/dcmitype/StillImage" />
        <dc:title></dc:title>
      </cc:Work>
    </rdf:RDF>
  </metadata>
  <sodipodi:namedview
     pagecolor="#ffffff"
     bordercolor="#666666"
     borderopacity="1"
     objecttolerance="10"
     gridtolerance="10"
     guidetolerance="10"
     inkscape:pageopacity="0"
     inkscape:pageshadow="2"
     inkscape:window-width="2083"
     inkscape:window-height="1048"
     id="namedview19"
     showgrid="false"
     fit-margin-top="0"
     fit-margin-left="0"
     fit-margin-right="0"
     fit-margin-bottom="0"
     inkscape:zoom="1.0191901"
     inkscape:cx="260.35301"
     inkscape:cy="162.8315"
     inkscape:window-x="1080"
     inkscape:window-y="1080"
     inkscape:window-maximized="0"
     inkscape:current-layer="svg17" />
  <defs
     id="defs5">
    <clipPath
       id="a">
      <path
         d="M 0,0 H 839.055 V 595.276 H 0 Z"
         id="path2"
         inkscape:connector-curvature="0" />
    </clipPath>
  </defs>
  <path
     d="m 173.14368,146.65973 c -0.10886,-5.67872 -4.54782,-10.06931 -10.58336,-10.0814 -6.02949,0 -10.79502,4.40268 -10.92202,10.0814 h -0.0665 v 0.85877 c 0,8.95049 -1.72358,17.47161 -5.1526,25.33958 -3.4411,7.9224 -8.13406,14.88322 -13.95793,20.70104 -5.80573,5.82389 -12.77865,10.5108 -20.68896,13.9519 -7.89216,3.42296 -16.41932,5.15259 -25.339581,5.15259 -1.50586,0 -2.8061,-0.0423 -4.00353,-0.1391 -1.257911,-0.10886 -2.618621,-0.26609 -4.130531,-0.48381 -7.886121,-1.04624 -15.360991,-3.45925 -22.212962,-7.19063 -6.888251,-3.75558 -12.954031,-8.56346 -18.034042,-14.27848 -5.09815,-5.70896 -9.168211,-12.30693 -12.083171,-19.60642 -2.88472,-7.22692 -4.36639,-15.11303 -4.36639,-23.44667 0,-8.92026 1.74172,-17.39299 5.15863,-25.15211 3.4532,-7.83168 8.152211,-14.81065 13.982131,-20.74338 5.805731,-5.926679 12.718172,-10.655928 20.531712,-14.090984 7.771211,-3.416912 16.219752,-5.158631 25.158153,-5.158631 8.932361,0 17.411141,1.681242 25.188391,5.001393 6.71288,2.86053 12.84518,6.785444 18.282,11.665884 L 89.650049,139.584 h -0.0121 v 0.0121 l -0.10281,0.0907 0.0363,0.0302 c -3.29596,4.76554 -2.1953,11.04298 2.824241,14.59899 4.98325,3.52577 11.36955,2.63677 14.78646,-1.98363 l 0.0363,0.0121 48.96769,-49.09468 c 2.34649,-2.35857 2.34649,-6.192775 -0.006,-8.5574 l -8.46065,-8.454591 c -8.00706,-8.001019 -17.38089,-14.3087 -27.88563,-18.747664 -10.51683,-4.4692 -21.75938,-6.724967 -33.401081,-6.724967 -11.665881,0 -22.847952,2.255767 -33.268023,6.724967 C 42.811195,71.929139 33.376884,78.218677 25.109773,86.268077 17.132942,94.468668 10.879691,103.89693 6.5374906,114.28676 2.1952902,124.69474 0,135.87681 0,147.5185 c 0,10.76479 1.9654802,21.19091 5.8541106,31.02436 3.8825804,9.80926 9.2649714,18.6509 15.9959824,26.30721 6.73102,7.65026 14.768321,14.07284 23.900252,19.08634 9.156111,5.03163 19.237522,8.2913 30.002303,9.65807 1.83244,0.23585 3.59835,0.39309 5.32192,0.51404 1.741721,0.12096 3.549961,0.17539 5.358201,0.17539 11.641701,0 22.866101,-2.20134 33.376891,-6.54959 10.51683,-4.3422 19.91485,-10.72246 27.90982,-18.92305 8.2127,-8.22478 14.58086,-17.6591 18.92911,-28.06103 4.34219,-10.40192 6.54353,-21.584 6.54353,-33.23174 v -0.85876 z"
     id="path13"
     inkscape:connector-curvature="0"
     style="fill:#00b5ae;stroke-width:6.04763269" />
  <path
     d="M 521.31984,228.09763 461.57527,79.380276 c -0.99181,-1.947338 -1.34257,-4.553868 -1.36072,-6.180681 -0.0544,-5.527537 5.11025,-10.147929 11.6296,-10.2205 4.88044,-0.03024 7.85588,2.540006 9.51898,6.755206 L 531.17748,202.26214 580.41731,68.79087 c 1.59658,-3.918866 4.17892,-6.870111 8.73278,-6.92454 5.86621,-0.05443 10.79503,3.810009 10.84946,10.008834 0.0242,1.94129 -0.93134,4.892534 -1.57239,6.198823 L 534.51577,245.24267 c -13.36527,33.69136 -24.94648,47.81863 -55.91641,48.10891 -9.44036,0.0907 -13.37737,-3.12662 -13.44389,-9.63992 -0.0726,-6.20487 3.16896,-10.12979 10.9825,-10.20841 25.74477,-0.24795 32.46369,-13.0145 39.4608,-30.35911 z"
     id="path11"
     inkscape:connector-curvature="0"
     style="fill:#00b5ae;stroke-width:6.04763269" />
  <path
     d="m 366.62078,71.0418 c 0.73781,-45.441917 24.19657,-71.83983275 61.57699,-71.02340266 8.15221,0.16328001 14.01841,0.97367009 16.63099,1.62076016 6.19278,1.6328601 8.47879,5.8722506 8.47879,9.7729805 0,6.84592 -4.24544,9.779021 -9.45246,9.779021 -4.56596,0 -8.15221,-0.97367 -14.99208,-0.97367 -28.03078,0 -39.10399,16.606802 -40.40423,47.256207 h 36.81799 c 5.8541,0 9.78507,4.221248 9.78507,10.087452 0,5.8783 -3.93097,10.105595 -9.78507,10.105595 H 388.45878 V 217.68481 c 0,6.18673 -4.57201,10.42612 -10.75269,10.42612 -6.51935,0 -11.08531,-4.23939 -11.08531,-10.42612 z"
     id="path9"
     inkscape:connector-curvature="0"
     style="fill:#00b5ae;stroke-width:6.04763269" />
  <path
     d="m 304.12755,73.111904 c 0,-5.866204 4.88649,-10.426119 11.07322,-10.426119 6.19277,0 10.74664,4.559915 10.74664,10.426119 v 89.619876 c 0,37.47719 -22.473,65.1693 -63.85695,65.1693 -41.38396,0 -63.54854,-27.69211 -63.54854,-65.1693 V 73.111904 c 0,-5.866204 4.56597,-10.426119 10.7527,-10.426119 5.87225,0 10.75873,4.559915 10.75873,10.426119 v 90.273016 c 0,26.0653 14.99209,44.63759 42.03711,44.63759 27.04501,0 42.03709,-18.57229 42.03709,-44.63759 z"
     id="path7"
     inkscape:connector-curvature="0"
     style="fill:#00b5ae;stroke-width:6.04763269" />
</svg>
