<?xml version="1.0" standalone="no"?>
<!DOCTYPE svg PUBLIC "-//W3C//DTD SVG 20010904//EN"
 "http://www.w3.org/TR/2001/REC-SVG-20010904/DTD/svg10.dtd">
<svg version="1.0" xmlns="http://www.w3.org/2000/svg"
 width="360.000000pt" height="360.000000pt" viewBox="0 0 360.000000 360.000000"
 preserveAspectRatio="xMidYMid meet">

<g transform="translate(0.000000,360.000000) scale(0.100000,-0.100000)"
fill="#000000" stroke="none">
<path d="M0 1800 l0 -1800 1800 0 1800 0 0 1800 0 1800 -1800 0 -1800 0 0
-1800z m1905 1185 c44 -10 132 -28 195 -41 63 -14 159 -33 213 -44 410 -83
455 -95 462 -123 4 -13 5 -304 3 -647 l-4 -625 -27 -82 c-46 -139 -106 -238
-209 -348 -171 -183 -443 -367 -678 -460 l-55 -22 -60 27 c-313 140 -498 260
-651 421 -91 97 -156 189 -198 281 -72 155 -69 126 -73 813 -2 340 -2 629 2
642 6 27 19 31 255 78 96 19 193 40 215 45 38 9 159 34 385 80 58 12 107 24
109 26 3 2 12 2 20 0 9 -3 52 -12 96 -21z"/>
<path d="M1735 2339 c-84 -10 -182 -52 -251 -107 -234 -189 -248 -546 -28
-751 118 -111 262 -157 420 -134 231 33 424 249 424 474 0 63 -13 79 -63 79
-36 0 -50 -24 -58 -94 -13 -130 -97 -249 -218 -309 -60 -29 -73 -32 -161 -32
-83 1 -102 4 -152 28 -84 41 -152 107 -190 185 -31 62 -33 74 -33 167 0 91 3
105 29 158 78 153 243 243 400 217 69 -11 148 -45 177 -76 l23 -24 -122 -124
c-73 -73 -122 -131 -122 -142 0 -34 25 -57 59 -57 28 0 52 19 187 154 104 104
154 161 154 175 0 25 -89 111 -153 148 -94 55 -209 78 -322 65z"/>
</g>
</svg>
