<svg height="536.26" viewBox="0 0 210.98 536.26" width="210.98" xmlns="http://www.w3.org/2000/svg"><g transform="translate(-2.92 -2.67)"><path d="m209.08 8.76a7.74 7.74 0 0 1 1.86 5.3c.05 1.16 0 2.33 0 3.5q0 254.59 0 509.19c0 5.91-2.67 8.76-8.54 9.11-.91.06-1.83 0-2.75 0h-182.46c-1 0-2 0-3 0-5.61-.42-8.23-3.23-8.3-8.85 0-1.25 0-2.5 0-3.75q0-254.1 0-508.19c0-2.29.23-4.5 1.87-6.3l.37.33a7.92 7.92 0 0 0 -1.11 3c0 .31 0 .82.14.91.36.18.52-.26.68-.52a9.52 9.52 0 0 1 2.76-2.78c.88-.63 3.14-.46 2.35-2.09s-2.28-.16-3.43.29a3.61 3.61 0 0 0 -.44.22l-.33-.37c1.85-1.76 4.15-1.91 6.52-1.91h186.29c2.37 0 4.67.16 6.52 1.91l-.33.37a4.64 4.64 0 0 0 -.44-.23c-1.17-.43-2.64-1.8-3.48-.23s1.65 1.18 2.06 2.24a5.63 5.63 0 0 0 -4.59 1c-3 2-6.63 2-10.09 2.35-3 .28-2.05 2.43-2.18 4.08-.16 2 1.19 2 2.63 2a53.86 53.86 0 0 0 16.75-2c-.76 1.21-2.08 1.26-3.26 1.6-4.46 1.29-9.09.87-13.64 1.3-2 .18-2.68.9-2.51 2.76.07.75 0 1.5 0 2.25v491.28a16.67 16.67 0 0 1 0 2c-.27 2.2.68 2.87 2.85 2.88 5.24 0 10.52.12 15.51 2 1.71.64 2.09.22 2-1.38-.05-.66 0-1.33 0-2v-497.94c0-.92 0-1.84 0-2.75a1.89 1.89 0 0 0 -.88-1.93c1.33-1.8.72-3.46-.43-5-.63-.87-1.39-1.64-2.09-2.45 1 0 1.57.75 2.25 1.34s.89 2 1.48 1.59.07-1.64-.3-2.46c-.19-.45-.42-.89-.64-1.33.09-.1.25-.23.33-.34zm-200.69 8.65c-1.42.95-.86 2.43-.86 3.67q0 249.86 0 499.69v2c0 .86.35 1.26 1.25.89 5.38-2.16 11.07-2.14 16.72-2.27 1.7 0 2.48-.63 2.34-2.36-.06-.66 0-1.33 0-2v-492.19c0-.66 0-1.33 0-2 .12-1.64-.49-2.45-2.26-2.47a64.3 64.3 0 0 1 -7.23-.37c-3.41-.42-7-.13-9.93-2.55a52.48 52.48 0 0 0 15.77 2c3.66-.07 3.75-.17 3.66-3.79 0-1.65-.79-2.13-2.24-2.31-4.11-.51-8.36-.55-11.78-3.45a1.41 1.41 0 0 0 -.95-.18c-3.43.16-6 4.6-4.49 7.69zm20.12 253.26v246.71c0 4 0 4 3.94 4h152c3.89 0 3.89 0 3.89-4v-492.96c0-4 0-4-3.94-4h-152c-.5 0-1 0-1.5 0-1.66-.11-2.53.53-2.41 2.3.07.91 0 1.83 0 2.75zm80-264.15q-45.6 0-91.19 0c-1 0-2.68-.68-3 .86s.77 2.66 2.2 3.26a23.08 23.08 0 0 0 2.84.95 36.93 36.93 0 0 0 9.67.81h158.9c1.75 0 3.5 0 5.25-.11a23.55 23.55 0 0 0 6.57-1.38c1.61-.57 3.07-1.64 2.81-3.37s-2.19-1-3.35-1q-45.36-.05-90.71-.02zm-.06 521.81h76c.83 0 1.67 0 2.5-.05a1.35 1.35 0 0 0 1.36-1.18c1-3.67-.06-5.08-3.78-5.08h-152.23c-.75 0-1.5 0-2.25 0a1.44 1.44 0 0 0 -1.4.84c-1.35 2.88.2 5.43 3.32 5.43zm0 6.56q45.6 0 91.21 0c1 0 2.46.62 2.79-.79s-.69-2.35-1.89-3a11.49 11.49 0 0 0 -2.32-.9 38.26 38.26 0 0 0 -8.89-1.18q-81 0-161.93 0a28.57 28.57 0 0 0 -10.53 1.76c-1.49.58-2.86 1.66-2.48 3.31.34 1.41 2 .73 3.08.73q45.51.09 90.96.07zm-.31-515.49h52 25.23c.95 0 2.24.39 2.7-.73a6 6 0 0 0 0-4.4c-.5-1.25-1.89-.78-2.91-.79q-18.61 0-37.23 0-58 0-115.93 0c-2.16 0-3.63.1-3.57 3 0 2.5 1 3 3.26 3q38.22-.13 76.45-.08zm-80.32 506.24c0-3.61-.27-3.84-3.54-3.52-1.9.19-3.81.32-5.71.36a27.6 27.6 0 0 0 -8.08 1.31c-3.19 1-3.67 2.66-1.78 5.45 1.41 2.08 4.16 3.46 5.42 2.42 3.19-2.61 7-2.86 10.8-3.2 2.22-.19 3.31-.77 2.89-2.82zm161.18-.25c-.45 2.07.5 2.91 3 3.1 3.68.27 7.52.49 10.54 3.15.67.59 1.42.33 2.14.14 2.29-.6 4.72-3.43 4.43-5.45-.33-2.29-2.47-2.4-4.16-2.92-4.19-1.29-8.58-.72-12.85-1.3-2.74-.38-3.1.03-3.1 3.28zm15.86 9.33c2 .08 5-3 5-5.15a4.21 4.21 0 0 0 -.12-.71c-.2.08-.49.11-.57.26a8.27 8.27 0 0 1 -4.79 3.69 1 1 0 0 0 -.65 1.19 1 1 0 0 0 1.14.72zm-197.86-5.26a6.51 6.51 0 0 0 4.39 5.17c.67.14 1.39.25 1.7-.54s-.31-1.23-1-1.44a7.68 7.68 0 0 1 -4.24-3.24 3.39 3.39 0 0 0 -.69-.61z"/><path d="m208.58 8.25.5.51c-.12.11-.24.22-.37.32l-.46-.5z"/><path d="m7.75 8.76.5-.51.33.34-.46.5z"/><path d="m208.08 7.76.5.49-.33.33-.5-.45z"/><path d="m8.25 8.25.51-.49.32.37-.5.46z"/><path d="m28.94 270.66q0-117.12 0-234.23a31 31 0 0 1 .1-3.74 6.79 6.79 0 0 1 7-6.42c1.92-.06 3.83 0 5.75 0h136.76c7.14 0 9.34 2.22 9.34 9.45q0 235 0 470a24 24 0 0 1 -.26 4 6.76 6.76 0 0 1 -6.48 5.87c-.91.07-1.83 0-2.75 0h-139.49c-7.83 0-10-2.12-10-9.91zm157.37 14.91v-221c0-4 0-4-3.89-4h-147.5c-4.84 0-4.39-.4-4.39 4.49q0 220.38 0 440.75c0 1-.05 2 0 3a5.37 5.37 0 0 0 5.23 5.05h2.25 140.78 2.25a5.37 5.37 0 0 0 5.23-5.05c.09-1 0-2 0-3zm-77.87-226.2h74.46c3.38 0 3.39 0 3.39-3.26q0-10.74 0-21.49c0-5-2-7-6.93-7q-71 0-141.93 0c-4.82 0-6.87 2.06-6.88 6.84v21.49c0 3.46 0 3.47 3.43 3.47z" fill="#fff"/><path d="m108.21 530.31c1.39.3 3.45-.31 3.4 1.66 0 1.69-2 1.4-3.23 1.39s-3.13.3-3.17-1.45 1.95-1.23 3-1.6zm.39 1.06c-.67.14-1.72-.3-1.88.55-.11.64.89.46 1.39.47.71 0 1.86.3 2-.38.14-.86-.96-.45-1.51-.64z"/><path d="m97 530.41a5.34 5.34 0 0 1 1.1.12c.76.17 1.46.47 1.43 1.44s-.7 1.11-1.36 1.2a12.17 12.17 0 0 1 -3 .13c-.92-.11-2.27-.1-2.16-1.5s1.35-1.25 2.32-1.38a14.81 14.81 0 0 1 1.67-.01zm-.89 2c.68-.16 1.9.29 1.93-.48s-1.17-.53-1.84-.54-1.91-.29-1.93.45 1.21.42 1.87.59z"/><path d="m121.14 530.4a6.55 6.55 0 0 1 1.17.15c.73.18 1.5.44 1.47 1.4s-.71 1.1-1.37 1.19a12.31 12.31 0 0 1 -3 .18c-.92-.09-2.23-.08-2.14-1.51s1.31-1.27 2.28-1.4c.37-.04.7-.01 1.59-.01zm-.49 2c.68-.15 1.89.25 1.89-.52s-1.21-.49-1.89-.5-1.89-.28-1.89.49 1.24.41 1.89.56z"/><path d="m84.47 530.36a14.89 14.89 0 0 1 1.59.18c.68.15 1.26.45 1.3 1.28s-.52 1.15-1.2 1.35a6.54 6.54 0 0 1 -3.43.06c-.73-.18-1.73-.23-1.73-1.41s1-1.18 1.83-1.34a12.2 12.2 0 0 1 1.64-.12zm0 1c-.71.2-2-.32-2.19.47s1 .55 1.53.56c.79 0 2.06.38 2.27-.38s-.98-.44-1.62-.66z"/><path d="m132.35 533.49a7.92 7.92 0 0 1 -2.07-.5c-1.2-.65-1.21-1.58 0-2.23a4.17 4.17 0 0 1 2.17-.35c1.3.1 3.35-.38 3.28 1.59-.08 1.64-2.07 1.15-3.38 1.49zm.32-1.06c.69-.15 1.9.26 1.89-.54s-1.23-.47-1.91-.48-1.89-.28-1.88.52 1.23.32 1.9.5z"/><path d="m108.49 199.05a56.33 56.33 0 1 1 56.27-56.34 56.15 56.15 0 0 1 -56.27 56.34zm-.21-2.2a54.18 54.18 0 1 0 -54.11-53.95 53.79 53.79 0 0 0 54.11 53.95z"/><path d="m108.37 351.3c31.86-.59 59.28 26.08 59.17 59a59.12 59.12 0 1 1 -118.24-.2c-.06-32.78 27.31-59.34 59.07-58.8zm.07 1.66a57.12 57.12 0 0 0 -57.44 57c0 32 25.5 57.88 57.14 57.91a57.43 57.43 0 1 0 .3-114.86z"/><path d="m85.51 273.44a6.32 6.32 0 0 0 -6.51 5.38 6.66 6.66 0 0 0 12.58 4 10.27 10.27 0 0 0 .61-1.9c.22-1 .23-2.25 1.65-2s1.21 1.64 1 2.66a9.17 9.17 0 0 1 -5.91 7.2 9.06 9.06 0 0 1 -9.39-1.53 9.46 9.46 0 1 1 12.53-14.14c1.22 1.17 1.37 2.12.06 3.31s-2.6 2.58-3.94 3.83c-.63.59-1.44 1-2.2.24s-.23-1.53.32-2.2c.31-.38.73-.69 1-1.1.61-.91 2.38-1.39 1.77-2.66s-2.25-1.02-3.57-1.09z"/><path d="m127.3 295.8a1.24 1.24 0 0 1 -1.14-1c-.21-1.13.75-1.27 1.56-1.51 3.35-1 4.6-3.45 3.35-6.62-1.69-4.25-3.42-8.48-5.09-12.73-.38-1-1.11-2.21.34-2.8s1.81.76 2.19 1.75c1.35 3.49 2.64 7 4 10.49.16.41.16 1.1.78 1 .22 0 .44-.64.58-1 1.34-3.58 2.65-7.17 4-10.74.35-.91.72-2.14 2-1.59 1.11.46.69 1.53.36 2.39-2.31 6.06-4.58 12.13-7 18.16a5.85 5.85 0 0 1 -5.93 4.2z"/><path d="m97.33 277.74c0-1.49 0-3 0-4.48 0-1 0-2.22 1.44-2.16 1.2 0 1.23 1.17 1.24 2.1v8.22c0 2 .65 3.61 2.56 4.49 2.87 1.33 5.75-.54 6-4.11.22-2.47.08-5 .1-7.47 0-.67 0-1.33.07-2s.44-1.31 1.23-1.3a1.26 1.26 0 0 1 1.29 1.28c.1 3.9.66 7.84-.29 11.66a6.61 6.61 0 0 1 -7.47 4.85c-3.65-.45-5.94-2.73-6.22-6.35-.12-1.57 0-3.16 0-4.74z"/><path d="m115.35 278.73c0-2.58-.13-5.17 0-7.74.27-4.48 3.72-7.56 7.49-6.84.87.16 2 .26 1.91 1.51s-1.18.9-2 1c-1.91.16-3.62.59-4.32 2.72-.4 1.2-.3 2 1.2 2a12.3 12.3 0 0 1 1.49.05c.79.06 1.58.25 1.64 1.19a1.24 1.24 0 0 1 -1.47 1.32c-3.48-.39-3.4 1.8-3.3 4.22.1 2.74 0 5.5 0 8.24 0 1 .12 2.28-1.26 2.31-1.55 0-1.42-1.35-1.43-2.41 0-2.49 0-5 0-7.49z"/><path d="m111.29 306.49a6.53 6.53 0 0 1 0-1c.15-1.07-.52-2.59 1-3a5.09 5.09 0 0 1 4.54.52c1.22.93 1 2.12.42 3.35-.5 1 .18 1.91.5 2.84.17.51.63 1.14-.13 1.5s-1.1-.16-1.43-.68c-.22-.35-.39-.73-.6-1.09-.36-.64-.69-1.41-1.6-1.32-1.06.11-.89 1-1 1.73s-.13 1.27-.91 1.21-.76-.76-.78-1.34c0-.91 0-1.82 0-2.73zm3.08-.75c.6-.07 1.22-.23 1.19-.95s-.73-.78-1.31-.76-1 .19-1 .8c-.09.8.49.9 1.12.91z"/><path d="m87.33 306.55c0-4.15 1-4.94 5.07-4.21.48.09 1.09.09 1.14.72s-.53.71-1 .85c-1.06.28-2.9-.56-3.07.78-.21 1.76 1.78.76 2.7 1.23.32.17.6.35.54.71a.86.86 0 0 1 -.46.53 8.11 8.11 0 0 1 -1.21.25c-.69.12-1.73-.12-1.66 1s1.06.83 1.77.89h1.25s1.11 0 1.15.69c0 .81-.68.79-1.24.88-4.07.73-4.98-.07-4.98-4.32z"/><path d="m83 302.3a9.88 9.88 0 0 1 1.55.29c.66.22 1.26.73 1 1.49-.31.94-1 .49-1.65.27a5.09 5.09 0 0 0 -1.44-.32c-.51 0-1 .15-1.07.79s.38.73.78.85c.63.19 1.31.25 1.94.46a2.24 2.24 0 0 1 1.7 2.45 2.31 2.31 0 0 1 -2 2.22 5.19 5.19 0 0 1 -2.71-.11c-.8-.27-1.77-.66-1.35-1.69s1.19-.49 1.86-.08 1.6.6 1.91-.3c.4-1.15-.75-1.06-1.4-1.21-1.78-.39-2.93-1.33-2.62-3.28.27-1.71 1.71-1.8 3.5-1.83z"/><path d="m110 305.38a14.78 14.78 0 0 1 -.11 1.86c-.37 1.86-1.31 3.38-3.36 3.44s-3.06-1.39-3.56-3.23a1.67 1.67 0 0 1 -.08-.49c.14-1.49-.79-4 .79-4.18 1.93-.19.92 2.28 1.18 3.58.22 1.06.13 2.38 1.64 2.31 1.32-.06 1.33-1.27 1.41-2.27 0-.33 0-.67 0-1 .15-1-.33-2.69 1-2.7 1.76 0 .73 1.83 1.09 2.68z"/><path d="m98.75 302.29a5.63 5.63 0 0 1 1 .09c.7.18 1.68.34 1.53 1.26s-1 .64-1.67.49c-.9-.2-2-.47-2.44.54a4.78 4.78 0 0 0 0 3.87c.45 1.09 1.5.76 2.39.54.58-.14 1.26-.38 1.48.36s-.55 1.08-1.14 1.31c-2.71 1-5-.51-5.05-3.48-.14-3.91.66-4.99 3.9-4.98z"/><path d="m108.42 240a5.85 5.85 0 1 1 6.06-5.9 5.85 5.85 0 0 1 -6.06 5.9zm0-.68a5.17 5.17 0 1 0 -5.34-5.13 5.4 5.4 0 0 0 5.31 5.15z"/><path d="m133.69 310.57a.83.83 0 0 1 -.86-1c.21-2.18-.89-3.82-2.12-5.42-.35-.45-.8-1.08-.17-1.53s1.31.08 1.62.66c1 1.89 1.91 1.66 2.87-.06.33-.6 1-1.13 1.65-.68.81.56.07 1.22-.28 1.68-1.19 1.56-2.17 3.14-1.94 5.22a1 1 0 0 1 -.77 1.13z"/><path d="m125.7 302.26a16.46 16.46 0 0 1 2.33.2c.75.16 1 1 .29 1.17-2.34.72-1.61 2.56-1.73 4.11-.06.66 0 1.32-.1 2a.78.78 0 1 1 -1.56 0c-.07-1.07-.06-2.15-.1-3.23a3.59 3.59 0 0 0 -.38-2.16c-.43-.6-2-.43-1.44-1.57.52-.97 1.85-.25 2.69-.52z"/><path d="m121.47 306.59v2.71c0 .59-.11 1.24-.88 1.23s-.77-.57-.78-1.08c0-1.89 0-3.78 0-5.67 0-.49.11-1.08.73-1.11.79 0 .88.64.91 1.2v2.72z"/><path d="m110.06 74.76c1.19 1.19 1.3 2.49 0 3.62a2.42 2.42 0 0 1 -3.37 0c-1.26-1.12-1.15-2.42 0-3.62l.31.34c-.51 1-.81 2 .31 2.83a1.65 1.65 0 0 0 2.06 0c1.12-.81.81-1.82.31-2.83z"/><path d="m106.77 74.76a2.16 2.16 0 0 1 3.29 0l-.3.34h-2.68z"/><path d="m131.07 180.11c-11 6.76-22.79 8.06-35.16 4.59a32.55 32.55 0 0 1 -10.15-4.59l.31-.38a46.23 46.23 0 0 0 21.85 6.1 45.94 45.94 0 0 0 22.85-6.1z"/><path d="m147.6 123.28q9.94 20.66-1 40.79l-.37-.29a47.88 47.88 0 0 0 5.22-21.87c-.08-6.48-1.89-12.46-4.23-18.36z"/><path d="m86.77 104.74a41.3 41.3 0 0 1 25.63-5.65 34.54 34.54 0 0 1 13.65 3.65l-.26.37-2.35-.82a43.93 43.93 0 0 0 -16.12-2.63 45.57 45.57 0 0 0 -20.26 5.46z"/><path d="m68.73 161.06c-5.87-12.67-5.55-25.26.5-37.78l.38.27c-2 5.2-3.82 10.42-4.15 16.08a48.8 48.8 0 0 0 3.64 21.17z"/><path d="m69.76 122.3a27.74 27.74 0 0 1 6-8.54l.4.33-6 8.48z"/><path d="m141.11 113.76a27.57 27.57 0 0 1 6 8.54l-.34.26q-3-4.23-6-8.48z"/><path d="m141.59 171.08a25.23 25.23 0 0 1 -7.53 7l-.3-.38a80.42 80.42 0 0 0 7.46-6.95z"/><path d="m80.26 176.1a16.8 16.8 0 0 1 -5-5l.38-.31 4.95 5c-.12.07-.23.21-.33.31z"/><path d="m137.07 109.74a13 13 0 0 1 4 4l-.4.32-4-4z"/><path d="m75.72 113.76a12.89 12.89 0 0 1 4-4c.11.12.21.25.31.37l-3.95 4z"/><path d="m146.6 164.07a15.34 15.34 0 0 1 -3 4.52l-.38-.32c1-1.5 2-3 3-4.49z"/><path d="m73.22 168.58a14.54 14.54 0 0 1 -3-4.52l.36-.28 3 4.49z"/><path d="m130.05 104.76a14.24 14.24 0 0 1 4.53 3l-.32.38-4.49-3z"/><path d="m82.25 107.73a15 15 0 0 1 4.52-3l.29.38-4.49 3z"/><path d="m126.05 102.74a10 10 0 0 1 4 2l-.28.35-4-2z"/><path d="m85.76 180.11a8.92 8.92 0 0 1 -3-2l.32-.39 3 2z"/><path d="m134.06 178.1a8.44 8.44 0 0 1 -3 2l-.3-.38 3-2z"/><path d="m82.76 178.11a8.1 8.1 0 0 1 -2.5-2c.1-.12.21-.24.31-.37.83.67 1.67 1.33 2.51 2z"/><path d="m143.61 168.59a7.94 7.94 0 0 1 -2 2.48l-.37-.3 2-2.5z"/><path d="m70.25 164.06a6.59 6.59 0 0 1 -1.52-3l.37-.26 1.51 3z"/><path d="m134.58 107.73a7.73 7.73 0 0 1 2.49 2c-.1.12-.21.24-.31.37l-2.5-2c.11-.1.21-.24.32-.37z"/><path d="m79.76 109.75a8 8 0 0 1 2.5-2l.31.39-2.5 2c-.07-.14-.2-.27-.31-.39z"/><path d="m75.24 171.08a8 8 0 0 1 -2-2.5l.39-.31 2 2.5z"/><path d="m147.07 122.3c.18.33.35.66.53 1l-.37.27c-.17-.33-.34-.66-.5-1z"/><path d="m69.23 123.28c.18-.32.36-.65.53-1l.35.27c-.17.33-.34.65-.5 1z"/><g fill="none"><path d="m29.67 60.17v446.75c0 5.49 2.26 7.75 7.75 7.75h143c4 0 6.56-2.5 6.74-6.5 0-.41 0-.83 0-1.25v-444.5c0-9.41-.09-18.83 0-28.25a7.12 7.12 0 0 0 -7.29-7.32q-71.5.18-143 0a7.11 7.11 0 0 0 -7.3 7.32c.15 7.83 0 15.67.06 23.5 0 .75-.32 1.56.24 2.25"/><path d="m210.17 17.17v505.25a50.36 50.36 0 0 0 .2 6c.36 3-2.46 6.41-5.46 6.73a48.9 48.9 0 0 1 -5 .25q-91.87 0-183.75 0c-2.88 0-5.81.19-8.06-2.43a6.05 6.05 0 0 1 -1.63-4.54c.39-4.51.17-9 .17-13.51q0-247.74 0-495.5a50.2 50.2 0 0 0 -.2-6c-.37-3.12 2-6 5.21-6.75a18.3 18.3 0 0 1 4.25-.5h185c3.72 0 7.26.47 9 4.49.9 2.09.31 4.17 0 6.25" stroke="#000" stroke-linecap="round" stroke-linejoin="round" stroke-width="7"/><path d="m188.67 13.42v515" stroke="#000" stroke-linecap="round" stroke-linejoin="round" stroke-width="4"/><path d="m28.17 13.42v515" stroke="#000" stroke-linecap="round" stroke-linejoin="round" stroke-width="4"/><path d="m13.42 6.67c.35 3 2.12 4.3 5 5.09a35.12 35.12 0 0 0 9.78 1.32c52.66-.45 105.33 0 158-.15a48.89 48.89 0 0 0 12.27-1.18c2.87-.74 4.62-2.1 5-5.08" stroke="#000" stroke-linecap="round" stroke-linejoin="round" stroke-width="3"/><path d="m209.67 524.92c-4.32-2.65-9.19-2.91-14-3-56.75-.63-113.5-.16-170.25-.22a56.84 56.84 0 0 0 -14.27 1.38c-1.48.38-2.54 1.48-4 1.8" stroke="#000" stroke-linecap="round" stroke-linejoin="round" stroke-width="4"/><path d="m13.42 534.92c.72-4.82 4.68-5 8.25-5.74a51.4 51.4 0 0 1 10-.51q79 0 158 0a44 44 0 0 1 8.73 1.09c2.62.54 4.68 2.16 5 5.17" stroke="#000" stroke-linecap="round" stroke-linejoin="round" stroke-width="3"/><path d="m188.42 19.92q-81.25 0-162.5-.05a61.88 61.88 0 0 1 -14-1.12c-1.72-.4-3.09-1.4-4.73-1.83" stroke="#000" stroke-linecap="round" stroke-linejoin="round" stroke-width="4"/><path d="m98.67 271.67v10a5.76 5.76 0 0 0 5.5 6 5.83 5.83 0 0 0 6-5.75c.11-3.33 0-6.66-.09-10" stroke="#000" stroke-linecap="round" stroke-linejoin="round" stroke-width="2"/><path d="m91.17 274.17a8.08 8.08 0 0 0 -13.25 8.5c1.22 3.36 5 5.95 8.24 5.48 4.58-.65 7.17-3.56 7.51-8" stroke="#000" stroke-linecap="round" stroke-linejoin="round" stroke-width="2"/><path d="m209.67 16.92c-4.25 2.18-8.81 2.75-13.5 2.77-2.42 0-4.84.15-7.25.23" stroke="#000" stroke-linecap="round" stroke-linejoin="round" stroke-width="4"/><path d="m101.67 303.67a9.65 9.65 0 0 0 -1-.24c-1.54-.19-3.39-1.07-4.43.54-.9 1.41-.51 3.34-.24 4.94.32 1.84 2.14 1.25 3.42 1.22a5.47 5.47 0 0 0 1.75-.71" stroke="#000" stroke-linecap="round" stroke-linejoin="round" stroke-width="2"/><path d="m124.17 265.67c-5-1-7.28 1.5-7.36 6.75s0 10.5-.14 15.75" stroke="#000" stroke-linecap="round" stroke-linejoin="round" stroke-width="2"/><path d="m126.92 272.42c2 4.85 3.38 9.91 6 14.53 1.06 1.9-.37 3.6-1.23 5.21s-2.31 2.84-4.48 2.28c-.13 0-.33.15-.49.23" stroke="#000" stroke-linecap="round" stroke-linejoin="round" stroke-width="2"/><path d="m139.17 272.42c-1.79 4.89-3.15 9.94-5.75 14.5" stroke="#000" stroke-linecap="round" stroke-linejoin="round" stroke-width="2"/><path d="m84.92 303.92c-.94-1.32-2.34-.7-3.5-.67-.51 0-1.48.34-1.09 1.7.45 1.56 1.42 1.73 2.59 1.69s2 .56 2 1.78-.94 1.74-2.21 1.79a3.39 3.39 0 0 1 -2.5-1" stroke="#000" stroke-linecap="round" stroke-linejoin="round" stroke-width="2"/><path d="m117.17 310.17c-.36-1.64-2.19-3-.56-5a1.19 1.19 0 0 0 -1.19-1.89c-1.11.12-3-1.15-3.22 1.19-.17 1.9 0 3.83 0 5.74" stroke="#000" stroke-linecap="round" stroke-linejoin="round" stroke-width="2"/><path d="m209.92 527.17a10.37 10.37 0 0 1 -6.75 5.75" stroke="#000" stroke-linecap="round" stroke-linejoin="round" stroke-width="2"/><path d="m6.92 527.17a10.35 10.35 0 0 0 6.75 5.75" stroke="#000" stroke-linecap="round" stroke-linejoin="round" stroke-width="2"/><path d="m13.67 8.92c-3.27.59-5.06 3-6.75 5.5" stroke="#000" stroke-linecap="round" stroke-linejoin="round" stroke-width="2"/><path d="m88.42 306.67c-.61 3.23-.4 3.5 2.75 3.5h2" stroke="#000" stroke-linecap="round" stroke-linejoin="round" stroke-width="2"/><path d="m109.17 303.17c-.54 1.31-.08 2.68-.26 4s-.49 2.43-2.24 2.55a2.35 2.35 0 0 1 -2.71-2.3 25.39 25.39 0 0 1 0-4" stroke="#000" stroke-linecap="round" stroke-linejoin="round" stroke-width="2"/><path d="m209.92 14.42c-1.72-2.49-3.44-5-6.75-5.5" stroke="#000" stroke-linecap="round" stroke-linejoin="round" stroke-width="2"/><path d="m93.17 303.17h-3c-1.06 0-2.14-.26-2 1.51.07 1.46.56 2.12 2 2 .66-.05 1.33 0 2 0" stroke="#000" stroke-linecap="round" stroke-linejoin="round" stroke-width="2"/><path d="m120.67 303.17v7" stroke="#000" stroke-linecap="round" stroke-linejoin="round" stroke-width="2"/><path d="m125.67 303.67v6.5" stroke="#000" stroke-linecap="round" stroke-linejoin="round" stroke-width="2"/><path d="m130.17 302.92c1.89.44 2 2.71 3.5 3.5" stroke="#000" stroke-linecap="round" stroke-linejoin="round" stroke-width="2"/><path d="m117.42 272.67h4.75" stroke="#000" stroke-linecap="round" stroke-linejoin="round" stroke-width="2"/><path d="m136.17 303.17c-1.76 2-3 4.19-2.5 7" stroke="#000" stroke-linecap="round" stroke-linejoin="round" stroke-width="2"/><path d="m122.67 302.92c1.81.54 3.66.23 5.5.25" stroke="#000" stroke-linecap="round" stroke-linejoin="round" stroke-width="2"/><path d="m106.67 228.67c-5 2.5-4.9 7-2 9.75a6.43 6.43 0 0 0 6.5.75c2-1.17 3.61-4.16 3-6-1.06-3-3-5-5.47-4.53a9.19 9.19 0 0 1 -1.74 0" stroke="#000" stroke-linecap="round" stroke-linejoin="round" stroke-width="2"/><path d="m107.23 125.92a22.12 22.12 0 0 0 -5.21 1 17.15 17.15 0 0 0 -10.43 10 17.27 17.27 0 0 0 12.54 23.43 17.39 17.39 0 0 0 21-18.22 17.47 17.47 0 0 0 -11.84-15.32 19.71 19.71 0 0 0 -5.91-.91" stroke="#000" stroke-linecap="round" stroke-linejoin="round" stroke-width="5"/><path d="m104.67 87.42c-5 .58-10.08 1.24-14.67 3.08-18.56 7.36-31 20.52-35.44 40.19-3.86 17.14-.08 32.9 10.92 46.72a52.87 52.87 0 0 0 34 19.9c16 2.5 30.7-1.19 43.47-11.41a55.15 55.15 0 0 0 10-75.95 53.87 53.87 0 0 0 -27.22-19.76 58.77 58.77 0 0 0 -20.74-2.77" stroke="#000" stroke-linecap="round" stroke-linejoin="round" stroke-width="3"/><path d="m107.92 74.42a2.18 2.18 0 0 0 -1.74 2.5 1.88 1.88 0 0 0 1.74 1.75 2.34 2.34 0 0 0 2.5-1c.88-1.33-.1-2.77-2.25-3.26" stroke="#000" stroke-linecap="round" stroke-linejoin="round" stroke-width="2"/><path d="m101.92 352.17c-3.57.91-7.22 1.37-10.77 2.47-16.07 4.97-27.54 15.36-35.15 30.07a51 51 0 0 0 -5.33 18.21c-2.69 25.5 7.67 44.67 28.85 58.13 6.87 4.37 14.87 6.33 23.15 7.23a57.34 57.34 0 0 0 25.74-3.17c12.6-4.46 22.3-12.74 29.52-23.94a57.29 57.29 0 0 0 8.17-21.51 54.39 54.39 0 0 0 -.47-21.23 58.33 58.33 0 0 0 -25.73-37.23 56.49 56.49 0 0 0 -23.47-8.59c-4.78-.69-9.52-.19-14.26-.44" stroke="#000" stroke-linecap="round" stroke-linejoin="round" stroke-width="4"/><path d="m102.52 358.87c-3.71.92-7.49 1.46-11.12 2.79-16.66 6.1-27.41 17.69-32.6 34.55a46.72 46.72 0 0 0 -1.8 18.66c1.44 13.9 7.36 25.65 18.13 34.75a48.48 48.48 0 0 0 22.2 10.92 55.25 55.25 0 0 0 16.09 1c12.95-1.23 23.66-6.7 32.6-15.94a48.16 48.16 0 0 0 13.38-27c2.33-16.06-1.64-30.45-12.62-42.8a52.42 52.42 0 0 0 -26.77-16c-5.61-1.46-11.46-1.09-17.23-1" stroke="#000" stroke-linecap="round" stroke-linejoin="round" stroke-width="2"/></g></g></svg>