<svg xmlns="http://www.w3.org/2000/svg" viewBox="0 0 96 120" x="0px" y="0px"><title>Artboard 50</title><g><path d="M48,32a8,8,0,1,0-8-8A8.01,8.01,0,0,0,48,32Zm0-12a4,4,0,1,1-4,4A4.0027,4.0027,0,0,1,48,20Z"/><circle cx="48" cy="72" r="8"/><path d="M70,4H26a1.9988,1.9988,0,0,0-2,2V90a1.9988,1.9988,0,0,0,2,2H70a1.9988,1.9988,0,0,0,2-2V6A1.9988,1.9988,0,0,0,70,4ZM48,12A12,12,0,1,1,36,24,12.0131,12.0131,0,0,1,48,12Zm0,72A12,12,0,1,1,60,72,12.0131,12.0131,0,0,1,48,84ZM62,50H34a2,2,0,0,1,0-4H62a2,2,0,0,1,0,4Z"/></g></svg>