<svg id="b2f6c35a-457b-4e49-bd95-ff0483acc490" data-name="Layer 1" xmlns="http://www.w3.org/2000/svg" width="175.64" height="321.5" viewBox="0 0 175.64 321.5"><path d="M92.54,2.68c14.52.15,28.92,1.09,43.11,4.57,21.83,5.34,32.81,20,35.95,41.37a284.12,284.12,0,0,1,3,46.81c-.3,15.44-1.62,30.8-5.53,45.78-2.94,11.28-10.34,19.2-20.37,24.77-7.48,4.16-15.63,6.09-24.09,6.9-8.29.8-16.59,1.43-24.92,1.53a6,6,0,0,0-1.15.23c.13.19.21.45.39.56,6.87,4.34,8,11.14,8.18,18.5.27,11.74.69,23.47,1.13,35.21.59,16,1.27,31.94,1.85,47.92.07,1.88.83,2.41,2.6,2.38,14.67-.24,29.29.8,43.9,2,6.19.5,10.94,3.72,14.67,8.55a5.08,5.08,0,0,1,.9,3.3c0,3.34-.13,6.68,0,10a6.9,6.9,0,0,1-2.39,5.74c-1.7,1.59-3.26,3.33-4.91,5a15.17,15.17,0,0,1-8.38,4.12,114.54,114.54,0,0,1-14.66,1.41c-13.9.75-27.82.38-41.72.72-8.33.2-16.65,0-25,.09a407.26,407.26,0,0,1-55.85-2.66,10.19,10.19,0,0,1-7.79-4.81,7.14,7.14,0,0,0-2.64-2.19c-2.67-1.61-4.36-3.72-3.92-7.15.49-3.79.66-7.63,1.1-11.43a8.74,8.74,0,0,1,4.16-6.26,28.53,28.53,0,0,1,14.49-4.91c10.64-.7,21.29-1.11,32-1.09,2.83,0,5.66-.29,8.48-.27,1.84,0,2.56-.86,2.65-2.54,0-.66.11-1.33.13-2,.38-13.07.73-26.14,1.15-39.21.47-15,1-30,1.49-44.94.19-6.29,2.34-11.53,7.66-15.2.32-.22.86-.71.82-.78-.31-.5-.87-.27-1.33-.28a229,229,0,0,1-34.27-3.34c-14.94-2.67-25.51-11.27-32.66-24.32-4.19-7.65-5.84-16-6.4-24.7C3.44,107.24,2.7,92.43,3.11,77.6c.36-12.81.79-25.67,4.49-38.09C13.23,20.62,26.07,9.61,45.27,6.26a246.75,246.75,0,0,1,34-3.18C83.72,2.92,88.13,2.66,92.54,2.68ZM89.08,296.25v-.09c21.08,0,42.16.09,63.24-.06A34,34,0,0,0,168,292.44c1.76-.92,1.8-1.82.49-3.2a20,20,0,0,0-13.71-6.34c-4.07-.26-8.13-.58-12.2-.83-10.06-.64-20.13-1-30.22-.79-.9,0-2,0-2.09,1.25-.11,1.09-.16,2.17,1.16,2.73.68.28,2,.41,1.32,1.59-.49.89-1.5.37-2.27.09a2.74,2.74,0,0,1-2-2.56c-.09-1.58-.3-3.16-.35-4.74q-1-28.08-2-56.16c-.4-11.49-.71-23-1.14-34.46a14.8,14.8,0,0,0-6.47-11.85c-.85-.62-1.72-1.32-3-1a27.87,27.87,0,0,1-13.34,0,2.94,2.94,0,0,0-2.35.56c-4.32,2.7-6.87,6.58-7.09,11.68-.57,13.48-1,27-1.48,40.44-.43,13.24-.68,26.48-1.22,39.71-.19,4.57-.3,9.15-.41,13.73a4.76,4.76,0,0,1-3.53,4.86c-.62.21-1.41.43-1.76-.35s.42-1.13,1-1.37c1.35-.54,2.47-1.33,2.06-2.95-.45-1.78-2.06-1.07-3.17-1.07-12.41,0-24.81.45-37.21,1-5.65.26-11.08,1.4-15.78,4.8-1.42,1-3.14,2.17-2.87,4.09s2.3,2,3.73,2.44c6.16,2.05,12.55,2.49,19,2.49ZM5.1,88.58c-.23,10,.47,21.91,1.18,33.8C6.79,131,8.64,139.39,13,147c6.23,10.8,15.11,18.59,27.32,21.48,13.33,3.15,27,3.78,40.69,4.15,12.33.33,24.65-.14,37-1,8.41-.6,16.77-1.55,24.65-4.85,12.26-5.12,21.32-13.39,24.73-26.6a176,176,0,0,0,5.07-39.06A289.13,289.13,0,0,0,172,71.36c-.66-9.13-1.2-18.31-3.13-27.26-3.78-17.44-13.56-29.49-31.37-34.34a145.28,145.28,0,0,0-32.79-4.82A354.1,354.1,0,0,0,49.86,7.4C27.18,10.06,12.79,23,8.08,45.39,5.22,59,5.06,72.84,5.1,88.58ZM90.56,312.15c20.06-.29,40.14.92,60.19-.5a56.4,56.4,0,0,0,14.68-2.74c2.19-.76,4.54-1.65,4.61-4.58s0-6,0-9c0-1.24-.28-1.68-1.59-1-6.6,3.25-13.74,4-20.92,4q-58.59.1-117.19,0c-7.16,0-14.32-.7-21-3.56-1.24-.52-1.63-.25-1.7,1-.13,2.24-.34,4.48-.56,6.72-.44,4.29,1.16,6.49,5.44,7.21a161.32,161.32,0,0,0,25.07,2.4C55.24,312.3,72.9,312.15,90.56,312.15Zm-3.71,6c15.08.09,30.15,0,45.23-.44,6.66-.19,13.31-.46,19.94-1.11,4-.4,8-.79,11.13-3.77.33-.31.93-.6.6-1.16-.09-.15-.76,0-1.14.08a119.23,119.23,0,0,1-26.29,2.6q-44.86.07-89.72,0c-3.08,0-6.16-.17-9.24-.32-7.49-.35-14.94-1-22.37-2-.39-.06-.91-.25-1.13.17s.25.74.53,1a9,9,0,0,0,5.36,2.43c13,1.5,26.05,2.22,39.11,2.48C68.19,318.29,77.52,318.14,86.85,318.14Z" transform="translate(-1 -0.68)" style="stroke:#231f20;stroke-miterlimit:10;stroke-width:4px"/><path d="M166.67,90.68a202.21,202.21,0,0,1-3,41.23c-2.07,11.67-7.71,21.23-18.35,27.24-5.86,3.31-12.42,4.19-18.93,5.14a250,250,0,0,1-44.83,2.53c-12.8-.45-25.64-.55-38.15-3.91-7.9-2.12-15.43-4.93-20.9-11.46a38.47,38.47,0,0,1-9-20.78A399.75,399.75,0,0,1,10.62,77.1c.29-12.74,1.33-25.4,4.94-37.77,4-13.69,13.23-21.51,26.56-25.16C48.93,12.3,56,12.28,62.91,11.66c10.37-.91,20.79-1.23,31.18-1.23,13.06,0,26.15.24,39,3.26,16.79,3.94,28.35,15.73,30.86,32.13,1.13,7.39,1.63,14.88,2.15,22.35A212.71,212.71,0,0,1,166.67,90.68Zm-154-7a355.18,355.18,0,0,0,2.72,46.35c1.58,13,7.64,23.15,20.31,28.36a70.76,70.76,0,0,0,10.5,3.22c13.4,3.25,27.11,3,40.74,3.42a234,234,0,0,0,44.75-3.52c16.32-2.71,26.58-12.52,29.87-28.75,2.37-11.69,3.09-23.6,3.38-35.51a376.18,376.18,0,0,0-2-44.64c-.53-5.55-1.13-11.11-3.54-16.27-5.44-11.64-15.07-17.89-27.12-20.88-9.26-2.29-18.78-2.72-28.26-3s-19-.1-28.47.41c-9.23.49-18.48.83-27.63,2.09-9.79,1.34-18.37,5.2-24.77,13.13-4.28,5.31-5.88,11.72-7.34,18.12C13,58.54,12.51,71.11,12.63,83.7Z" transform="translate(-1 -0.68)" style="stroke:#231f20;stroke-miterlimit:10;stroke-width:4px"/><path d="M62.93,88.67a25.86,25.86,0,1,1,51.72.07c0,14.2-11.9,26.14-26,26A26,26,0,0,1,62.93,88.67Zm49.65,0a23.6,23.6,0,0,0-24-23.85,23.93,23.93,0,1,0,.17,47.86A23.6,23.6,0,0,0,112.58,88.69Z" transform="translate(-1 -0.68)" style="stroke:#231f20;stroke-miterlimit:10;stroke-width:4px"/><path d="M88.75,138.64a6.89,6.89,0,0,1,6.87,6.8,6.82,6.82,0,0,1-13.64.05A6.76,6.76,0,0,1,88.75,138.64Zm4.8,6.58a4.78,4.78,0,0,0-5-4.76,5.24,5.24,0,0,0-4.73,4.94,4.9,4.9,0,0,0,5,4.8A4.63,4.63,0,0,0,93.55,145.22Z" transform="translate(-1 -0.68)" style="stroke:#231f20;stroke-miterlimit:10;stroke-width:4px"/><path d="M89.17,45.8c-1.39-.18-2.38-.91-2.4-2.35a2.37,2.37,0,0,1,4.73-.11C91.53,44.78,90.59,45.57,89.17,45.8Z" transform="translate(-1 -0.68)" style="stroke:#231f20;stroke-miterlimit:10;stroke-width:4px"/><path d="M111.21,88.29A22.28,22.28,0,0,1,88.8,110.38a22.34,22.34,0,1,1,22.41-22.09Zm-42.57-.37A20.41,20.41,0,0,0,89,108.54c11,.09,20.36-9.29,20.45-20.42A20.41,20.41,0,0,0,89.06,67.78,20.06,20.06,0,0,0,68.64,87.92Z" transform="translate(-1 -0.68)" style="stroke:#231f20;stroke-miterlimit:10;stroke-width:4px"/><path d="M94.63,88.91a5.81,5.81,0,1,1-5.79-5.71A6,6,0,0,1,94.63,88.91Zm-5.82-3.63A3.74,3.74,0,1,0,92.56,89,3.48,3.48,0,0,0,88.81,85.28Z" transform="translate(-1 -0.68)" style="stroke:#231f20;stroke-miterlimit:10;stroke-width:2px"/></svg>