<?xml version="1.0" standalone="no"?>
<!DOCTYPE svg PUBLIC "-//W3C//DTD SVG 20010904//EN"
 "http://www.w3.org/TR/2001/REC-SVG-20010904/DTD/svg10.dtd">
<svg version="1.0" xmlns="http://www.w3.org/2000/svg"
 width="300.000000pt" height="1046.000000pt" viewBox="0 0 300.000000 1046.000000"
 preserveAspectRatio="xMidYMid meet">
<metadata>
Created by potrace 1.10, written by Peter Selinger 2001-2011
</metadata>
<g transform="translate(0.000000,1046.000000) scale(0.100000,-0.100000)"
fill="#000000" stroke="none">
<path stroke="black" stroke-width="30" d="M868 10296 c-64 -17 -153 -73 -197 -123 -47 -53 -95 -143 -110 -208
-10 -38 -12 -466 -12 -1796 l0 -1746 -60 -59 c-137 -134 -216 -293 -260 -519
-49 -259 -47 -938 5 -1185 44 -213 124 -372 252 -497 l63 -62 0 -1748 c0
-1544 1 -1755 15 -1807 43 -165 188 -299 351 -326 81 -13 1106 -13 1176 0 129
25 260 123 314 237 57 122 55 28 55 1913 l0 1736 56 54 c145 142 219 295 267
554 21 113 22 148 22 551 0 400 -2 438 -22 550 -46 247 -121 405 -259 543
l-64 64 0 1740 c0 1920 4 1796 -62 1921 -41 77 -140 168 -215 199 l-58 23
-605 2 c-463 1 -616 -1 -652 -11z m1305 -48 c66 -31 156 -112 191 -172 13 -23
32 -68 43 -101 17 -57 18 -115 16 -1140 -2 -1292 -8 -1444 -73 -1725 -49 -210
-146 -380 -278 -486 -68 -55 -211 -125 -302 -148 -154 -38 -414 -36 -550 5
-306 93 -472 273 -560 609 -69 264 -80 517 -80 1804 0 1081 -1 1068 50 1165
46 90 142 171 239 202 52 17 100 18 651 16 l595 -2 58 -27z m-1573 -3029 c47
-277 113 -421 260 -569 67 -68 104 -95 175 -132 146 -75 291 -108 470 -108
383 0 667 169 810 481 34 76 72 215 94 344 l19 110 -2 -563 -1 -562 -923 -3
-922 -2 0 495 c0 272 -3 527 -6 565 -10 104 5 73 26 -56z m-50 -1961 l0 -1112
-46 45 c-45 44 -128 157 -157 214 -30 59 -68 184 -90 296 -20 107 -22 141 -22
554 0 311 4 462 13 515 34 199 81 330 160 446 47 70 120 154 133 154 5 0 9
-456 9 -1112z m2036 975 c156 -216 203 -488 190 -1098 -10 -517 -68 -723 -264
-935 l-51 -55 -1 1115 0 1114 41 -39 c22 -22 61 -68 85 -102z m-156 -968 l0
-915 -925 0 -925 0 -2 268 c-2 147 -2 558 0 915 l2 647 925 0 925 0 0 -915z
m0 -1517 c0 -309 -2 -559 -4 -557 -2 2 -11 51 -20 109 -66 446 -292 713 -670
791 -247 51 -488 24 -686 -76 -250 -126 -388 -343 -451 -710 -22 -131 -32
-159 -25 -74 2 30 4 285 5 567 l1 512 925 0 925 0 0 -562z m-723 313 c172 -34
307 -100 413 -204 174 -170 265 -445 291 -882 5 -88 12 -639 15 -1225 8 -1173
8 -1159 -52 -1279 -56 -111 -146 -184 -271 -216 -85 -22 -1111 -22 -1196 0
-79 21 -131 49 -189 103 -62 57 -96 115 -120 201 -17 62 -18 128 -18 1080 0
557 5 1113 10 1235 24 503 100 770 274 963 174 193 526 286 843 224z"/>
<path stroke="black" stroke-width="30" d="M937 10249 c-148 -35 -270 -168 -298 -324 -16 -93 6 -1995 25 -2185
57 -559 193 -877 447 -1051 243 -165 559 -159 803 15 207 147 336 414 401 828
42 269 47 398 52 1417 l5 985 -27 68 c-45 115 -147 208 -264 242 -47 14 -127
16 -580 15 -289 -1 -543 -5 -564 -10z m1183 -55 c79 -37 150 -107 188 -183
l27 -56 -1 -950 c0 -813 -3 -980 -18 -1155 -46 -542 -135 -830 -319 -1027
-246 -262 -626 -294 -910 -76 -174 134 -297 392 -357 748 -48 280 -52 396 -59
1410 -3 528 -3 983 0 1012 13 95 83 203 169 256 91 56 89 56 675 54 l540 -2
65 -31z"/>
<path stroke="black" stroke-width="30" d="M1425 6066 c-27 -7 -68 -22 -90 -33 -56 -29 -131 -113 -163 -181 -23
-50 -27 -70 -27 -157 0 -89 3 -107 29 -162 34 -74 123 -164 193 -195 74 -33
199 -31 275 4 110 51 181 141 214 268 66 260 -180 521 -431 456z m192 -48 c85
-31 163 -114 193 -203 58 -175 -15 -361 -173 -440 -42 -21 -65 -25 -132 -25
-73 0 -89 4 -146 33 -190 96 -246 355 -114 525 94 121 233 162 372 110z"/>
<path stroke="black" stroke-width="30" d="M1426 5738 c-43 -43 -53 -78 -34 -126 15 -41 68 -82 105 -82 74 0
130 65 120 140 -8 61 -41 91 -106 98 -47 4 -53 2 -85 -30z m135 -27 c37 -38
39 -82 4 -116 -46 -47 -126 -27 -148 37 -10 27 13 77 42 93 40 22 70 18 102
-14z"/>
<path stroke="black" stroke-width="30" d="M964 5686 c-14 -22 -14 -31 -4 -56 26 -63 97 -18 74 48 -13 37 -48
41 -70 8z m46 -37 c0 -20 -15 -26 -25 -9 -9 15 3 43 15 35 5 -3 10 -15 10 -26z"/>
<path stroke="black" stroke-width="30" d="M1996 5662 c-10 -30 4 -53 28 -50 31 4 30 62 -1 66 -14 2 -23 -3 -27
-16z"/>
<path stroke="black" stroke-width="30" d="M664 5165 c-37 -37 -53 -84 -64 -187 -11 -105 1 -258 24 -313 8 -19
27 -46 42 -60 l27 -25 807 0 807 0 28 22 c15 11 36 42 48 67 19 41 21 64 21
216 0 152 -2 175 -21 216 -12 25 -33 56 -48 67 l-28 22 -809 0 -809 0 -25 -25z
m1648 -19 c10 -7 28 -35 40 -62 21 -44 23 -64 23 -199 0 -135 -2 -155 -23
-199 -12 -27 -30 -55 -40 -62 -14 -11 -167 -13 -805 -14 -524 0 -795 3 -808
10 -31 17 -57 81 -70 173 -20 146 14 324 68 356 12 7 287 10 808 10 640 0 793
-2 807 -13z"/>
<path stroke="black" stroke-width="30" d="M1415 3950 c-86 -10 -198 -48 -273 -92 -77 -45 -208 -179 -257 -264
-119 -203 -183 -441 -221 -814 -11 -106 -18 -394 -25 -1060 -13 -1120 -13
-1125 30 -1216 37 -80 106 -155 173 -190 100 -51 135 -54 664 -54 448 0 497 2
562 19 127 33 212 105 269 227 l28 59 0 965 c0 1012 -4 1141 -47 1435 -41 291
-109 496 -215 658 -45 67 -141 167 -198 207 -142 98 -317 140 -490 120z m243
-45 c285 -67 492 -318 583 -705 80 -339 98 -678 99 -1832 0 -753 0 -768 -21
-823 -39 -104 -128 -193 -232 -230 -48 -17 -93 -19 -542 -23 -331 -2 -511 1
-555 8 -138 24 -232 94 -290 216 l-33 69 2 895 c2 1141 15 1366 91 1700 91
398 288 645 572 720 90 23 238 26 326 5z"/>
<path stroke="black" stroke-width="30" d="M1592 1283 c-18 -16 -21 -32 -24 -121 -2 -76 0 -102 10 -102 8 0 12
21 12 69 0 65 2 70 23 73 29 4 28 22 -1 26 -16 3 -22 8 -18 19 3 8 6 17 6 19
0 2 11 4 25 4 16 0 25 6 25 15 0 20 -33 19 -58 -2z"/>
<path stroke="black" stroke-width="30" d="M1247 1219 c-26 -15 -48 -65 -41 -94 9 -37 52 -75 85 -75 34 0 76 36
85 73 5 21 3 27 -10 27 -9 0 -16 -8 -16 -18 0 -48 -76 -70 -104 -30 -21 30
-20 50 5 82 21 27 43 32 69 16 12 -7 11 -13 -9 -34 -14 -14 -21 -29 -18 -33 9
-8 67 47 67 64 0 28 -76 44 -113 22z"/>
<path stroke="black" stroke-width="30" d="M1400 1162 c0 -79 15 -102 68 -102 44 0 62 30 62 107 0 49 -3 63 -15
63 -12 0 -15 -14 -15 -64 0 -69 -14 -92 -50 -81 -21 7 -23 16 -20 98 1 37 -2
47 -14 47 -13 0 -16 -13 -16 -68z"/>
<path stroke="black" stroke-width="30" d="M1660 1215 c0 -9 11 -43 25 -77 14 -34 25 -72 25 -85 0 -16 -8 -27
-25 -33 -30 -11 -33 -30 -6 -30 26 0 48 24 59 63 5 18 21 63 36 101 30 80 30
76 13 76 -7 0 -21 -26 -32 -57 -25 -78 -32 -83 -45 -33 -15 54 -31 90 -42 90
-4 0 -8 -7 -8 -15z"/>
<path stroke="black" stroke-width="30" d="M1263 923 c-20 -7 -15 -29 10 -47 l22 -17 -23 5 c-15 3 -22 0 -19 -7
6 -19 36 -20 44 -1 4 10 0 22 -10 29 -21 15 -22 26 -2 19 8 -4 15 -2 15 4 0
12 -21 21 -37 15z"/>
<path stroke="black" stroke-width="30" d="M1333 922 c-19 -3 -23 -10 -23 -38 0 -37 18 -52 48 -38 15 7 14 8 -5
11 -27 5 -30 20 -5 26 16 4 16 5 0 6 -26 2 -22 19 5 23 12 2 18 5 12 9 -5 3
-20 3 -32 1z"/>
<path stroke="black" stroke-width="30" d="M1386 911 c-21 -23 -14 -57 14 -66 22 -7 40 1 40 16 0 6 -9 7 -20 4
-22 -7 -40 19 -24 35 15 15 54 0 54 -20 0 -23 26 -44 45 -36 10 3 15 18 14 43
-1 36 -2 36 -8 9 -8 -41 -31 -46 -31 -7 0 22 -5 30 -17 29 -10 0 -25 2 -34 6
-9 4 -22 -1 -33 -13z"/>
<path stroke="black" stroke-width="30" d="M1732 914 c-6 -11 -11 -13 -16 -5 -4 6 -32 11 -62 11 l-54 0 0 -41
c0 -22 4 -38 8 -35 5 3 7 19 4 36 -3 22 0 30 11 30 10 0 17 -11 19 -32 4 -39
23 -39 23 -1 0 41 32 43 42 3 5 -17 13 -30 18 -28 6 2 9 7 7 12 -1 4 4 19 13
32 8 13 11 25 6 29 -6 3 -14 -2 -19 -11z"/>
<path stroke="black" stroke-width="30" d="M1524 885 c0 -35 10 -47 19 -22 3 8 9 6 20 -7 14 -19 15 -17 15 22 1
39 -1 42 -27 42 -24 0 -27 -4 -27 -35z"/>
</g>
</svg>
