<?xml version="1.0" encoding="UTF-8"?>
<svg id="Laag_1" data-name="Laag 1" xmlns="http://www.w3.org/2000/svg" viewBox="0 0 452.04 526.84">
  <defs>
    <style>
      .cls-1 {
        fill: #010101;
      }
    </style>
  </defs>
  <path class="cls-1" d="M221.67,230.69c32.11,0,58.24-29.63,58.24-66.05s-26.13-66.05-58.24-66.05-58.24,29.63-58.24,66.05,26.13,66.05,58.24,66.05Zm0-123.65c27.45,0,49.79,25.84,49.79,57.6s-22.34,57.6-49.79,57.6-49.79-25.84-49.79-57.6,22.34-57.6,49.79-57.6Z"/>
  <path class="cls-1" d="M221.67,208.47c21.41,0,38.83-19.66,38.83-43.83s-17.42-43.83-38.83-43.83-38.83,19.66-38.83,43.83,17.42,43.83,38.83,43.83Zm0-79.21c16.75,0,30.38,15.87,30.38,35.38s-13.63,35.38-30.38,35.38-30.38-15.87-30.38-35.38,13.63-35.38,30.38-35.38Z"/>
  <path class="cls-1" d="M80.63,215.72c32.11,0,58.24-29.63,58.24-66.05s-26.13-66.05-58.24-66.05-58.24,29.63-58.24,66.05,26.13,66.05,58.24,66.05Zm0-123.65c27.45,0,49.79,25.84,49.79,57.6s-22.34,57.6-49.79,57.6-49.79-25.84-49.79-57.6,22.34-57.6,49.79-57.6Z"/>
  <path class="cls-1" d="M80.63,193.5c21.41,0,38.83-19.66,38.83-43.83s-17.42-43.83-38.83-43.83-38.83,19.66-38.83,43.83,17.42,43.83,38.83,43.83Zm0-79.21c16.75,0,30.38,15.87,30.38,35.38s-13.63,35.38-30.38,35.38-30.38-15.87-30.38-35.38,13.63-35.38,30.38-35.38Z"/>
  <path class="cls-1" d="M451.35,192.57c-.02-16.41-2.01-32.31-5.75-46.93-2.92-17.96-6.92-35.41-13-51.19-12.62-32.74-32.53-53.44-60.88-63.3-28.61-9.95-84.42-20.32-142.17-26.41-23.04-2.43-100.04-9.57-123.79,.47-4.9,2.07-10.17,4.18-15.75,6.4C57.35,24.65,16.72,40.86,11.08,68.63c-1.18,3.11-1.84,6.46-1.86,9.96l-.22,2.89C5.66,105.07,1.12,149.56,.18,198.69l-.16,2.18v.32c-.01,.75,.03,1.5,.08,2.24-.06,4.4-.1,8.83-.1,13.28,0,26.32,19.57,54.05,53.69,76.09,15.36,9.92,32.94,18.21,51.64,24.53-5.56,5.57-10.26,16.12-11.23,25.86-.34,3.36-1.74,10.56-3.52,19.68-4.93,25.24-13.17,67.47-14.18,105.58l-.08,2.86,2.62,1.13c1.4,.6,2.87,1.2,4.41,1.78-5.83,16.47-.97,30.3-.74,30.93l.52,1.43,1.31,.77c12.73,7.49,73.38,16.02,132.44,18.64,10.98,.49,24.11,.87,38.27,.87,43.99,0,97.86-3.69,127.57-19.41l2.25-1.19v-2.54c0-11.04-2.7-20.63-4.58-25.98,5.19-1.68,9.57-3.52,12.94-5.54l2.45-1.47-.45-2.82c-9.05-56.54-10.19-137.86-10.34-156.71,10.97-1.06,21.42-6.25,30.72-15.11,2.31-2.03,11.58-10.69,20.22-26,8.93-15.83,18.84-42.11,15.42-77.49Zm-41.47,97.36c-1.14,.81-11.93,8.21-29.66,12.99-15.97-.24-31.14-11.36-42.76-31.38-12.17-20.97-18.87-48.94-18.87-78.75s6.7-57.78,18.87-78.75c11.75-20.24,27.12-31.39,43.28-31.39s31.53,11.15,43.28,31.39c5.65,9.74,10.11,20.99,13.27,33.23,2.44,15.07,4.11,30.55,5.59,45.7-.03,29.75-6.72,57.64-18.87,78.57-4.25,7.33-8.98,13.46-14.05,18.3-.04,.03-.07,.06-.1,.08ZM8.62,199.1l8.79-116.79c.66-4.66,1.28-8.45,1.8-11.26,3.19-7.67,10.99-13.13,20.11-13.21l224.51,24.39,.46,.02c12.06,0,21.88,9.38,21.88,20.91v114.75c0,11.49-9.74,20.84-21.73,20.91L30.63,222.11h-.3c-11.37-.01-20.74-8.35-21.78-18.96,.02-1.35,.04-2.71,.07-4.05Zm.12,22.7c5.47,5.37,13.05,8.72,21.43,8.76l233.82,16.73h.3c16.72,.01,30.33-13.16,30.33-29.36V103.17c0-16.12-13.48-29.24-30.09-29.37L40,49.41l-.46-.02c-2.22,0-4.38,.24-6.47,.68,14.98-12.61,39.25-22.29,60.08-30.61,5.62-2.24,10.93-4.36,15.91-6.47,7.21-3.05,22.11-4.58,42.53-4.58s47.21,1.58,77.07,4.72c57.16,6.03,112.22,16.22,140.27,25.98,25.86,8.99,44.1,28.08,55.77,58.36,.58,1.5,1.13,3.03,1.67,4.56-12.67-18.03-28.64-27.85-45.64-27.85-19.3,0-37.27,12.64-50.59,35.6-12.91,22.24-20.01,51.71-20.01,82.99s7.11,60.76,20.01,82.99c8.97,15.46,20.06,26.24,32.23,31.63-41.89,9.93-103.14,19.92-187.04,15.05-41.99-2.43-84.66-15.84-117.07-36.77-29.38-18.98-47.12-42-49.53-63.9Zm166.11,109.11c12.91,.75,27.77,1.36,44.39,1.36,41.48,0,93.86-3.82,153.92-18.8-4.64,9.12-12.15,21.26-19.51,24.52-11.85,5.25-95.67,10.37-136.55,11.16-31.44,.61-88.13-13.58-109.32-21.11,1.6-2.73,3.34-4.85,4.91-5.91,.82-.55,1.27-.6,1.37-.57l.38-1.33c19.53,5.82,40.05,9.5,60.42,10.68Zm201.61,170.22c-17.68,8.53-60.76,20.77-159.2,16.41-63.37-2.81-114.89-11.38-127.12-16.78-.9-3.58-2.59-13.09,1.23-23.84,31.4,9.62,83.75,15.13,145.19,15.13,2.96,0,5.94-.01,8.93-.04,42.1-.36,94.79-3.8,126.76-11.96,1.51,4.19,3.83,11.98,4.22,21.08Zm-131.05-17.56c-55.15,.47-125.5-3.99-160.48-17.8,1.32-36.64,9.19-76.95,13.94-101.28,1.89-9.7,3.26-16.71,3.64-20.46,.28-2.8,.93-5.61,1.81-8.26,21.29,7.69,77.3,21.84,110.8,21.84,.72,0,1.44,0,2.14-.02,28.47-.54,124.63-5.15,139.81-11.88,6.46-2.86,13.06-9.98,19.64-21.15,.53,30.26,2.49,93.9,9.81,141.7-20.07,9.85-75.74,16.74-141.11,17.3Z"/>
  <path class="cls-1" d="M157.48,377.12c-7.94,0-14.4,6.46-14.4,14.4s6.46,14.4,14.4,14.4,14.4-6.46,14.4-14.4-6.46-14.4-14.4-14.4Zm0,20.34c-3.28,0-5.95-2.67-5.95-5.95s2.67-5.95,5.95-5.95,5.95,2.67,5.95,5.95-2.67,5.95-5.95,5.95Z"/>
</svg>