<svg height="93.77mm" viewBox="0 0 433.01 365.81" width="148.88mm" xmlns="http://www.w3.org/3000/svg"><g stroke="#1d1d1b" stroke-miterlimit="10" transform="translate(-8.38 -8.84)"><path d="m389.94 10.53a340.56 340.56 0 0 1 73.4 5.48 163.91 163.91 0 0 1 38.3 13c13.68 5.71 19.88 15.71 33.93 38.53 3.43 7.78 3.07 15.83 3.43 33.9.39 8.33 1 16.64.85 35-.36 30.15-.73 40.31-5.9 60-.76 3.88-3.63 5-4.3 7.3a94.7 94.7 0 0 1 -31.38 33.38c-9.31 7.11-19.93 11.65-31.11 15-36.33 10.88-73.38 33-108.6 33.85-36.64 8-53.13 16.55-79.95 33.93-10.84 3-31.85 5.48-33.13 6.08a178.76 178.76 0 0 1 -34.91-1.35 370.08 370.08 0 0 1 -45.73-9.39c-15.51-4.3-38.13-13.64-37.79-35.51-4.71-6.38-6.74-13.7-8.76-31.08-3.68-9.79-5.17-19.64-6.33-39.77-.41-4-.7-8-.78-13-.35-17.74-.91-35.49-.44-53.33.36-13.47.13-37 3.07-40.37 1.87-13.53 5.7-34.83 14.87-34.39 8.66-8.87 19.47-14.08 31.66-16.48 9.19-1.81 18.53-3.1 37.8-3.89 10.7-.93 31.37-3.16 33-3.39 11.59-1.33 33.16-3.57 34.75-3.77 13.35-1.36 36.5-3.68 39.76-3.87q17.53-1.59 35.1-3.76c13.63-.9 37.35-1.68 40.89-3.33 7.7-.33 15.37-.06 30.98-.06zm-366.94 196.98a3.59 3.59 0 0 0 .5 3c.54 4.08 3 7.9 3.35 11.78 4.54 14.33 14.74 33.45 37.68 39.58 11.65 5.51 34.37 7.87 37 10.33 17.38 3.39 34.83 5.86 53.58 3.69 4.93-.61 10-1 14.45-3.56 13.31-7 19.37-18 33.47-31.15 3.33-7.37 3.86-14.81 3.81-33.34 1.86-14.7 3-39.41 1.55-44.14-.48-17.8-1.35-35.6-3.81-53.36-1-13.84-4-35.15-10.15-36.55-4.56-8.44-10.65-15.43-19.34-30a103.83 103.83 0 0 0 -34.16-8.66 369.93 369.93 0 0 0 -40.74-6.13c-11.38-.9-33.74-1.63-34.13 0-13.61 3-34 8.57-30.3 31.1a65.78 65.78 0 0 0 -6.11 31.54c-1.84 15.39-3.31 30.88-3.5 46.36-.19 10.34.15 30.49.3 30.73.15 9.91.33 19.83 1.66 39.65.94 6.49 1.83 13.93 3.88 19.13zm369.76-189.83c-7.43 0-14.84-.35-33.34 0-16.47.67-33.93 1.51-49.35 3.83-11 .88-33.08 1.64-33.1 3.67-14.16 1.33-38.31 3.84-43.46 4.33q-31.6 3.37-43.19 4.63a6.78 6.78 0 0 0 -1.36.45c.34.51.87.36 1.31.33 15.36 3.11 30.63 4.48 45.31 9.84 10.87 4 30.48 9.69 37.49 19.13 10.11 13.59 14.7 39.36 16.39 45.81 1.74 18.15 3.36 36.38 3 54.59a331.33 331.33 0 0 1 -3.46 55.08c-1.76 13.41-6 36-14.51 36.73-1.5 1.88-3.16 3.64-4.74 5.46-.36.3-.79.57-.54 1 .09.16.76.07 1.14 0 3.43-.58 4.88-1.09 7.37-1.81q30.37-9.1 60.51-18.38 40.05-13.14 80.11-34.36a9.38 9.38 0 0 0 4.48-3 94.75 94.75 0 0 0 13.9-19.56c9.65-18.9 15.66-39.08 30.74-59.57a581 581 0 0 0 11.45-61.34c.85-6.31 1.74-13.41.88-18.65-1.69-13.68-8.94-31.65-19.69-37.93-4.81-3.79-9.69-5.79-15.34-6.46a365.65 365.65 0 0 0 -43.9-3zm138.74 86.57c.19-6.46-.17-14.95-.65-33.43-.4-7.33-.75-14.48-3.94-31.47-3-9.55-7.41-18-16.77-33.94-15.93-8.4-33.14-13.4-50.74-15.33-.31-.05-.89 0-.93.08-.18.55.39.61.71.78a53.43 53.43 0 0 1 10.56 7.08c8.73 7.63 13.53 17.11 13.9 38.8.3 9.33-1.7 18.38-3 37.51-4.17 38.31-10.31 56.31-19.59 83.39-5.33 15.4-11.77 30.39-31.84 43.33-.35.45-.64.94-.95 1.43.7.31 1.38-.15 1.88-.33 10.45-3.14 30.83-6.53 31.35-9.41 17.77-4.88 33.94-13.81 44.9-37.93 4.7-5.55 8.81-11.36 10.35-18.8 3.16-16.8 3.87-33.73 3.85-53.76z" stroke-width="3"/><path d="m33.5 309.5a3.59 3.59 0 0 0 -.5-3c-1.39-9.73-3.51-19.48-3.33-39.37a146.33 146.33 0 0 1 -.7-15c0-1.86.79-3.5 3.64-3.34q39.55 4.14 59.11 8.31 38.3 3.87 56.41 7.69l39.69 4.11c3.13.39 3.3 1.35 3.31 3.64-.57 15-1 30-4.93 44.58a46.54 46.54 0 0 1 -5.75 13.5c-4.13 6.36-10.66 9.13-17.66 10.88-7.37 1.83-14.65 1.59-33.09 1.11a310.33 310.33 0 0 1 -35.3-4.13 163 163 0 0 1 -36.83-10.83c-11.3-5-18.15-14-33.37-35.34-.59-1.65-1.31-3.38-1.83-4.93zm105.7 43c1.58.31 4.33-.38 6.85-.63 7.39-1 14.43-3.94 19.63-8.78 3.41-3.83 5.14-8.57 6.53-13.37 4.16-14.47 4.46-39.41 5.15-44.3.05-1.39-.58-1.7-1.78-1.85-4.14-.5-8.36-1.09-13.38-1.66l-53.94-7.3-56.91-7.84c-6.36-.87-13.54-1.71-18.8-3.63-3.16-.33-3.13.35-3.89 3.65s.35 4.49.41 6.73c.77 10.8 1.57 31.63 3.65 33.34 3.39 13.37 7.95 33.79 19.08 39.53a70 70 0 0 0 14.34 6c33.39 7.55 45.6 10.13 70.17 11.19z" stroke-width="3"/><path d="m93.44 75.31c8.31 0 14.56 4.13 19.3 10.41 11.91 15.76 11.74 39.63-.59 55-8.93 11.15-33.53 13.39-33.73 4.06a33.53 33.53 0 0 1 -9.88-14.19c-5.71-15.71-4.67-30.85 5.31-44.69 4.7-6.57 11.34-10.58 19.68-10.59zm-35.44 38.13a39.81 39.81 0 0 0 7.4 34.3c4.33 5.86 9.78 9.85 17.35 10.14 7.85.3 13.76-3.67 18.31-9.69 10.81-14.63 10.6-36.83-.54-51.17-4.56-5.84-10.54-9.36-18.33-8.93-6.56.41-11.53 3.76-15.45 8.61-6.17 7.58-8.63 16.46-8.55 36.83z" stroke-width="3"/><path d="m149.07 118.65c0 4.35-3.83 7.53-6.43 7.47s-6.19-3.31-6.31-7.43c0-4.38 3.83-7.84 6.43-7.77s6.31 3.45 6.31 7.73z" stroke-width=".75"/><g stroke-width="3"><path d="m49.65 107.07c0 .36 0 .76-.06 1.36-.36 3.33-3.94 6-5.85 6.18-3.71.15-5.36-3.08-6.19-5.31a11 11 0 0 1 -.39-1.73c-.43-4.34 3.4-8.33 6-8.45s6.38 3.3 6.39 7.94zm-3.65.13c0-3.19-1.36-5.09-3.39-5.15s-3.61 1.95-3.61 4.81a6.46 6.46 0 0 0 .36 3c.53 1.56 1.34 3 3.35 3s3.69-1.46 3.31-3a7 7 0 0 0 .38-1.66z"/><path d="m70.38 113.06a37 37 0 0 1 6.68-31.83c8.37-11.93 34.13-13.33 33.76-.53 9.38 13.69 9.48 31.74.33 44.49-8.81 13.13-34.73 11.88-33.18-.51a36.19 36.19 0 0 1 -6.49-31.63zm33.63 38.43c7 0 11.58-3.34 15-8.3 8.54-13 8.33-39.54-.63-41.3-4.33-5.5-9.86-8.4-17.05-7-5.14 1-8.83 4.35-11.65 8.43-8 11.79-7.68 38.73.75 40.33 3.5 4.73 8.14 7.67 13.57 7.75z"/></g></g></svg>