<?xml version="1.0" encoding="utf-8"?>
<svg viewBox="-105.077 -87.073 504.14 425.57" xmlns="http://www.w3.org/2000/svg">
  <path style="fill: rgb(100, 101, 105); stroke: rgb(0, 0, 0); stroke-width: 3px;" d="M390 46.4244C382.226 47.4481 374.742 50.2007 367 50.9599C357.026 51.9379 347.712 50.2044 338 53.8109C329.721 56.8851 322.427 62.9249 315 67.5756C299.581 77.2304 284.363 87.2027 269 96.9468C219.885 128.098 171.108 159.784 122 190.947C110.31 198.365 98.6463 205.821 87 213.308C81.0434 217.137 74.3629 220.549 69.0934 225.326C61.4882 232.22 57.07 242.482 49.8302 249.91C42.657 257.269 31.846 261.049 27.5332 271C24.3465 278.353 26.01 287.535 27.7654 295C32.3675 314.571 41.8993 332.348 51.2191 350C64.3453 374.862 78.726 403.05 99.0895 422.83C126.711 449.66 162.928 460.894 200 467.08C213.758 469.376 227.984 472.232 242 470.829C255.001 469.529 262.582 461.239 272 453.13C287.036 440.184 302.104 427.263 317 414.155C369.626 367.847 422.416 321.584 472 272C486.089 257.911 499.183 243.323 511.919 228C517.503 221.282 525.412 213.555 527.895 205C533.336 186.252 526.314 162.223 521.63 144C515.33 119.494 508.404 89.0568 490.829 70.0146C473.874 51.6435 446.37 49.3361 423 46.8341C412.324 45.6912 400.694 45.0162 390 46.4244M264 454C265.967 438.42 260.082 423.323 254.399 409C246.45 388.966 237.025 369.764 226.424 351C221.025 341.443 216.158 331.398 209 323C226.949 355.24 245.308 386.102 257.946 421C262.113 432.507 268.298 452.298 256.957 461.468C242.645 473.039 219.359 465.293 203 464C206.877 462.388 210.914 463.696 215 463.975C228.041 464.866 243.345 469.445 253.895 458.895C265.224 447.566 258.91 429.674 253.799 417C243.84 392.301 232.903 367.883 219.2 345C213.896 336.143 208.711 326.874 202 319L210 332C203.401 327.351 198.599 320.649 192 316C199.128 323.128 206.986 329.961 213.101 338C221.902 349.57 227.78 363.067 234.247 376C238.995 385.497 245.835 396.452 247.671 407C249.416 417.023 246.561 426.769 243 436C248.413 428.056 249 419.324 249 410C252.712 414.595 254.889 421.352 256.561 427C257.799 431.18 258.77 435.638 258.961 440C259.424 450.588 255.35 460.847 244 463.471C227.94 467.183 207.986 462.194 192 459.725C186.961 458.947 182.087 457.416 177 457C178.479 457.986 178.203 458 180 458C173.953 460.359 164.93 455.896 159 454C159.598 452.805 159.466 453.023 161 452L147 448L149 449C147.341 449.406 146.758 449.309 145 449C145.598 447.805 145.466 448.023 147 447C115.334 439.496 91.8439 409.353 76 383C71.0847 374.824 64.8861 366.12 62 357C60.9774 358.534 61.1954 358.402 60 359L59 356L61 357L57 348C55.9774 349.534 56.1954 349.402 55 350L53 345L55 346C51.3261 337.178 45.6656 329.256 43 320C41.9774 321.534 42.1954 321.402 41 322L40 318C41.2997 318.65 41 318.147 41 320C41.1486 313.431 36.9731 307.497 36 301C35.0143 302.479 35 302.203 35 304C32.2169 300.265 31.4373 295.535 30.6142 291C28.0404 276.821 31.7169 262.552 48 259.468C77.7093 253.84 107.022 266.098 136 270C128.423 266.196 119.257 264.967 111 263.211C89.5785 258.656 68.7392 257.066 47 258C55.557 248.744 63.3604 239.8 70 229C75.7594 235.287 87.9182 234.565 96 235.729C109.65 237.696 123.348 239.304 137 241.271C147.187 242.739 157.701 244.915 168 245C156.918 241.633 144.468 241.262 133 239.718C112.653 236.977 92.3636 233.587 72 231C75.6166 224.39 84.8599 220.75 91 216.667C93.7478 214.839 96.6802 212.318 100 211.68C105.739 210.576 113.261 213.07 119 213.87C139.662 216.749 160.33 219.498 181 222.282C190.955 223.624 200.924 225.917 211 226C210.387 227.662 209.957 228.483 209 230L215 227C206.332 222.828 194.494 223.086 185 221.729C169.719 219.546 154.34 216.833 139 215.166C127.3 213.895 114.265 213.423 103 210C107.553 205.069 114.331 201.641 120 198.053C123.043 196.127 126.336 193.722 130 193.264C134.729 192.673 140.303 194.217 145 194.87C156.81 196.511 169.081 198.754 181 199C174.592 196.831 167.673 196.691 161 195.729C151.103 194.303 140.991 192.429 131 192C135.716 187.132 142.314 183.961 148 180.308C151.1 178.317 154.228 175.74 158 175.264C162.446 174.703 167.576 176.17 172 176.715C179.352 177.621 186.668 178.487 194 179.573C208.949 181.785 224.037 183.045 239 185.13C249.673 186.618 261.232 189.475 272 189C258.373 184.387 242.234 184.59 228 182.718C205.208 179.721 181.945 174.985 159 174C163.533 169.448 169.658 166.534 175 163C178.057 160.977 181.321 158.097 185 157.356C192.134 155.92 201.798 159.037 209 159.87C225.997 161.838 242.984 164.08 260 165.866C268.986 166.809 278.001 168.198 287 168.944C289.944 169.189 295.465 168.725 296 172L302 169C263.679 166.479 225.108 160.816 187 156C192.607 150.371 204.185 142.177 212 140.338C219.908 138.477 231.011 141.668 239 142.741C255.26 144.924 271.679 146.367 288 148.042C296.655 148.93 305.323 150.314 314 150.94C317.053 151.16 322.442 150.473 323 154L329 151C302.62 149.265 276.312 145.462 250 142.831C238.065 141.638 225.995 139.248 214 139C219.32 133.237 231.207 124.837 239 123.278C245.553 121.966 253.419 124.193 260 124.83C278.828 126.652 298.08 129.948 317 130C306.071 126.739 293.341 126.965 282 125.831C268.436 124.475 254.641 122.009 241 122C245.393 117.207 251.515 114.007 257 110.576C259.805 108.821 262.704 106.323 266 105.6C273.621 103.927 284.272 107.007 292 107.834C308.654 109.617 325.327 111.375 342 112.925C350.645 113.729 359.401 114.442 368 115.576C371.274 116.007 374.753 115.428 377 118C397.772 106.435 417.213 91.5244 437 78.3333C441.644 75.2376 446.533 72.3385 450.976 68.9599C452.403 67.8745 455.441 65.7548 454.079 63.5887C452.937 61.7728 449.808 62.0733 448 61.9151C443.356 61.5089 438.623 61.2603 434 60.7145C413.208 58.26 391.573 58.8192 371 55C384.467 46.7621 406.018 49.4045 421 50.8302C440.762 52.7109 463.268 53.512 480 65.757C495.447 77.0614 502.152 94.4718 508 112C513.936 129.791 519.293 147.539 522.614 166C524.775 178.011 527.691 190.932 524.481 203C522.019 212.26 512.91 220.792 506.919 228C492.163 245.754 476.885 262.361 460 278.09C415.213 319.809 371.242 362.121 325 402.282C312.004 413.569 299.044 424.899 286 436.13C279.028 442.133 272.195 449.754 264 454M455 64C449.986 70.0663 437.852 79.1729 430 80.7215C426.655 81.381 423.32 80.487 420 80.1698C412.37 79.4408 404.647 78.6255 397 78.0895C382.31 77.0599 367.659 75.5883 353 74.1698C342.035 73.1086 330.852 73.0145 320 71C326.399 64.8766 337.274 57.5325 346 55.5293C351.702 54.2203 357.303 55.702 363 55.9606C378.707 56.6737 394.32 58.8115 410 59.9105C417.677 60.4485 425.327 61.3821 433 61.9105C440.153 62.4031 448.122 61.9669 455 64M429 82C423.411 87.3529 412.683 95.9771 405 97.5417C395.936 99.3875 384.192 95.7625 375 95.0887C348.135 93.1195 320.939 88.0029 294 88C297.903 83.7415 303.205 81.1566 308 77.9969C310.782 76.1637 313.695 73.6591 317 72.8719C321.798 71.7292 328.159 73.1414 333 73.7145C339.975 74.5402 347.016 74.8877 354 75.7145C363.957 76.8932 374.025 77.2167 384 78.1698C398.905 79.5939 414.016 81.9984 429 82M403 99C397.796 104.679 386.662 113.177 379 114.722C374.684 115.592 370.294 114.431 366 114.086C356.641 113.333 347.342 112.103 338 111.169C315.003 108.87 291.93 106.898 269 104C274.016 98.5264 284.619 90.766 292 89.2778C295.995 88.4721 300.031 89.451 304 89.8302L326 91.8302C351.528 94.3006 377.387 97.9001 403 99M318 130C327.313 133.944 340.93 133.205 351 134C343.97 139.404 336.349 144.043 329 149C333.849 149.417 339.078 144.281 343 141.667C354.333 134.111 365.709 126.617 377 119C368.558 117.775 360.901 129.97 353 132.258C349.866 133.166 346.198 132.193 343 131.975C334.606 131.403 326.443 130 318 130M302 167C308.475 167.557 317.698 158.577 323 155C316.525 154.443 307.302 163.423 302 167M272 187C275.442 187.296 278.169 184.881 281 183C286.004 179.674 291.019 176.36 296 173C292.558 172.704 289.831 175.119 287 177C281.996 180.326 276.981 183.64 272 187M183 199C188.937 201.853 196.535 201.48 203 202.285C215.56 203.848 228.336 206.739 241 207C233.011 213.809 223.693 219.135 215 225C220.341 225.459 226.672 219.219 231 216.333C243.666 207.889 256.381 199.513 269 191C265.558 190.704 262.831 193.119 260 195C254.783 198.468 248.323 204.682 242 205.683C237.279 206.43 231.715 204.58 227 204.05C212.437 202.414 197.674 199.04 183 199M168 245C182.689 251.594 197.62 238.677 209 231C202.803 230.467 195.367 238.421 190 241.33C182.982 245.135 175.747 245 168 245M34 300C36.551 291.681 30.153 282.639 35.0895 274.001C40.1232 265.192 50.6496 263.115 60 263.004C77.7465 262.793 94.4774 267.248 112 268C107.167 264.68 99.7269 264.785 94 264C81.8843 262.339 70.2298 261.942 58 262.001C49.9105 262.04 40.8381 263.424 35.3935 270.043C28.4738 278.456 31.322 290.47 34 300M114 268C119.386 271.247 126.95 271.898 133 273.72C143.435 276.863 153.446 281.062 163 286.312C171.614 291.045 179.902 297.255 187 304.039C192.066 308.882 196.456 314.76 202 319C198.292 311.001 190.683 304.478 184 298.921C165.307 283.376 138.891 269.085 114 268M243 436C238.375 439.619 234.556 443.922 229 446.239C206.719 455.53 178.789 445.604 159 434.424C118.29 411.426 77.3122 374.871 62.358 329C60.1489 322.224 58.8332 315.086 58.1698 308C57.7573 303.595 58.431 299.284 59.4282 295C60.2776 291.351 61.671 288.151 63.6998 285C79.4143 260.595 114.216 270.959 136 279.601C147.586 284.198 159.05 289.63 169 297.236C176.701 303.123 183.415 311.546 192 316C180.395 299.536 159.396 287.183 141 279.8C117.84 270.506 76.2891 256.826 60.9853 286C59.1909 289.421 58.0513 293.195 57.4398 297C56.5664 302.436 56.6489 308.557 57.4282 314C58.4632 321.228 60.0727 328.234 62.8611 335C81.6483 380.589 120.44 416.987 164 438.753C181.174 447.334 200.625 453.475 220 450.245C229.245 448.704 238.818 444.962 243 436M136 270C140.26 272.828 145.398 274.038 150 276.258C160.246 281.203 169.915 286.877 179 293.748C185.748 298.853 192.16 304.723 197.83 311C201.521 315.086 204.612 319.644 209 323C205.956 315.811 199.508 309.457 193.996 304.015C179.12 289.328 157.234 273.136 136 270M92.4344 277.117C87.1018 280.306 92.627 288.026 96.0185 290.143C103.295 294.683 115.657 294.226 124 295.421C126.87 295.831 130.97 296.786 133.562 294.972C138.345 291.626 133.467 284.485 129.906 282.442C122.658 278.285 110.241 278.453 102 277.285C99.3822 276.914 94.8447 275.676 92.4344 277.117M92 278C97.7953 278.016 103.282 279.066 109 279.87L121 281.579C125.455 282.246 130.223 282.746 132.681 287.105C133.778 289.05 134.485 292.367 132.396 293.958C129.472 296.183 122.326 293.75 119 293.271C107.496 291.613 92.1674 293.016 92 278M112 301.518C93.2945 302.939 94.5731 321.688 100.015 335C106.74 351.453 120.731 365.417 136 374.127C141.993 377.546 149.929 381.338 157 380.815C177.074 379.331 176.262 359.251 169.691 345C160.4 324.851 136.408 299.663 112 301.518M111 303C108.362 304.863 105.486 306.391 103.514 309.044C97.2031 317.535 102.997 328.604 106 337C106.083 328.468 99.3934 321.039 102.894 312.004C107.134 301.059 123.686 303.048 132 307.324C148.693 315.91 163.25 331.39 169.934 349C174.303 360.508 173.001 372.87 158 372.995C153.432 373.034 149.435 371.751 145 371C154.473 375.966 165.187 376.169 172 367C174.382 381.572 151.986 379.658 144 376.536C124.857 369.054 106.213 350.73 99.7492 331C96.0521 319.715 96.4323 304.502 111 303M35.6667 305.667C35.7222 305.722 35.7778 306.778 35.3333 306.333C35.2778 306.278 35.2222 305.222 35.6667 305.667M37 308L38 312C36.697 310.332 36.447 310.008 37 308M118.004 310.653C107.763 313.905 110.332 327.773 114.349 335C121.741 348.299 142.726 368.902 159.985 362.106C170.895 357.811 166.358 344.503 162.37 337C155.287 323.677 134.785 305.324 118.004 310.653M122 311.39C138.048 310.096 154.56 324.824 161.507 338C165.734 346.017 168.736 360.198 156 361.807C140.092 363.817 121.901 346.963 115.377 334C111.23 325.758 109.548 312.395 122 311.39M38.6667 313.667C38.7222 313.722 38.7778 314.778 38.3333 314.333C38.2778 314.278 38.2222 313.222 38.6667 313.667M40 316L39 317L40 316M43 323L42 324L43 323M77 327C78.5962 331.679 81.0486 334.234 86 335C85.3926 329.55 82.8419 325.71 77 327M80 327C82.6515 329.089 83.9139 330.801 85 334C81.5398 332.756 78.963 330.915 80 327M50 337L49 338L50 337M107 337C111.46 350.971 130.395 368.364 145 371C137.787 365.018 129.087 361.179 122.039 354.714C116.277 349.427 112.689 342.214 107 337M51 339L50 340L51 339M52 341L51 342L52 341M188.319 342.122C181.743 345.77 191.854 357.281 197.678 353.778C203.726 350.14 193.571 339.208 188.319 342.122M53 343L52 344L53 343M198 353C194.725 352.821 184.754 349.945 188.137 344.608C189.356 342.684 192.295 343.427 193.892 344.323C197.276 346.221 197.807 349.48 198 353M55.3333 346.667C55.2777 346.722 55.2222 347.778 55.6667 347.333C55.7222 347.278 55.7778 346.222 55.3333 346.667M58 352L57 353L58 352M91 352C91.9342 355.127 92.8734 356.066 96 357C95.0658 353.873 94.1266 352.934 91 352M59 354L58 355L59 354M94 354L93 355L94 354M64 363L63 364L64 363M202 371C202.812 373.782 203.453 374.627 206 376C206.547 372.44 205.49 371.581 202 371M206 374C204.42 373.316 204.223 373.195 203 372C204.58 372.684 204.777 372.805 206 374M93 373C93.7596 384.319 107.474 393.509 115 400.999C133.355 419.265 158.062 434.08 183 441.14C194.838 444.492 209.265 446.045 221 441.37C232.899 436.629 238.227 426.103 239.714 414C240.442 408.068 240.122 401.697 234.895 397.854C230.386 394.539 225.23 395.269 220 394.91C212.333 394.385 204.674 393.463 197 393.035C181.473 392.171 166.306 389.154 151 386.586C138.241 384.446 125.512 381.421 113 378.116C106.305 376.347 99.9827 373.319 93 373M94 374C100.88 375.016 107.31 378.014 114 379.848C126.495 383.273 139.217 386.112 152 388.247C166.012 390.587 179.912 392.555 194 394.285C201.545 395.211 209.395 395.976 217 396C222.081 396.016 229.543 395.71 233.891 398.742C238.367 401.864 238.021 407.15 237.999 412C237.947 423.84 232.82 435.506 221 439.906C212.994 442.886 204.323 442.755 196 442.086C167.533 439.798 140.053 421.25 119 403.13C110.573 395.878 96.6683 385.223 94 374M143 447.333C143.773 447.333 143.16 447.831 142.667 447.667L143 447.333M151 450.333L151.333 450.667C150.84 450.831 150.227 450.333 151 450.333M154 451.333L154.333 451.667C153.84 451.831 153.227 451.333 154 451.333M157 452.333L157.333 452.667C156.84 452.831 156.227 452.333 157 452.333M162 453C164.013 454.225 165.659 454.645 168 455C165.958 453.584 164.489 453.255 162 453M169 455C171.311 456.393 173.309 456.765 176 457C173.686 455.409 171.81 455.142 169 455M184 459C182.752 459.685 182.452 459.749 181 460C182.248 459.315 182.548 459.251 184 459M189 460C187.752 460.685 187.452 460.749 186 461C187.248 460.315 187.548 460.251 189 460M195 461C193.494 461.683 192.685 461.826 191 462C192.506 461.317 193.315 461.174 195 461M201 462C199.494 462.683 198.685 462.826 197 463C198.506 462.317 199.315 462.174 201 462z" transform="matrix(1, 0, 0, 1, -130.808374, -132.704548)"/>
</svg>