<?xml version="1.0" encoding="utf-8"?>
<svg viewBox="51.065 -273.363 492.19 639.691" xmlns="http://www.w3.org/2000/svg">
  <g transform="matrix(1, 0, 0, 1, -12.48476, -362.852978)">
    <path d="M545.9,589.72c-2.83,6.96-5.71,13.1-7.76,19.51c-0.79,2.47-7.76,16.66-7.87,16.11c-2.31,2.04-11.58,14.51-13.02,16.15 c-13.81,15.66-31.06,25.42-51,31.3c-52.3,15.43-104.47,31.28-156.7,46.96c-1.82,0.55-3.64,1.09-5.5,1.64 c-2.46-2.83-0.35-3.6,1.92-4.3c20.36-6.26,40.68-12.65,61.09-18.74c33.92-10.14,67.88-20.16,101.86-30.09 c26.05-7.61,44.95-24.07,58.69-46.95c11.4-18.99,17.75-39.79,21.66-61.46c2.76-15.32,3.32-30.75,3.3-46.28 c-0.1-84.08,0.01-168.16-0.09-252.25c-0.03-23.17-2.07-46.09-9.57-68.28c-14.56-43.06-43.16-71.66-86.66-85.38 c-25.28-7.97-51.12-12.28-77.54-13.87c-26.81-1.61-53.64-1.61-80.29,1.18c-25.9,2.71-51.64,6.95-77.39,10.92 c-19.17,2.96-38.25,6.58-57.37,9.9c-0.63,0.11-1.25,0.23-1.84,0.8c8.29,0.65,16.58,1.19,24.86,1.96 c30.16,2.83,59.57,8.61,87.36,21.32c25.55,11.69,40.49,31.97,48.37,58.23c4.99,16.63,7.54,33.73,7.8,50.99 c0.92,61.62,1.39,123.25,1.97,184.88c0.61,65.57,1,131.15,1.84,196.72c0.23,18.25-1.27,36.02-7.6,53.28 c-10.32,28.13-32.96,44.62-62.85,45.18c-19.66,0.37-39.04-2.58-58.28-6.12c-23.68-4.36-46.74-11.02-68.78-20.9 c-12.2-5.47-23.8-11.96-34.3-20.27c-15.12-11.97-23.31-28.4-28.92-46.28c-6-19.15-6.84-39.08-7.04-58.9 c-0.96-98.63-1.58-197.27-2.28-295.9c-0.2-28.16-0.68-56.33-0.24-84.49c0.28-17.75,5.04-34.62,14.64-49.81 c9.52-15.06,23.52-23.3,40.83-26.35c26.19-4.61,52.39-9.21,78.58-13.82c12.56-2.21,25.32-3.64,37.61-6.88 c9.42-2.48,19.01-2.54,28.44-4.34c9.58-1.83,19.39-2.73,29.15-3.21c23.21-1.12,46.46-2.62,69.68-2.36 c30.22,0.34,60.14,4.12,89.18,13.13c20.35,6.31,39.71,14.75,55.82,28.99c18.23,16.1,30.27,36.48,38.21,59.3 c7.83,22.49,9.89,45.82,9.87,69.46c-0.08,91.16-0.09,182.31-0.13,273.47c0,5.38-3.61,28.19-4.4,32.35 M69.8,378.85 c0.35,0,0.69,0,1.04,0c0,28.44-0.1,56.87,0.03,85.31c0.12,28.44,0.46,56.87,0.74,85.31c0.03,3.53-0.09,7.12,0.51,10.57 c2.39,13.94,7.67,26.85,14.75,39.03c8.39,14.42,19.2,26.69,34.94,33c38.4,15.4,77.63,28.06,119.2,31.53 c11.37,0.95,22.84,0.99,34.08-1.79c29.02-7.18,43.72-32.28,43.55-59.18c-0.67-108.71-1.74-217.41-2.67-326.12 c-0.19-22.61-1.44-45.11-7.64-67.01c-4.9-17.32-12.81-32.99-27.17-44.49c-13.61-10.9-29.72-16.7-46.25-21.47 c-18.47-5.33-37.36-8.07-56.47-9.88c-18.51-1.75-36.91-1.95-55.27,1.11c-14.19,2.37-27,7.51-36.07,19.36 c-11.74,15.34-17.1,33.04-17.19,52.07C69.63,263.74,69.8,321.3,69.8,378.85z M72.8,578.41c0.62,22.14,1.48,44.31,10.82,65.2 c7.12,15.91,17.77,28.39,32.62,37.53c12.44,7.66,25.61,13.67,39.3,18.64c20.75,7.54,42.16,12.55,63.99,15.32 c13.29,1.68,26.83,3.04,40.16,2.46c19.48-0.86,35-10.13,45.34-27.03c10.31-16.85,13.66-35.55,13.94-54.98 c0.04-2.81,0.01-5.62,0.01-8.95c-1,0.63-1.18,0.67-1.23,0.77c-0.39,0.86-0.75,1.73-1.12,2.6c-9.85,22.99-27.64,35.03-52.21,37.04 c-20.07,1.64-39.86-1.27-59.48-5.28c-23.99-4.9-47.01-13.07-70.26-20.58c-22.03-7.11-39.18-19.71-50.55-39.84 C79.95,593.9,76.55,586.05,72.8,578.41z M68,184.65c0.24,0.06,0.48,0.11,0.73,0.17c1.83-5.23,3.41-10.57,5.54-15.67 c5.96-14.23,14.92-25.94,29.4-32.37c11.18-4.96,23.18-7.05,35.28-7.41c12.89-0.38,25.85-0.14,38.7,0.79 c20.74,1.5,41.28,4.68,61.23,10.84c15.5,4.79,30.67,10.46,43.56,20.63c17.14,13.52,25.76,32.22,30.77,52.87 c5.52,22.77,6.16,46.02,6.44,69.27c0.35,29.93,0.38,59.87,0.61,89.8c0.66,85.72,1.29,171.43,2.08,257.15 c0.13,13.83-1.06,27.4-5.07,40.66c-11.26,37.28-37.39,52.55-72.15,50.13c-21.81-1.52-43.46-4.79-64.66-10.39 c-24.8-6.55-48.78-15.15-70.04-29.92c-6.36-4.42-12.06-9.79-18.17-14.82c0.62,0.91,1.1,1.85,1.8,2.61c2.02,2.2,4,4.46,6.22,6.46 c17.29,15.65,38.17,24.75,59.82,32.31c22.25,7.77,45.21,12.66,68.56,15.52c14.12,1.73,28.23,3.95,42.62,1.95 c19.19-2.67,34.38-11.52,44.72-27.98c10.66-16.95,14.5-35.89,14.56-55.61c0.07-21.5-0.38-42.99-0.56-64.49 c-0.92-105.72-1.79-211.43-2.78-317.15c-0.2-20.84-2.22-41.52-8.3-61.56c-5.23-17.2-13.45-32.67-27.88-44.08 c-13.91-10.99-30.18-17.18-46.98-21.86c-35.22-9.8-71.14-14.11-107.68-11.5c-11.22,0.8-22.39,2.75-32.74,7.68 c-16.53,7.86-25.49,21.91-31.07,38.53C70.63,172.9,69.49,178.83,68,184.65z" style="paint-order: fill; stroke: rgb(0, 0, 0); stroke-width: 7px;"/>
    <path d="M283.93,119.27c-9.1-1.24-18.22-2.32-27.27-3.82c-2.93-0.49-6.76-1.32-6.95-5.14c-0.21-4.26,3.87-4.83,6.88-5.6 c11.52-2.97,23.28-3.68,35.1-2.86c5.8,0.4,11.58,1.26,17.34,2.1c1.99,0.29,4.13,0.76,5.77,1.82c1.65,1.06,3.62,2.86,3.82,4.52 c0.14,1.22-2.16,3.61-3.73,3.98c-6.81,1.62-13.73,2.89-20.66,3.89c-3.32,0.48-6.77,0.08-10.17,0.08 C284.01,118.58,283.97,118.93,283.93,119.27z M314.82,109.93c-10.11-6.58-53.26-6.41-61.1,0.24 C262.77,116.8,307.32,116.62,314.82,109.93z" style="paint-order: fill; stroke: rgb(0, 0, 0); stroke-width: 7px;"/>
    <path d="M271.09,296.24c-0.23,27.34-5.89,53.21-22.23,75.71c-15.81,21.77-36.67,33.87-64.45,29.72 c-19.62-2.93-34.88-13.83-47.59-28.49c-14.71-16.97-23.87-36.79-29.29-58.45c-4.6-18.39-6-37.04-3.96-55.85 c2.72-25.08,10.46-48.31,27.68-67.42c15.25-16.94,34.23-25.25,57.21-22.19c15.88,2.11,29.25,9.83,40.76,20.72 c19.77,18.73,31.54,42.04,37.37,68.3c2.75,12.39,3.77,25.16,5.58,37.76C271.8,296.11,271.44,296.17,271.09,296.24z M267.67,296.94 c0.12-16.58-2.22-32.77-7.24-48.56c-7.43-23.38-19.08-44.11-38.3-59.89c-11.27-9.25-24-15.31-38.83-16.17 c-22.14-1.28-39.26,8.44-52.58,25.15c-18.08,22.66-24.39,49.37-24.53,77.74c-0.1,20.42,3.48,40.28,11.33,59.23 c9.12,22.04,21.91,41.31,42.51,54.31c16.63,10.49,34.46,13.69,53.35,7.1c13.67-4.77,24.25-13.85,32.52-25.52 C261.46,348.36,267.26,323.42,267.67,296.94z" style="paint-order: fill; stroke: rgb(0, 0, 0); stroke-width: 7px;"/>
    <path d="M95.01,460.54c6.35,1.21,12.57,2.36,18.79,3.58c21.82,4.27,43.65,8.53,65.46,12.83c23.68,4.67,47.34,9.38,71.01,14.06 c8.11,1.6,16.22,3.28,24.36,4.71c3.54,0.62,5.1,1.76,5.05,5.93c-0.27,23.79,0.02,47.59-0.22,71.39c-0.08,7.68-0.16,15.59-2,22.96 c-3.67,14.68-14.23,22.49-28.82,25.25c-11.73,2.22-23.3,0.68-34.75-1.7c-20.03-4.17-40.15-8.11-59.91-13.35 c-11.3-2.99-22.31-7.67-32.84-12.83c-14.15-6.93-20.98-19.55-23.24-34.78c-4.7-31.74-4.34-63.66-3.27-95.6 C94.67,462.33,94.84,461.67,95.01,460.54z M97.59,464.55c0,8.51,0.03,16.36,0,24.22c-0.1,23.65,0.06,47.28,4.03,70.71 c2.35,13.86,9.05,24.66,21.59,31.27c6.09,3.21,12.36,6.55,18.95,8.28c20.84,5.45,41.78,10.58,62.86,14.99 c11.75,2.46,23.85,4.42,35.81,4.55c19.19,0.2,31.61-10.54,34.62-28.44c0.96-5.67,0.45-11.61,0.45-17.42 c0.04-23.12,0-46.23,0.03-69.35c0-2.16,0.04-3.86-2.82-4.4c-19.97-3.81-39.92-7.74-59.86-11.68c-24.21-4.78-48.4-9.62-72.61-14.38 C126.7,470.14,112.74,467.48,97.59,464.55z" style="paint-order: fill; stroke: rgb(0, 0, 0); stroke-width: 7px;"/>
    <path d="M193.55,439.22c-0.18,5.14-1.67,9.25-6.21,11.46c-3.46,1.69-6.98,1.18-9.93-1.2c-4.22-3.41-6.01-8.05-5.05-13.37 c1.08-6.02,5.96-10.13,10.81-9.65C188.94,427.04,193.52,432.85,193.55,439.22z M175.77,438.32c-0.06,5.27,3.55,10.02,7.53,9.92 c3.8-0.1,6.83-3.93,6.83-8.63c0-5.14-3.33-9.44-7.41-9.57C178.77,429.9,175.83,433.41,175.77,438.32z" style="paint-order: fill; stroke: rgb(0, 0, 0); stroke-width: 7px;"/>
    <path d="M130.52,427.62c-0.02,3.24-2.2,5.83-4.92,5.85c-2.91,0.02-5.34-2.99-5.24-6.49c0.09-3.32,2.24-5.67,5.09-5.56 C128.31,421.54,130.54,424.27,130.52,427.62z" style="paint-order: fill; stroke: rgb(0, 0, 0); stroke-width: 7px;"/>
    <path d="M248.28,449.29c-2.76,2.16-4.23,4.21-5.95,4.45c-2.93,0.41-4.22-1.95-4.26-4.74c-0.03-2.64,1.2-4.99,3.94-4.49 C243.89,444.86,245.44,447.02,248.28,449.29z" style="paint-order: fill; stroke: rgb(0, 0, 0); stroke-width: 7px;"/>
    <path d="M245.56,293.13c-0.78,18.97-4.9,36.61-16.6,51.74c-9.4,12.15-21.55,19.52-37.5,18.24c-14.52-1.16-25.92-8.55-35.05-19.44 c-16.12-19.23-22.45-41.81-21.92-66.57c0.37-17.53,4.75-33.85,15.42-48.05c8.52-11.34,19.76-18.36,34.16-18.71 c11.41-0.28,21.51,4.1,30.25,11.35c14.37,11.91,22.8,27.54,27.08,45.39C243.43,275.61,244.2,284.43,245.56,293.13z M137.56,282.1 c0.45,4.09,0.73,10.23,1.86,16.21c3.79,20.15,11.86,38.09,28.18,51.37c8.49,6.91,18.17,11.1,29.3,10.02 c17.45-1.7,28.47-12.39,35.85-27.34c9.8-19.85,10.74-40.74,5.97-62c-3.99-17.78-11.91-33.46-26.01-45.52 c-19.82-16.97-45.06-14.05-60.49,6.91C141.63,246.15,138.14,262.66,137.56,282.1z" style="paint-order: fill; stroke: rgb(0, 0, 0); stroke-width: 7px;"/>
    <path d="M198.03,267.95c6.53,0.7,11.96,4.9,14.13,11.91c2.03,6.55,1.63,12.92-3.1,18.38c-4.29,4.96-10.57,5.91-16.2,2.62 c-9.97-5.84-11.42-22.33-2.39-29.5C192.57,269.69,195.48,269.05,198.03,267.95z M210.67,285.93c-1.56-3.35-2.59-7.1-4.79-9.95 c-4.77-6.16-12.61-5.13-16.29,1.73c-3.16,5.88-1.78,14.15,3.1,18.71c4.52,4.22,11.12,3.81,14.43-1.33 C208.73,292.59,209.35,289.44,210.67,285.93z" style="paint-order: fill; stroke: rgb(0, 0, 0); stroke-width: 7px;"/>
  </g>
  <path d="M396.82,415.97c0.51,0.17,1.01,0.34,1.52,0.51c2.53-4.58,5.07-9.15,7.6-13.73c0.53-0.97,0.17-1.79-0.31-2.67 c-3.31-6-10.01-7.17-15.16-2.63c-8.13,7.16-10.05,23.78-3.77,32.6c4.01,5.63,10.04,6.33,14.9,1.43c5.26-5.29,7.11-11.99,7.05-19.31 c-0.01-0.97-0.25-1.89-1.65-2.13c-1.76,0.85-1.35,2.61-1.49,4.15c-0.46,4.8-1.61,9.37-5.17,12.91c-3.71,3.69-8.11,3.34-11.14-0.74 c-4.87-6.56-3.4-19.42,2.81-24.68c3.6-3.05,6.86-2.71,9.77,0.87C400.67,407.28,395.23,410.47,396.82,415.97z" transform="matrix(1, 0, 0, 1, -12.48476, -362.852978)" style="paint-order: fill; stroke: rgb(0, 0, 0); stroke-width: 7px;"/>
  <path d="M413.9,392.16c-2.06,0.57-1.85,2.31-1.83,3.9c0.08,6.38,0.15,12.76,0.3,19.14c0.07,2.71,0.34,5.41,1.44,7.95 c2.13,4.87,6.66,6.12,10.94,2.91c3.5-2.62,5.1-6.39,5.21-10.59c0.19-7.73,0.06-15.47,0.04-23.21c0-1.03,0.25-2.49-1.25-2.56 c-1.71-0.08-1.68,1.48-1.72,2.67c-0.07,1.76,0.05,3.53,0.02,5.29c-0.08,5.83,0.7,11.68-0.05,17.49c-0.65,5.07-3.29,8.12-6.59,7.98 c-3.05-0.13-4.93-3.21-5.03-8.56c-0.11-6.11-0.07-12.22-0.14-18.33C415.23,394.81,415.68,393.19,413.9,392.16z" transform="matrix(1, 0, 0, 1, -12.48476, -362.852978)" style="paint-order: fill; stroke: rgb(0, 0, 0); stroke-width: 7px;"/>
  <path d="M396.29,467.31c0.85-2.17,0.84-3.78-1.54-4.22c-2.79-0.52-5.72,1.74-6.18,4.52c-0.65,3.99,0.31,5.36,4.23,5.92 c0.93,0.13,1.98-0.02,2.21,1.26c0.2,1.1,0.27,2.29-0.81,2.92c-0.86,0.51-1.88,1.34-2.97,0.47c-0.59-0.47-0.92-1.42-1.94-0.8 c-0.24,2.9-0.02,3.46,1.48,3.76c2.53,0.52,5.73-1.79,6.24-4.48c0.76-4.05-0.03-4.88-6.17-6.43c-0.24-1.43-0.58-2.77,0.87-4 C393.65,464.61,394.75,466.64,396.29,467.31z" transform="matrix(1, 0, 0, 1, -12.48476, -362.852978)" style="paint-order: fill; stroke: rgb(0, 0, 0); stroke-width: 7px;"/>
  <path d="M407.98,459.72c-2.52,0.66-4.44,1.24-6.39,1.63c-1.25,0.25-1.95,0.73-1.94,2.1c0.03,4.99,0.01,9.98,0.01,15.01 c6.45-0.55,8.09-1.41,7.73-3.77c-1.84-0.17-3.51,1.6-5.15,0.72c-3.54-5.79,4.69-4.04,4.84-7.97c-1.95-0.02-3.47,1.11-5.41,0.29 c0.23-1.55-1.17-3.5,1.67-4.52C404.95,462.62,407.64,463.54,407.98,459.72z" transform="matrix(1, 0, 0, 1, -12.48476, -362.852978)" style="paint-order: fill; stroke: rgb(0, 0, 0); stroke-width: 7px;"/>
  <path d="M421.45,456.28c-1.6,3.59-1.36,11.28,0.25,13.93c1.3,2.14,2.88,2.9,4.91,0.94c2.84-2.75,3.69-12.51,1.27-16.5 c-1.96,4.82,1.52,10.74-3.25,15.02C420.57,465.74,423.88,460.43,421.45,456.28z" transform="matrix(1, 0, 0, 1, -12.48476, -362.852978)" style="paint-order: fill; stroke: rgb(0, 0, 0); stroke-width: 7px;"/>
  <path d="M417.69,471.12c-1.43-0.43-1.61,1.2-2.54,1.56c-1.43,0.56-2.88,0.67-3.03-1.28c-0.22-2.83-0.28-5.69-0.1-8.52 c0.12-1.86,1.49-3.01,3.4-2.46c1.2,0.34,2.33,0.78,2.43-0.77c0.11-1.73-1.42-2.26-2.84-1.97c-2.89,0.6-5.04,2.21-5.17,5.41 c-0.12,2.98-0.04,5.97,0.12,8.95c0.11,2.11,0.98,3.66,3.53,3.47C416.17,475.33,417.56,473.92,417.69,471.12z" transform="matrix(1, 0, 0, 1, -12.48476, -362.852978)" style="paint-order: fill; stroke: rgb(0, 0, 0); stroke-width: 7px;"/>
  <path d="M396.82,415.97c-1.59-5.5,3.85-8.7,4.96-13.43c-2.91-3.57-6.18-3.91-9.77-0.87c-6.21,5.26-7.68,18.12-2.81,24.68 c3.03,4.09,7.44,4.43,11.14,0.74c3.55-3.54,4.71-8.1,5.17-12.91c0.15-1.55-0.27-3.3,1.49-4.15c1.4,0.24,1.64,1.16,1.65,2.13 c0.06,7.31-1.79,14.01-7.05,19.31c-4.87,4.9-10.89,4.2-14.9-1.43c-6.28-8.82-4.36-25.44,3.77-32.6c5.15-4.54,11.85-3.37,15.16,2.63 c0.48,0.87,0.84,1.7,0.31,2.67c-2.53,4.58-5.07,9.15-7.6,13.73C397.83,416.31,397.33,416.14,396.82,415.97z" transform="matrix(1, 0, 0, 1, -12.48476, -362.852978)" style="paint-order: fill; stroke: rgb(0, 0, 0); stroke-width: 7px;"/>
  <path d="M413.9,392.16c1.78,1.02,1.33,2.65,1.35,4.08c0.07,6.11,0.03,12.22,0.14,18.33c0.1,5.35,1.98,8.43,5.03,8.56 c3.3,0.14,5.93-2.9,6.59-7.98c0.75-5.82-0.04-11.66,0.05-17.49c0.03-1.76-0.09-3.53-0.02-5.29c0.05-1.18,0.01-2.75,1.72-2.67 c1.51,0.07,1.25,1.54,1.25,2.56c0.03,7.74,0.16,15.48-0.04,23.21c-0.1,4.2-1.7,7.97-5.21,10.59c-4.28,3.21-8.81,1.96-10.94-2.91 c-1.11-2.54-1.38-5.24-1.44-7.95c-0.16-6.38-0.22-12.76-0.3-19.14C412.05,394.47,411.84,392.73,413.9,392.16z" transform="matrix(1, 0, 0, 1, -12.48476, -362.852978)" style="paint-order: fill; stroke: rgb(0, 0, 0); stroke-width: 7px;"/>
  <path d="M396.29,467.31c-1.55-0.67-2.64-2.7-4.56-1.07c-1.46,1.23-1.12,2.56-0.87,4c6.14,1.55,6.93,2.38,6.17,6.43 c-0.5,2.69-3.71,4.99-6.24,4.48c-1.5-0.31-1.72-0.86-1.48-3.76c1.02-0.62,1.34,0.33,1.94,0.8c1.09,0.87,2.11,0.04,2.97-0.47 c1.07-0.63,1.01-1.83,0.81-2.92c-0.23-1.28-1.28-1.12-2.21-1.26c-3.92-0.56-4.88-1.93-4.23-5.92c0.45-2.78,3.38-5.04,6.18-4.52 C397.14,463.53,397.15,465.13,396.29,467.31z" transform="matrix(1, 0, 0, 1, -12.48476, -362.852978)" style="paint-order: fill; stroke: rgb(0, 0, 0); stroke-width: 7px;"/>
  <path d="M407.98,459.72c-0.34,3.82-3.03,2.9-4.64,3.48c-2.84,1.02-1.44,2.97-1.67,4.52c1.94,0.82,3.47-0.31,5.41-0.29 c-0.15,3.93-8.39,2.18-4.84,7.97c1.65,0.88,3.31-0.89,5.15-0.71c0.36,2.36-1.28,3.22-7.73,3.77c0-5.03,0.02-10.02-0.01-15.01 c-0.01-1.37,0.69-1.85,1.94-2.1C403.54,460.96,405.46,460.38,407.98,459.72z" transform="matrix(1, 0, 0, 1, -12.48476, -362.852978)" style="paint-order: fill; stroke: rgb(0, 0, 0); stroke-width: 7px;"/>
  <path d="M421.45,456.28c2.43,4.15-0.88,9.47,3.19,13.39c4.76-4.29,1.28-10.2,3.25-15.02c2.42,3.99,1.57,13.76-1.27,16.5 c-2.03,1.96-3.61,1.2-4.91-0.94C420.1,467.56,419.86,459.87,421.45,456.28z" transform="matrix(1, 0, 0, 1, -12.48476, -362.852978)" style="paint-order: fill; stroke: rgb(0, 0, 0); stroke-width: 7px;"/>
  <path d="M417.69,471.12c-0.13,2.81-1.52,4.21-4.2,4.4c-2.54,0.18-3.41-1.37-3.53-3.47c-0.16-2.98-0.25-5.97-0.12-8.95 c0.13-3.2,2.28-4.81,5.17-5.41c1.41-0.29,2.94,0.23,2.84,1.97c-0.1,1.55-1.23,1.11-2.43,0.77c-1.91-0.55-3.28,0.6-3.4,2.46 c-0.19,2.83-0.13,5.69,0.1,8.52c0.15,1.95,1.6,1.84,3.03,1.28C416.08,472.31,416.25,470.69,417.69,471.12z" transform="matrix(1, 0, 0, 1, -12.48476, -362.852978)" style="paint-order: fill; stroke: rgb(0, 0, 0); stroke-width: 7px;"/>
  <g transform="matrix(1, 0, 0, 1, -12.48476, -362.852978)">
    <path d="M539.33,403.37c-0.27-7.31,0.68-14.68-0.8-21.93c-1.11-5.43-3.58-6.9-8.96-5.88c-9.31,1.76-18.63,3.46-27.96,5.14 c-10.44,1.88-14.15,2.41-14.75,17.59c-0.16,4.07-0.02,8.15-0.02,11.49c0.62,7.35-0.7,14.06,1.02,20.6 c1.44,5.45,3.89,6.77,9.29,5.44c10.64-2.61,21.25-5.34,31.94-7.69c5.53-1.21,8.29-4.49,9.5-9.75 C539.74,413.39,539.51,408.36,539.33,403.37z M511.4,418.4c-3.32,2.11-1.94,5.21-2.38,8.16c-0.8,1.02-2.18,1-3.81,1.45 c0-2.4,0-4.64,0-7.19c-3.75,0.8-7.1,1.51-10.54,2.24c-1.25-5.5,0.74-10.44,1.57-15.44c0.93-5.59,2.43-11.09,3.43-16.68 c0.51-2.86,1.93-3.87,5.04-3.51c-2.08,9.44-4.14,18.72-6.28,28.42c1,0,1.41,0.08,1.79-0.01c1.55-0.37,3.09-0.8,4.2-1.09 c2.51-4.13-2.35-10.11,4.66-13.53c0,3-0.18,5.13,0.05,7.22c0.21,1.93-1.32,4.45,2.1,5.57C512.3,414.36,512.2,417.89,511.4,418.4z M527.25,422.53c-1.3-4.76-2.63-9.64-3.97-14.54c-2.51-0.03-3.39,1.1-3.31,3.48c0.14,4.2,0.04,8.41,0.04,12.54 c-1.31,0.98-2.63,1.15-4.52,1.46c0-6.77,0.04-13.4-0.01-20.03c-0.04-5.71-0.03-11.43-0.36-17.12c-0.2-3.49,1.09-4.74,4.75-4.1 c0,5.5,0,11.05,0,16.68c2.55,0.44,3.48-0.66,3.88-2.71c0.78-3.99,2.05-7.92,2.4-11.93c0.34-3.79,1.99-4.99,6.21-4.41 c-4.26,13-6.62,26.03,0.53,38.74C530.75,422.09,529.32,422.39,527.25,422.53z" style="paint-order: fill; stroke: rgb(0, 0, 0); stroke-width: 7px;"/>
    <path d="M464.79,381.94c-2.19,10.42-4.3,20.4-6.4,30.38c-0.2,0-0.41,0-0.61,0c-2.32-8.94-4.63-17.88-7.02-27.1 c-3.26,1.59-2.31,3.71-1.83,5.53c2.42,9.16,4.99,18.28,7.39,27.45c1.18,4.49-1.1,10.32-4.93,12.64c-1.95,1.18-2.26,2.43-1.12,4.4 c4.63-0.34,6.31-3.72,7.14-7.27c3.24-13.99,6.23-28.04,9.25-42.08C466.91,384.75,467.17,383.4,464.79,381.94z" style="paint-order: fill; stroke: rgb(0, 0, 0); stroke-width: 7px;"/>
    <path d="M439.17,387.87c-0.45-7.21-0.1-7.9,6.59-10.97c1.51-0.69,1.54-1.75,1.34-2.97c-0.23-1.44-1.4-1.5-2.52-1.39 c-3.14,0.3-5.2,2.14-6.56,4.84c-1.74,3.46-2.35,7.2-2.32,11.04c0.09,10.46,0.24,20.92,0.41,31.38c0.02,1.43-0.33,3.01,1.03,4.28 c2.5-0.56,1.89-2.58,1.9-4.19c0.04-8.93,0.02-17.87,0.02-26.71c6.11-1.81,6.11-1.81,5.14-5.51 C442.54,387.49,440.85,388.62,439.17,387.87z" style="paint-order: fill; stroke: rgb(0, 0, 0); stroke-width: 7px;"/>
    <path d="M438.75,454.54c-0.03-0.93-1.24-2.15-2.36-1.74c-1.7,0.64-4.77-0.11-4.96,1.87c-0.5,5.22-0.17,10.52-0.17,15.79 c0.45,0,0.9,0.01,1.35,0.01c1.39-1.81,0.47-4,0.67-6c0.11-1.08,0.37-1.83,1.56-1.95c1.05-0.1,1.28,0.64,1.61,1.43 c0.67,1.62,0.65,3.63,2.87,4.71C437.7,463.93,438.91,459.22,438.75,454.54z M433.4,460.16c-0.26-2.17-0.93-4.32,1.99-4.93 c1.15-0.24,1.8,0.56,1.89,1.59C437.47,459.29,435.98,460.13,433.4,460.16z" style="paint-order: fill; stroke: rgb(0, 0, 0); stroke-width: 7px;"/>
    <path d="M459.07,452.32c-1.98-0.84-1.1-4.4-4.95-4c3.31,4.69,4.39,9.66,5.19,14.85c0.07-5.97,1.79-11.4,4.43-17.48 C460.12,447.47,460.84,450.76,459.07,452.32z" style="paint-order: fill; stroke: rgb(0, 0, 0); stroke-width: 7px;"/>
    <path d="M445.09,451.96c4.16-0.06,3.49,2.63,3.5,4.96c0.01,1.49-0.09,3,0.08,4.47c0.16,1.41-0.56,3.09,1.14,4.74 c2.09-5.88-1.99-12.37,3.29-17.19C450.42,449.7,447.4,448.85,445.09,451.96z" style="paint-order: fill; stroke: rgb(0, 0, 0); stroke-width: 7px;"/>
    <path d="M442.45,467.34c0.32,0.01,0.64,0.02,0.96,0.03c0-5.38,0-10.76,0-16.14c-0.32-0.03-0.64-0.05-0.96-0.08 C442.45,456.55,442.45,461.95,442.45,467.34z" style="paint-order: fill; stroke: rgb(0, 0, 0); stroke-width: 7px;"/>
  </g>
</svg>