<?xml version="1.0" standalone="no"?>
<!DOCTYPE svg PUBLIC "-//W3C//DTD SVG 20010904//EN"
 "http://www.w3.org/TR/2001/REC-SVG-20010904/DTD/svg10.dtd">
<svg version="1.0" xmlns="http://www.w3.org/2000/svg"
 width="721.000000pt" height="857.000000pt" viewBox="0 0 721.000000 857.000000"
 preserveAspectRatio="xMidYMid meet">
<metadata>
Created by potrace 1.16, written by Peter Selinger 2001-2019
</metadata>
<g transform="translate(0.000000,857.000000) scale(0.100000,-0.100000)"
fill="#000000" stroke="none">
<path d="M3570 8149 c-251 -15 -769 -71 -792 -85 -5 -3 -42 -5 -84 -5 -41 0
-72 -4 -69 -9 6 -10 18 -8 -330 -69 -154 -27 -437 -77 -630 -111 -192 -34
-377 -66 -410 -71 -108 -18 -254 -58 -313 -88 -247 -125 -398 -378 -452 -758
-13 -90 3 -3674 20 -4533 16 -787 47 -959 238 -1285 224 -386 972 -705 1871
-800 183 -19 389 -19 479 0 388 81 629 393 687 891 10 87 11 295 4 1000 -4
489 -13 1535 -19 2324 -11 1440 -17 1720 -44 1926 -50 377 -159 641 -347 839
-269 282 -880 468 -1674 507 -47 3 -45 4 35 16 47 8 276 47 510 88 702 123
832 141 1237 170 278 20 829 14 1048 -10 728 -80 1231 -293 1505 -637 231
-289 349 -579 407 -994 28 -202 28 -3778 0 -3955 -99 -624 -327 -1053 -682
-1286 -143 -93 -197 -113 -705 -259 -146 -42 -314 -91 -375 -110 -60 -18 -211
-63 -335 -100 -124 -37 -369 -112 -545 -167 -176 -55 -337 -105 -357 -110 -38
-10 -45 -22 -30 -45 6 -9 34 -4 112 22 310 100 1078 333 1485 450 624 180 675
200 845 331 63 48 200 182 200 195 0 5 12 9 26 9 18 0 25 5 23 18 -4 48 2 72
19 72 10 0 27 18 41 43 l25 42 10 -45 11 -45 3 78 c2 61 7 82 22 97 16 16 20
17 20 5 0 -9 9 -15 25 -15 23 0 25 3 18 28 -14 49 -7 85 36 197 62 162 60 159
60 82 1 -38 7 -101 14 -140 12 -71 12 -68 19 153 7 250 29 392 61 398 21 4 23
42 1 42 -16 0 -10 42 7 48 4 2 8 859 9 1905 0 2039 1 2012 -50 2267 -43 217
-146 472 -262 650 -171 263 -335 409 -613 548 -104 52 -257 112 -284 112 -11
0 -21 6 -21 13 0 6 -10 12 -22 13 -13 0 -66 12 -118 26 -438 117 -990 162
-1570 127z m-1960 -334 c0 -3 -2 -5 -5 -5 -3 0 -5 2 -5 5 0 3 2 5 5 5 3 0 5
-2 5 -5z m390 -61 c462 -47 844 -149 1125 -302 351 -190 531 -561 575 -1185 5
-81 14 -646 20 -1255 34 -3891 33 -3689 16 -3813 -61 -442 -270 -718 -611
-811 -301 -82 -1131 52 -1650 266 -428 177 -644 362 -779 669 -33 74 -25 74
10 0 137 -292 369 -480 804 -653 465 -185 1219 -304 1500 -237 381 91 617 444
637 952 5 137 -10 2343 -27 3960 -10 860 -14 952 -60 1190 -71 367 -225 628
-462 785 -320 211 -920 350 -1517 350 -537 0 -780 -110 -939 -425 -36 -72 -76
-189 -92 -267 -14 -72 -24 -76 -15 -5 30 228 151 482 287 601 204 179 600 239
1178 180z m-65 -144 c240 -26 428 -60 632 -116 139 -38 325 -108 348 -131 8
-8 15 -12 15 -9 0 10 99 -43 163 -86 201 -137 352 -395 416 -713 46 -227 52
-321 61 -870 13 -790 34 -3738 27 -3867 -14 -306 -189 -556 -454 -649 -252
-89 -717 -52 -1238 97 -165 48 -573 185 -671 226 -282 120 -478 358 -605 735
l-43 128 -7 560 c-4 308 -10 1307 -14 2220 -7 1535 -6 1667 9 1750 68 362 225
584 474 671 89 30 202 53 321 64 113 10 424 5 566 -10z m-1408 -747 c-3 -10
-5 -2 -5 17 0 19 2 27 5 18 2 -10 2 -26 0 -35z m43 -4562 c0 -5 3 -18 6 -28 5
-15 4 -15 -5 -3 -6 8 -11 10 -11 5 0 -6 5 -16 11 -22 14 -14 3 -67 -11 -58
-13 8 -13 115 0 115 6 0 10 -4 10 -9z m114 -329 c136 -269 315 -439 567 -535
791 -305 1521 -432 1866 -326 223 69 386 219 469 434 l23 60 1 -106 c0 -126
-22 -302 -52 -413 -126 -469 -425 -669 -925 -621 -852 82 -1560 363 -1800 715
-85 125 -172 342 -198 493 -20 113 -45 375 -45 461 l0 71 29 -80 c15 -44 45
-113 65 -153z m-74 -337 c0 -3 -2 -5 -5 -5 -3 0 -5 2 -5 5 0 3 2 5 5 5 3 0 5
-2 5 -5z m40 -180 c0 -3 -2 -5 -5 -5 -3 0 -5 2 -5 5 0 3 2 5 5 5 3 0 5 -2 5
-5z m20 -50 c0 -5 -5 -3 -10 5 -5 8 -10 20 -10 25 0 6 5 3 10 -5 5 -8 10 -19
10 -25z M3500 6875 c0 -3 2 -5 5 -5 3 0 5 2 5 5 0 3 -2 5 -5 5 -3 0 -5 -2 -5
-5z M1820 7184 c-327 -57 -557 -250 -717 -599 -362 -791 -6 -1934 689 -2209
473 -187 950 100 1147 689 114 344 112 794 -7 1170 -146 461 -478 833 -824
924 -75 19 -239 34 -288 25z m275 -69 c284 -76 554 -340 717 -700 311 -687
174 -1552 -302 -1905 -225 -167 -506 -191 -762 -65 -597 295 -908 1251 -651
2000 124 359 371 616 654 680 80 18 259 13 344 -10z M1869 6665 c-247 -50
-445 -300 -504 -635 -89 -508 168 -1070 552 -1201 95 -33 252 -33 334 -1 402
159 572 778 359 1309 -149 372 -452 588 -741 528z m222 -53 c211 -55 403 -271
503 -563 98 -289 77 -654 -51 -888 -198 -361 -566 -418 -851 -133 -295 295
-387 857 -204 1244 132 280 354 405 603 340z M2064 5951 c-54 -23 -104 -115
-104 -191 0 -145 141 -262 248 -206 70 36 106 100 106 186 0 127 -67 211 -172
217 -32 1 -66 -1 -78 -6z m127 -54 c125 -83 93 -307 -44 -307 -78 0 -137 73
-137 170 0 125 93 196 181 137z M1950 5675 c0 -3 2 -5 5 -5 3 0 5 2 5 5 0 3
-2 5 -5 5 -3 0 -5 -2 -5 -5z M2330 7085 c0 -3 2 -5 5 -5 3 0 5 2 5 5 0 3 -2 5
-5 5 -3 0 -5 -2 -5 -5z M1180 4915 c0 -3 2 -5 5 -5 3 0 5 2 5 5 0 3 -2 5 -5 5
-3 0 -5 -2 -5 -5z M1370 4585 c0 -3 2 -5 5 -5 3 0 5 2 5 5 0 3 -2 5 -5 5 -3 0
-5 -2 -5 -5z M1203 4084 c-7 -3 -17 -20 -23 -39 -30 -90 80 -146 116 -59 27
65 -29 124 -93 98z m53 -58 c3 -14 3 -29 0 -35 -11 -17 -36 0 -36 23 0 42 26
50 36 12z M1895 4020 c-11 -4 -30 -18 -42 -31 -120 -130 41 -353 172 -238 116
102 8 327 -130 269z m100 -64 c59 -59 37 -174 -37 -192 -47 -11 -98 49 -98
114 0 93 76 137 135 78z M2633 3798 c-34 -44 -12 -108 35 -108 37 0 52 17 52
56 0 53 -59 87 -87 52z m47 -54 c0 -8 -4 -14 -10 -14 -5 0 -10 9 -10 21 0 11
5 17 10 14 6 -3 10 -13 10 -21z M855 3423 c-12 -304 7 -770 41 -983 29 -184
75 -281 177 -375 162 -150 403 -233 1082 -372 269 -54 286 -57 440 -57 141 -1
168 2 225 22 166 57 267 176 301 356 5 27 9 297 9 601 l0 552 -292 58 c-161
31 -426 84 -588 116 -162 32 -515 101 -785 154 -269 52 -509 100 -532 105 -75
18 -70 30 -78 -177z m403 66 c169 -33 417 -82 552 -109 135 -26 432 -85 660
-130 543 -106 602 -118 606 -122 9 -10 5 -1088 -5 -1132 -56 -239 -265 -355
-571 -316 -52 6 -216 36 -365 66 -930 188 -1121 298 -1189 679 -30 172 -38
293 -43 714 l-6 424 27 -7 c14 -3 164 -34 334 -67z M560 2235 c0 -3 2 -5 5 -5
3 0 5 2 5 5 0 3 -2 5 -5 5 -3 0 -5 -2 -5 -5z M3210 635 c0 -3 2 -5 5 -5 3 0 5
2 5 5 0 3 -2 5 -5 5 -3 0 -5 -2 -5 -5z M3010 8000 c-148 -15 -229 -40 -249
-79 -13 -24 11 -59 55 -77 138 -58 597 -58 735 0 71 30 79 79 18 109 -86 42
-372 66 -559 47z m385 -50 c39 -6 95 -17 125 -26 49 -14 53 -17 37 -29 -84
-62 -660 -62 -744 0 -59 43 375 84 582 55z M5113 4670 c-12 -5 -32 -28 -45
-52 -22 -41 -23 -55 -26 -282 -4 -251 -1 -286 23 -286 13 0 15 29 15 189 0
202 0 201 51 201 21 0 28 53 9 65 -5 3 -10 2 -10 -3 0 -5 -11 -12 -25 -14 -24
-5 -25 -3 -25 38 0 60 33 97 93 103 4 1 7 12 7 26 0 27 -24 32 -67 15z M5976
4604 c-322 -62 -309 -44 -304 -409 3 -219 4 -235 24 -262 12 -15 31 -29 43
-31 23 -4 473 103 503 119 10 6 28 29 40 52 21 39 23 57 26 248 4 218 -4 275
-39 310 -25 25 -23 25 -293 -27z m174 -9 c0 -3 -2 -5 -5 -5 -3 0 -5 2 -5 5 0
3 2 5 5 5 3 0 5 -2 5 -5z m110 0 c0 -3 -2 -5 -5 -5 -3 0 -5 2 -5 5 0 3 2 5 5
5 3 0 5 -2 5 -5z m-142 -30 c-10 -23 -13 -24 -21 -9 -6 11 -5 19 4 25 24 15
29 10 17 -16z m102 1 c0 -3 -13 -61 -29 -130 l-29 -126 19 -67 c11 -38 25 -89
33 -114 l13 -46 -33 -11 c-28 -8 -34 -7 -38 7 -2 9 -12 50 -22 91 -22 90 -18
83 -44 75 -20 -6 -21 -13 -19 -103 2 -91 1 -96 -21 -104 -13 -5 -24 -7 -25 -6
-2 2 -4 115 -6 252 l-4 250 28 7 27 7 0 -115 0 -115 22 14 c18 12 26 35 40
104 28 141 25 134 58 134 17 0 30 -2 30 -4z m37 -13 c-4 -3 -7 0 -7 7 0 7 3
10 7 7 3 -4 3 -10 0 -14z m-279 -24 c-6 -17 -8 -59 -5 -95 8 -84 3 -96 -31
-83 -15 6 -29 10 -32 10 -3 -1 -5 15 -5 33 -1 19 2 33 5 31 12 -7 8 60 -4 74
-8 11 -8 13 2 7 6 -4 12 -2 12 3 0 6 -8 11 -17 11 -17 1 -17 1 0 11 9 6 16 13
13 17 -2 4 13 8 34 9 l39 2 -11 -30z m-81 14 c-4 -3 -10 -3 -14 0 -3 4 0 7 7
7 7 0 10 -3 7 -7z m-27 -8 c0 -3 -2 -5 -5 -5 -3 0 -5 2 -5 5 0 3 2 5 5 5 3 0
5 -2 5 -5z m-70 -15 c-21 -7 -22 -8 -5 -10 16 -1 17 -3 5 -8 -8 -4 -16 -18
-18 -32 -4 -42 -62 -313 -67 -318 -3 -3 -5 60 -5 139 0 124 3 151 20 186 21
44 31 52 70 51 l25 0 -25 -8z m468 -194 c2 -135 0 -165 -12 -169 -10 -4 -13
-1 -10 7 3 8 0 17 -5 21 -6 3 -9 10 -6 15 3 5 0 21 -7 37 -6 15 -10 32 -9 36
0 4 -3 17 -9 27 -8 14 -7 26 1 41 6 12 12 31 14 43 11 73 14 88 20 107 15 45
21 -5 23 -165z m-420 7 c-46 -209 -47 -193 2 -180 l39 11 3 75 c3 70 5 76 26
79 21 3 22 0 22 -67 0 -56 3 -71 15 -71 11 0 15 -11 15 -35 0 -22 -6 -38 -15
-41 -10 -4 -15 -20 -15 -50 0 -24 -4 -44 -9 -44 -5 0 -16 -3 -25 -6 -13 -5
-16 2 -16 40 0 51 -1 51 -84 25 -64 -20 -64 -23 -10 244 38 190 37 187 68 187
l22 0 -38 -167z m122 -8 c0 -3 -2 -5 -5 -5 -3 0 -5 2 -5 5 0 3 2 5 5 5 3 0 5
-2 5 -5z m10 -90 c0 -3 -2 -5 -5 -5 -3 0 -5 2 -5 5 0 3 2 5 5 5 3 0 5 -2 5 -5z
m-263 -122 c-4 -3 -7 0 -7 7 0 7 3 10 7 7 3 -4 3 -10 0 -14z m0 -50 c-4 -3 -7
0 -7 7 0 7 3 10 7 7 3 -4 3 -10 0 -14z m414 -20 c12 -15 12 -16 -3 -10 -11 4
-18 2 -18 -5 0 -6 -2 -9 -5 -6 -5 5 4 38 10 38 1 0 9 -8 16 -17z m-394 -6 c-4
-12 52 -15 93 -6 9 2 14 -2 12 -10 -2 -7 5 -22 14 -32 15 -17 13 -18 -36 -33
-56 -17 -100 -12 -100 9 0 7 -3 21 -7 31 -5 13 -3 15 8 9 11 -6 12 -5 2 6 -18
18 -16 39 3 39 9 0 14 -6 11 -13z m258 -27 c3 -5 4 -10 1 -10 -3 0 -8 5 -11
10 -3 6 -4 10 -1 10 3 0 8 -4 11 -10z m-135 -5 c0 -3 -2 -5 -5 -5 -3 0 -5 2
-5 5 0 3 2 5 5 5 3 0 5 -2 5 -5z M6100 4565 c0 -3 2 -5 5 -5 3 0 5 2 5 5 0 3
-2 5 -5 5 -3 0 -5 -2 -5 -5z M5910 4370 c0 -7 3 -10 7 -7 3 4 3 10 0 14 -4 3
-7 0 -7 -7z M5750 4505 c0 -3 2 -5 5 -5 3 0 5 2 5 5 0 3 -2 5 -5 5 -3 0 -5 -2
-5 -5z M5720 4430 c0 -7 3 -10 7 -7 3 4 3 10 0 14 -4 3 -7 0 -7 -7z M5740
4415 c0 -3 2 -5 5 -5 3 0 5 2 5 5 0 3 -2 5 -5 5 -3 0 -5 -2 -5 -5z M5760 4015
c0 -3 2 -5 5 -5 3 0 5 2 5 5 0 3 -2 5 -5 5 -3 0 -5 -2 -5 -5z M5730 3970 c0
-7 3 -10 7 -7 3 4 3 10 0 14 -4 3 -7 0 -7 -7z M5840 3975 c0 -3 2 -5 5 -5 3 0
5 2 5 5 0 3 -2 5 -5 5 -3 0 -5 -2 -5 -5z M5366 4428 c-14 -73 -32 -162 -39
-198 l-13 -65 -43 178 c-30 126 -47 177 -57 177 -27 0 -24 -19 37 -242 l49
-182 -15 -54 c-12 -40 -23 -58 -45 -70 -31 -17 -43 -62 -17 -62 43 0 79 55 97
147 7 35 16 60 20 58 5 -3 6 3 3 14 -2 10 14 103 36 207 45 208 47 224 28 224
-10 0 -22 -42 -41 -132z M4940 4465 c-9 -11 -11 -48 -5 -148 4 -89 3 -147 -4
-175 -21 -75 -77 -105 -117 -61 -17 18 -20 42 -24 188 -4 139 -7 166 -20 166
-24 0 -21 -326 4 -377 39 -80 128 -69 174 22 20 41 22 58 22 217 0 168 -5 198
-30 168z M4530 4403 c-35 -12 -91 -80 -111 -133 -75 -197 41 -414 178 -330 59
36 119 166 111 242 -5 58 -32 41 -40 -24 -18 -146 -113 -221 -187 -148 -34 35
-57 120 -46 173 13 56 37 107 48 100 5 -3 8 -2 4 3 -12 21 42 64 81 64 11 0
30 -8 42 -18 l21 -17 -41 -71 c-38 -66 -46 -111 -17 -101 12 4 106 166 107
183 0 7 -18 28 -40 48 -39 35 -71 43 -110 29z M5351 3758 c-5 -13 -12 -32 -16
-43 -6 -20 -7 -20 -21 -1 -8 11 -14 26 -14 33 0 7 -7 13 -15 13 -19 0 -19 -3
5 -50 11 -22 20 -55 20 -74 0 -40 8 -66 21 -66 5 0 9 24 9 54 0 32 8 73 20
101 23 54 23 55 10 55 -6 0 -14 -10 -19 -22z M5198 3738 c-40 -10 -53 -38 -18
-38 18 0 20 -7 20 -86 0 -54 4 -83 10 -79 6 3 10 44 10 90 0 74 2 86 20 95 22
12 27 31 8 29 -7 -1 -30 -6 -50 -11z M5118 3713 c-8 -17 4 -203 13 -197 12 7
12 204 0 204 -6 0 -11 -3 -13 -7z M5016 3691 l-29 -6 -1 -102 c-1 -76 2 -103
12 -103 8 0 12 17 12 50 0 42 3 50 18 50 13 0 21 -11 28 -37 5 -20 15 -39 23
-41 11 -4 12 1 5 24 -5 16 -7 55 -6 88 2 53 -9 88 -27 85 -3 -1 -19 -4 -35 -8z
m39 -31 c10 -17 -4 -47 -25 -53 -16 -4 -20 0 -20 23 0 33 31 53 45 30z M4939
3678 c0 -2 -2 -37 -2 -79 -3 -133 -54 -147 -59 -16 -4 87 -22 92 -26 8 -6
-118 49 -173 90 -91 20 39 26 180 8 180 -5 0 -10 -1 -11 -2z M4763 3630 c-32
-13 -43 -41 -43 -110 0 -73 12 -100 44 -100 36 0 75 35 58 52 -11 11 -15 10
-23 -4 -6 -10 -19 -18 -29 -18 -18 0 -20 7 -20 69 0 74 16 105 44 82 19 -16
41 10 24 27 -14 14 -25 14 -55 2z M4638 3598 l-38 -10 0 -104 c0 -57 3 -104 6
-104 30 0 94 25 94 37 0 12 -7 13 -27 8 -15 -3 -32 -7 -38 -8 -5 -1 -10 11
-10 28 0 24 5 31 33 39 46 13 43 39 -4 30 -35 -6 -35 -6 -32 22 2 24 9 30 41
37 21 5 37 15 37 23 0 16 -9 16 -62 2z M4500 3563 c-25 -9 -40 -35 -40 -68 0
-38 16 -55 52 -55 23 0 28 -4 28 -24 0 -26 -41 -49 -48 -27 -5 15 -32 14 -32
-1 1 -48 82 -49 100 -2 21 53 6 88 -37 89 -22 1 -29 7 -31 27 -4 29 34 51 48
28 11 -19 29 -3 23 20 -5 20 -30 25 -63 13z M6210 1475 c0 -3 2 -5 5 -5 3 0 5
2 5 5 0 3 -2 5 -5 5 -3 0 -5 -2 -5 -5z"/>
</g>
</svg>
