<?xml version="1.0" encoding="UTF-8"?>
<svg id="Laag_1" data-name="Laag 1" xmlns="http://www.w3.org/2000/svg" viewBox="0 0 452.92 654.4">
  <defs>
    <style>
      .cls-1 {
        fill: none;
        stroke: #000;
        stroke-miterlimit: 10;
        stroke-width: 10px;
      }
    </style>
  </defs>
  <path class="cls-1" d="M245.02,406.76c-105.05,22.27-195.12,17.15-201.18-11.43-.28-1.32-.37-2.66-.29-4.03l-.54.11-26.3,221.12h433.48l-26.28-290.06c-7.84,27.87-83.03,63.96-178.88,84.28Z"/>
  <path class="cls-1" d="M43.55,391.3c-.08,1.37.01,2.71.29,4.03,6.06,28.58,96.13,33.69,201.18,11.43,95.85-20.32,171.04-56.41,178.88-84.28.75-2.68.9-5.28.37-7.78-1.51-7.14-8.28-12.82-19.21-16.97-2.56,5.79-5.37,11.44-8.43,16.94-8.93,16.07-19.89,30.84-32.55,43.97-27.83,15.49-69.9,30.44-118.09,40.66-38.26,8.11-74.19,11.92-103.25,11.71-23.75-8.39-45.55-20.91-64.52-36.72-4.39-3.66-8.63-7.5-12.71-11.5-13.58,9.93-21.44,19.71-21.96,28.5Z"/>
  <path class="cls-1" d="M212.74,2.5C96.63,2.5,2.5,96.63,2.5,212.74c0,58.78,24.13,111.92,63.01,150.07,4.08,4,8.32,7.84,12.71,11.5,18.97,15.81,40.76,28.33,64.52,36.72,29.06.21,65-3.61,103.25-11.71,48.19-10.22,90.26-25.17,118.09-40.66,12.66-13.13,23.63-27.91,32.55-43.97,3.06-5.5,5.86-11.15,8.43-16.94,11.51-25.99,17.91-54.74,17.91-85C422.98,96.63,328.85,2.5,212.74,2.5Z"/>
  <rect class="cls-1" x="21.31" y="65.68" width="235.73" height="270.7" rx="79.94" ry="79.94"/>
  <circle class="cls-1" cx="123.13" cy="191.6" r="78.17"/>
  <circle class="cls-1" cx="123.13" cy="191.6" r="70.89"/>
  <circle class="cls-1" cx="123.13" cy="191.6" r="64.6"/>
  <circle class="cls-1" cx="123.13" cy="191.6" r="28.01"/>
  <path class="cls-1" d="M73.88,388.97c3.01,14.21,29.69,21.78,68.85,22.06-23.75-8.39-45.55-20.91-64.52-36.72-3.75,5.14-5.31,10.09-4.34,14.66Z"/>
  <path class="cls-1" d="M396.64,314.68c-8.93,16.07-19.89,30.84-32.55,43.97,24.03-13.37,37.45-27.15,35.02-38.61-.4-1.91-1.24-3.69-2.47-5.36Z"/>
  <circle class="cls-1" cx="127.23" cy="301.71" r="11.95"/>
  <ellipse class="cls-1" cx="341.77" cy="191.6" rx="19.12" ry="11.95"/>
  <ellipse class="cls-1" cx="338.06" cy="194.46" rx="13.12" ry="7.94"/>
  <polygon class="cls-1" points="70.1 651.9 398.42 651.9 438.93 612.54 28.21 612.54 70.1 651.9"/>
</svg>