<?xml version="1.0" encoding="UTF-8"?>
<svg id="Laag_1" data-name="Laag 1" xmlns="http://www.w3.org/2000/svg" viewBox="0 0 331.85 484.64">
  <defs>
    <style>
      .cls-1 {
        stroke: #1d1d1b;
        stroke-miterlimit: 10;
        stroke-width: 2px;
      }
    </style>
  </defs>
  <path class="cls-1" d="M289.03,332.47c-1.43,11.51-2.8,22.63-4.19,33.75-.95,7.59-1.94,15.18-2.89,22.77-.54,4.36-.56,4.41-4.97,4.89-.52,.06-1.06,0-1.73,0-.47,3.12-.89,6.18-1.39,9.22-2.97,17.98-9.67,34.22-22.44,47.55-9.26,9.67-20.49,16.53-32.66,21.81-8.24,3.57-16.72,6.6-25.04,9.98-5.38,2.18-10.73,.85-16.06,.06-13.82-2.02-27.63-4.13-41.43-6.26-18.29-2.83-31.83-18.11-32.44-36.69-.38-11.56-1.26-23.07-2.44-34.59-1.43-14-1.21-28.08,2.52-42.08-.32,.53-.64,1.06-1.1,1.83-2.41-2.57-4.46-4.69-4.99-8.03-.98-6.15-2.32-12.24-3.4-18.37-.32-1.79-1.09-2.56-2.95-2.68-3.55-.23-7.07-.81-10.62-1.05-5.72-.4-6.88-1.54-6.91-7.4-.06-9.53-.06-19.06-.14-28.59-.17-19.86-.36-39.72-.57-59.58-.12-11.4-.31-22.79-.43-34.19-.05-4.57,1.68-6.37,6.27-6.8,11.86-1.11,23.71-2.26,35.61-3.81-3.15-.39-6.3-.82-9.45-1.17-24.93-2.74-49.87-5.47-74.8-8.2-3.36-.37-6.71-.82-10.08-1.1-6.66-.54-11.24-4.16-14.35-9.78-1.59-2.87-3.1-5.86-4.09-8.98-2.05-6.38-.13-12.18,3.72-17.32,5.06-6.76,10.37-13.34,15.56-19.99C46.24,95.5,71.24,63.19,96.53,31.12,111.82,11.72,132.18,1.58,156.82,1.05c13.77-.3,27.57,.78,41.36,1.25,5.69,.19,11.38,.45,17.08,.64,17.88,.6,35.76,1.16,53.64,1.78,6.31,.22,12.63,.48,18.93,.91,5.43,.37,9.66,3.08,12.44,7.71,2.29,3.81,4.35,7.77,6.26,11.79,1.92,4.04,1.66,7.92-.99,11.82-14.26,20.99-28.39,42.08-42.57,63.12-12.93,19.19-25.87,38.38-38.81,57.56-2.13,3.15-1.07,8.04,2.45,9.47,3.66,1.48,4.88,3.78,4.61,7.62-.31,4.43-.02,8.9-.1,13.35-.03,1.75,.46,2.55,2.38,2.62,12.01,.45,24.01,1.03,36.01,1.52,13.96,.57,27.93,.9,41.88,1.71,6.45,.37,13.07,1.57,16.52,8.03,1.62,3.03,2.98,6.69,2.95,10.05-.3,29.03-.9,58.05-1.53,87.07-.18,8.23-6.4,14.32-15.12,15.18-2.21,.22-4.44,.4-6.66,.4-1.69,0-2.49,.71-2.54,2.34-.06,1.69-.07,3.38-.13,5.07-.14,3.97-2.05,6.51-5.86,7.64-3.32,.98-6.68,1.85-9.98,2.76ZM76.03,201.41c-.32,1.16-.91,2.33-.9,3.49,.03,7.3,.22,14.6,.3,21.9,.2,18.26,.39,36.52,.53,54.77,.12,15.14,.17,30.29,.26,45.43,.03,4.4,.39,4.75,4.83,5.19,18.59,1.84,37.16,3.9,55.77,5.49,17.55,1.5,35.14,2.56,52.72,3.69,9.5,.61,19.02,1.03,28.53,1.46,8.82,.4,17.67,.55,26.3-1.61,17.78-4.45,35.52-9.07,53.27-13.68,4.16-1.08,4.8-2.06,4.91-6.37,.3-11.75,.66-23.5,.93-35.25,.6-26.62,1.15-53.24,1.71-79.86,.07-3.58-.12-3.63-3.53-3.3-9.12,.88-18.25,1.67-27.38,2.5-10.99,1-21.96,2.17-32.96,2.96-8.69,.62-17.42,1.32-26.11,1.05-23.22-.7-46.42-1.94-69.63-2.9-15.65-.65-31.31-1.18-46.97-1.79-6.67-.26-13.34-.62-20-.91-1.49-.07-3.03-.02-2.59-2.27,.89-.03,1.78-.13,2.66-.09,10.67,.39,21.34,.78,32,1.22,5.78,.24,11.55,.69,17.32,.83,6.29,.15,12.58,.03,18.88,.03-2.71,.5-3.35-1.03-3.14-3.4,.1-1.18,.35-2.56-1.58-2.76-6.62-.68-13.17-1.69-19.9-.96-14.32,1.56-28.67,2.78-43.01,4.19-1.09,.11-2.15,.63-3.22,.95Zm28.05,170.63c.38,.17,.75,.34,1.13,.51,.43-.56,.84-1.14,1.31-1.66,3.67-4.08,8.43-5.61,13.71-5.34,14.93,.78,29.85,1.7,44.77,2.62,7.54,.47,14.85,1.91,21.33,6.1,13.11,8.46,19.92,20.47,20.16,36.13,.23,15.05,.28,30.1,.74,45.14,.21,7.09,.62,14.06-4.09,20.14,.48,.14,.68,.27,.8,.22,2.25-.84,4.5-1.68,6.73-2.58,13.55-5.45,26.37-12.14,37.05-22.34,1.73-1.65,3.72-3.32,4.72-5.39,4.52-9.4,8.27-19.09,9.88-29.5,1.74-11.28,1.43-22.33-2.93-33.08-1-2.47-2.28-4.25-5.05-4.9-2.5-.59-4.89-1.63-7.36-2.4-26.69-8.35-53.95-13.58-81.86-15.66-18.07-1.35-36.1-1.24-54.15-.2-1.09,.06-2.73,.72-3.08,1.54-1.48,3.46-2.56,7.09-3.78,10.65Zm54.46-187.05c20.37-.76,37.53-8.24,49.31-25.11,28.91-41.39,57.35-83.11,85.97-124.7,1.61-2.35,3.37-4.63,4.7-7.13,4.78-8.97-1.43-19.72-11.55-20.13-16.9-.68-33.79-1.38-50.69-1.99-17.88-.64-35.76-1.19-53.64-1.79-5.69-.19-11.39-.3-17.07-.68-14.15-.95-27.65,1.46-40.48,7.53-12.73,6.02-22.29,15.61-30.81,26.61-28.48,36.74-57.19,73.28-85.67,110.02-2.22,2.86-3.8,6.46-4.81,9.97-1.59,5.56,.94,10.91,5.94,13.23,2.37,1.1,5.05,1.81,7.65,2.06,11.51,1.12,23.04,2,34.56,2.99,13.56,1.16,27.12,2.34,40.68,3.51,11.52,1,23.04,2.01,34.56,2.99,10.46,.89,20.92,1.75,31.36,2.62Zm46.25,252.28c-.06,0-.12,0-.18,0-.09-1.24-.22-2.49-.25-3.73-.22-9.17-.11-18.35-.69-27.49-1.07-17.03-14.82-31.98-31.64-34.58-5.35-.83-10.8-1.04-16.21-1.36-12.26-.73-24.51-1.51-36.78-1.91-2.68-.09-5.71,.79-8.07,2.13-6.09,3.46-7.3,9.35-7.01,15.89,.79,17.52,1.49,35.04,2.12,52.56,.63,17.48,11.78,31.49,28.85,34.67,16.61,3.09,33.35,5.51,50.1,7.75,10.27,1.37,19.43-6.85,19.71-17.21,.24-8.9,.05-17.81,.05-26.71Zm-103.14-77.32c3.71-1.18,6.75-2.69,9.93-3.05,7.14-.82,14.37-1.71,21.52-1.43,13.76,.54,27.52,1.68,41.24,2.93,23.55,2.15,46.62,6.93,69.29,13.55,9.31,2.72,18.62,5.66,26.79,11.08,2.53,1.67,4.48,4.22,6.69,6.36,.52,.51,1.06,1,1.59,1.5,.29-.69,.75-1.35,.84-2.06,1.97-15.36,3.9-30.72,5.82-46.08,.38-3.05,.71-6.1,1.12-9.58-3.62,.95-6.77,1.82-9.95,2.59-11.59,2.8-23.13,5.83-34.8,8.28-13.41,2.81-26.98,1.06-40.47,.44-15.64-.73-31.27-1.81-46.89-2.96-13.84-1.02-27.66-2.3-41.48-3.52-5.37-.47-10.72-1.09-16.1-1.65-.11,.54-.24,.81-.2,1.05,1.24,6.65,2.45,13.3,3.78,19.93,.21,1.06,.96,2.01,1.27,2.62ZM7.99,172.84c2.81,4.49,6.07,7.58,11.07,8.2,6.71,.83,13.43,1.56,20.15,2.31,15.29,1.71,30.58,3.41,45.88,5.12,13.7,1.53,27.39,3.17,41.11,4.54,11.12,1.11,22.16,3.19,33.49,1.99,12.78-1.36,25.24-3.72,36.53-10.04,4.74-2.65,10.07-5.62,13-9.9,31.82-46.52,63.22-93.33,94.72-140.07,2.35-3.48,1.79-8.28-.96-11.04-1.45,2.79-2.68,5.85-4.5,8.52-12.03,17.66-24.19,35.23-36.31,52.84-17.11,24.87-34,49.89-51.39,74.56-14.28,20.25-34.31,28.94-58.91,27.07-11.62-.88-23.21-2.05-34.82-3.05-13.38-1.15-26.77-2.26-40.15-3.4-13.91-1.19-27.85-2.21-41.73-3.66-8.95-.93-18.14-.32-27.17-3.98Zm276.67,22.38c0,.3,0,.61,0,.91,5.77,0,11.55-.11,17.32,.03,4.56,.11,5.68,1.37,5.58,5.85-.32,15.13-.7,30.26-1.02,45.39-.43,20.47-.83,40.94-1.22,61.42-.02,.85,.1,1.71,.15,2.51,7.41,.74,13.39-2.5,15.26-8.45,.73-2.33,.84-4.9,.92-7.38,.65-19.57,1.2-39.15,1.83-58.72,.22-6.76,.3-13.54,.92-20.27,.6-6.52-1.39-11.89-5.72-16.58-2.46-2.66-5.32-4.36-9.09-4.34-2.49,.01-4.97-.34-7.46-.36-5.82-.06-11.65-.02-17.47-.02Zm-55.9-23.09c-3.2,.79-6.04,1.7-8.96,2.16-3.82,.6-7.22,.55-10.4,4.22-4.94,5.72-12.02,9.04-19.1,11.86-13.23,5.29-27.07,7.25-41.22,7.48-1.11,.02-2.63-.69-2.92,1.31-.29,1.97,1.03,2.13,2.43,2.3,5.02,.63,10.03,1.48,15.07,1.89,15.17,1.22,30.38,1.73,45.54,0,5.71-.65,11.36-1.95,16.98-3.2,1-.22,2.44-1.65,2.46-2.55,.19-8.61,.11-17.23,.11-25.46Zm-23.68,34.42c.02,.16,.04,.32,.05,.48,7.73,0,15.48,.32,23.2-.08,8.96-.47,17.88-1.61,26.82-2.41,14.79-1.32,29.58-2.6,44.37-3.92,1.76-.16,3.51-.46,5.27-.7,0-.26,0-.52,0-.77-.81-.14-1.62-.39-2.44-.41-22.77-.52-45.54-1.01-68.3-1.51-1.59-.04-3.02-.13-3.06,2.21-.01,.71-1.02,1.71-1.8,2.04-2.44,1.03-4.93,2.14-7.52,2.62-5.49,1.02-11.06,1.66-16.59,2.46Zm108.69,105.75c7.81-.15,13.65-5.82,13.8-13.22,.59-28.91,1.17-57.83,1.55-86.74,.04-2.91-.93-5.97-2.04-8.71-1.5-3.72-4.93-6.02-8.54-6.41,5.1,5.31,8.15,11.11,7.63,18.73-.83,12.42-1.09,24.88-1.5,37.33-.47,14.05-.81,28.1-1.28,42.15-.08,2.48-.19,5.02-.81,7.39-1.17,4.46-4.18,7.52-8.82,9.48Zm-54.14,124c1.24-2.35,2.55-4.68,3.72-7.06,6.18-12.58,8.56-26.11,9.87-39.9,.06-.67-.22-1.71-.71-2.04-3.51-2.32-7.12-4.5-10.69-6.72-.21,.18-.42,.37-.63,.55,7.79,18.7,4.54,36.95-1.55,55.17Zm19.29-241.02c.02-.3,.05-.6,.07-.89-15.26-.65-30.51-1.32-45.77-1.9-.65-.03-1.34,.72-2.01,1.1,.73,.42,1.44,1.18,2.18,1.21,6.57,.24,13.15,.42,19.72,.47,8.6,.07,17.2,.02,25.8,.02Zm-65-22.86c4.51-.73,8.52,.19,11.65-2.1-1.79-2.45-3.4-4.65-5.17-7.06-2.03,2.87-4.03,5.7-6.48,9.16Z"/>
  <path class="cls-1" d="M140.39,255.82c2.69-.01,4.91,2.17,4.93,4.87,.02,2.67-2.19,4.92-4.86,4.95-2.66,.02-4.91-2.2-4.93-4.88-.02-2.69,2.18-4.92,4.86-4.93Zm0,8.03c2.05-.1,3.22-1.26,3.2-3.19-.02-1.78-1.11-2.99-3.04-3.03-2.01-.04-3.29,1.06-3.32,3.02-.03,1.92,1.15,3.09,3.16,3.2Z"/>
  <path class="cls-1" d="M155.88,179.24c-21.61-1.99-43.22-4.02-64.84-5.97-20.73-1.87-41.47-3.67-62.2-5.52-2.48-.22-4.94-.61-7.41-.88-7.58-.84-13.01-9.89-6.69-17.78,18.99-23.69,37.64-47.65,56.43-71.5,12.78-16.23,25.6-32.43,38.31-48.71,3.33-4.27,7.72-7.09,12.24-9.75,11.28-6.67,23.39-9.6,36.57-8.37,7.16,.67,14.4,.56,21.61,.74,17.44,.44,34.88,.81,52.33,1.28,15.21,.42,30.43,.82,45.63,1.52,2.8,.13,5.87,1.1,8.24,2.6,5.51,3.48,6.3,9.6,2.34,15.39-7.59,11.1-15.26,22.14-22.91,33.2-20.61,29.81-41.43,59.47-61.77,89.47-11.04,16.28-26.67,23.05-45.47,24.37-.79,.06-1.6-.09-2.39-.15,0,.03,0,.05,0,.08Zm1.39-1.65c2.57-.26,5.59-.44,8.57-.9,14.73-2.28,26.85-8.83,35.49-21.38,22.06-32.05,44.24-64.01,66.37-96.01,6.43-9.3,12.89-18.58,19.28-27.91,4.21-6.14,1.99-12.52-5.1-14.75-1.34-.42-2.79-.64-4.19-.69-15.03-.52-30.06-1.03-45.1-1.44-17.44-.48-34.88-.82-52.32-1.28-7.83-.21-15.65-.49-23.48-.85-7.44-.34-14.78-.02-21.85,2.59-10.57,3.91-20.05,9.17-27.09,18.54-10.9,14.52-22.38,28.61-33.62,42.87-19.39,24.62-38.81,49.22-58.13,73.89-1.2,1.54-2.23,3.57-2.42,5.47-.53,5.51,3.52,9.22,9.97,9.77,8.69,.73,17.36,1.54,26.05,2.32,13.02,1.18,26.04,2.37,39.06,3.55,10.63,.96,21.26,1.9,31.89,2.87,12.05,1.09,24.09,2.2,36.61,3.35Z"/>
  <path class="cls-1" d="M178.33,477.31c-3.41-.07-9.12-2.94-13.76-7.55-7.64-7.59-11.13-16.82-9.15-27.67,2.44-13.42,14.84-20.39,27.57-15.6,14.56,5.48,22.75,23.5,17.28,38.05-2.91,7.74-10.3,12.83-21.94,12.77Zm15.77-23.62c-.61-7.09-4.42-14.4-12.98-18.64-9.43-4.67-19.41,.12-21.67,10.35-1.7,7.7,.51,14.48,5.55,20.29,4.09,4.71,9.34,7.6,15.73,6.92,8.39-.89,13.45-7.49,13.37-18.92Zm-19.8,20.13c8.68,4.03,18.52,.83,23.13-7.48,6.68-12.01,1.24-29.47-11.45-36.51-7.03-3.9-14.16-4.8-21.1,.14-7.47,5.32-8.82,13-7.87,21.44,.16-.85,.12-1.73,.16-2.61,.69-13.88,13.24-21.34,25.4-14.84,9.25,4.94,13.63,13.11,13.21,23.52-.49,12.07-10.56,19.25-21.48,16.34Z"/>
  <path class="cls-1" d="M150.94,396.15c.12,13.13-5.26,21.18-14.43,23.59-8.41,2.21-15.61-.83-21.42-6.56-7.06-6.95-10.35-15.52-8.81-25.69,2.06-13.63,15.32-20.95,27.8-15.03,10.94,5.2,15.93,14.39,16.87,23.69Zm-21.68,20.15c6.19,.06,11.26-3.56,13.35-9.53,3.61-10.32-2.33-23.16-12.54-27.12-7.66-2.97-15.42-.09-18.64,7.07-2.01,4.46-2.19,9.1-.8,13.8,2.72,9.22,10.35,15.7,18.64,15.78Zm-1.94,1.76c11.12,2.63,20.14-4.95,21.68-15.28,1.48-9.93-3.72-21.7-12.2-27.05-7.67-4.83-15.74-4.94-22.17,.16-6.07,4.81-7.38,11.57-6.89,19.45,.3-2.03,.46-3.53,.74-5,2.16-11.18,12.95-16.68,23.22-11.77,7.97,3.8,12.3,10.42,13.52,18.94,1.44,10.09-4.36,21.05-17.91,20.56Z"/>
  <path class="cls-1" d="M112.24,444.75c.06-5.82,1.12-10.57,4.05-14.7,5.5-7.75,14.93-9.43,22.84-4.19,11.31,7.49,15.4,22.94,9.16,34.67-4.58,8.61-14.79,11.49-23.1,6.42-8.57-5.24-12.14-13.35-12.95-22.19Zm1.81-1.33c.08,10.57,5.86,19.86,14.5,23.3,5.69,2.27,12.59,.49,16.46-4.23,9.27-11.31,3.41-32.11-10.42-36.94-6.7-2.34-13.56,0-17.24,5.94-2.25,3.64-3.42,7.61-3.3,11.92Z"/>
  <path class="cls-1" d="M186.28,403.02c-.03,4.71-1.72,8.52-6.05,10.77-4.24,2.2-8.28,1.35-12.07-1.19-4.64-3.1-7.25-9.54-6.07-14.97,.92-4.23,3.37-7.24,7.54-8.57,4.64-1.48,8.64,.13,11.98,3.26,3.02,2.83,4.68,6.44,4.66,10.7Zm-1.78,.3c.07-6.95-5.21-13.01-11.41-13.09-5.45-.07-9.41,4.12-9.47,10.01-.07,6.98,5.46,13.18,11.71,13.11,5.32-.06,9.11-4.21,9.17-10.04Z"/>
  <path class="cls-1" d="M177.97,467.21c-5.24-.43-9.61-3.71-12.49-9.1-2.93-5.49-3.27-11.09,.07-16.52,2.65-4.32,8.15-6.22,13.11-4.83,9.24,2.6,14.85,13.13,11.86,22.23-1.69,5.13-6.18,8.33-12.55,8.21Zm-2.69-29.1c-4.5,.02-7.99,2.55-9.47,6.85-2.17,6.3,.4,14.1,5.94,18,8,5.62,16.73,1.83,17.83-7.82,.19-1.64-.11-3.38-.46-5.01-1.42-6.8-7.52-12.04-13.84-12.01Z"/>
  <path class="cls-1" d="M141.3,399.81c-.2,4.29-1.88,8.42-6.5,10.82-4.55,2.36-8.83,1.28-12.83-1.4-5.65-3.78-8.56-11.32-6.98-17.78,1.83-7.51,9.11-11.11,16.2-8,5.97,2.61,10.19,9.18,10.11,16.37Zm-1.78,1.18c.05-8.42-4.15-14.44-10.14-16.37-5.52-1.79-10.73,.86-12.51,6.35-1.91,5.89,.75,13.37,6.09,16.92,3.56,2.36,7.35,3.23,11.32,1.08,3.87-2.09,5.18-5.64,5.23-7.98Z"/>
</svg>