<svg id="b604f7b1-b7b9-4309-b17b-bafd36799431" data-name="Layer 1" xmlns="http://www.w3.org/2000/svg" width="62.86mm" height="78.85mm" viewBox="0 0 178.2 223.5"><g id="bb74f356-1291-45ba-b4c6-92ce32da0434" data-name="7KcJjS.tif"><path d="M97,.5h17c1.07.13,2.14.28,3.21.4,9.92,1.13,19.75,2.52,29,6.62C161.64,14.34,170,26.37,173.1,42.65c2,10.73,1.67,21.58,1.83,32.38.41,26.57.52,53.15.76,79.73a107.75,107.75,0,0,1-1.63,21.13,37.25,37.25,0,0,1-12.82,22.44C153.32,205,144,208,134.12,209.58c-16.7,2.62-33.47,4.73-50.21,7.1C73.93,218.08,64,219.56,54,221H50a83.06,83.06,0,0,1-19.56-5.87C18,209.92,9.68,201,6.17,187.83A82.48,82.48,0,0,1,3.9,176.07C2.28,162.23,2.52,148.3,2,134.41c-.6-16.47-.77-33-1.16-49.45-.09-3.65.28-7.32-.35-11V31a30.58,30.58,0,0,0,.43-6.95C1,10.91,11.35,5.66,19.34,4.59c7.06-.94,14.25-.93,21.39-1.15C56.1,3,71.46,2.16,86.82,1.31,90.22,1.12,93.61.77,97,.5ZM39.18,8.34c16,5.71,23.65,17.74,26.66,33.59A143.56,143.56,0,0,1,68,64.28c.55,17.15.7,34.32,1.26,51.47.22,6.91.28,13.83.5,20.74C70.31,154.72,71.08,173,71,191.2c0,8.1-1,16.15-5.29,23.36,0,.09.08.29.16.57.37,0,.78,0,1.17-.08,17.57-2.44,35.14-4.84,52.69-7.35,8.4-1.2,16.85-2.1,25-4.72,15.69-5,24.09-15.85,26.14-32,1.26-9.88.83-19.78.69-29.69-.35-25.33-.5-50.66-.69-76a132.65,132.65,0,0,0-1.53-21.16c-2.53-14.93-9.77-26.41-24-32.71-9.9-4.37-20.39-6.15-31.08-6.78a201.94,201.94,0,0,0-24.72.4c-13,.84-25.95,1.35-38.91,2.22C46.82,7.54,43,7.28,39.18,8.34ZM65.61,129.63c-.6-22-1.21-42-1.68-61.93a165.57,165.57,0,0,0-1.58-22.15C61,37.24,59,29.11,53.22,22.66,43.87,12.18,31.56,8.79,18.05,9.28c-6.49.23-12.5,6.3-12.89,12-.3,4.4-.54,8.81-.56,13.23-.13,26,.11,52,.92,77.94.48,15.47.67,31,1.21,46.44.26,7.31.49,14.64,1.88,21.87,2,10.17,5.57,19.42,14.4,25.67a60.69,60.69,0,0,0,26.3,10.25c8.5,1.29,13.2-2.1,15.67-10.37a47,47,0,0,0,1.89-12.8C67.14,171.56,65.86,149.61,65.61,129.63Z" transform="translate(1 1)" style="stroke:#000;stroke-miterlimit:10;stroke-width:3px"/><path d="M56.5,172.56c-.09,6.15.6,12.32-.38,18.45a30.3,30.3,0,0,1-.8,3.9c-1.52,5.11-5.25,7.72-10.57,7a53.66,53.66,0,0,1-24.47-9.36c-6-4.25-8.07-10.59-8.84-17.48-1.1-9.93-.84-19.94-1.43-29.91-.16-2.59.37-2.95,2.93-2.26,13.41,3.65,26.8,7.36,40.21,11a3.55,3.55,0,0,1,3,3.92C56.16,162.75,56,167.66,56.5,172.56Zm-1.12,11.53c-.62-8.14-.45-16.31-.53-24.46,0-3.77-.1-3.89-3.85-4.91L14.63,144.8c-2.82-.77-3.09-.59-3,2.27q.2,13.11,1,26.19c.59,9.52,4.31,17,13.28,21.26,6.64,3.15,13.34,6.13,20.91,5.93,3.79-.1,5.8-1.7,7-5.27S55.07,187.82,55.38,184.09Z" transform="translate(1 1)" style="stroke:#000;stroke-miterlimit:10;stroke-width:3px"/><path d="M40.61,72.34C40.29,76.77,40,81.25,38,85.4c-3.64,7.54-10.25,8.19-15.14,1.41C18.63,81,17,74.19,16.43,67.13c-.36-4.82-.27-9.67,1.35-14.32,1.25-3.59,2.69-7.25,7-7.93,4.53-.71,7.3,2.25,9.51,5.61C38.67,57.08,40.29,64.5,40.61,72.34ZM39,72a36.62,36.62,0,0,0-3-15.46c-1.37-3.33-3.08-6.48-6-8.78-3.28-2.58-6.72-2-8.95,1.5a16.62,16.62,0,0,0-1.41,2.91c-2.32,6.1-2.33,12.39-1.27,18.7,1,5.79,2.41,11.46,6.45,16s8.67,4,11.62-1.44C38.57,81.35,39,76.89,39,72Z" transform="translate(1 1)" style="stroke:#000;stroke-miterlimit:10;stroke-width:2px"/><path d="M38.17,126.11c-4.45-1-10-1.83-15.29-3.35a7.78,7.78,0,0,1-5.62-7c-.35-3.06,1.5-5.21,4.5-4.83a95.13,95.13,0,0,1,16.55,3.4,8.07,8.07,0,0,1,5.44,6.33C44.48,124,42.58,126.24,38.17,126.11Zm4.2-4.42c0-2.84-2.42-5.71-5.71-6.43-4.71-1-9.45-2-14.19-2.84-2.82-.52-4.5,1.41-3.63,4.19a7.1,7.1,0,0,0,5.32,5.14c4.87,1.1,9.76,2.06,14.67,3C41.05,125.14,42.37,123.9,42.37,121.69Z" transform="translate(1 1)" style="stroke:#000;stroke-miterlimit:10;stroke-width:3px"/><path d="M11.06,65.4C10.85,66.55,10.82,68,9.33,68s-1.64-1.48-1.64-2.62.16-2.66,1.62-2.66S10.82,64.26,11.06,65.4Z" transform="translate(1 1)" style="stroke:#000;stroke-miterlimit:10;stroke-width:3px"/><path d="M50.59,73.66c-.05,1.28-.09,2.65-1.3,2.56-1.62-.12-1.81-1.69-1.83-3,0-1,0-2.29,1.39-2.14C50.4,71.2,50.36,72.74,50.59,73.66Z" transform="translate(1 1)" style="stroke:#000;stroke-miterlimit:10;stroke-width:3px"/><path d="M12.58,116.18a1.64,1.64,0,0,1-1.72-1.7,1.59,1.59,0,0,1,1.7-1.72,1.64,1.64,0,0,1,1.87,1.81C14.38,115.62,13.64,116.13,12.58,116.18Z" transform="translate(1 1)" style="stroke:#000;stroke-miterlimit:10;stroke-width:3px"/><path d="M52.64,121.26c-.1,1.15-.67,1.74-1.73,1.76a1.6,1.6,0,0,1-1.82-1.58A1.68,1.68,0,0,1,51,119.62,1.63,1.63,0,0,1,52.64,121.26Z" transform="translate(1 1)" style="stroke:#000;stroke-miterlimit:10;stroke-width:3px"/><path d="M21.14,65.76c.09-3,.25-6.23,1.81-9.2,2.14-4.06,5.74-4.62,8.91-1.31,2.63,2.75,3.72,6.26,4.47,9.88.92,4.47,1,8.92-.69,13.26-.89,2.23-2.11,4.33-4.78,4.57-2.51.23-4.19-1.41-5.55-3.27C22.33,75.63,21.53,70.89,21.14,65.76Zm14.28,5c-.06-5.07-.89-10-4.15-14-2.61-3.28-5.55-2.82-7.3,1A17.89,17.89,0,0,0,22.67,67c.38,4.51,1.26,8.93,4.29,12.52,2.49,3,5.36,2.53,7.08-.93A15.7,15.7,0,0,0,35.42,70.8Z" transform="translate(1 1)" style="stroke:#000;stroke-miterlimit:10"/></g></svg>