<svg height="71.77mm" viewBox="0 0 127.09 203.43" width="44.83mm" xmlns="http://www.w3.org/2000/svg"><g transform="translate(-.97 -.99)"><path d="m128 99.71q0 39.5 0 79a26.72 26.72 0 0 1 -5.14 16 22.53 22.53 0 0 1 -14.78 9.29 11.14 11.14 0 0 1 -4.12.38 10.32 10.32 0 0 1 -6.91-4.77c-1.77-2.59-4.47-3.88-7-5.46-.37-.23-1-.09-1.48-.09h-49.21c-2.41 0-4.15 1.45-5.84 2.82a24.38 24.38 0 0 0 -3.36 3.65 8.6 8.6 0 0 1 -8.5 3.22 28.37 28.37 0 0 1 -9.28-3.23 19.08 19.08 0 0 1 -7.82-7.75 29 29 0 0 1 -3.56-14.77q0-78 0-156a20.73 20.73 0 0 1 7.76-16.45 20.13 20.13 0 0 1 9.16-4.12 28.8 28.8 0 0 1 5.92-.43h83.49a20.58 20.58 0 0 1 13.42 4.89 21.14 21.14 0 0 1 7.18 12.11 15.2 15.2 0 0 1 .09 3.24q0 39.24 0 78.49zm-120.5 88.79c-.1-.08 0-.49-.34-.2l.34.2a11.47 11.47 0 0 0 3.81 5.94 20.82 20.82 0 0 0 10.08 4.95c2.18.46 4.38.24 5.75-1.89a19.67 19.67 0 0 1 2.23-2.65c.17-.17.44-.47.38-.59-.14-.34-.54-.25-.85-.25-2.57 0-5.15 0-7.73 0a16.63 16.63 0 0 1 -5.55-.93 22.32 22.32 0 0 1 -8.12-4.58zm-2-91v43q0 17.13 0 34.24a12.91 12.91 0 0 0 .3 2.95 15.32 15.32 0 0 0 5 7.83 14 14 0 0 0 9.62 4q44.36 0 88.72 0a14.13 14.13 0 0 0 10.28-4.76 16.88 16.88 0 0 0 4.58-12.23q0-73.11 0-146.21a57.8 57.8 0 0 0 -.37-7.42 14.58 14.58 0 0 0 -4.7-9 15.84 15.84 0 0 0 -11-4.38q-43.35.09-86.72 0a19.07 19.07 0 0 0 -4.85.8c-6.06 1.58-11 9-10.92 15 .19 25.38.06 50.79.06 76.2zm98.75 96.5c-1.08 0-2.16 0-3.24 0-.9 0-1.81.08-2.71.13.1 1 1.12 1.29 1.59 2 .32.48.64 1 1 1.42a5.67 5.67 0 0 0 6.57 2.21c.4-.11.8-.19 1.19-.3a19.44 19.44 0 0 0 12.13-9.5c.13-.22.27-.49.08-.67s-.41.08-.58.22a18.58 18.58 0 0 1 -5.3 3.08 26.76 26.76 0 0 1 -10.73 1.41z"/><path d="m52 126a5.75 5.75 0 0 1 -6-5c-.2-2.19 2-5.24 4.17-5.56s4-.08 5.4 1.73c.34.44.57.83.1 1.3-.88.88-1.75 1.77-2.65 2.64a.71.71 0 0 1 -1.09 0 .78.78 0 0 1 -.07-1.28c.52-.53 1-1.09 1.58-1.59s.14-.78-.33-1a3.7 3.7 0 0 0 -5 2 4 4 0 0 0 2.08 5c2 .76 4.36-.4 4.78-2 .16-.64.36-1.27.57-1.89a.75.75 0 0 1 1.43.2c.27 1.87-.81 3.15-2 4.32a3.12 3.12 0 0 1 -2.97 1.13z"/><path d="m66.5 119.45a14.24 14.24 0 0 1 -.37 3.48 4.25 4.25 0 0 1 -3.27 3c-1.62.38-2.89-.49-3.87-1.7a6.15 6.15 0 0 1 -.94-3.26 29.19 29.19 0 0 1 0-4 1.47 1.47 0 0 1 .39-1.14c.45-.46.84-.39 1.26 0a1.81 1.81 0 0 1 .34 1.4v5a2.23 2.23 0 0 0 4.45 0c0-1.16 0-2.32 0-3.49v-1.74c0-.72.17-1.44 1-1.45s1 .71 1 1.43z"/><path d="m83 116.23c-.1.27-.17.5-.26.73-1.35 3.54-2.72 7.06-4.06 10.6a3.93 3.93 0 0 1 -2.45 2.31 1.26 1.26 0 0 1 -1.38-.23c-.46-.39-.43-.93.16-1.11a3.22 3.22 0 0 0 1.91-1 3.18 3.18 0 0 0 .34-3.43c-1-2.18-1.92-4.38-2.74-6.62-.2-.54-.94-1.51.23-1.85.8-.24 1 .52 1.26 1.18.75 2 1.57 4 2.37 6 .08.19.11.48.4.44.07 0 .1-.29.16-.44.67-1.86 1.33-3.71 2-5.56a7.31 7.31 0 0 1 .77-1.53.67.67 0 0 1 .91 0c.23.03.3.28.38.51z"/><path d="m68.48 119.89c0-1.41-.07-2.83 0-4.24.15-2.5 1.2-3.69 3.49-4.1a1.74 1.74 0 0 1 1.44.19c.26.19.54.4.51.8a1 1 0 0 1 -.57.76 2.56 2.56 0 0 1 -1.45.19 1.35 1.35 0 0 0 -1.25.69 2.11 2.11 0 0 0 -.39 1.12c0 .31.58.18.9.21a.69.69 0 0 1 .25 0c.55.28 1.49.26 1.44 1.06s-.82 1-1.53.89c-1.19-.1-1.32.54-1.32 1.54v4.5a12.3 12.3 0 0 1 0 1.5c-.06.43-.35.85-.78.81s-.66-.46-.71-.92c0-.16 0-.33 0-.5v-4.49z"/><path d="m64.7 161c-1.79 0-3.72-1.77-3.68-3.34a3.87 3.87 0 0 1 3.62-3.66 3.92 3.92 0 0 1 3.36 3.67 3.75 3.75 0 0 1 -3.3 3.33zm2.3-3.45a3 3 0 0 0 -2.31-2.55 3.28 3.28 0 0 0 -2.64 2.54c-.09.92 1.35 2.37 2.39 2.4a2.51 2.51 0 0 0 2.56-2.39z" stroke="#1d1d1b" stroke-miterlimit="10"/><path d="m66 134.15v-.49c0-1.58.18-1.73 1.42-1.66 1.43.09 2 .78 1.76 2.16a1.73 1.73 0 0 0 .15 1.41c.2.32.21.66-.15.82s-.62-.09-.84-.35c0-.07-.11-.13-.15-.2-.55-1.05-1-1.14-1.2.16 0 .24-.19.46-.52.4a.48.48 0 0 1 -.42-.51c0-.58 0-1.16 0-1.74zm1.93-.77a.43.43 0 0 0 -.55-.25.39.39 0 0 0 -.18.57.5.5 0 0 0 .39.15c.24-.01.34-.21.31-.47z"/><path d="m57.5 133a5.29 5.29 0 0 0 -1 0c-.48.1-1.36-.38-1.33.54 0 .6.81.28 1.23.43.14.05.36.15.37.23a.56.56 0 0 1 -.23.41 8.71 8.71 0 0 1 -.89.36c-.14.06-.27.14-.41.21.1.08.19.22.3.24a4.53 4.53 0 0 0 .74 0c.44 0 .93.22.93.65 0 .58-.61.34-.95.36-2.31.09-2.31.08-2.31-2.24a1.92 1.92 0 0 1 0-.24c.13-.68-.37-1.73.55-1.92s2.36-.64 3 .89z"/><path d="m65.5 133.81a2.3 2.3 0 0 1 -.89 2.33 1.65 1.65 0 0 1 -2.55-.47 3.55 3.55 0 0 1 -.45-2.86c.09-.32.36-.67.67-.6a1 1 0 0 1 .63.68 12.37 12.37 0 0 1 .1 1.73c0 .32 0 .7.46.75a.82.82 0 0 0 .89-.7 11 11 0 0 0 .11-1.73c0-.32 0-.73.41-.79.61-.09.59.42.62.82.02.25 0 .5 0 .84z"/><path d="m51.05 136.53a2.9 2.9 0 0 1 -.74-.18.7.7 0 0 1 -.27-.87c.06-.28.29-.29.55-.19a2.56 2.56 0 0 0 .71.18 1.3 1.3 0 0 0 .45-.14 1.43 1.43 0 0 0 -.28-.32c-.2-.13-.44-.21-.65-.35-.94-.63-1.14-1.51-.5-2.21a1.69 1.69 0 0 1 2.43.07.8.8 0 0 1 .15.67c-.08.26-.39.27-.63.2s-.44-.22-.67-.28a.35.35 0 0 0 -.46.4.53.53 0 0 0 .24.37 2.93 2.93 0 0 0 .73.11c1 .07 1.2.77 1.09 1.54a1.14 1.14 0 0 1 -1.44 1c-.16-.02-.33 0-.71 0z"/><path d="m57.5 133c.32-.24.64-.5 1-.72a1.73 1.73 0 0 1 2.06 0 .7.7 0 0 1 .34.84.47.47 0 0 1 -.63.21c-.54-.26-1.09-.61-1.24.36-.18 1.15 0 1.48 1 1.75a3.12 3.12 0 0 1 .7.18c.09 0 .16.27.14.4a.51.51 0 0 1 -.27.36c-1.83.58-2.88-.08-3.09-2a14.61 14.61 0 0 1 0-1.48z"/><path d="m79 132.61a7.82 7.82 0 0 0 -1.2 3.6c0 .11-.41.27-.62.25s-.59-.24-.58-.35a6.78 6.78 0 0 0 -1-3.51c0-.09.1-.28.17-.42a.74.74 0 0 1 .22.08 1.63 1.63 0 0 1 .38.3c.68.86 1.26 1 1.73-.17a.49.49 0 0 1 .61-.28c.08.04.14.25.29.5z"/><path d="m73.69 132a3.53 3.53 0 0 1 .77.06c.39.07.64.51.35.67-1.16.65-.71 1.71-.81 2.63 0 .39.11 1-.44 1-.78 0-.53-.65-.59-1.08a8.18 8.18 0 0 1 0-1 2.75 2.75 0 0 0 0-.5 1.48 1.48 0 0 0 -.12-.47c-.68-1.31-.68-1.31.84-1.31z"/><path d="m71.09 134.24c-.07.65-.12 1.3-.21 1.95 0 .08-.25.19-.38.18s-.36-.13-.38-.22a8.43 8.43 0 0 1 0-3.43.77.77 0 0 1 .52-.46c.28-.06.33.25.34.48v1.49z"/></g></svg>