<?xml version="1.0" encoding="utf-8"?>
<!-- Generator: Adobe Illustrator 17.0.0, SVG Export Plug-In . SVG Version: 6.00 Build 0)  -->
<!DOCTYPE svg PUBLIC "-//W3C//DTD SVG 1.1//EN" "http://www.w3.org/Graphics/SVG/1.1/DTD/svg11.dtd">
<svg version="1.1" id="Layer_1" xmlns="http://www.w3.org/2000/svg" xmlns:xlink="http://www.w3.org/1999/xlink" x="0px" y="0px"
	 width="623.192px" height="584.064px" viewBox="0 0 623.192 584.064" enable-background="new 0 0 623.192 584.064"
	 xml:space="preserve" xmlns:pulse="-">
<g>
	<path d="M213.372,326.656c-1.479-5.056-2.074-10.153-1.788-15.292c-2.888,3.653-6.123,7.662-9.819,12.16l-22.35,28.241
		c-7.254,9.288-15.466,18.703-22.052,28.538c-38.161,0-82.841-4.286-121.851-6.024c-0.829-0.068-1.667-0.104-2.513-0.109
		l-0.049-0.002l-0.06,0.001l-0.079-0.001C14.691,374.168,0,388.859,0,406.98c0,16.561,12.271,30.255,28.216,32.49
		c0.058,0.008,0.115,0.019,0.173,0.026l0.164,0.021l0.169,0.022c36.439,4.655,90.842,6.91,123.083,10.125
		c41.613,2.117,45.954-9.223,63.635-30.743c3.959-4.818,27.515-33.648,37.437-47.345c-2.836-1.857-5.551-3.745-8.146-5.665
		C227.82,353.402,217.367,340.316,213.372,326.656z M204.489,409.925c-4.958,6.035-11.328,15.207-17.461,19.878
		c-8.758,6.67-23.731,6.249-34.162,5.725c-40.656-4.036-81.809-4.877-122.35-10.047l-0.163-0.021
		c-0.056-0.008-0.111-0.017-0.167-0.024c-9.175-1.287-16.011-9.187-16.011-18.455c0-10.251,8.264-18.562,18.497-18.639l0.22,0.002
		l0.036-0.001c0.478,0.003,0.956,0.024,1.433,0.062l0.261,0.021l0.262,0.012c40.777,1.817,81.661,6.038,122.482,6.038h7.567
		l4.21-6.287c6.456-9.641,14.191-18.533,21.39-27.629l14.137-17.862c6.609,12.628,16.977,23.22,28.194,31.992
		C223.69,386.633,213.928,398.436,204.489,409.925z"/>
	<path d="M590.629,231.124c-32.586-0.526-66.591-2.061-98.589-2.593c-3.466-7.896-43.795-79.154-52.764-95.117
		c-10.008-16.903-33.114-42.071-52.549-47.335c-6.973-1.889-13.089-2.68-20.265-4.381l-61.097-12.844
		c-33.263-6.716-44.254-13.848-64.81,1.589c-19.418,14.584-46.036,38.486-66.337,54.303l-33.433,27.536
		c-4.552,4.484-9.366,13.1-9.366,21.766c0,23.674,27.655,37.714,46.173,25.418c14.62-9.707,69.387-58.744,83.547-68.225
		l60.968,12.972l-68.23,105.595c-12.668,18.916-18.7,29.094-26.643,40.564c-6.997,11.732-8.906,23.042-5.723,33.926
		c3.456,11.817,12.879,23.419,28.269,34.805c33.853,25.046,71.334,49.681,106.055,74.386l-43.24,82.588
		c-7.367,14.739-12.54,20.006-12.54,35.457c0,24.704,32.38,44.535,57.68,23.953c5.775-4.698,8.034-10.109,11.488-17.05
		l59.285-113.242c6.977-14.149,8.422-29.928-0.754-43.414c-5.548-8.153-86.955-65.192-99.162-73.366
		c0.916-3.932,22.011-35.613,26.982-43.066l28.811-43.833c3.873-5.834,14.256-23.263,18.621-30.49l30.409,54.075
		c15.586,25.968,21.343,23.137,58.624,23.099l76.528,2.601c12.173,0.657,29.353,1.426,37.598-2.628
		C632.546,275.202,628.948,230.716,590.629,231.124z M599.912,275.457c-5.227,2.57-24.304,1.533-30.579,1.194l-0.141-0.008
		l-76.917-2.615l-0.248,0c-6.779,0.007-28.837,1.156-34.697-1.747c-4.381-2.171-9.198-10.205-11.656-14.301l-42.229-75.092
		l-12.569,20.811c-6.018,9.964-11.953,20.326-18.333,30.032l-28.811,43.833c-4.526,6.886-9.088,13.742-13.568,20.659
		c-3.834,5.921-13.865,20.5-15.374,26.975l-2.224,9.542l8.141,5.452c16.701,11.183,33.271,23.147,49.579,34.898
		c10.216,7.362,20.416,14.789,30.43,22.425c3.665,2.795,7.326,5.624,10.885,8.554c1.43,1.177,3.413,2.732,4.727,4.123
		c5.831,8.982,4.048,19.377-0.46,28.589L356.6,551.992l-0.065,0.13c-2.011,4.041-4.142,9.44-7.744,12.37
		c-5.857,4.764-12.887,6.746-20.207,4.441c-5.871-1.849-11.266-6.41-13.418-12.262c-0.607-1.65-0.939-3.378-0.939-5.137
		c0-11.9,5.792-18.652,10.982-28.996l48.915-93.429l-10.074-7.168c-35.105-24.979-71.204-48.606-105.842-74.232
		c-8.857-6.553-19.883-16.403-23.095-27.39c-2.312-7.906,0.021-15.396,4.063-22.3c9.114-13.195,17.539-26.979,26.476-40.325
		l0.065-0.097l79.455-122.967l-86.943-18.499l-4.977,3.333c-6.22,4.165-12.442,9.454-18.218,14.232
		c-8.356,6.913-16.62,13.943-24.892,20.956c-8.114,6.879-16.225,13.77-24.434,20.536c-5.008,4.127-10.564,8.889-15.958,12.471
		c-9.614,6.384-24.159-1.854-24.159-13.611c0-3.65,2.244-8.572,4.788-11.307l32.701-26.933
		c22.384-17.455,43.33-37.017,65.985-54.031c3.898-2.928,8.276-5.667,13.206-6.302c4.471-0.576,9.683,0.399,14.053,1.307
		c8.731,1.815,17.378,4.104,26.125,5.943l60.925,12.807c6.516,1.533,13.202,2.482,19.647,4.228
		c15.404,4.172,35.989,27.323,43.981,40.744c8.614,15.331,17.27,30.637,25.866,45.978c5.805,10.36,11.6,20.728,17.32,31.134
		c2.841,5.168,6.514,11.264,8.874,16.613l3.654,8.322l9.088,0.151c32.872,0.547,65.722,2.063,98.596,2.593l0.19,0.003l0.19-0.002
		c7.638-0.081,15.134,2.372,17.546,10.305C610.652,263.25,607.155,271.895,599.912,275.457z"/>
	<path d="M488.159,111.793c36.376-16.191,46.656-63.277,19.144-93.104c-37.205-40.334-100.877-9.18-100.877,34.72
		c0,21.041,2.016,31.114,17.83,47.03C441.242,117.537,465.943,121.682,488.159,111.793z M423.06,41.2
		c5.394-13.09,18.512-22.573,32.044-25.776c15.753-3.729,30.81,0.982,41.781,12.875c20.693,22.434,13.367,58.146-14.49,70.546
		c-16.623,7.399-35.15,4.626-48.086-8.394c-12.758-12.84-13.711-19.318-13.711-37.041C420.599,49.197,421.457,45.09,423.06,41.2z"/>
</g>
<path pulse:undefined="true" fill="#FFFFFF" fill-rule="evenodd" clip-rule="evenodd" d="M420.599,53.409c0,17.723,0.953,24.2,13.711,37.041
	c12.936,13.02,31.463,15.793,48.086,8.395c27.857-12.399,35.183-48.112,14.49-70.546c-10.971-11.894-26.028-16.604-41.781-12.875
	c-13.532,3.203-26.65,12.686-32.044,25.776C421.457,45.09,420.599,49.197,420.599,53.409 M32.926,388.343l-0.036,0.001l-0.22-0.002
	c-10.233,0.077-18.497,8.388-18.497,18.639c0,9.268,6.836,17.168,16.011,18.455c0.056,0.008,0.111,0.016,0.167,0.024l0.163,0.021
	c40.541,5.17,81.694,6.011,122.35,10.047c10.431,0.524,25.404,0.945,34.162-5.725c6.134-4.671,12.503-13.843,17.461-19.878
	c9.439-11.488,19.201-23.292,28.371-35.234c-11.217-8.771-21.585-19.364-28.194-31.992l-14.137,17.862
	c-7.199,9.096-14.934,17.988-21.39,27.629l-4.21,6.287h-7.566c-40.821,0-81.705-4.221-122.482-6.038l-0.262-0.012l-0.261-0.021
	C33.882,388.367,33.404,388.346,32.926,388.343z M427.003,140.504c-7.991-13.422-28.577-36.572-43.981-40.744
	c-6.446-1.746-13.132-2.694-19.647-4.228l-60.925-12.808c-8.747-1.839-17.394-4.128-26.125-5.943
	c-4.37-0.908-9.582-1.883-14.053-1.307c-4.93,0.635-9.308,3.375-13.206,6.302c-22.655,17.014-43.6,36.576-65.985,54.031
	l-32.701,26.933c-2.544,2.735-4.788,7.658-4.788,11.307c0,11.757,14.545,19.994,24.159,13.611
	c5.394-3.582,10.95-8.344,15.958-12.471c8.208-6.766,16.32-13.657,24.434-20.536c8.272-7.013,16.536-14.043,24.892-20.956
	c5.776-4.778,11.998-10.067,18.218-14.232l4.977-3.333l86.943,18.499l-79.455,122.967l-0.065,0.097
	c-8.937,13.345-17.362,27.13-26.476,40.325c-4.042,6.904-6.375,14.394-4.063,22.3c3.213,10.987,14.238,20.837,23.095,27.389
	c34.638,25.626,70.737,49.253,105.842,74.232l10.074,7.168l-48.915,93.429c-5.19,10.344-10.982,17.096-10.982,28.996
	c0,1.76,0.332,3.488,0.939,5.137c2.152,5.852,7.547,10.414,13.418,12.262c7.32,2.305,14.35,0.323,20.207-4.441
	c3.602-2.93,5.732-8.33,7.744-12.37l0.065-0.13l59.268-113.21c4.508-9.213,6.291-19.607,0.46-28.589
	c-1.314-1.391-3.297-2.945-4.727-4.123c-3.559-2.93-7.219-5.759-10.884-8.553c-10.014-7.636-20.213-15.063-30.43-22.425
	c-16.308-11.751-32.879-23.716-49.579-34.898l-8.141-5.452l2.224-9.542c1.509-6.475,11.539-21.054,15.374-26.975
	c4.48-6.917,9.042-13.773,13.568-20.659l28.811-43.833c6.38-9.706,12.315-20.068,18.333-30.032l12.569-20.811l42.229,75.092
	c2.458,4.096,7.275,12.13,11.656,14.301c5.861,2.904,27.919,1.754,34.697,1.747l0.248,0l76.917,2.615l0.141,0.008
	c6.275,0.339,25.352,1.376,30.579-1.194c7.243-3.562,10.74-12.206,8.414-19.856c-2.412-7.932-9.907-10.386-17.546-10.305
	l-0.19,0.002l-0.19-0.003c-32.874-0.53-65.724-2.046-98.596-2.593l-9.088-0.151l-3.654-8.322c-2.36-5.349-6.033-11.445-8.874-16.613
	c-5.721-10.406-11.516-20.775-17.32-31.134C444.273,171.141,435.616,155.835,427.003,140.504z"/>
</svg>
