<svg id="f22378ed-5fd8-4092-a95a-bee885e7ba9e" data-name="Layer 2" xmlns="http://www.w3.org/2000/svg" width="208.98" height="534.26" viewBox="0 0 208.98 534.26"><path d="M206.17,6.84A7.78,7.78,0,0,1,208,12.13c0,1.17,0,2.34,0,3.5V524.82c0,5.92-2.66,8.77-8.53,9.12-.92.06-1.84,0-2.75,0H14.27c-1,0-2,0-3,0-5.6-.42-8.23-3.23-8.3-8.85,0-1.25,0-2.5,0-3.75Q3,267.23,3,13.14c0-2.3.23-4.5,1.86-6.3l.38.32a7.88,7.88,0,0,0-1.12,3c0,.31,0,.82.14.9.36.18.52-.25.68-.51A9.43,9.43,0,0,1,7.69,7.79c.87-.63,3.13-.46,2.35-2.09S7.76,5.54,6.6,6a4.64,4.64,0,0,0-.44.23l-.32-.38c1.85-1.74,4.15-1.9,6.52-1.9H198.64c2.37,0,4.67.16,6.52,1.9-.11.13-.22.25-.32.38a3.81,3.81,0,0,0-.45-.23c-1.16-.44-2.63-1.8-3.48-.24S202.57,6.93,203,8a5.61,5.61,0,0,0-4.59,1c-3,2-6.64,2-10.1,2.35-3,.29-2,2.43-2.18,4.09-.16,2,1.2,2,2.63,2a53.92,53.92,0,0,0,16.76-2c-.76,1.2-2.09,1.26-3.26,1.6-4.47,1.29-9.1.87-13.65,1.29-2,.19-2.68.9-2.51,2.77.07.74,0,1.5,0,2.25V514.61a16.51,16.51,0,0,1,0,2c-.27,2.2.68,2.87,2.85,2.89,5.24,0,10.53.12,15.52,2,1.7.64,2.08.21,2-1.38,0-.67,0-1.34,0-2V20.16c0-.91,0-1.83,0-2.75a1.9,1.9,0,0,0-.87-1.93c1.32-1.79.71-3.45-.44-5C204.46,9.6,203.71,8.83,203,8c1,0,1.56.76,2.24,1.34s.9,2,1.48,1.59.07-1.63-.29-2.46c-.2-.44-.43-.88-.64-1.32ZM5.47,15.48c-1.42,1-.85,2.43-.85,3.68q0,249.84,0,499.69c0,.66,0,1.33,0,2,0,.86.34,1.25,1.24.89,5.38-2.16,11.07-2.15,16.72-2.28,1.7,0,2.49-.62,2.34-2.35-.05-.67,0-1.34,0-2V22.92c0-.67-.05-1.34,0-2,.12-1.64-.49-2.46-2.26-2.47a64.44,64.44,0,0,1-7.22-.4c-3.41-.41-7-.12-9.92-2.54a52.44,52.44,0,0,0,15.76,2c3.66-.06,3.75-.16,3.67-3.79,0-1.64-.8-2.12-2.25-2.3-4.1-.51-8.36-.56-11.77-3.46A1.5,1.5,0,0,0,10,7.75C6.54,8,4,12.4,5.47,15.48ZM25.59,268.75V515.46c0,4,0,4,3.94,4h152c3.89,0,3.9,0,3.9-4V22.49c0-4,0-4-3.94-4h-152c-.5,0-1,0-1.5,0-1.65-.11-2.53.54-2.4,2.31.06.91,0,1.83,0,2.75Zm80-264.15q-45.6,0-91.19,0c-1,0-2.68-.68-3,.86s.77,2.66,2.2,3.26a22.93,22.93,0,0,0,2.83.95,37,37,0,0,0,9.67.81H185c1.75,0,3.5,0,5.25-.12A23.46,23.46,0,0,0,196.81,9c1.61-.57,3.07-1.65,2.81-3.37-.28-1.88-2.19-1-3.34-1Q150.92,4.56,105.58,4.6Zm-.06,521.81h76c.84,0,1.67,0,2.5,0a1.36,1.36,0,0,0,1.37-1.19c1-3.66-.07-5.08-3.79-5.08H29.38c-.75,0-1.5,0-2.25,0a1.46,1.46,0,0,0-1.4.85c-1.34,2.88.2,5.42,3.32,5.43Zm0,6.55q45.61,0,91.21,0c1,0,2.47.61,2.79-.8s-.69-2.34-1.89-2.94a10.93,10.93,0,0,0-2.32-.9,38.19,38.19,0,0,0-8.89-1.18q-81,0-161.92,0A28.79,28.79,0,0,0,14,528.89c-1.49.59-2.86,1.67-2.47,3.31.33,1.42,2,.73,3.08.73Q60,533,105.53,533Zm-.31-515.48h52c8.41,0,16.83,0,25.24,0,.95,0,2.23.39,2.69-.74a6,6,0,0,0,0-4.39c-.49-1.26-1.89-.79-2.91-.79q-18.61,0-37.22,0-58,0-115.94,0c-2.16,0-3.62.09-3.56,3,0,2.51,1,3,3.26,3Q67,17.42,105.22,17.48ZM24.9,523.72c0-3.61-.26-3.85-3.54-3.52-1.9.19-3.8.32-5.71.36a27.93,27.93,0,0,0-8.08,1.3c-3.18,1-3.67,2.67-1.78,5.46,1.42,2.08,4.16,3.46,5.43,2.42,3.18-2.62,7-2.87,10.8-3.2C24.24,526.35,25.33,525.77,24.9,523.72Zm161.19-.26c-.45,2.08.5,2.91,3,3.1,3.67.27,7.51.5,10.54,3.16.66.58,1.42.33,2.13.14,2.29-.6,4.72-3.43,4.43-5.46-.32-2.29-2.46-2.4-4.15-2.92-4.19-1.28-8.58-.71-12.86-1.29C186.44,519.81,186.11,520.21,186.09,523.46ZM202,532.8c2,.08,5-3,5-5.16a4.58,4.58,0,0,0-.12-.71c-.19.09-.48.12-.57.27a8.28,8.28,0,0,1-4.79,3.69.94.94,0,0,0-.64,1.18A1,1,0,0,0,202,532.8ZM4.07,527.54a6.49,6.49,0,0,0,4.39,5.16c.67.14,1.39.26,1.7-.54s-.31-1.22-1-1.44A7.62,7.62,0,0,1,5,527.49a3.39,3.39,0,0,0-.69-.61Z" transform="translate(-1.01 -1.74)"/><path d="M205.66,6.33l.51.51-.37.32-.46-.5Z" transform="translate(-1.01 -1.74)"/><path d="M4.83,6.84l.51-.51.33.33-.46.5Z" transform="translate(-1.01 -1.74)"/><path d="M205.16,5.83l.5.5-.32.33-.5-.45C204.94,6.08,205.05,6,205.16,5.83Z" transform="translate(-1.01 -1.74)"/><path d="M5.34,6.33l.5-.49.32.37-.49.45Z" transform="translate(-1.01 -1.74)"/><path d="M26,268.73q0-117.11,0-234.22a31.26,31.26,0,0,1,.11-3.75,6.77,6.77,0,0,1,7-6.41c1.92-.06,3.84,0,5.75,0H175.63c7.15,0,9.35,2.23,9.35,9.46q0,235,0,470a24,24,0,0,1-.25,4,6.76,6.76,0,0,1-6.49,5.87c-.91.07-1.83,0-2.75,0H36c-7.83,0-10-2.12-10-9.91Q26,386.22,26,268.73Zm157.36,14.92v-221c0-4,0-4-3.89-4H32c-4.84,0-4.39-.4-4.39,4.49V503.9c0,1-.06,2,0,3A5.37,5.37,0,0,0,32.88,512c.75.05,1.5,0,2.25,0H175.88c.75,0,1.5,0,2.25,0a5.35,5.35,0,0,0,5.22-5.05c.1-1,0-2,0-3ZM105.52,57.45H180c3.38,0,3.39,0,3.4-3.26,0-7.17,0-14.33,0-21.49,0-5-2-7.05-6.92-7.05H34.52c-4.82,0-6.87,2.06-6.89,6.84,0,7.16,0,14.32,0,21.49,0,3.45,0,3.47,3.44,3.47Z" transform="translate(-1.01 -1.74)"/><path d="M105.29,528.39c1.4.3,3.45-.31,3.4,1.66,0,1.68-2,1.4-3.22,1.39s-3.14.3-3.17-1.45S104.24,528.76,105.29,528.39Zm.39,1.06c-.66.14-1.72-.3-1.87.55-.12.64.88.46,1.39.46.7,0,1.85.3,2-.38C107.34,529.23,106.23,529.64,105.68,529.45Z" transform="translate(-1.01 -1.74)"/><path d="M94.12,528.49a5.4,5.4,0,0,1,1.1.12c.75.16,1.46.46,1.42,1.43s-.69,1.12-1.35,1.21a12.27,12.27,0,0,1-3,.13c-.92-.11-2.26-.11-2.16-1.5s1.35-1.25,2.32-1.39C92.82,528.45,93.16,528.49,94.12,528.49Zm-.89,2c.67-.17,1.9.29,1.92-.48s-1.17-.54-1.83-.54-1.92-.29-1.94.45S92.56,530.34,93.23,530.51Z" transform="translate(-1.01 -1.74)"/><path d="M118.22,528.48a6.25,6.25,0,0,1,1.18.14c.73.19,1.5.44,1.47,1.41s-.72,1.1-1.38,1.19a12.2,12.2,0,0,1-2.95.18c-.92-.1-2.24-.09-2.15-1.51s1.32-1.27,2.28-1.4A13.91,13.91,0,0,1,118.22,528.48Zm-.48,2c.67-.14,1.88.26,1.89-.51s-1.21-.5-1.89-.5-1.89-.29-1.89.49S117.06,530.36,117.74,530.5Z" transform="translate(-1.01 -1.74)"/><path d="M81.56,528.43a15.42,15.42,0,0,1,1.59.19c.67.15,1.26.45,1.29,1.27s-.52,1.15-1.19,1.36a6.58,6.58,0,0,1-3.44.06c-.78-.18-1.78-.28-1.7-1.42s1-1.17,1.83-1.33A14.19,14.19,0,0,1,81.56,528.43Zm0,1c-.7.21-2-.31-2.19.47s1,.55,1.53.57c.8,0,2.06.37,2.27-.38S82.18,529.64,81.54,529.42Z" transform="translate(-1.01 -1.74)"/><path d="M129.43,531.56a8.09,8.09,0,0,1-2.07-.49c-1.2-.65-1.2-1.59,0-2.23a4.14,4.14,0,0,1,2.16-.35c1.31.09,3.35-.38,3.28,1.58C132.73,531.72,130.74,531.23,129.43,531.56Zm.33-1c.68-.16,1.89.26,1.88-.54s-1.23-.47-1.91-.48-1.89-.28-1.87.51S129.1,530.33,129.76,530.51Z" transform="translate(-1.01 -1.74)"/><path d="M105.57,197.12a56.32,56.32,0,1,1,56.28-56.33A56.15,56.15,0,0,1,105.57,197.12Zm-.2-2.19a54.18,54.18,0,1,0-54.12-54A53.79,53.79,0,0,0,105.37,194.93Z" transform="translate(-1.01 -1.74)"/><path d="M105.46,349.38c31.85-.59,59.28,26.08,59.17,59a59.13,59.13,0,1,1-118.25-.16C46.32,375.4,73.69,348.84,105.46,349.38Zm.07,1.66A57.13,57.13,0,0,0,48.08,408c0,32,25.51,57.88,57.15,57.91a57.43,57.43,0,1,0,.3-114.86Z" transform="translate(-1.01 -1.74)"/><path d="M82.59,271.52a6.3,6.3,0,0,0-6.47,5.38A6.51,6.51,0,0,0,81,284.52a6.59,6.59,0,0,0,7.69-3.59,9,9,0,0,0,.61-1.9c.22-1,.24-2.25,1.66-2s1.21,1.63,1,2.66a9.18,9.18,0,0,1-5.9,7.2,9.08,9.08,0,0,1-9.4-1.54,9.46,9.46,0,1,1,12.53-14.14c1.22,1.18,1.37,2.13.06,3.31s-2.59,2.59-3.93,3.84c-.64.59-1.45,1-2.21.24s-.23-1.54.32-2.2a13,13,0,0,0,1-1.1c.61-.91,2.39-1.4,1.77-2.66S83.92,271.59,82.59,271.52Z" transform="translate(-1.01 -1.74)"/><path d="M124.38,293.87a1.2,1.2,0,0,1-1.13-1c-.22-1.14.74-1.27,1.56-1.51,3.34-1,4.6-3.45,3.34-6.62-1.69-4.25-3.42-8.48-5.09-12.73-.37-1-1.11-2.21.34-2.8s1.82.76,2.2,1.74c1.34,3.49,2.63,7,4,10.49.15.42.16,1.11.77,1,.23,0,.45-.64.59-1,1.34-3.58,2.65-7.17,4-10.74.35-.91.72-2.14,2-1.6,1.12.47.69,1.54.36,2.4-2.31,6.06-4.58,12.13-7,18.15A5.83,5.83,0,0,1,124.38,293.87Z" transform="translate(-1.01 -1.74)"/><path d="M94.42,275.82c0-1.5,0-3,0-4.49,0-1,0-2.21,1.43-2.16,1.2.05,1.23,1.18,1.24,2.1,0,2.75,0,5.49,0,8.23,0,1.95.65,3.61,2.55,4.49,2.88,1.32,5.75-.54,6.06-4.11.21-2.48.07-5,.1-7.48,0-.66,0-1.33.06-2s.44-1.3,1.24-1.3a1.27,1.27,0,0,1,1.28,1.29c.1,3.89.67,7.84-.29,11.66a6.61,6.61,0,0,1-7.47,4.85c-3.65-.46-5.93-2.73-6.21-6.35-.13-1.57,0-3.16,0-4.74Z" transform="translate(-1.01 -1.74)"/><path d="M112.43,276.81c0-2.58-.13-5.17,0-7.74.27-4.48,3.71-7.56,7.48-6.84.88.16,2,.25,1.91,1.5s-1.18.9-2,1c-1.9.16-3.62.59-4.32,2.72-.4,1.2-.3,2,1.2,1.95.5,0,1,0,1.5.05.78.07,1.57.25,1.64,1.19a1.24,1.24,0,0,1-1.48,1.32c-3.48-.38-3.39,1.81-3.3,4.23.11,2.74,0,5.49,0,8.24,0,1,.12,2.28-1.26,2.31-1.55,0-1.41-1.35-1.43-2.41,0-2.5,0-5,0-7.49Z" transform="translate(-1.01 -1.74)"/><path d="M108.37,304.57a6.68,6.68,0,0,1,0-1c.16-1.06-.52-2.58,1-3a5.09,5.09,0,0,1,4.54.52c1.22.92,1,2.12.42,3.35-.5,1,.19,1.91.5,2.83.18.52.63,1.15-.13,1.51s-1.1-.16-1.42-.68c-.22-.35-.4-.73-.6-1.09-.37-.65-.69-1.42-1.61-1.32s-.89,1-1,1.72-.13,1.28-.91,1.22-.77-.76-.79-1.34c0-.91,0-1.82,0-2.73Zm3.08-.75c.6-.07,1.22-.23,1.19-1s-.73-.77-1.3-.75-1,.19-1,.8C110.24,303.7,110.83,303.81,111.45,303.82Z" transform="translate(-1.01 -1.74)"/><path d="M84.41,304.63c0-4.16,1-4.95,5.07-4.21.49.08,1.09.09,1.14.71s-.52.72-1,.85c-1.06.29-2.9-.56-3.07.79-.22,1.76,1.77.76,2.69,1.23.32.16.6.34.54.7a.79.79,0,0,1-.46.53,6,6,0,0,1-1.21.25c-.69.13-1.72-.11-1.66,1s1.06.82,1.77.89c.42,0,.84,0,1.25.05s1.11,0,1.15.69c0,.81-.68.79-1.24.88C85.32,309.68,84.41,308.87,84.41,304.63Z" transform="translate(-1.01 -1.74)"/><path d="M80.08,300.38a8.82,8.82,0,0,1,1.55.29c.67.22,1.27.73,1,1.49-.31.94-1,.49-1.65.26a5.09,5.09,0,0,0-1.43-.31c-.52,0-1,.15-1.07.78s.37.74.77.86c.64.18,1.31.25,1.94.45a2.24,2.24,0,0,1,1.7,2.46,2.3,2.3,0,0,1-2,2.21,5.13,5.13,0,0,1-2.72-.1c-.8-.27-1.77-.66-1.35-1.7s1.19-.48,1.87-.07,1.59.6,1.9-.3c.4-1.15-.75-1.06-1.39-1.21-1.79-.4-2.94-1.34-2.63-3.28C76.85,300.5,78.29,300.41,80.08,300.38Z" transform="translate(-1.01 -1.74)"/><path d="M107.1,303.46a13.3,13.3,0,0,1-.1,1.86c-.38,1.86-1.32,3.38-3.36,3.43s-3.07-1.38-3.56-3.23A1.2,1.2,0,0,1,100,305c.14-1.48-.8-4,.79-4.18,1.92-.19.91,2.29,1.18,3.59.21,1.06.12,2.38,1.64,2.3,1.31-.06,1.32-1.26,1.4-2.26,0-.33,0-.67,0-1,.15-1-.33-2.7,1-2.7C107.75,300.78,106.73,302.61,107.1,303.46Z" transform="translate(-1.01 -1.74)"/><path d="M95.83,300.37a4.82,4.82,0,0,1,1,.09c.7.18,1.69.34,1.54,1.26s-1,.64-1.68.49c-.89-.2-2-.48-2.44.54a4.8,4.8,0,0,0,0,3.86c.46,1.09,1.51.76,2.4.54.57-.14,1.25-.37,1.48.36s-.56,1.09-1.15,1.31c-2.71,1-5-.51-5-3.47C91.79,301.43,92.6,300.35,95.83,300.37Z" transform="translate(-1.01 -1.74)"/><path d="M105.5,238.09a5.84,5.84,0,1,1,6.06-5.9A5.84,5.84,0,0,1,105.5,238.09Zm0-.67a5.17,5.17,0,1,0-5.33-5.13A5.4,5.4,0,0,0,105.47,237.42Z" transform="translate(-1.01 -1.74)"/><path d="M130.78,308.65a.83.83,0,0,1-.86-1c.2-2.18-.89-3.82-2.13-5.42-.34-.46-.8-1.08-.16-1.53s1.3.08,1.62.66c1,1.89,1.91,1.66,2.86-.06.34-.6,1-1.14,1.65-.69.81.56.07,1.23-.28,1.69-1.18,1.55-2.16,3.14-1.94,5.22A.93.93,0,0,1,130.78,308.65Z" transform="translate(-1.01 -1.74)"/><path d="M122.78,300.34a16.52,16.52,0,0,1,2.33.19c.76.17,1,1,.29,1.18-2.34.72-1.61,2.56-1.73,4.1,0,.66,0,1.33-.09,2a.79.79,0,0,1-.77.82.78.78,0,0,1-.8-.79c-.06-1.07-.06-2.15-.1-3.23a3.64,3.64,0,0,0-.38-2.17c-.43-.6-2-.42-1.43-1.56C120.62,299.89,122,300.61,122.78,300.34Z" transform="translate(-1.01 -1.74)"/><path d="M118.56,304.66c0,.91,0,1.82,0,2.72,0,.59-.12,1.24-.89,1.23s-.77-.58-.77-1.08q0-2.83,0-5.67c0-.49.11-1.08.74-1.11.79-.05.87.63.9,1.2,0,.9,0,1.81,0,2.71Z" transform="translate(-1.01 -1.74)"/><path d="M107.15,72.83c1.19,1.2,1.3,2.5,0,3.63a2.42,2.42,0,0,1-3.37,0c-1.26-1.12-1.15-2.43,0-3.63l.31.35c-.51,1-.81,2,.31,2.83a1.65,1.65,0,0,0,2.06,0c1.12-.82.82-1.82.31-2.84C106.94,73.06,107.05,73,107.15,72.83Z" transform="translate(-1.01 -1.74)"/><path d="M103.85,72.83a2.19,2.19,0,0,1,3.3,0c-.1.12-.21.23-.31.34h-2.68Z" transform="translate(-1.01 -1.74)"/><path d="M105.53,89.25c29,0,51.78,23,51.58,52.33a51.2,51.2,0,0,1-51.64,50.84c-30.45,0-52-24.92-51.67-52.65S77.32,89.19,105.53,89.25ZM105.41,191a50.2,50.2,0,1,0-50.19-50.2A49.86,49.86,0,0,0,105.41,191Z" transform="translate(-1.01 -1.74)"/><path d="M160.64,408.52A55.14,55.14,0,1,1,50.37,408c0-30.82,26-55,55.51-54.77C135,353.43,160.85,377.47,160.64,408.52Zm-55-54a53.62,53.62,0,0,0-54,53.38c-.1,30.08,23.83,54.42,53.57,54.48a53.84,53.84,0,0,0,54.29-53.5C159.53,378.54,135.83,354.59,105.62,354.52Z" transform="translate(-1.01 -1.74)"/><path d="M128.15,178.19c-11,6.76-22.79,8.06-35.15,4.59a32.55,32.55,0,0,1-10.15-4.59l.3-.38a46.35,46.35,0,0,0,21.85,6.1,45.84,45.84,0,0,0,22.85-6.11Z" transform="translate(-1.01 -1.74)"/><path d="M144.68,121.36q10,20.65-1,40.79l-.37-.3A47.72,47.72,0,0,0,148.53,140c-.08-6.48-1.88-12.45-4.22-18.36Z" transform="translate(-1.01 -1.74)"/><path d="M83.85,102.81a41.45,41.45,0,0,1,25.63-5.65,34.76,34.76,0,0,1,13.66,3.65c-.09.13-.18.25-.26.38l-2.35-.82a43.76,43.76,0,0,0-16.12-2.63,45.47,45.47,0,0,0-20.27,5.45Z" transform="translate(-1.01 -1.74)"/><path d="M65.81,159.14c-5.87-12.68-5.55-25.27.51-37.78l.37.27c-2,5.2-3.82,10.41-4.15,16.08a48.68,48.68,0,0,0,3.65,21.17Z" transform="translate(-1.01 -1.74)"/><path d="M66.84,120.38a27.65,27.65,0,0,1,6-8.54l.39.32-6,8.49Z" transform="translate(-1.01 -1.74)"/><path d="M138.19,111.84a27.37,27.37,0,0,1,6,8.54l-.35.26-6-8.48Z" transform="translate(-1.01 -1.74)"/><path d="M138.68,169.15a25,25,0,0,1-7.53,7l-.31-.37a78,78,0,0,0,7.46-7Z" transform="translate(-1.01 -1.74)"/><path d="M77.35,174.18a16.87,16.87,0,0,1-5-5l.38-.31,5,5Z" transform="translate(-1.01 -1.74)"/><path d="M134.15,107.82a12.82,12.82,0,0,1,4,4l-.39.32-4-4C134,108.07,134.05,108,134.15,107.82Z" transform="translate(-1.01 -1.74)"/><path d="M72.81,111.84a12.92,12.92,0,0,1,4-4l.31.38-4,4Z" transform="translate(-1.01 -1.74)"/><path d="M143.68,162.15a15.13,15.13,0,0,1-3,4.51l-.39-.31,3-4.5Z" transform="translate(-1.01 -1.74)"/><path d="M70.31,166.66a14.24,14.24,0,0,1-3-4.53l.36-.28,3,4.5Z" transform="translate(-1.01 -1.74)"/><path d="M127.13,102.84a13.93,13.93,0,0,1,4.53,3l-.31.39-4.5-3Z" transform="translate(-1.01 -1.74)"/><path d="M79.34,105.8a15.13,15.13,0,0,1,4.51-3l.29.37-4.49,3Z" transform="translate(-1.01 -1.74)"/><path d="M123.14,100.81a10.22,10.22,0,0,1,4,2l-.28.35-4-2C123,101.06,123.05,100.94,123.14,100.81Z" transform="translate(-1.01 -1.74)"/><path d="M82.85,178.19a8.86,8.86,0,0,1-3-2l.32-.39,3,2Z" transform="translate(-1.01 -1.74)"/><path d="M131.15,176.17a8.46,8.46,0,0,1-3,2l-.3-.39,3-2Z" transform="translate(-1.01 -1.74)"/><path d="M79.84,176.19a8.09,8.09,0,0,1-2.49-2l.3-.37c.84.66,1.68,1.32,2.51,2Z" transform="translate(-1.01 -1.74)"/><path d="M140.7,166.66a8,8,0,0,1-2,2.49l-.38-.31,2-2.49Z" transform="translate(-1.01 -1.74)"/><path d="M67.34,162.13a6.43,6.43,0,0,1-1.53-3l.38-.26c.5,1,1,2,1.51,3Z" transform="translate(-1.01 -1.74)"/><path d="M131.66,105.8a7.75,7.75,0,0,1,2.49,2c-.1.13-.2.25-.31.37l-2.49-2Z" transform="translate(-1.01 -1.74)"/><path d="M76.85,107.82a7.86,7.86,0,0,1,2.49-2l.31.39-2.49,2Z" transform="translate(-1.01 -1.74)"/><path d="M72.32,169.15a7.83,7.83,0,0,1-2-2.49l.39-.31,2,2.49Z" transform="translate(-1.01 -1.74)"/><path d="M144.16,120.38l.52,1-.37.26c-.17-.32-.33-.65-.5-1Z" transform="translate(-1.01 -1.74)"/><path d="M66.32,121.36l.52-1,.36.27-.51,1Z" transform="translate(-1.01 -1.74)"/><path d="M26.75,58.25V505c0,5.48,2.27,7.75,7.75,7.75h143c4,0,6.56-2.51,6.75-6.5,0-.42,0-.83,0-1.25V60.5c0-9.42-.09-18.83,0-28.25A7.12,7.12,0,0,0,177,24.92q-71.5.2-143,0a7.11,7.11,0,0,0-7.29,7.33c.14,7.83,0,15.67.06,23.5,0,.74-.33,1.55.23,2.25" transform="translate(-1.01 -1.74)" style="fill:none;stroke:#000;stroke-linecap:round;stroke-linejoin:round;stroke-width:3px"/><path d="M207.25,15.25q0,252.63,0,505.25a50.43,50.43,0,0,0,.2,6c.36,3-2.47,6.41-5.46,6.72a46.38,46.38,0,0,1-5,.26q-91.87,0-183.75,0c-2.88,0-5.81.19-8.06-2.43a6.1,6.1,0,0,1-1.63-4.54c.4-4.51.17-9,.17-13.51q0-247.75,0-495.5a50.43,50.43,0,0,0-.2-6A6.44,6.44,0,0,1,8.75,4.75,17.9,17.9,0,0,1,13,4.24l185,0c3.72,0,7.26.46,9,4.49.9,2.09.31,4.17,0,6.25" transform="translate(-1.01 -1.74)" style="fill:none;stroke:#000;stroke-linecap:round;stroke-linejoin:round;stroke-width:5px"/><path d="M185.75,11.5v515" transform="translate(-1.01 -1.74)" style="fill:none;stroke:#000;stroke-linecap:round;stroke-linejoin:round;stroke-width:3px"/><path d="M25.25,11.5v515" transform="translate(-1.01 -1.74)" style="fill:none;stroke:#000;stroke-linecap:round;stroke-linejoin:round;stroke-width:3px"/><path d="M105.25,89.75c-5.34.39-10.65.91-15.75,2.74-16.94,6.08-28.15,17.51-33,35-4.27,15.35-1.66,29.59,7.34,42.46C73,183,85.71,190.22,101.75,191.52a50.44,50.44,0,0,0,54.09-43c3.08-21-4.84-38-22.37-50.19A46.61,46.61,0,0,0,107,90a11.14,11.14,0,0,1-1.5-.24" transform="translate(-1.01 -1.74)" style="fill:none;stroke:#000;stroke-linecap:round;stroke-linejoin:round;stroke-width:2px"/><path d="M10.5,4.75c.36,3,2.12,4.3,5,5.09a35.49,35.49,0,0,0,9.78,1.32c52.67-.45,105.33,0,158-.16a48.85,48.85,0,0,0,12.27-1.18c2.87-.74,4.62-2.09,5-5.07" transform="translate(-1.01 -1.74)" style="fill:none;stroke:#000;stroke-linecap:round;stroke-linejoin:round;stroke-width:3px"/><path d="M206.75,523c-4.31-2.65-9.19-2.91-14-3-56.75-.63-113.5-.17-170.25-.23A57.24,57.24,0,0,0,8.24,521.2c-1.48.38-2.54,1.48-4,1.8" transform="translate(-1.01 -1.74)" style="fill:none;stroke:#000;stroke-linecap:round;stroke-linejoin:round;stroke-width:3px"/><path d="M10.5,533c.72-4.83,4.68-5,8.25-5.74a51.44,51.44,0,0,1,10-.51h158a43.9,43.9,0,0,1,8.73,1.09,5.76,5.76,0,0,1,5,5.17" transform="translate(-1.01 -1.74)" style="fill:none;stroke:#000;stroke-linecap:round;stroke-linejoin:round;stroke-width:3px"/><path d="M185.5,18Q104.25,18,23,18A61.89,61.89,0,0,1,9,16.82C7.27,16.43,5.89,15.43,4.25,15" transform="translate(-1.01 -1.74)" style="fill:none;stroke:#000;stroke-linecap:round;stroke-linejoin:round;stroke-width:3px"/><path d="M27.25,58h156.5" transform="translate(-1.01 -1.74)" style="fill:none;stroke:#000;stroke-linecap:round;stroke-linejoin:round;stroke-width:3px"/><path d="M95.75,269.75c0,3.33,0,6.67,0,10a5.75,5.75,0,0,0,5.49,6,5.84,5.84,0,0,0,6-5.75c.1-3.33,0-6.67-.1-10" transform="translate(-1.01 -1.74)" style="fill:none;stroke:#000;stroke-linecap:round;stroke-linejoin:round;stroke-width:2px"/><path d="M88.25,272.25A8.08,8.08,0,0,0,75,280.75c1.22,3.35,5,5.94,8.25,5.48,4.57-.65,7.16-3.57,7.5-8" transform="translate(-1.01 -1.74)" style="fill:none;stroke:#000;stroke-linecap:round;stroke-linejoin:round;stroke-width:2px"/><path d="M206.75,15c-4.24,2.18-8.81,2.74-13.5,2.76-2.42,0-4.83.16-7.25.24" transform="translate(-1.01 -1.74)" style="fill:none;stroke:#000;stroke-linecap:round;stroke-linejoin:round;stroke-width:3px"/><path d="M98.75,301.75a8.56,8.56,0,0,0-1-.24c-1.54-.19-3.39-1.07-4.42.54-.91,1.41-.52,3.34-.25,4.94.32,1.84,2.14,1.25,3.42,1.22a5.29,5.29,0,0,0,1.75-.71" transform="translate(-1.01 -1.74)" style="fill:none;stroke:#000;stroke-linecap:round;stroke-linejoin:round;stroke-width:2px"/><path d="M121.25,263.75c-5-1-7.28,1.5-7.35,6.75s0,10.5-.15,15.75" transform="translate(-1.01 -1.74)" style="fill:none;stroke:#000;stroke-linecap:round;stroke-linejoin:round;stroke-width:2px"/><path d="M124,270.5c2,4.85,3.39,9.91,6,14.52,1.06,1.9-.38,3.61-1.24,5.22s-2.3,2.84-4.47,2.28c-.14,0-.33.15-.5.23" transform="translate(-1.01 -1.74)" style="fill:none;stroke:#000;stroke-linecap:round;stroke-linejoin:round;stroke-width:2px"/><path d="M136.25,270.5c-1.79,4.88-3.15,9.94-5.75,14.5" transform="translate(-1.01 -1.74)" style="fill:none;stroke:#000;stroke-linecap:round;stroke-linejoin:round;stroke-width:2px"/><path d="M96.5,529.75c-1.72-1.42-3.63-.64-5.5-.52-.59,0-.83.17-.76.77,0,.36-.07.76.51.75,2,0,4,1.15,5.75-.75" transform="translate(-1.01 -1.74)" style="fill:none;stroke:#000;stroke-linecap:round;stroke-linejoin:round;stroke-width:2px"/><path d="M114.5,530.25c1.73,1.29,3.63.7,5.5.52.59,0,.83-.17.76-.77,0-.36.07-.75-.51-.75-2,0-4.06-1.22-5.75.75" transform="translate(-1.01 -1.74)" style="fill:none;stroke:#000;stroke-linecap:round;stroke-linejoin:round;stroke-width:2px"/><path d="M82,302c-.94-1.33-2.33-.71-3.5-.67-.5,0-1.47.34-1.09,1.69.45,1.57,1.42,1.73,2.59,1.7s2,.56,2,1.78-.93,1.74-2.21,1.79a3.4,3.4,0,0,1-2.5-1" transform="translate(-1.01 -1.74)" style="fill:none;stroke:#000;stroke-linecap:round;stroke-linejoin:round;stroke-width:2px"/><path d="M114.25,308.25c-.36-1.65-2.18-3-.56-5.05a1.18,1.18,0,0,0-1.18-1.88c-1.11.11-3-1.15-3.23,1.18-.16,1.9,0,3.83,0,5.75" transform="translate(-1.01 -1.74)" style="fill:none;stroke:#000;stroke-linecap:round;stroke-linejoin:round;stroke-width:2px"/><path d="M207,525.25a10.4,10.4,0,0,1-6.75,5.75" transform="translate(-1.01 -1.74)" style="fill:none;stroke:#000;stroke-linecap:round;stroke-linejoin:round;stroke-width:2px"/><path d="M4,525.25A10.4,10.4,0,0,0,10.75,531" transform="translate(-1.01 -1.74)" style="fill:none;stroke:#000;stroke-linecap:round;stroke-linejoin:round;stroke-width:2px"/><path d="M10.75,7c-3.26.59-5,3-6.75,5.5" transform="translate(-1.01 -1.74)" style="fill:none;stroke:#000;stroke-linecap:round;stroke-linejoin:round;stroke-width:2px"/><path d="M85.5,304.75c-.61,3.23-.39,3.5,2.75,3.5h2" transform="translate(-1.01 -1.74)" style="fill:none;stroke:#000;stroke-linecap:round;stroke-linejoin:round;stroke-width:2px"/><path d="M106.25,301.25c-.53,1.31-.08,2.67-.26,4s-.48,2.43-2.24,2.54-2.48-.91-2.71-2.3a26.53,26.53,0,0,1,0-4" transform="translate(-1.01 -1.74)" style="fill:none;stroke:#000;stroke-linecap:round;stroke-linejoin:round;stroke-width:2px"/><path d="M207,12.5c-1.71-2.49-3.43-5-6.75-5.5" transform="translate(-1.01 -1.74)" style="fill:none;stroke:#000;stroke-linecap:round;stroke-linejoin:round;stroke-width:2px"/><path d="M90.25,301.25h-3c-1,0-2.13-.27-2,1.5.08,1.47.57,2.13,2,2,.66-.05,1.33,0,2,0" transform="translate(-1.01 -1.74)" style="fill:none;stroke:#000;stroke-linecap:round;stroke-linejoin:round;stroke-width:2px"/><path d="M117.75,301.25v7" transform="translate(-1.01 -1.74)" style="fill:none;stroke:#000;stroke-linecap:round;stroke-linejoin:round;stroke-width:2px"/><path d="M122.75,301.75v6.5" transform="translate(-1.01 -1.74)" style="fill:none;stroke:#000;stroke-linecap:round;stroke-linejoin:round;stroke-width:2px"/><path d="M127.25,301c1.9.44,2,2.7,3.5,3.5" transform="translate(-1.01 -1.74)" style="fill:none;stroke:#000;stroke-linecap:round;stroke-linejoin:round;stroke-width:2px"/><path d="M114.5,270.75h4.75" transform="translate(-1.01 -1.74)" style="fill:none;stroke:#000;stroke-linecap:round;stroke-linejoin:round;stroke-width:2px"/><path d="M133.25,301.25c-1.76,2-3,4.18-2.5,7" transform="translate(-1.01 -1.74)" style="fill:none;stroke:#000;stroke-linecap:round;stroke-linejoin:round;stroke-width:2px"/><path d="M119.75,301c1.81.53,3.66.22,5.5.25" transform="translate(-1.01 -1.74)" style="fill:none;stroke:#000;stroke-linecap:round;stroke-linejoin:round;stroke-width:2px"/><path d="M103.75,226.75c-5,2.5-4.9,7-2,9.75a6.45,6.45,0,0,0,6.5.75c2-1.17,3.61-4.17,3-6-1.06-3-3-5-5.47-4.53a8.51,8.51,0,0,1-1.75,0" transform="translate(-1.01 -1.74)" style="fill:none;stroke:#000;stroke-linecap:round;stroke-linejoin:round;stroke-width:2px"/><path d="M104.25,97.25c-4.4.49-8.8.94-13,2.49-12.31,4.56-21.07,12.72-26,25-4.85,12-4.41,23.93,1.19,35.18,6.13,12.33,16.22,20.53,30.09,23.32,15.59,3.13,29.11-1,40.2-12.29,9-9.13,12.86-20.3,12.09-33.2-1.06-17.81-13.43-32.85-29.55-38.23a49.31,49.31,0,0,0-14.74-2.27" transform="translate(-1.01 -1.74)" style="fill:none;stroke:#000;stroke-linecap:round;stroke-linejoin:round;stroke-width:3px"/><path d="M101.75,85.5c-5,.6-10.07,1.24-14.72,3.08C68.47,95.94,56,109.1,51.6,128.77c-3.86,17.14-.08,32.89,10.91,46.72a52.82,52.82,0,0,0,34,19.89c16,2.5,30.69-1.18,43.47-11.4A55.13,55.13,0,0,0,150,108a53.81,53.81,0,0,0-27.22-19.76A58.74,58.74,0,0,0,102,85.5" transform="translate(-1.01 -1.74)" style="fill:none;stroke:#000;stroke-linecap:round;stroke-linejoin:round;stroke-width:3px"/><path d="M105,72.5a2.18,2.18,0,0,0-1.74,2.5A1.86,1.86,0,0,0,105,76.74a2.31,2.31,0,0,0,2.51-1c.87-1.32-.11-2.76-2.26-3.25" transform="translate(-1.01 -1.74)" style="fill:none;stroke:#000;stroke-linecap:round;stroke-linejoin:round;stroke-width:2px"/><path d="M99,350.25c-3.57.91-7.22,1.37-10.76,2.46-16.07,5-27.55,15.36-35.18,30.07A50.91,50.91,0,0,0,47.74,401c-2.7,25.49,7.67,44.66,28.84,58.13,6.87,4.36,14.88,6.33,23.16,7.23a57.38,57.38,0,0,0,25.74-3.18c12.59-4.46,22.29-12.73,29.52-23.93a57.53,57.53,0,0,0,8.17-21.51,54.78,54.78,0,0,0-.47-21.23A58.32,58.32,0,0,0,137,359.28a56.45,56.45,0,0,0-23.47-8.6c-4.77-.68-9.51-.18-14.26-.43" transform="translate(-1.01 -1.74)" style="fill:none;stroke:#000;stroke-linecap:round;stroke-linejoin:round;stroke-width:3px"/><path d="M79.5,529c-.36.4-1.3-.09-1.29,1s.83.55,1.28.76c1.15.53,2.35.2,3.51.18.37,0,1.34.15,1.28-.94s-.55-1-1.28-1c-1.08,0-2.17,0-3.25,0" transform="translate(-1.01 -1.74)" style="fill:none;stroke:#000;stroke-linecap:round;stroke-linejoin:round;stroke-width:2px"/><path d="M103.5,529c-.93.58-2,1.17,0,1.75a7.25,7.25,0,0,0,4,0c.47-.12,1,0,1-.76a1,1,0,0,0-1-1c-1.25-.08-2.5,0-3.75,0" transform="translate(-1.01 -1.74)" style="fill:none;stroke:#000;stroke-linecap:round;stroke-linejoin:round;stroke-width:2px"/><path d="M127.5,529c-1,.14-.92,1-.7,1.48.33.76,5.58.75,5.9,0,.16-.37.43-1.09-.69-1.3-1.44-.27-2.85,0-4.26-.18" transform="translate(-1.01 -1.74)" style="fill:none;stroke:#000;stroke-linecap:round;stroke-linejoin:round;stroke-width:2px"/><path d="M99.25,354c-3.92,1-7.92,1.55-11.77,2.95-17.61,6.46-29,18.71-34.48,36.55a49.54,49.54,0,0,0-1.92,19.74c1.53,14.7,7.78,27.13,19.18,36.75a51.18,51.18,0,0,0,23.48,11.55,58.13,58.13,0,0,0,17,1.06c13.7-1.3,25-7.08,34.49-16.85a50.93,50.93,0,0,0,14.14-28.52c2.47-17-1.73-32.21-13.34-45.27-7.72-8.68-17.3-14-28.32-16.89-5.93-1.55-12.12-1.15-18.23-1.07" transform="translate(-1.01 -1.74)" style="fill:none;stroke:#000;stroke-linecap:round;stroke-linejoin:round;stroke-width:2px"/></svg>